%FSLAX43Y43*%
%MOMM*%
G71*
G01*
G75*
G04 Layer_Color=8421504*
%ADD10R,2.950X1.050*%
%ADD11R,9.000X10.600*%
%ADD12R,3.000X2.800*%
%ADD13R,1.050X1.400*%
%ADD14R,0.950X1.400*%
%ADD15O,0.350X2.100*%
%ADD16R,1.016X1.270*%
%ADD17R,1.270X1.016*%
%ADD18R,1.400X0.950*%
%ADD19R,1.550X0.600*%
%ADD20O,1.800X0.300*%
%ADD21O,0.300X1.800*%
%ADD22R,6.096X1.200*%
%ADD23O,2.200X0.600*%
%ADD24R,0.600X1.550*%
%ADD25R,2.200X1.800*%
%ADD26R,1.300X0.600*%
%ADD27R,4.100X1.520*%
%ADD28R,0.610X2.032*%
%ADD29O,0.610X2.032*%
%ADD30C,0.300*%
%ADD31C,0.250*%
%ADD32C,0.500*%
%ADD33C,0.400*%
%ADD34C,0.254*%
%ADD35C,1.000*%
%ADD36C,2.000*%
%ADD37C,3.000*%
%ADD38C,0.800*%
%ADD39C,0.127*%
%ADD40C,1.900*%
%ADD41C,1.500*%
%ADD42C,1.500*%
%ADD43R,1.500X1.500*%
G04:AMPARAMS|DCode=44|XSize=1.778mm|YSize=2.54mm|CornerRadius=0.445mm|HoleSize=0mm|Usage=FLASHONLY|Rotation=180.000|XOffset=0mm|YOffset=0mm|HoleType=Round|Shape=RoundedRectangle|*
%AMROUNDEDRECTD44*
21,1,1.778,1.651,0,0,180.0*
21,1,0.889,2.540,0,0,180.0*
1,1,0.889,-0.445,0.826*
1,1,0.889,0.445,0.826*
1,1,0.889,0.445,-0.826*
1,1,0.889,-0.445,-0.826*
%
%ADD44ROUNDEDRECTD44*%
%ADD45C,2.300*%
%ADD46C,2.032*%
%ADD47R,1.524X1.524*%
%ADD48C,2.100*%
%ADD49R,1.500X1.500*%
%ADD50R,2.000X2.000*%
%ADD51C,2.000*%
%ADD52R,1.500X1.500*%
%ADD53C,2.200*%
%ADD54C,1.524*%
%ADD55C,1.600*%
%ADD56R,1.600X1.600*%
%ADD57C,1.700*%
%ADD58C,1.270*%
%ADD59C,1.000*%
%ADD60C,1.500*%
%ADD61C,0.200*%
%ADD62C,0.600*%
%ADD63C,0.178*%
%ADD64C,0.203*%
%ADD65C,0.152*%
%ADD66C,0.150*%
%ADD67R,0.965X2.134*%
G36*
X25855Y82931D02*
X24495D01*
Y84331D01*
X25855D01*
Y82931D01*
D02*
G37*
G36*
X23775D02*
X22415D01*
Y84331D01*
X23775D01*
Y82931D01*
D02*
G37*
G36*
X27935D02*
X26575D01*
Y84331D01*
X27935D01*
Y82931D01*
D02*
G37*
G36*
X23775Y84931D02*
X22415D01*
Y86331D01*
X23775D01*
Y84931D01*
D02*
G37*
G36*
X21695D02*
X20335D01*
Y86331D01*
X21695D01*
Y84931D01*
D02*
G37*
G36*
X23775Y80931D02*
X22415D01*
Y82331D01*
X23775D01*
Y80931D01*
D02*
G37*
G36*
X21695D02*
X20335D01*
Y82331D01*
X21695D01*
Y80931D01*
D02*
G37*
G36*
X25855D02*
X24495D01*
Y82331D01*
X25855D01*
Y80931D01*
D02*
G37*
G36*
X21695Y82931D02*
X20335D01*
Y84331D01*
X21695D01*
Y82931D01*
D02*
G37*
G36*
X27935Y80931D02*
X26575D01*
Y82331D01*
X27935D01*
Y80931D01*
D02*
G37*
G36*
X21695Y88931D02*
X20335D01*
Y90331D01*
X21695D01*
Y88931D01*
D02*
G37*
G36*
X27935Y86931D02*
X26575D01*
Y88331D01*
X27935D01*
Y86931D01*
D02*
G37*
G36*
X23775Y88931D02*
X22415D01*
Y90331D01*
X23775D01*
Y88931D01*
D02*
G37*
G36*
X27935D02*
X26575D01*
Y90331D01*
X27935D01*
Y88931D01*
D02*
G37*
G36*
X25855D02*
X24495D01*
Y90331D01*
X25855D01*
Y88931D01*
D02*
G37*
G36*
X27935Y84931D02*
X26575D01*
Y86331D01*
X27935D01*
Y84931D01*
D02*
G37*
G36*
X25855D02*
X24495D01*
Y86331D01*
X25855D01*
Y84931D01*
D02*
G37*
G36*
X21695Y86931D02*
X20335D01*
Y88331D01*
X21695D01*
Y86931D01*
D02*
G37*
G36*
X25855D02*
X24495D01*
Y88331D01*
X25855D01*
Y86931D01*
D02*
G37*
G36*
X23775D02*
X22415D01*
Y88331D01*
X23775D01*
Y86931D01*
D02*
G37*
D10*
X33685Y82231D02*
D03*
Y83931D02*
D03*
Y85631D02*
D03*
Y87331D02*
D03*
Y89031D02*
D03*
D11*
X24135Y85631D02*
D03*
D12*
X47889Y94140D02*
D03*
X58189D02*
D03*
D13*
X38953Y81948D02*
D03*
X37153D02*
D03*
X103770Y66294D02*
D03*
X101970D02*
D03*
X98033D02*
D03*
X99833D02*
D03*
D14*
X127191Y86520D02*
D03*
X125191D02*
D03*
X132271Y87917D02*
D03*
X130271D02*
D03*
X114364Y46007D02*
D03*
X112364D02*
D03*
X114237Y43848D02*
D03*
X112237D02*
D03*
X133922Y33815D02*
D03*
X131922D02*
D03*
D15*
X128951Y75323D02*
D03*
X129601D02*
D03*
X130251D02*
D03*
X130901D02*
D03*
X131551D02*
D03*
X132201D02*
D03*
X132851D02*
D03*
X133501D02*
D03*
X134151D02*
D03*
X134801D02*
D03*
X135451D02*
D03*
X136101D02*
D03*
X136751D02*
D03*
X137401D02*
D03*
X128951Y82223D02*
D03*
X129601D02*
D03*
X130251D02*
D03*
X130901D02*
D03*
X131551D02*
D03*
X132201D02*
D03*
X132851D02*
D03*
X133501D02*
D03*
X134151D02*
D03*
X134801D02*
D03*
X135451D02*
D03*
X136101D02*
D03*
X136751D02*
D03*
X137401D02*
D03*
D16*
X114380Y48039D02*
D03*
X112348D02*
D03*
X114380Y50198D02*
D03*
X112348D02*
D03*
X121492Y58834D02*
D03*
X119460D02*
D03*
X89234Y85758D02*
D03*
X91266D02*
D03*
X106125Y85885D02*
D03*
X108157D02*
D03*
X81360Y83980D02*
D03*
X79328D02*
D03*
X77296Y75725D02*
D03*
X79328D02*
D03*
X9732Y61247D02*
D03*
X7700D02*
D03*
X9986Y48293D02*
D03*
X7954D02*
D03*
X9986Y74328D02*
D03*
X7954D02*
D03*
X22940Y48166D02*
D03*
X20908D02*
D03*
X23067Y61247D02*
D03*
X21035D02*
D03*
X23067Y74328D02*
D03*
X21035D02*
D03*
X35259Y61247D02*
D03*
X33227D02*
D03*
X35259Y48039D02*
D03*
X33227D02*
D03*
X65485Y18321D02*
D03*
X63453D02*
D03*
X65485Y21496D02*
D03*
X63453D02*
D03*
X65485Y9939D02*
D03*
X63453D02*
D03*
X65485Y13114D02*
D03*
X63453D02*
D03*
X65405Y35306D02*
D03*
X63373D02*
D03*
X65485Y38514D02*
D03*
X63453D02*
D03*
X65532Y26797D02*
D03*
X63500D02*
D03*
X65485Y29878D02*
D03*
X63453D02*
D03*
X85932Y37117D02*
D03*
X83900D02*
D03*
X85932Y19972D02*
D03*
X83900D02*
D03*
X96981Y22385D02*
D03*
X99013D02*
D03*
X85932Y40292D02*
D03*
X83900D02*
D03*
X85932Y23020D02*
D03*
X83900D02*
D03*
X85932Y28354D02*
D03*
X83900D02*
D03*
X85932Y11336D02*
D03*
X83900D02*
D03*
X99521Y20480D02*
D03*
X101553D02*
D03*
X85932Y31529D02*
D03*
X83900D02*
D03*
X85932Y14511D02*
D03*
X83900D02*
D03*
X105617Y44610D02*
D03*
X103585D02*
D03*
X125810Y48166D02*
D03*
X123778D02*
D03*
X119460D02*
D03*
X121492D02*
D03*
X93044Y44737D02*
D03*
X95076D02*
D03*
X119460Y73312D02*
D03*
X117428D02*
D03*
X113364D02*
D03*
X115396D02*
D03*
X114507Y87917D02*
D03*
X116539D02*
D03*
D17*
X126445Y77757D02*
D03*
Y79789D02*
D03*
X84027Y87790D02*
D03*
Y85758D02*
D03*
X86313Y87790D02*
D03*
Y85758D02*
D03*
X93425Y87917D02*
D03*
Y85885D02*
D03*
X95584D02*
D03*
Y87917D02*
D03*
X83773Y80805D02*
D03*
Y78773D02*
D03*
X102188Y87917D02*
D03*
Y85885D02*
D03*
X112221D02*
D03*
Y87917D02*
D03*
X110062D02*
D03*
Y85885D02*
D03*
X104220Y87917D02*
D03*
Y85885D02*
D03*
X100664Y80551D02*
D03*
Y78519D02*
D03*
X79328Y88044D02*
D03*
Y86012D02*
D03*
Y79662D02*
D03*
Y77630D02*
D03*
X96473Y33561D02*
D03*
Y35593D02*
D03*
X99775Y33561D02*
D03*
Y35593D02*
D03*
X92790Y33561D02*
D03*
Y35593D02*
D03*
X90758Y25814D02*
D03*
Y27846D02*
D03*
X90885Y12606D02*
D03*
Y14638D02*
D03*
X93425Y20988D02*
D03*
Y23020D02*
D03*
X132922Y69248D02*
D03*
Y67216D02*
D03*
X118190Y67470D02*
D03*
Y69502D02*
D03*
X109173Y62136D02*
D03*
Y64168D02*
D03*
X112475Y52357D02*
D03*
Y54389D02*
D03*
X87710Y56294D02*
D03*
Y54262D02*
D03*
D18*
X126318Y11987D02*
D03*
Y13987D02*
D03*
X128350D02*
D03*
Y11987D02*
D03*
X135890Y12478D02*
D03*
Y14478D02*
D03*
X133985Y14462D02*
D03*
Y12462D02*
D03*
X138002Y28211D02*
D03*
Y26211D02*
D03*
Y31894D02*
D03*
Y29894D02*
D03*
X126572Y30751D02*
D03*
Y28751D02*
D03*
D19*
X128952Y32037D02*
D03*
Y30767D02*
D03*
Y29497D02*
D03*
Y28227D02*
D03*
X134352Y32037D02*
D03*
Y30767D02*
D03*
Y29497D02*
D03*
Y28227D02*
D03*
D20*
X106309Y48897D02*
D03*
Y49397D02*
D03*
Y49897D02*
D03*
Y50397D02*
D03*
Y50897D02*
D03*
Y51397D02*
D03*
Y51897D02*
D03*
Y52397D02*
D03*
Y52897D02*
D03*
Y53397D02*
D03*
Y53897D02*
D03*
Y54397D02*
D03*
Y54897D02*
D03*
Y55397D02*
D03*
Y55897D02*
D03*
Y56397D02*
D03*
Y56897D02*
D03*
Y57397D02*
D03*
Y57897D02*
D03*
Y58397D02*
D03*
Y58897D02*
D03*
Y59397D02*
D03*
Y59897D02*
D03*
Y60397D02*
D03*
Y60897D02*
D03*
X91209D02*
D03*
Y60397D02*
D03*
Y59897D02*
D03*
Y59397D02*
D03*
Y58897D02*
D03*
Y58397D02*
D03*
Y57897D02*
D03*
Y57397D02*
D03*
Y56897D02*
D03*
Y56397D02*
D03*
Y55897D02*
D03*
Y55397D02*
D03*
Y54897D02*
D03*
Y54397D02*
D03*
Y53897D02*
D03*
Y53397D02*
D03*
Y52897D02*
D03*
Y52397D02*
D03*
Y51897D02*
D03*
Y51397D02*
D03*
Y50897D02*
D03*
Y50397D02*
D03*
Y49897D02*
D03*
Y49397D02*
D03*
Y48897D02*
D03*
D21*
X104759Y62447D02*
D03*
X104259D02*
D03*
X103759D02*
D03*
X103259D02*
D03*
X102759D02*
D03*
X102259D02*
D03*
X101759D02*
D03*
X101259D02*
D03*
X100759D02*
D03*
X100259D02*
D03*
X99759D02*
D03*
X99259D02*
D03*
X98759D02*
D03*
X98259D02*
D03*
X97759D02*
D03*
X97259D02*
D03*
X96759D02*
D03*
X96259D02*
D03*
X95759D02*
D03*
X95259D02*
D03*
X94759D02*
D03*
X94259D02*
D03*
X93759D02*
D03*
X93259D02*
D03*
X92759D02*
D03*
Y47347D02*
D03*
X93259D02*
D03*
X93759D02*
D03*
X94259D02*
D03*
X94759D02*
D03*
X95259D02*
D03*
X95759D02*
D03*
X96259D02*
D03*
X96759D02*
D03*
X97259D02*
D03*
X97759D02*
D03*
X98259D02*
D03*
X98759D02*
D03*
X99259D02*
D03*
X99759D02*
D03*
X100259D02*
D03*
X100759D02*
D03*
X101259D02*
D03*
X101759D02*
D03*
X102259D02*
D03*
X102759D02*
D03*
X103259D02*
D03*
X103759D02*
D03*
X104259D02*
D03*
X104759D02*
D03*
D22*
X95711Y69629D02*
D03*
X105617D02*
D03*
D23*
X127194Y69375D02*
D03*
Y70645D02*
D03*
Y71915D02*
D03*
Y73185D02*
D03*
X122394Y69375D02*
D03*
Y70645D02*
D03*
Y71915D02*
D03*
Y73185D02*
D03*
D24*
X92917Y12573D02*
D03*
X94187D02*
D03*
X95457D02*
D03*
X96727D02*
D03*
X97997D02*
D03*
X99267D02*
D03*
X100537D02*
D03*
X92917Y17973D02*
D03*
X94187D02*
D03*
X95457D02*
D03*
X96727D02*
D03*
X97997D02*
D03*
X99267D02*
D03*
X100537D02*
D03*
X92663Y25781D02*
D03*
X93933D02*
D03*
X95203D02*
D03*
X96473D02*
D03*
X97743D02*
D03*
X99013D02*
D03*
X100283D02*
D03*
X92663Y31181D02*
D03*
X93933D02*
D03*
X95203D02*
D03*
X96473D02*
D03*
X97743D02*
D03*
X99013D02*
D03*
X100283D02*
D03*
D25*
X132134Y44826D02*
D03*
Y59126D02*
D03*
D26*
X128884Y47226D02*
D03*
Y48226D02*
D03*
Y49226D02*
D03*
Y50226D02*
D03*
Y51226D02*
D03*
Y52226D02*
D03*
Y53226D02*
D03*
Y54226D02*
D03*
Y55226D02*
D03*
Y56226D02*
D03*
D27*
X119270Y62627D02*
D03*
Y64947D02*
D03*
X127270D02*
D03*
Y62627D02*
D03*
D28*
X119587Y81567D02*
D03*
D29*
X117047Y75979D02*
D03*
Y81567D02*
D03*
X118317D02*
D03*
X119587Y75979D02*
D03*
X118317D02*
D03*
X115777Y81567D02*
D03*
Y75979D02*
D03*
M02*
