%FSLAX43Y43*%
%MOMM*%
G71*
G01*
G75*
G04 Layer_Color=32896*
%ADD10R,0.600X1.550*%
%ADD11R,1.016X1.270*%
%ADD12O,0.610X2.032*%
%ADD13R,0.610X2.032*%
%ADD14R,4.100X1.520*%
%ADD15R,1.300X0.600*%
%ADD16R,2.200X1.800*%
%ADD17R,1.270X1.016*%
%ADD18O,2.200X0.600*%
%ADD19R,6.096X1.200*%
%ADD20R,1.050X1.400*%
%ADD21O,0.300X1.800*%
%ADD22O,1.800X0.300*%
%ADD23R,0.950X1.400*%
%ADD24R,1.400X0.950*%
%ADD25R,1.550X0.600*%
%ADD26O,0.350X2.100*%
%ADD27R,3.000X2.800*%
%ADD28R,9.000X10.600*%
%ADD29R,2.950X1.050*%
%ADD30C,1.000*%
%ADD31C,0.500*%
%ADD32C,0.300*%
%ADD33C,2.000*%
%ADD34C,0.400*%
%ADD35C,3.000*%
%ADD36C,0.254*%
%ADD37C,0.127*%
%ADD38C,1.900*%
%ADD39C,2.100*%
%ADD40R,1.524X1.524*%
%ADD41C,2.032*%
%ADD42C,1.700*%
%ADD43R,1.500X1.500*%
%ADD44C,1.500*%
%ADD45C,1.500*%
%ADD46R,1.600X1.600*%
%ADD47C,1.600*%
%ADD48R,1.500X1.500*%
%ADD49C,1.524*%
%ADD50C,2.200*%
%ADD51R,1.500X1.500*%
%ADD52C,2.000*%
%ADD53R,2.000X2.000*%
%ADD54C,2.300*%
G04:AMPARAMS|DCode=55|XSize=1.778mm|YSize=2.54mm|CornerRadius=0.445mm|HoleSize=0mm|Usage=FLASHONLY|Rotation=180.000|XOffset=0mm|YOffset=0mm|HoleType=Round|Shape=RoundedRectangle|*
%AMROUNDEDRECTD55*
21,1,1.778,1.651,0,0,180.0*
21,1,0.889,2.540,0,0,180.0*
1,1,0.889,-0.445,0.826*
1,1,0.889,0.445,0.826*
1,1,0.889,0.445,-0.826*
1,1,0.889,-0.445,-0.826*
%
%ADD55ROUNDEDRECTD55*%
%ADD56C,1.000*%
%ADD57C,1.270*%
%ADD58C,0.250*%
%ADD59C,0.200*%
%ADD60C,0.203*%
%ADD61C,0.178*%
%ADD62C,0.600*%
%ADD63C,0.152*%
%ADD64C,0.150*%
%ADD65R,0.965X2.134*%
%ADD66R,0.803X1.753*%
%ADD67R,1.219X1.473*%
%ADD68O,0.813X2.235*%
%ADD69R,0.813X2.235*%
%ADD70R,4.303X1.723*%
%ADD71R,1.503X0.803*%
%ADD72R,2.403X2.003*%
%ADD73R,1.473X1.219*%
%ADD74O,2.403X0.803*%
%ADD75R,6.299X1.403*%
%ADD76R,1.253X1.603*%
%ADD77O,0.503X2.003*%
%ADD78O,2.003X0.503*%
%ADD79R,1.153X1.603*%
%ADD80R,1.603X1.153*%
%ADD81R,1.753X0.803*%
%ADD82O,0.553X2.303*%
%ADD83R,3.203X3.003*%
%ADD84R,9.203X10.803*%
%ADD85R,3.153X1.253*%
%ADD86C,2.103*%
%ADD87C,2.303*%
%ADD88R,1.727X1.727*%
%ADD89C,2.235*%
%ADD90C,1.903*%
%ADD91R,1.703X1.703*%
%ADD92C,1.703*%
%ADD93C,1.703*%
%ADD94R,1.803X1.803*%
%ADD95C,1.803*%
%ADD96R,1.703X1.703*%
%ADD97C,2.403*%
%ADD98R,1.703X1.703*%
%ADD99C,2.203*%
%ADD100R,2.203X2.203*%
%ADD101C,2.503*%
G04:AMPARAMS|DCode=102|XSize=1.981mm|YSize=2.743mm|CornerRadius=0.546mm|HoleSize=0mm|Usage=FLASHONLY|Rotation=180.000|XOffset=0mm|YOffset=0mm|HoleType=Round|Shape=RoundedRectangle|*
%AMROUNDEDRECTD102*
21,1,1.981,1.651,0,0,180.0*
21,1,0.889,2.743,0,0,180.0*
1,1,1.092,-0.445,0.826*
1,1,1.092,0.445,0.826*
1,1,1.092,0.445,-0.826*
1,1,1.092,-0.445,-0.826*
%
%ADD102ROUNDEDRECTD102*%
%ADD103C,1.203*%
%ADD104C,1.473*%
%ADD105C,0.100*%
D105*
X113745Y62906D02*
Y63406D01*
X114245D01*
X113745D02*
Y63906D01*
X113245Y63406D02*
X113745D01*
Y56556D02*
Y57056D01*
X114245D01*
X113745D02*
Y57556D01*
X113245Y57056D02*
X113745D01*
Y69256D02*
Y69756D01*
X114245D01*
X113745D02*
Y70256D01*
X113245Y69756D02*
X113745D01*
Y66716D02*
Y67216D01*
X114245D01*
X113745D02*
Y67716D01*
X113245Y67216D02*
X113745D01*
Y64176D02*
Y64676D01*
X114245D01*
X113745D02*
Y65176D01*
X113245Y64676D02*
X113745D01*
Y61636D02*
Y62136D01*
X114245D01*
X113745D02*
Y62636D01*
X113245Y62136D02*
X113745D01*
Y59096D02*
Y59596D01*
X114245D01*
X113745D02*
Y60096D01*
X113245Y59596D02*
X113745D01*
X119270Y64947D02*
X119770D01*
X119270D02*
Y65447D01*
X118770Y64947D02*
X119270D01*
Y64447D02*
Y64947D01*
X121320Y64187D02*
Y65707D01*
X117220D02*
X121320D01*
X117220Y64187D02*
Y65707D01*
Y64187D02*
X121320D01*
X119270Y62627D02*
X119770D01*
X119270D02*
Y63127D01*
X118770Y62627D02*
X119270D01*
Y62127D02*
Y62627D01*
X121320Y61867D02*
Y63387D01*
X117220D02*
X121320D01*
X117220Y61867D02*
Y63387D01*
Y61867D02*
X121320D01*
X127270Y64947D02*
X127770D01*
X127270D02*
Y65447D01*
X126770Y64947D02*
X127270D01*
Y64447D02*
Y64947D01*
X129320Y64187D02*
Y65707D01*
X125220D02*
X129320D01*
X125220Y64187D02*
Y65707D01*
Y64187D02*
X129320D01*
X127270Y62627D02*
X127770D01*
X127270D02*
Y63127D01*
X126770Y62627D02*
X127270D01*
Y62127D02*
Y62627D01*
X129320Y61867D02*
Y63387D01*
X125220D02*
X129320D01*
X125220Y61867D02*
Y63387D01*
Y61867D02*
X129320D01*
X123270Y63787D02*
X123770D01*
X123270D02*
Y64287D01*
X122770Y63787D02*
X123270D01*
Y63287D02*
Y63787D01*
X133430Y8669D02*
Y9169D01*
Y8669D02*
X133930D01*
X133430Y8169D02*
Y8669D01*
X132930D02*
X133430D01*
X130890D02*
Y9169D01*
Y8669D02*
X131390D01*
X130890Y8169D02*
Y8669D01*
X130390D02*
X130890D01*
X135970D02*
Y9169D01*
Y8669D02*
X136470D01*
X135970Y8169D02*
Y8669D01*
X135470D02*
X135970D01*
X120730D02*
Y9169D01*
Y8669D02*
X121230D01*
X120730Y8169D02*
Y8669D01*
X120230D02*
X120730D01*
X118190D02*
Y9169D01*
Y8669D02*
X118690D01*
X118190Y8169D02*
Y8669D01*
X117690D02*
X118190D01*
X123270D02*
Y9169D01*
Y8669D02*
X123770D01*
X123270Y8169D02*
Y8669D01*
X122770D02*
X123270D01*
X130255Y90846D02*
Y91346D01*
X129755D02*
X130255D01*
Y91846D01*
Y91346D02*
X130755D01*
X130255Y90846D02*
Y91346D01*
X129755D02*
X130255D01*
Y91846D01*
Y91346D02*
X130755D01*
X135335Y90846D02*
Y91346D01*
X134835D02*
X135335D01*
Y91846D01*
Y91346D02*
X135835D01*
X125175Y90846D02*
Y91346D01*
X124675D02*
X125175D01*
Y91846D01*
Y91346D02*
X125675D01*
X109300Y90846D02*
Y91346D01*
X108800D02*
X109300D01*
Y91846D01*
Y91346D02*
X109800D01*
X111840Y90846D02*
Y91346D01*
X111340D02*
X111840D01*
Y91846D01*
Y91346D02*
X112340D01*
X116920Y90846D02*
Y91346D01*
X116420D02*
X116920D01*
Y91846D01*
Y91346D02*
X117420D01*
X106760Y90846D02*
Y91346D01*
X106260D02*
X106760D01*
Y91846D01*
Y91346D02*
X107260D01*
X101680Y90846D02*
Y91346D01*
X101180D02*
X101680D01*
Y91846D01*
Y91346D02*
X102180D01*
X90123Y90846D02*
Y91346D01*
X89623D02*
X90123D01*
Y91846D01*
Y91346D02*
X90623D01*
X92663Y90846D02*
Y91346D01*
X92163D02*
X92663D01*
Y91846D01*
Y91346D02*
X93163D01*
X87583Y90846D02*
Y91346D01*
X87083D02*
X87583D01*
Y91846D01*
Y91346D02*
X88083D01*
X74248Y90846D02*
Y91346D01*
X73748D02*
X74248D01*
Y91846D01*
Y91346D02*
X74748D01*
X74248Y90846D02*
Y91346D01*
X73748D02*
X74248D01*
Y91846D01*
Y91346D02*
X74748D01*
X79328Y90846D02*
Y91346D01*
X78828D02*
X79328D01*
Y91846D01*
Y91346D02*
X79828D01*
X69168Y90846D02*
Y91346D01*
X68668D02*
X69168D01*
Y91846D01*
Y91346D02*
X69668D01*
X12145Y90846D02*
Y91346D01*
X11645D02*
X12145D01*
Y91846D01*
Y91346D02*
X12645D01*
X14685Y90846D02*
Y91346D01*
X14185D02*
X14685D01*
Y91846D01*
Y91346D02*
X15185D01*
X9605Y90846D02*
Y91346D01*
X9105D02*
X9605D01*
Y91846D01*
Y91346D02*
X10105D01*
X114222Y37885D02*
X115222D01*
X113222D02*
X114222D01*
Y38885D01*
Y36885D02*
Y37885D01*
Y17385D02*
X115222D01*
X113222D02*
X114222D01*
Y18385D01*
Y16385D02*
Y17385D01*
X114253Y22385D02*
X115253D01*
X113253D02*
X114253D01*
Y23385D01*
Y21385D02*
Y22385D01*
X108030Y8669D02*
Y9169D01*
Y8669D02*
X108530D01*
X108030Y8169D02*
Y8669D01*
X107530D02*
X108030D01*
X105490D02*
Y9169D01*
Y8669D02*
X105990D01*
X105490Y8169D02*
Y8669D01*
X104990D02*
X105490D01*
X110570D02*
Y9169D01*
Y8669D02*
X111070D01*
X110570Y8169D02*
Y8669D01*
X110070D02*
X110570D01*
X95330D02*
Y9169D01*
Y8669D02*
X95830D01*
X95330Y8169D02*
Y8669D01*
X94830D02*
X95330D01*
X92790D02*
Y9169D01*
Y8669D02*
X93290D01*
X92790Y8169D02*
Y8669D01*
X92290D02*
X92790D01*
X97870D02*
Y9169D01*
Y8669D02*
X98370D01*
X97870Y8169D02*
Y8669D01*
X97370D02*
X97870D01*
X58189Y94140D02*
Y94640D01*
X57689Y94140D02*
X58189D01*
Y93640D02*
Y94140D01*
X58689D01*
X56689Y95540D02*
X59689D01*
Y92740D02*
Y95540D01*
X56689Y92740D02*
X59689D01*
X56689D02*
Y95540D01*
X47889Y94140D02*
Y94640D01*
X47389Y94140D02*
X47889D01*
Y93640D02*
Y94140D01*
X48389D01*
X46389Y95540D02*
X49389D01*
Y92740D02*
Y95540D01*
X46389Y92740D02*
X49389D01*
X46389D02*
Y95540D01*
X53039Y94140D02*
Y94640D01*
X52539Y94140D02*
X53039D01*
Y93640D02*
Y94140D01*
X53539D01*
X31830Y95283D02*
X32830D01*
X30830D02*
X31830D01*
Y94283D02*
Y95283D01*
Y96283D01*
X41990Y95283D02*
X42990D01*
X40990D02*
X41990D01*
Y94283D02*
Y95283D01*
Y96283D01*
X21670Y95283D02*
X22670D01*
X20670D02*
X21670D01*
Y94283D02*
Y95283D01*
Y96283D01*
X85559Y6637D02*
X86059D01*
Y6137D02*
Y6637D01*
X86559D01*
X86059D02*
Y7137D01*
X85559Y6637D02*
X86059D01*
Y6137D02*
Y6637D01*
X86559D01*
X86059D02*
Y7137D01*
X70319Y6637D02*
X70819D01*
Y6137D02*
Y6637D01*
X71319D01*
X70819D02*
Y7137D01*
X70319Y6637D02*
X70819D01*
Y6137D02*
Y6637D01*
X71319D01*
X70819D02*
Y7137D01*
X74129Y6637D02*
X74629D01*
Y6137D02*
Y6637D01*
X75129D01*
X74629D02*
Y7137D01*
X74129Y6637D02*
X74629D01*
Y6137D02*
Y6637D01*
X75129D01*
X74629D02*
Y7137D01*
X81749Y6637D02*
X82249D01*
Y6137D02*
Y6637D01*
X82749D01*
X82249D02*
Y7137D01*
X81749Y6637D02*
X82249D01*
Y6137D02*
Y6637D01*
X82749D01*
X82249D02*
Y7137D01*
X77939Y6637D02*
X78439D01*
Y6137D02*
Y6637D01*
X78939D01*
X78439D02*
Y7137D01*
X77939Y6637D02*
X78439D01*
Y6137D02*
Y6637D01*
X78939D01*
X78439D02*
Y7137D01*
X64604Y6637D02*
X65104D01*
Y6137D02*
Y6637D01*
X65604D01*
X65104D02*
Y7137D01*
X64604Y6637D02*
X65104D01*
Y6137D02*
Y6637D01*
X65604D01*
X65104D02*
Y7137D01*
X49364Y6637D02*
X49864D01*
Y6137D02*
Y6637D01*
X50364D01*
X49864D02*
Y7137D01*
X49364Y6637D02*
X49864D01*
Y6137D02*
Y6637D01*
X50364D01*
X49864D02*
Y7137D01*
X53174Y6637D02*
X53674D01*
Y6137D02*
Y6637D01*
X54174D01*
X53674D02*
Y7137D01*
X53174Y6637D02*
X53674D01*
Y6137D02*
Y6637D01*
X54174D01*
X53674D02*
Y7137D01*
X60794Y6637D02*
X61294D01*
Y6137D02*
Y6637D01*
X61794D01*
X61294D02*
Y7137D01*
X60794Y6637D02*
X61294D01*
Y6137D02*
Y6637D01*
X61794D01*
X61294D02*
Y7137D01*
X56984Y6637D02*
X57484D01*
Y6137D02*
Y6637D01*
X57984D01*
X57484D02*
Y7137D01*
X56984Y6637D02*
X57484D01*
Y6137D02*
Y6637D01*
X57984D01*
X57484D02*
Y7137D01*
X43649Y6637D02*
X44149D01*
Y6137D02*
Y6637D01*
X44649D01*
X44149D02*
Y7137D01*
X43649Y6637D02*
X44149D01*
Y6137D02*
Y6637D01*
X44649D01*
X44149D02*
Y7137D01*
X28409Y6637D02*
X28909D01*
Y6137D02*
Y6637D01*
X29409D01*
X28909D02*
Y7137D01*
X28409Y6637D02*
X28909D01*
Y6137D02*
Y6637D01*
X29409D01*
X28909D02*
Y7137D01*
X32219Y6637D02*
X32719D01*
Y6137D02*
Y6637D01*
X33219D01*
X32719D02*
Y7137D01*
X32219Y6637D02*
X32719D01*
Y6137D02*
Y6637D01*
X33219D01*
X32719D02*
Y7137D01*
X39839Y6637D02*
X40339D01*
Y6137D02*
Y6637D01*
X40839D01*
X40339D02*
Y7137D01*
X39839Y6637D02*
X40339D01*
Y6137D02*
Y6637D01*
X40839D01*
X40339D02*
Y7137D01*
X36029Y6637D02*
X36529D01*
Y6137D02*
Y6637D01*
X37029D01*
X36529D02*
Y7137D01*
X36029Y6637D02*
X36529D01*
Y6137D02*
Y6637D01*
X37029D01*
X36529D02*
Y7137D01*
X22694Y6637D02*
X23194D01*
Y6137D02*
Y6637D01*
X23694D01*
X23194D02*
Y7137D01*
X22694Y6637D02*
X23194D01*
Y6137D02*
Y6637D01*
X23694D01*
X23194D02*
Y7137D01*
X7454Y6637D02*
X7954D01*
Y6137D02*
Y6637D01*
X8454D01*
X7954D02*
Y7137D01*
X7454Y6637D02*
X7954D01*
Y6137D02*
Y6637D01*
X8454D01*
X7954D02*
Y7137D01*
X11264Y6637D02*
X11764D01*
Y6137D02*
Y6637D01*
X12264D01*
X11764D02*
Y7137D01*
X11264Y6637D02*
X11764D01*
Y6137D02*
Y6637D01*
X12264D01*
X11764D02*
Y7137D01*
X18884Y6637D02*
X19384D01*
Y6137D02*
Y6637D01*
X19884D01*
X19384D02*
Y7137D01*
X18884Y6637D02*
X19384D01*
Y6137D02*
Y6637D01*
X19884D01*
X19384D02*
Y7137D01*
X15074Y6637D02*
X15574D01*
Y6137D02*
Y6637D01*
X16074D01*
X15574D02*
Y7137D01*
X15074Y6637D02*
X15574D01*
Y6137D02*
Y6637D01*
X16074D01*
X15574D02*
Y7137D01*
M02*
