%FSLAX43Y43*%
%MOMM*%
G71*
G01*
G75*
G04 Layer_Color=2752767*
%ADD10R,0.600X1.550*%
%ADD11R,1.016X1.270*%
%ADD12O,0.610X2.032*%
%ADD13R,0.610X2.032*%
%ADD14R,4.100X1.520*%
%ADD15R,1.300X0.600*%
%ADD16R,2.200X1.800*%
%ADD17R,1.270X1.016*%
%ADD18O,2.200X0.600*%
%ADD19R,6.096X1.200*%
%ADD20R,1.050X1.400*%
%ADD21O,0.300X1.800*%
%ADD22O,1.800X0.300*%
%ADD23R,0.950X1.400*%
%ADD24R,1.400X0.950*%
%ADD25R,1.550X0.600*%
%ADD26O,0.350X2.100*%
%ADD27R,3.000X2.800*%
%ADD28R,9.000X10.600*%
%ADD29R,2.950X1.050*%
%ADD30C,1.000*%
%ADD31C,0.500*%
%ADD32C,0.300*%
%ADD33C,2.000*%
%ADD34C,0.400*%
%ADD35C,3.000*%
%ADD36C,0.254*%
%ADD37C,0.127*%
%ADD38C,1.900*%
%ADD39C,2.100*%
%ADD40R,1.524X1.524*%
%ADD41C,2.032*%
%ADD42C,1.700*%
%ADD43R,1.500X1.500*%
%ADD44C,1.500*%
%ADD45C,1.500*%
%ADD46R,1.600X1.600*%
%ADD47C,1.600*%
%ADD48R,1.500X1.500*%
%ADD49C,1.524*%
%ADD50C,2.200*%
%ADD51R,1.500X1.500*%
%ADD52C,2.000*%
%ADD53R,2.000X2.000*%
%ADD54C,2.300*%
G04:AMPARAMS|DCode=55|XSize=1.778mm|YSize=2.54mm|CornerRadius=0.445mm|HoleSize=0mm|Usage=FLASHONLY|Rotation=180.000|XOffset=0mm|YOffset=0mm|HoleType=Round|Shape=RoundedRectangle|*
%AMROUNDEDRECTD55*
21,1,1.778,1.651,0,0,180.0*
21,1,0.889,2.540,0,0,180.0*
1,1,0.889,-0.445,0.826*
1,1,0.889,0.445,0.826*
1,1,0.889,0.445,-0.826*
1,1,0.889,-0.445,-0.826*
%
%ADD55ROUNDEDRECTD55*%
%ADD56C,1.000*%
%ADD57C,1.270*%
%ADD58C,0.250*%
%ADD59C,0.200*%
%ADD60C,0.203*%
%ADD61C,0.178*%
%ADD62C,0.600*%
%ADD63C,0.152*%
%ADD64C,0.150*%
%ADD65R,0.965X2.134*%
%ADD66R,0.803X1.753*%
%ADD67R,1.219X1.473*%
%ADD68O,0.813X2.235*%
%ADD69R,0.813X2.235*%
%ADD70R,4.303X1.723*%
%ADD71R,1.503X0.803*%
%ADD72R,2.403X2.003*%
%ADD73R,1.473X1.219*%
%ADD74O,2.403X0.803*%
%ADD75R,6.299X1.403*%
%ADD76R,1.253X1.603*%
%ADD77O,0.503X2.003*%
%ADD78O,2.003X0.503*%
%ADD79R,1.153X1.603*%
%ADD80R,1.603X1.153*%
%ADD81R,1.753X0.803*%
%ADD82O,0.553X2.303*%
%ADD83R,3.203X3.003*%
%ADD84R,9.203X10.803*%
%ADD85R,3.153X1.253*%
%ADD86C,2.103*%
%ADD87C,2.303*%
%ADD88R,1.727X1.727*%
%ADD89C,2.235*%
%ADD90C,1.903*%
%ADD91R,1.703X1.703*%
%ADD92C,1.703*%
%ADD93C,1.703*%
%ADD94R,1.803X1.803*%
%ADD95C,1.803*%
%ADD96R,1.703X1.703*%
%ADD97C,2.403*%
%ADD98R,1.703X1.703*%
%ADD99C,2.203*%
%ADD100R,2.203X2.203*%
%ADD101C,2.503*%
G04:AMPARAMS|DCode=102|XSize=1.981mm|YSize=2.743mm|CornerRadius=0.546mm|HoleSize=0mm|Usage=FLASHONLY|Rotation=180.000|XOffset=0mm|YOffset=0mm|HoleType=Round|Shape=RoundedRectangle|*
%AMROUNDEDRECTD102*
21,1,1.981,1.651,0,0,180.0*
21,1,0.889,2.743,0,0,180.0*
1,1,1.092,-0.445,0.826*
1,1,1.092,0.445,0.826*
1,1,1.092,0.445,-0.826*
1,1,1.092,-0.445,-0.826*
%
%ADD102ROUNDEDRECTD102*%
%ADD103C,1.203*%
%ADD104C,1.473*%
%ADD105C,0.100*%
%ADD106C,0.050*%
%ADD107C,0.169*%
%ADD108C,0.102*%
D37*
X113237Y56548D02*
Y57564D01*
X114253D01*
Y56548D01*
X113237D01*
Y59088D02*
Y60104D01*
X114253D01*
Y59088D01*
X113237D01*
Y61628D02*
Y62644D01*
X114253D01*
Y61628D01*
X113237D01*
Y64168D02*
Y65184D01*
X114253D01*
Y64168D01*
X113237D01*
Y66708D02*
Y67724D01*
X114253D01*
Y66708D01*
X113237D01*
Y69248D02*
Y70264D01*
X114253D01*
Y69248D01*
X113237D01*
X67390Y31783D02*
X66882Y32799D01*
X67898D01*
X67390Y31783D01*
X57230Y31783D02*
X56722Y32799D01*
X57738D01*
X57230Y31783D01*
X67390Y15019D02*
X66882Y16035D01*
X67898D01*
X67390Y15019D01*
X57230Y15019D02*
X56722Y16035D01*
X57738D01*
X57230Y15019D01*
X48467Y10701D02*
X48721Y10955D01*
X48975D01*
X48721Y11209D01*
X48975Y11463D01*
X48721D01*
X48467Y11717D01*
X48213Y11463D01*
X47959D01*
X48213Y11209D01*
X47959Y10955D01*
X48213D01*
X48467Y10701D01*
Y33561D02*
X48721Y33815D01*
X48975D01*
X48721Y34069D01*
X48975Y34323D01*
X48721D01*
X48467Y34577D01*
X48213Y34323D01*
X47959D01*
X48213Y34069D01*
X47959Y33815D01*
X48213D01*
X48467Y33561D01*
X42625Y10701D02*
X42879Y10955D01*
X43133D01*
X42879Y11209D01*
X43133Y11463D01*
X42879D01*
X42625Y11717D01*
X42371Y11463D01*
X42117D01*
X42371Y11209D01*
X42117Y10955D01*
X42371D01*
X42625Y10701D01*
Y33561D02*
X42879Y33815D01*
X43133D01*
X42879Y34069D01*
X43133Y34323D01*
X42879D01*
X42625Y34577D01*
X42371Y34323D01*
X42117D01*
X42371Y34069D01*
X42117Y33815D01*
X42371D01*
X42625Y33561D01*
X36910Y10701D02*
X37164Y10955D01*
X37418D01*
X37164Y11209D01*
X37418Y11463D01*
X37164D01*
X36910Y11717D01*
X36656Y11463D01*
X36402D01*
X36656Y11209D01*
X36402Y10955D01*
X36656D01*
X36910Y10701D01*
Y33561D02*
X37164Y33815D01*
X37418D01*
X37164Y34069D01*
X37418Y34323D01*
X37164D01*
X36910Y34577D01*
X36656Y34323D01*
X36402D01*
X36656Y34069D01*
X36402Y33815D01*
X36656D01*
X36910Y33561D01*
X31068Y10701D02*
X31322Y10955D01*
X31576D01*
X31322Y11209D01*
X31576Y11463D01*
X31322D01*
X31068Y11717D01*
X30814Y11463D01*
X30560D01*
X30814Y11209D01*
X30560Y10955D01*
X30814D01*
X31068Y10701D01*
Y33561D02*
X31322Y33815D01*
X31576D01*
X31322Y34069D01*
X31576Y34323D01*
X31322D01*
X31068Y34577D01*
X30814Y34323D01*
X30560D01*
X30814Y34069D01*
X30560Y33815D01*
X30814D01*
X31068Y33561D01*
X25226Y10701D02*
X25480Y10955D01*
X25734D01*
X25480Y11209D01*
X25734Y11463D01*
X25480D01*
X25226Y11717D01*
X24972Y11463D01*
X24718D01*
X24972Y11209D01*
X24718Y10955D01*
X24972D01*
X25226Y10701D01*
Y33561D02*
X25480Y33815D01*
X25734D01*
X25480Y34069D01*
X25734Y34323D01*
X25480D01*
X25226Y34577D01*
X24972Y34323D01*
X24718D01*
X24972Y34069D01*
X24718Y33815D01*
X24972D01*
X25226Y33561D01*
X19511Y10701D02*
X19765Y10955D01*
X20019D01*
X19765Y11209D01*
X20019Y11463D01*
X19765D01*
X19511Y11717D01*
X19257Y11463D01*
X19003D01*
X19257Y11209D01*
X19003Y10955D01*
X19257D01*
X19511Y10701D01*
Y33561D02*
X19765Y33815D01*
X20019D01*
X19765Y34069D01*
X20019Y34323D01*
X19765D01*
X19511Y34577D01*
X19257Y34323D01*
X19003D01*
X19257Y34069D01*
X19003Y33815D01*
X19257D01*
X19511Y33561D01*
X13669Y10701D02*
X13923Y10955D01*
X14177D01*
X13923Y11209D01*
X14177Y11463D01*
X13923D01*
X13669Y11717D01*
X13415Y11463D01*
X13161D01*
X13415Y11209D01*
X13161Y10955D01*
X13415D01*
X13669Y10701D01*
Y33561D02*
X13923Y33815D01*
X14177D01*
X13923Y34069D01*
X14177Y34323D01*
X13923D01*
X13669Y34577D01*
X13415Y34323D01*
X13161D01*
X13415Y34069D01*
X13161Y33815D01*
X13415D01*
X13669Y33561D01*
X7827Y10701D02*
X8081Y10955D01*
X8335D01*
X8081Y11209D01*
X8335Y11463D01*
X8081D01*
X7827Y11717D01*
X7573Y11463D01*
X7319D01*
X7573Y11209D01*
X7319Y10955D01*
X7573D01*
X7827Y10701D01*
Y33561D02*
X8081Y33815D01*
X8335D01*
X8081Y34069D01*
X8335Y34323D01*
X8081D01*
X7827Y34577D01*
X7573Y34323D01*
X7319D01*
X7573Y34069D01*
X7319Y33815D01*
X7573D01*
X7827Y33561D01*
X17733Y37879D02*
X17987Y38387D01*
X17733Y38895D01*
X18241Y38641D01*
X18749Y38895D01*
X18495Y38387D01*
X18749Y37879D01*
X18241Y38133D01*
X17733Y37879D01*
X20273D02*
X20527Y38387D01*
X20273Y38895D01*
X20781Y38641D01*
X21289Y38895D01*
X21035Y38387D01*
X21289Y37879D01*
X20781Y38133D01*
X20273Y37879D01*
X22813D02*
X23067Y38387D01*
X22813Y38895D01*
X23321Y38641D01*
X23829Y38895D01*
X23575Y38387D01*
X23829Y37879D01*
X23321Y38133D01*
X22813Y37879D01*
X25353D02*
X25607Y38387D01*
X25353Y38895D01*
X25861Y38641D01*
X26369Y38895D01*
X26115Y38387D01*
X26369Y37879D01*
X25861Y38133D01*
X25353Y37879D01*
X17733Y45499D02*
X17987Y46007D01*
X17733Y46515D01*
X18241Y46261D01*
X18749Y46515D01*
X18495Y46007D01*
X18749Y45499D01*
X18241Y45753D01*
X17733Y45499D01*
X20273D02*
X20527Y46007D01*
X20273Y46515D01*
X20781Y46261D01*
X21289Y46515D01*
X21035Y46007D01*
X21289Y45499D01*
X20781Y45753D01*
X20273Y45499D01*
X22813D02*
X23067Y46007D01*
X22813Y46515D01*
X23321Y46261D01*
X23829Y46515D01*
X23575Y46007D01*
X23829Y45499D01*
X23321Y45753D01*
X22813Y45499D01*
X25353D02*
X25607Y46007D01*
X25353Y46515D01*
X25861Y46261D01*
X26369Y46515D01*
X26115Y46007D01*
X26369Y45499D01*
X25861Y45753D01*
X25353Y45499D01*
X4525Y37879D02*
X4779Y38387D01*
X4525Y38895D01*
X5033Y38641D01*
X5541Y38895D01*
X5287Y38387D01*
X5541Y37879D01*
X5033Y38133D01*
X4525Y37879D01*
X7065D02*
X7319Y38387D01*
X7065Y38895D01*
X7573Y38641D01*
X8081Y38895D01*
X7827Y38387D01*
X8081Y37879D01*
X7573Y38133D01*
X7065Y37879D01*
X9605D02*
X9859Y38387D01*
X9605Y38895D01*
X10113Y38641D01*
X10621Y38895D01*
X10367Y38387D01*
X10621Y37879D01*
X10113Y38133D01*
X9605Y37879D01*
X12145D02*
X12399Y38387D01*
X12145Y38895D01*
X12653Y38641D01*
X13161Y38895D01*
X12907Y38387D01*
X13161Y37879D01*
X12653Y38133D01*
X12145Y37879D01*
X4525Y45499D02*
X4779Y46007D01*
X4525Y46515D01*
X5033Y46261D01*
X5541Y46515D01*
X5287Y46007D01*
X5541Y45499D01*
X5033Y45753D01*
X4525Y45499D01*
X7065D02*
X7319Y46007D01*
X7065Y46515D01*
X7573Y46261D01*
X8081Y46515D01*
X7827Y46007D01*
X8081Y45499D01*
X7573Y45753D01*
X7065Y45499D01*
X9605D02*
X9859Y46007D01*
X9605Y46515D01*
X10113Y46261D01*
X10621Y46515D01*
X10367Y46007D01*
X10621Y45499D01*
X10113Y45753D01*
X9605Y45499D01*
X12145D02*
X12399Y46007D01*
X12145Y46515D01*
X12653Y46261D01*
X13161Y46515D01*
X12907Y46007D01*
X13161Y45499D01*
X12653Y45753D01*
X12145Y45499D01*
X29925Y37879D02*
X30179Y38387D01*
X29925Y38895D01*
X30433Y38641D01*
X30941Y38895D01*
X30687Y38387D01*
X30941Y37879D01*
X30433Y38133D01*
X29925Y37879D01*
X32465D02*
X32719Y38387D01*
X32465Y38895D01*
X32973Y38641D01*
X33481Y38895D01*
X33227Y38387D01*
X33481Y37879D01*
X32973Y38133D01*
X32465Y37879D01*
X35005D02*
X35259Y38387D01*
X35005Y38895D01*
X35513Y38641D01*
X36021Y38895D01*
X35767Y38387D01*
X36021Y37879D01*
X35513Y38133D01*
X35005Y37879D01*
X37545D02*
X37799Y38387D01*
X37545Y38895D01*
X38053Y38641D01*
X38561Y38895D01*
X38307Y38387D01*
X38561Y37879D01*
X38053Y38133D01*
X37545Y37879D01*
X29925Y45499D02*
X30179Y46007D01*
X29925Y46515D01*
X30433Y46261D01*
X30941Y46515D01*
X30687Y46007D01*
X30941Y45499D01*
X30433Y45753D01*
X29925Y45499D01*
X32465D02*
X32719Y46007D01*
X32465Y46515D01*
X32973Y46261D01*
X33481Y46515D01*
X33227Y46007D01*
X33481Y45499D01*
X32973Y45753D01*
X32465Y45499D01*
X35005D02*
X35259Y46007D01*
X35005Y46515D01*
X35513Y46261D01*
X36021Y46515D01*
X35767Y46007D01*
X36021Y45499D01*
X35513Y45753D01*
X35005Y45499D01*
X37545D02*
X37799Y46007D01*
X37545Y46515D01*
X38053Y46261D01*
X38561Y46515D01*
X38307Y46007D01*
X38561Y45499D01*
X38053Y45753D01*
X37545Y45499D01*
X29925Y50960D02*
X30179Y51468D01*
X29925Y51976D01*
X30433Y51722D01*
X30941Y51976D01*
X30687Y51468D01*
X30941Y50960D01*
X30433Y51214D01*
X29925Y50960D01*
X32465D02*
X32719Y51468D01*
X32465Y51976D01*
X32973Y51722D01*
X33481Y51976D01*
X33227Y51468D01*
X33481Y50960D01*
X32973Y51214D01*
X32465Y50960D01*
X35005D02*
X35259Y51468D01*
X35005Y51976D01*
X35513Y51722D01*
X36021Y51976D01*
X35767Y51468D01*
X36021Y50960D01*
X35513Y51214D01*
X35005Y50960D01*
X37545D02*
X37799Y51468D01*
X37545Y51976D01*
X38053Y51722D01*
X38561Y51976D01*
X38307Y51468D01*
X38561Y50960D01*
X38053Y51214D01*
X37545Y50960D01*
X29925Y58580D02*
X30179Y59088D01*
X29925Y59596D01*
X30433Y59342D01*
X30941Y59596D01*
X30687Y59088D01*
X30941Y58580D01*
X30433Y58834D01*
X29925Y58580D01*
X32465D02*
X32719Y59088D01*
X32465Y59596D01*
X32973Y59342D01*
X33481Y59596D01*
X33227Y59088D01*
X33481Y58580D01*
X32973Y58834D01*
X32465Y58580D01*
X35005D02*
X35259Y59088D01*
X35005Y59596D01*
X35513Y59342D01*
X36021Y59596D01*
X35767Y59088D01*
X36021Y58580D01*
X35513Y58834D01*
X35005Y58580D01*
X37545D02*
X37799Y59088D01*
X37545Y59596D01*
X38053Y59342D01*
X38561Y59596D01*
X38307Y59088D01*
X38561Y58580D01*
X38053Y58834D01*
X37545Y58580D01*
X17733Y50960D02*
X17987Y51468D01*
X17733Y51976D01*
X18241Y51722D01*
X18749Y51976D01*
X18495Y51468D01*
X18749Y50960D01*
X18241Y51214D01*
X17733Y50960D01*
X20273D02*
X20527Y51468D01*
X20273Y51976D01*
X20781Y51722D01*
X21289Y51976D01*
X21035Y51468D01*
X21289Y50960D01*
X20781Y51214D01*
X20273Y50960D01*
X22813D02*
X23067Y51468D01*
X22813Y51976D01*
X23321Y51722D01*
X23829Y51976D01*
X23575Y51468D01*
X23829Y50960D01*
X23321Y51214D01*
X22813Y50960D01*
X25353D02*
X25607Y51468D01*
X25353Y51976D01*
X25861Y51722D01*
X26369Y51976D01*
X26115Y51468D01*
X26369Y50960D01*
X25861Y51214D01*
X25353Y50960D01*
X17733Y58580D02*
X17987Y59088D01*
X17733Y59596D01*
X18241Y59342D01*
X18749Y59596D01*
X18495Y59088D01*
X18749Y58580D01*
X18241Y58834D01*
X17733Y58580D01*
X20273D02*
X20527Y59088D01*
X20273Y59596D01*
X20781Y59342D01*
X21289Y59596D01*
X21035Y59088D01*
X21289Y58580D01*
X20781Y58834D01*
X20273Y58580D01*
X22813D02*
X23067Y59088D01*
X22813Y59596D01*
X23321Y59342D01*
X23829Y59596D01*
X23575Y59088D01*
X23829Y58580D01*
X23321Y58834D01*
X22813Y58580D01*
X25353D02*
X25607Y59088D01*
X25353Y59596D01*
X25861Y59342D01*
X26369Y59596D01*
X26115Y59088D01*
X26369Y58580D01*
X25861Y58834D01*
X25353Y58580D01*
X4398Y50960D02*
X4652Y51468D01*
X4398Y51976D01*
X4906Y51722D01*
X5414Y51976D01*
X5160Y51468D01*
X5414Y50960D01*
X4906Y51214D01*
X4398Y50960D01*
X6938D02*
X7192Y51468D01*
X6938Y51976D01*
X7446Y51722D01*
X7954Y51976D01*
X7700Y51468D01*
X7954Y50960D01*
X7446Y51214D01*
X6938Y50960D01*
X9478D02*
X9732Y51468D01*
X9478Y51976D01*
X9986Y51722D01*
X10494Y51976D01*
X10240Y51468D01*
X10494Y50960D01*
X9986Y51214D01*
X9478Y50960D01*
X12018D02*
X12272Y51468D01*
X12018Y51976D01*
X12526Y51722D01*
X13034Y51976D01*
X12780Y51468D01*
X13034Y50960D01*
X12526Y51214D01*
X12018Y50960D01*
X4398Y58580D02*
X4652Y59088D01*
X4398Y59596D01*
X4906Y59342D01*
X5414Y59596D01*
X5160Y59088D01*
X5414Y58580D01*
X4906Y58834D01*
X4398Y58580D01*
X6938D02*
X7192Y59088D01*
X6938Y59596D01*
X7446Y59342D01*
X7954Y59596D01*
X7700Y59088D01*
X7954Y58580D01*
X7446Y58834D01*
X6938Y58580D01*
X9478D02*
X9732Y59088D01*
X9478Y59596D01*
X9986Y59342D01*
X10494Y59596D01*
X10240Y59088D01*
X10494Y58580D01*
X9986Y58834D01*
X9478Y58580D01*
X12018D02*
X12272Y59088D01*
X12018Y59596D01*
X12526Y59342D01*
X13034Y59596D01*
X12780Y59088D01*
X13034Y58580D01*
X12526Y58834D01*
X12018Y58580D01*
X17733Y64168D02*
X17987Y64676D01*
X17733Y65184D01*
X18241Y64930D01*
X18749Y65184D01*
X18495Y64676D01*
X18749Y64168D01*
X18241Y64422D01*
X17733Y64168D01*
X20273D02*
X20527Y64676D01*
X20273Y65184D01*
X20781Y64930D01*
X21289Y65184D01*
X21035Y64676D01*
X21289Y64168D01*
X20781Y64422D01*
X20273Y64168D01*
X22813D02*
X23067Y64676D01*
X22813Y65184D01*
X23321Y64930D01*
X23829Y65184D01*
X23575Y64676D01*
X23829Y64168D01*
X23321Y64422D01*
X22813Y64168D01*
X25353D02*
X25607Y64676D01*
X25353Y65184D01*
X25861Y64930D01*
X26369Y65184D01*
X26115Y64676D01*
X26369Y64168D01*
X25861Y64422D01*
X25353Y64168D01*
X17733Y71788D02*
X17987Y72296D01*
X17733Y72804D01*
X18241Y72550D01*
X18749Y72804D01*
X18495Y72296D01*
X18749Y71788D01*
X18241Y72042D01*
X17733Y71788D01*
X20273D02*
X20527Y72296D01*
X20273Y72804D01*
X20781Y72550D01*
X21289Y72804D01*
X21035Y72296D01*
X21289Y71788D01*
X20781Y72042D01*
X20273Y71788D01*
X22813D02*
X23067Y72296D01*
X22813Y72804D01*
X23321Y72550D01*
X23829Y72804D01*
X23575Y72296D01*
X23829Y71788D01*
X23321Y72042D01*
X22813Y71788D01*
X25353D02*
X25607Y72296D01*
X25353Y72804D01*
X25861Y72550D01*
X26369Y72804D01*
X26115Y72296D01*
X26369Y71788D01*
X25861Y72042D01*
X25353Y71788D01*
X4398Y64168D02*
X4652Y64676D01*
X4398Y65184D01*
X4906Y64930D01*
X5414Y65184D01*
X5160Y64676D01*
X5414Y64168D01*
X4906Y64422D01*
X4398Y64168D01*
X6938D02*
X7192Y64676D01*
X6938Y65184D01*
X7446Y64930D01*
X7954Y65184D01*
X7700Y64676D01*
X7954Y64168D01*
X7446Y64422D01*
X6938Y64168D01*
X9478D02*
X9732Y64676D01*
X9478Y65184D01*
X9986Y64930D01*
X10494Y65184D01*
X10240Y64676D01*
X10494Y64168D01*
X9986Y64422D01*
X9478Y64168D01*
X12018D02*
X12272Y64676D01*
X12018Y65184D01*
X12526Y64930D01*
X13034Y65184D01*
X12780Y64676D01*
X13034Y64168D01*
X12526Y64422D01*
X12018Y64168D01*
X4398Y71788D02*
X4652Y72296D01*
X4398Y72804D01*
X4906Y72550D01*
X5414Y72804D01*
X5160Y72296D01*
X5414Y71788D01*
X4906Y72042D01*
X4398Y71788D01*
X6938D02*
X7192Y72296D01*
X6938Y72804D01*
X7446Y72550D01*
X7954Y72804D01*
X7700Y72296D01*
X7954Y71788D01*
X7446Y72042D01*
X6938Y71788D01*
X9478D02*
X9732Y72296D01*
X9478Y72804D01*
X9986Y72550D01*
X10494Y72804D01*
X10240Y72296D01*
X10494Y71788D01*
X9986Y72042D01*
X9478Y71788D01*
X12018D02*
X12272Y72296D01*
X12018Y72804D01*
X12526Y72550D01*
X13034Y72804D01*
X12780Y72296D01*
X13034Y71788D01*
X12526Y72042D01*
X12018Y71788D01*
X56087Y50833D02*
X56341Y51341D01*
X56087Y51849D01*
X56595Y51595D01*
X57103Y51849D01*
X56849Y51341D01*
X57103Y50833D01*
X56595Y51087D01*
X56087Y50833D01*
X58627D02*
X58881Y51341D01*
X58627Y51849D01*
X59135Y51595D01*
X59643Y51849D01*
X59389Y51341D01*
X59643Y50833D01*
X59135Y51087D01*
X58627Y50833D01*
X61167D02*
X61421Y51341D01*
X61167Y51849D01*
X61675Y51595D01*
X62183Y51849D01*
X61929Y51341D01*
X62183Y50833D01*
X61675Y51087D01*
X61167Y50833D01*
X63707D02*
X63961Y51341D01*
X63707Y51849D01*
X64215Y51595D01*
X64723Y51849D01*
X64469Y51341D01*
X64723Y50833D01*
X64215Y51087D01*
X63707Y50833D01*
X56087Y58453D02*
X56341Y58961D01*
X56087Y59469D01*
X56595Y59215D01*
X57103Y59469D01*
X56849Y58961D01*
X57103Y58453D01*
X56595Y58707D01*
X56087Y58453D01*
X58627D02*
X58881Y58961D01*
X58627Y59469D01*
X59135Y59215D01*
X59643Y59469D01*
X59389Y58961D01*
X59643Y58453D01*
X59135Y58707D01*
X58627Y58453D01*
X61167D02*
X61421Y58961D01*
X61167Y59469D01*
X61675Y59215D01*
X62183Y59469D01*
X61929Y58961D01*
X62183Y58453D01*
X61675Y58707D01*
X61167Y58453D01*
X63707D02*
X63961Y58961D01*
X63707Y59469D01*
X64215Y59215D01*
X64723Y59469D01*
X64469Y58961D01*
X64723Y58453D01*
X64215Y58707D01*
X63707Y58453D01*
X68279Y50833D02*
X68533Y51341D01*
X68279Y51849D01*
X68787Y51595D01*
X69295Y51849D01*
X69041Y51341D01*
X69295Y50833D01*
X68787Y51087D01*
X68279Y50833D01*
X70819D02*
X71073Y51341D01*
X70819Y51849D01*
X71327Y51595D01*
X71835Y51849D01*
X71581Y51341D01*
X71835Y50833D01*
X71327Y51087D01*
X70819Y50833D01*
X73359D02*
X73613Y51341D01*
X73359Y51849D01*
X73867Y51595D01*
X74375Y51849D01*
X74121Y51341D01*
X74375Y50833D01*
X73867Y51087D01*
X73359Y50833D01*
X75899D02*
X76153Y51341D01*
X75899Y51849D01*
X76407Y51595D01*
X76915Y51849D01*
X76661Y51341D01*
X76915Y50833D01*
X76407Y51087D01*
X75899Y50833D01*
X68279Y58453D02*
X68533Y58961D01*
X68279Y59469D01*
X68787Y59215D01*
X69295Y59469D01*
X69041Y58961D01*
X69295Y58453D01*
X68787Y58707D01*
X68279Y58453D01*
X70819D02*
X71073Y58961D01*
X70819Y59469D01*
X71327Y59215D01*
X71835Y59469D01*
X71581Y58961D01*
X71835Y58453D01*
X71327Y58707D01*
X70819Y58453D01*
X73359D02*
X73613Y58961D01*
X73359Y59469D01*
X73867Y59215D01*
X74375Y59469D01*
X74121Y58961D01*
X74375Y58453D01*
X73867Y58707D01*
X73359Y58453D01*
X75899D02*
X76153Y58961D01*
X75899Y59469D01*
X76407Y59215D01*
X76915Y59469D01*
X76661Y58961D01*
X76915Y58453D01*
X76407Y58707D01*
X75899Y58453D01*
X68406Y62898D02*
X68660Y63406D01*
X68406Y63914D01*
X68914Y63660D01*
X69422Y63914D01*
X69168Y63406D01*
X69422Y62898D01*
X68914Y63152D01*
X68406Y62898D01*
X70946D02*
X71200Y63406D01*
X70946Y63914D01*
X71454Y63660D01*
X71962Y63914D01*
X71708Y63406D01*
X71962Y62898D01*
X71454Y63152D01*
X70946Y62898D01*
X73486D02*
X73740Y63406D01*
X73486Y63914D01*
X73994Y63660D01*
X74502Y63914D01*
X74248Y63406D01*
X74502Y62898D01*
X73994Y63152D01*
X73486Y62898D01*
X76026D02*
X76280Y63406D01*
X76026Y63914D01*
X76534Y63660D01*
X77042Y63914D01*
X76788Y63406D01*
X77042Y62898D01*
X76534Y63152D01*
X76026Y62898D01*
X68406Y70518D02*
X68660Y71026D01*
X68406Y71534D01*
X68914Y71280D01*
X69422Y71534D01*
X69168Y71026D01*
X69422Y70518D01*
X68914Y70772D01*
X68406Y70518D01*
X70946D02*
X71200Y71026D01*
X70946Y71534D01*
X71454Y71280D01*
X71962Y71534D01*
X71708Y71026D01*
X71962Y70518D01*
X71454Y70772D01*
X70946Y70518D01*
X73486D02*
X73740Y71026D01*
X73486Y71534D01*
X73994Y71280D01*
X74502Y71534D01*
X74248Y71026D01*
X74502Y70518D01*
X73994Y70772D01*
X73486Y70518D01*
X76026D02*
X76280Y71026D01*
X76026Y71534D01*
X76534Y71280D01*
X77042Y71534D01*
X76788Y71026D01*
X77042Y70518D01*
X76534Y70772D01*
X76026Y70518D01*
X55960Y62771D02*
X56214Y63279D01*
X55960Y63787D01*
X56468Y63533D01*
X56976Y63787D01*
X56722Y63279D01*
X56976Y62771D01*
X56468Y63025D01*
X55960Y62771D01*
X58500D02*
X58754Y63279D01*
X58500Y63787D01*
X59008Y63533D01*
X59516Y63787D01*
X59262Y63279D01*
X59516Y62771D01*
X59008Y63025D01*
X58500Y62771D01*
X61040D02*
X61294Y63279D01*
X61040Y63787D01*
X61548Y63533D01*
X62056Y63787D01*
X61802Y63279D01*
X62056Y62771D01*
X61548Y63025D01*
X61040Y62771D01*
X63580D02*
X63834Y63279D01*
X63580Y63787D01*
X64088Y63533D01*
X64596Y63787D01*
X64342Y63279D01*
X64596Y62771D01*
X64088Y63025D01*
X63580Y62771D01*
X55960Y70391D02*
X56214Y70899D01*
X55960Y71407D01*
X56468Y71153D01*
X56976Y71407D01*
X56722Y70899D01*
X56976Y70391D01*
X56468Y70645D01*
X55960Y70391D01*
X58500D02*
X58754Y70899D01*
X58500Y71407D01*
X59008Y71153D01*
X59516Y71407D01*
X59262Y70899D01*
X59516Y70391D01*
X59008Y70645D01*
X58500Y70391D01*
X61040D02*
X61294Y70899D01*
X61040Y71407D01*
X61548Y71153D01*
X62056Y71407D01*
X61802Y70899D01*
X62056Y70391D01*
X61548Y70645D01*
X61040Y70391D01*
X63580D02*
X63834Y70899D01*
X63580Y71407D01*
X64088Y71153D01*
X64596Y71407D01*
X64342Y70899D01*
X64596Y70391D01*
X64088Y70645D01*
X63580Y70391D01*
X49570Y82837D02*
X49824Y83345D01*
X49570Y83853D01*
X50078Y83599D01*
X50586Y83853D01*
X50332Y83345D01*
X50586Y82837D01*
X50078Y83091D01*
X49570Y82837D01*
X44570D02*
X44824Y83345D01*
X44570Y83853D01*
X45078Y83599D01*
X45586Y83853D01*
X45332Y83345D01*
X45586Y82837D01*
X45078Y83091D01*
X44570Y82837D01*
X9137Y81694D02*
X9391Y82202D01*
X9137Y82710D01*
X9645Y82456D01*
X10153Y82710D01*
X9899Y82202D01*
X10153Y81694D01*
X9645Y81948D01*
X9137Y81694D01*
X14137D02*
X14391Y82202D01*
X14137Y82710D01*
X14645Y82456D01*
X15153Y82710D01*
X14899Y82202D01*
X15153Y81694D01*
X14645Y81948D01*
X14137Y81694D01*
X62865Y96746D02*
Y96492D01*
X63373D01*
Y96746D01*
X63627D01*
Y97254D01*
X63373D01*
Y97508D01*
X62865D01*
Y97254D01*
X62611D01*
Y96746D01*
X62865D01*
X141746D02*
Y96492D01*
X142254D01*
Y96746D01*
X142508D01*
Y97254D01*
X142254D01*
Y97508D01*
X141746D01*
Y97254D01*
X141492D01*
Y96746D01*
X141746D01*
X2746D02*
Y96492D01*
X3254D01*
Y96746D01*
X3508D01*
Y97254D01*
X3254D01*
Y97508D01*
X2746D01*
Y97254D01*
X2492D01*
Y96746D01*
X2746D01*
X141746Y2746D02*
Y2492D01*
X142254D01*
Y2746D01*
X142508D01*
Y3254D01*
X142254D01*
Y3508D01*
X141746D01*
Y3254D01*
X141492D01*
Y2746D01*
X141746D01*
X2746D02*
Y2492D01*
X3254D01*
Y2746D01*
X3508D01*
Y3254D01*
X3254D01*
Y3508D01*
X2746D01*
Y3254D01*
X2492D01*
Y2746D01*
X2746D01*
X113714Y16877D02*
X113968D01*
X114222Y17131D01*
X114476Y16877D01*
X114730D01*
Y17131D01*
X114476Y17385D01*
X114730Y17639D01*
Y17893D01*
X114476D01*
X114222Y17639D01*
X113968Y17893D01*
X113714D01*
Y17639D01*
X113968Y17385D01*
X113714Y17131D01*
Y16877D01*
Y37377D02*
X113968D01*
X114222Y37631D01*
X114476Y37377D01*
X114730D01*
Y37631D01*
X114476Y37885D01*
X114730Y38139D01*
Y38393D01*
X114476D01*
X114222Y38139D01*
X113968Y38393D01*
X113714D01*
Y38139D01*
X113968Y37885D01*
X113714Y37631D01*
Y37377D01*
X102950Y75090D02*
X103204Y75598D01*
X102950Y76106D01*
X103458Y75852D01*
X103966Y76106D01*
X103712Y75598D01*
X103966Y75090D01*
X103458Y75344D01*
X102950Y75090D01*
X105490D02*
X105744Y75598D01*
X105490Y76106D01*
X105998Y75852D01*
X106506Y76106D01*
X106252Y75598D01*
X106506Y75090D01*
X105998Y75344D01*
X105490Y75090D01*
X108030D02*
X108284Y75598D01*
X108030Y76106D01*
X108538Y75852D01*
X109046Y76106D01*
X108792Y75598D01*
X109046Y75090D01*
X108538Y75344D01*
X108030Y75090D01*
X110570D02*
X110824Y75598D01*
X110570Y76106D01*
X111078Y75852D01*
X111586Y76106D01*
X111332Y75598D01*
X111586Y75090D01*
X111078Y75344D01*
X110570Y75090D01*
X102950Y82710D02*
X103204Y83218D01*
X102950Y83726D01*
X103458Y83472D01*
X103966Y83726D01*
X103712Y83218D01*
X103966Y82710D01*
X103458Y82964D01*
X102950Y82710D01*
X105490D02*
X105744Y83218D01*
X105490Y83726D01*
X105998Y83472D01*
X106506Y83726D01*
X106252Y83218D01*
X106506Y82710D01*
X105998Y82964D01*
X105490Y82710D01*
X108030D02*
X108284Y83218D01*
X108030Y83726D01*
X108538Y83472D01*
X109046Y83726D01*
X108792Y83218D01*
X109046Y82710D01*
X108538Y82964D01*
X108030Y82710D01*
X110570D02*
X110824Y83218D01*
X110570Y83726D01*
X111078Y83472D01*
X111586Y83726D01*
X111332Y83218D01*
X111586Y82710D01*
X111078Y82964D01*
X110570Y82710D01*
X76407Y86393D02*
X76661Y86901D01*
X76407Y87409D01*
X76915Y87155D01*
X77423Y87409D01*
X77169Y86901D01*
X77423Y86393D01*
X76915Y86647D01*
X76407Y86393D01*
X73867D02*
X74121Y86901D01*
X73867Y87409D01*
X74375Y87155D01*
X74883Y87409D01*
X74629Y86901D01*
X74883Y86393D01*
X74375Y86647D01*
X73867Y86393D01*
X71327D02*
X71581Y86901D01*
X71327Y87409D01*
X71835Y87155D01*
X72343Y87409D01*
X72089Y86901D01*
X72343Y86393D01*
X71835Y86647D01*
X71327Y86393D01*
X68787D02*
X69041Y86901D01*
X68787Y87409D01*
X69295Y87155D01*
X69803Y87409D01*
X69549Y86901D01*
X69803Y86393D01*
X69295Y86647D01*
X68787Y86393D01*
X66247D02*
X66501Y86901D01*
X66247Y87409D01*
X66755Y87155D01*
X67263Y87409D01*
X67009Y86901D01*
X67263Y86393D01*
X66755Y86647D01*
X66247Y86393D01*
X63707D02*
X63961Y86901D01*
X63707Y87409D01*
X64215Y87155D01*
X64723Y87409D01*
X64469Y86901D01*
X64723Y86393D01*
X64215Y86647D01*
X63707Y86393D01*
X61167D02*
X61421Y86901D01*
X61167Y87409D01*
X61675Y87155D01*
X62183Y87409D01*
X61929Y86901D01*
X62183Y86393D01*
X61675Y86647D01*
X61167Y86393D01*
X58627D02*
X58881Y86901D01*
X58627Y87409D01*
X59135Y87155D01*
X59643Y87409D01*
X59389Y86901D01*
X59643Y86393D01*
X59135Y86647D01*
X58627Y86393D01*
X76407Y78773D02*
X76661Y79281D01*
X76407Y79789D01*
X76915Y79535D01*
X77423Y79789D01*
X77169Y79281D01*
X77423Y78773D01*
X76915Y79027D01*
X76407Y78773D01*
X73867D02*
X74121Y79281D01*
X73867Y79789D01*
X74375Y79535D01*
X74883Y79789D01*
X74629Y79281D01*
X74883Y78773D01*
X74375Y79027D01*
X73867Y78773D01*
X71327D02*
X71581Y79281D01*
X71327Y79789D01*
X71835Y79535D01*
X72343Y79789D01*
X72089Y79281D01*
X72343Y78773D01*
X71835Y79027D01*
X71327Y78773D01*
X68787D02*
X69041Y79281D01*
X68787Y79789D01*
X69295Y79535D01*
X69803Y79789D01*
X69549Y79281D01*
X69803Y78773D01*
X69295Y79027D01*
X68787Y78773D01*
X66247D02*
X66501Y79281D01*
X66247Y79789D01*
X66755Y79535D01*
X67263Y79789D01*
X67009Y79281D01*
X67263Y78773D01*
X66755Y79027D01*
X66247Y78773D01*
X63707D02*
X63961Y79281D01*
X63707Y79789D01*
X64215Y79535D01*
X64723Y79789D01*
X64469Y79281D01*
X64723Y78773D01*
X64215Y79027D01*
X63707Y78773D01*
X61167D02*
X61421Y79281D01*
X61167Y79789D01*
X61675Y79535D01*
X62183Y79789D01*
X61929Y79281D01*
X62183Y78773D01*
X61675Y79027D01*
X61167Y78773D01*
X58627D02*
X58881Y79281D01*
X58627Y79789D01*
X59135Y79535D01*
X59643Y79789D01*
X59389Y79281D01*
X59643Y78773D01*
X59135Y79027D01*
X58627Y78773D01*
X85932Y75344D02*
X86186Y75852D01*
X85932Y76360D01*
X86440Y76106D01*
X86948Y76360D01*
X86694Y75852D01*
X86948Y75344D01*
X86440Y75598D01*
X85932Y75344D01*
X88472D02*
X88726Y75852D01*
X88472Y76360D01*
X88980Y76106D01*
X89488Y76360D01*
X89234Y75852D01*
X89488Y75344D01*
X88980Y75598D01*
X88472Y75344D01*
X91012D02*
X91266Y75852D01*
X91012Y76360D01*
X91520Y76106D01*
X92028Y76360D01*
X91774Y75852D01*
X92028Y75344D01*
X91520Y75598D01*
X91012Y75344D01*
X93552D02*
X93806Y75852D01*
X93552Y76360D01*
X94060Y76106D01*
X94568Y76360D01*
X94314Y75852D01*
X94568Y75344D01*
X94060Y75598D01*
X93552Y75344D01*
X85932Y82964D02*
X86186Y83472D01*
X85932Y83980D01*
X86440Y83726D01*
X86948Y83980D01*
X86694Y83472D01*
X86948Y82964D01*
X86440Y83218D01*
X85932Y82964D01*
X88472D02*
X88726Y83472D01*
X88472Y83980D01*
X88980Y83726D01*
X89488Y83980D01*
X89234Y83472D01*
X89488Y82964D01*
X88980Y83218D01*
X88472Y82964D01*
X91012D02*
X91266Y83472D01*
X91012Y83980D01*
X91520Y83726D01*
X92028Y83980D01*
X91774Y83472D01*
X92028Y82964D01*
X91520Y83218D01*
X91012Y82964D01*
X93552D02*
X93806Y83472D01*
X93552Y83980D01*
X94060Y83726D01*
X94568Y83980D01*
X94314Y83472D01*
X94568Y82964D01*
X94060Y83218D01*
X93552Y82964D01*
X58627Y75344D02*
X59135Y75852D01*
X59643Y75344D01*
X59135Y74836D01*
X58627Y75344D01*
X56087D02*
X56595Y75852D01*
X57103Y75344D01*
X56595Y74836D01*
X56087Y75344D01*
X73613D02*
X74121Y75852D01*
X74629Y75344D01*
X74121Y74836D01*
X73613Y75344D01*
X71073D02*
X71581Y75852D01*
X72089Y75344D01*
X71581Y74836D01*
X71073Y75344D01*
X63580D02*
X64088Y75852D01*
X64596Y75344D01*
X64088Y74836D01*
X63580Y75344D01*
X61040D02*
X61548Y75852D01*
X62056Y75344D01*
X61548Y74836D01*
X61040Y75344D01*
X68660D02*
X69168Y75852D01*
X69676Y75344D01*
X69168Y74836D01*
X68660Y75344D01*
X66120D02*
X66628Y75852D01*
X67136Y75344D01*
X66628Y74836D01*
X66120Y75344D01*
X134192Y40292D02*
Y41308D01*
X135208D01*
Y40292D01*
X134192D01*
X131652D02*
Y41308D01*
X132668D01*
Y40292D01*
X131652D01*
X129112D02*
Y41308D01*
X130128D01*
Y40292D01*
X129112D01*
X122889Y43467D02*
X123397Y43975D01*
X123905Y43467D01*
X123397Y42959D01*
X122889Y43467D01*
Y46007D02*
X123397Y46515D01*
X123905Y46007D01*
X123397Y45499D01*
X122889Y46007D01*
X117555Y41308D02*
X118063Y41816D01*
X118571Y41308D01*
X118063Y40800D01*
X117555Y41308D01*
Y43848D02*
X118063Y44356D01*
X118571Y43848D01*
X118063Y43340D01*
X117555Y43848D01*
X67390Y42070D02*
X66882Y43086D01*
X67898D01*
X67390Y42070D01*
X77550Y42070D02*
X77042Y43086D01*
X78058D01*
X77550Y42070D01*
X67390Y33307D02*
X66882Y34323D01*
X67898D01*
X67390Y33307D01*
X77550Y33307D02*
X77042Y34323D01*
X78058D01*
X77550Y33307D01*
X67390Y24925D02*
X66882Y25941D01*
X67898D01*
X67390Y24925D01*
X77550Y24925D02*
X77042Y25941D01*
X78058D01*
X77550Y24925D01*
X67390Y16543D02*
X66882Y17559D01*
X67898D01*
X67390Y16543D01*
X77550Y16543D02*
X77042Y17559D01*
X78058D01*
X77550Y16543D01*
X67390Y40419D02*
X66882Y41435D01*
X67898D01*
X67390Y40419D01*
X57230Y40419D02*
X56722Y41435D01*
X57738D01*
X57230Y40419D01*
X67390Y23401D02*
X66882Y24417D01*
X67898D01*
X67390Y23401D01*
X57230Y23401D02*
X56722Y24417D01*
X57738D01*
X57230Y23401D01*
X21162Y94775D02*
Y95791D01*
X22178D01*
Y94775D01*
X21162D01*
X21365Y94978D02*
Y95588D01*
X21975D01*
Y94978D01*
X21365D01*
X41482Y94775D02*
Y95791D01*
X42498D01*
Y94775D01*
X41482D01*
X41685Y94978D02*
Y95588D01*
X42295D01*
Y94978D01*
X41685D01*
X70311Y6129D02*
Y7145D01*
X71327D01*
Y6129D01*
X70311D01*
X74121D02*
Y7145D01*
X75137D01*
Y6129D01*
X74121D01*
X77931D02*
Y7145D01*
X78947D01*
Y6129D01*
X77931D01*
X81741D02*
Y7145D01*
X82757D01*
Y6129D01*
X81741D01*
X85551D02*
Y7145D01*
X86567D01*
Y6129D01*
X85551D01*
X77550Y39022D02*
X77042Y40038D01*
X78058D01*
X77550Y39022D01*
X75010D02*
X74502Y40038D01*
X75518D01*
X75010Y39022D01*
X80090D02*
X79582Y40038D01*
X80598D01*
X80090Y39022D01*
X77550Y30259D02*
X77042Y31275D01*
X78058D01*
X77550Y30259D01*
X75010D02*
X74502Y31275D01*
X75518D01*
X75010Y30259D01*
X80090D02*
X79582Y31275D01*
X80598D01*
X80090Y30259D01*
X77550Y21750D02*
X77042Y22766D01*
X78058D01*
X77550Y21750D01*
X75010D02*
X74502Y22766D01*
X75518D01*
X75010Y21750D01*
X80090D02*
X79582Y22766D01*
X80598D01*
X80090Y21750D01*
X77550Y13241D02*
X77042Y14257D01*
X78058D01*
X77550Y13241D01*
X75010D02*
X74502Y14257D01*
X75518D01*
X75010Y13241D01*
X80090D02*
X79582Y14257D01*
X80598D01*
X80090Y13241D01*
X57230Y37244D02*
X56722Y38260D01*
X57738D01*
X57230Y37244D01*
X54690D02*
X54182Y38260D01*
X55198D01*
X54690Y37244D01*
X59770D02*
X59262Y38260D01*
X60278D01*
X59770Y37244D01*
X57230Y28735D02*
X56722Y29751D01*
X57738D01*
X57230Y28735D01*
X54690D02*
X54182Y29751D01*
X55198D01*
X54690Y28735D01*
X59770D02*
X59262Y29751D01*
X60278D01*
X59770Y28735D01*
X57230Y20226D02*
X56722Y21242D01*
X57738D01*
X57230Y20226D01*
X54690D02*
X54182Y21242D01*
X55198D01*
X54690Y20226D01*
X59770D02*
X59262Y21242D01*
X60278D01*
X59770Y20226D01*
X57230Y11971D02*
X56722Y12987D01*
X57738D01*
X57230Y11971D01*
X54690D02*
X54182Y12987D01*
X55198D01*
X54690Y11971D01*
X59770D02*
X59262Y12987D01*
X60278D01*
X59770Y11971D01*
X30052Y64168D02*
X30306Y64676D01*
X30052Y65184D01*
X30560Y64930D01*
X31068Y65184D01*
X30814Y64676D01*
X31068Y64168D01*
X30560Y64422D01*
X30052Y64168D01*
X32592D02*
X32846Y64676D01*
X32592Y65184D01*
X33100Y64930D01*
X33608Y65184D01*
X33354Y64676D01*
X33608Y64168D01*
X33100Y64422D01*
X32592Y64168D01*
X35132D02*
X35386Y64676D01*
X35132Y65184D01*
X35640Y64930D01*
X36148Y65184D01*
X35894Y64676D01*
X36148Y64168D01*
X35640Y64422D01*
X35132Y64168D01*
X37672D02*
X37926Y64676D01*
X37672Y65184D01*
X38180Y64930D01*
X38688Y65184D01*
X38434Y64676D01*
X38688Y64168D01*
X38180Y64422D01*
X37672Y64168D01*
X30052Y71788D02*
X30306Y72296D01*
X30052Y72804D01*
X30560Y72550D01*
X31068Y72804D01*
X30814Y72296D01*
X31068Y71788D01*
X30560Y72042D01*
X30052Y71788D01*
X32592D02*
X32846Y72296D01*
X32592Y72804D01*
X33100Y72550D01*
X33608Y72804D01*
X33354Y72296D01*
X33608Y71788D01*
X33100Y72042D01*
X32592Y71788D01*
X35132D02*
X35386Y72296D01*
X35132Y72804D01*
X35640Y72550D01*
X36148Y72804D01*
X35894Y72296D01*
X36148Y71788D01*
X35640Y72042D01*
X35132Y71788D01*
X37672D02*
X37926Y72296D01*
X37672Y72804D01*
X38180Y72550D01*
X38688Y72804D01*
X38434Y72296D01*
X38688Y71788D01*
X38180Y72042D01*
X37672Y71788D01*
X42117Y37879D02*
X42371Y38387D01*
X42117Y38895D01*
X42625Y38641D01*
X43133Y38895D01*
X42879Y38387D01*
X43133Y37879D01*
X42625Y38133D01*
X42117Y37879D01*
X44657D02*
X44911Y38387D01*
X44657Y38895D01*
X45165Y38641D01*
X45673Y38895D01*
X45419Y38387D01*
X45673Y37879D01*
X45165Y38133D01*
X44657Y37879D01*
X47197D02*
X47451Y38387D01*
X47197Y38895D01*
X47705Y38641D01*
X48213Y38895D01*
X47959Y38387D01*
X48213Y37879D01*
X47705Y38133D01*
X47197Y37879D01*
X49737D02*
X49991Y38387D01*
X49737Y38895D01*
X50245Y38641D01*
X50753Y38895D01*
X50499Y38387D01*
X50753Y37879D01*
X50245Y38133D01*
X49737Y37879D01*
X42117Y45499D02*
X42371Y46007D01*
X42117Y46515D01*
X42625Y46261D01*
X43133Y46515D01*
X42879Y46007D01*
X43133Y45499D01*
X42625Y45753D01*
X42117Y45499D01*
X44657D02*
X44911Y46007D01*
X44657Y46515D01*
X45165Y46261D01*
X45673Y46515D01*
X45419Y46007D01*
X45673Y45499D01*
X45165Y45753D01*
X44657Y45499D01*
X47197D02*
X47451Y46007D01*
X47197Y46515D01*
X47705Y46261D01*
X48213Y46515D01*
X47959Y46007D01*
X48213Y45499D01*
X47705Y45753D01*
X47197Y45499D01*
X49737D02*
X49991Y46007D01*
X49737Y46515D01*
X50245Y46261D01*
X50753Y46515D01*
X50499Y46007D01*
X50753Y45499D01*
X50245Y45753D01*
X49737Y45499D01*
X42117Y64295D02*
X42371Y64803D01*
X42117Y65311D01*
X42625Y65057D01*
X43133Y65311D01*
X42879Y64803D01*
X43133Y64295D01*
X42625Y64549D01*
X42117Y64295D01*
X44657D02*
X44911Y64803D01*
X44657Y65311D01*
X45165Y65057D01*
X45673Y65311D01*
X45419Y64803D01*
X45673Y64295D01*
X45165Y64549D01*
X44657Y64295D01*
X47197D02*
X47451Y64803D01*
X47197Y65311D01*
X47705Y65057D01*
X48213Y65311D01*
X47959Y64803D01*
X48213Y64295D01*
X47705Y64549D01*
X47197Y64295D01*
X49737D02*
X49991Y64803D01*
X49737Y65311D01*
X50245Y65057D01*
X50753Y65311D01*
X50499Y64803D01*
X50753Y64295D01*
X50245Y64549D01*
X49737Y64295D01*
X42117Y71915D02*
X42371Y72423D01*
X42117Y72931D01*
X42625Y72677D01*
X43133Y72931D01*
X42879Y72423D01*
X43133Y71915D01*
X42625Y72169D01*
X42117Y71915D01*
X44657D02*
X44911Y72423D01*
X44657Y72931D01*
X45165Y72677D01*
X45673Y72931D01*
X45419Y72423D01*
X45673Y71915D01*
X45165Y72169D01*
X44657Y71915D01*
X47197D02*
X47451Y72423D01*
X47197Y72931D01*
X47705Y72677D01*
X48213Y72931D01*
X47959Y72423D01*
X48213Y71915D01*
X47705Y72169D01*
X47197Y71915D01*
X49737D02*
X49991Y72423D01*
X49737Y72931D01*
X50245Y72677D01*
X50753Y72931D01*
X50499Y72423D01*
X50753Y71915D01*
X50245Y72169D01*
X49737Y71915D01*
X42244Y51087D02*
X42498Y51595D01*
X42244Y52103D01*
X42752Y51849D01*
X43260Y52103D01*
X43006Y51595D01*
X43260Y51087D01*
X42752Y51341D01*
X42244Y51087D01*
X44784D02*
X45038Y51595D01*
X44784Y52103D01*
X45292Y51849D01*
X45800Y52103D01*
X45546Y51595D01*
X45800Y51087D01*
X45292Y51341D01*
X44784Y51087D01*
X47324D02*
X47578Y51595D01*
X47324Y52103D01*
X47832Y51849D01*
X48340Y52103D01*
X48086Y51595D01*
X48340Y51087D01*
X47832Y51341D01*
X47324Y51087D01*
X49864D02*
X50118Y51595D01*
X49864Y52103D01*
X50372Y51849D01*
X50880Y52103D01*
X50626Y51595D01*
X50880Y51087D01*
X50372Y51341D01*
X49864Y51087D01*
X42244Y58707D02*
X42498Y59215D01*
X42244Y59723D01*
X42752Y59469D01*
X43260Y59723D01*
X43006Y59215D01*
X43260Y58707D01*
X42752Y58961D01*
X42244Y58707D01*
X44784D02*
X45038Y59215D01*
X44784Y59723D01*
X45292Y59469D01*
X45800Y59723D01*
X45546Y59215D01*
X45800Y58707D01*
X45292Y58961D01*
X44784Y58707D01*
X47324D02*
X47578Y59215D01*
X47324Y59723D01*
X47832Y59469D01*
X48340Y59723D01*
X48086Y59215D01*
X48340Y58707D01*
X47832Y58961D01*
X47324Y58707D01*
X49864D02*
X50118Y59215D01*
X49864Y59723D01*
X50372Y59469D01*
X50880Y59723D01*
X50626Y59215D01*
X50880Y58707D01*
X50372Y58961D01*
X49864Y58707D01*
X49356Y6129D02*
Y7145D01*
X50372D01*
Y6129D01*
X49356D01*
X53166D02*
Y7145D01*
X54182D01*
Y6129D01*
X53166D01*
X56976D02*
Y7145D01*
X57992D01*
Y6129D01*
X56976D01*
X60786D02*
Y7145D01*
X61802D01*
Y6129D01*
X60786D01*
X64596D02*
Y7145D01*
X65612D01*
Y6129D01*
X64596D01*
X28401D02*
Y7145D01*
X29417D01*
Y6129D01*
X28401D01*
X32211D02*
Y7145D01*
X33227D01*
Y6129D01*
X32211D01*
X36021D02*
Y7145D01*
X37037D01*
Y6129D01*
X36021D01*
X39831D02*
Y7145D01*
X40847D01*
Y6129D01*
X39831D01*
X43641D02*
Y7145D01*
X44657D01*
Y6129D01*
X43641D01*
X7446D02*
Y7145D01*
X8462D01*
Y6129D01*
X7446D01*
X11256D02*
Y7145D01*
X12272D01*
Y6129D01*
X11256D01*
X15066D02*
Y7145D01*
X16082D01*
Y6129D01*
X15066D01*
X18876D02*
Y7145D01*
X19892D01*
Y6129D01*
X18876D01*
X22686D02*
Y7145D01*
X23702D01*
Y6129D01*
X22686D01*
X101473Y33909D02*
X100965Y34925D01*
X101981D01*
X101473Y33909D01*
Y34112D02*
X101168Y34722D01*
X101778D01*
X101473Y34112D01*
X96012Y49022D02*
X95504Y50038D01*
X96520D01*
X96012Y49022D01*
Y49225D02*
X95707Y49835D01*
X96317D01*
X96012Y49225D01*
X96393Y65913D02*
X95885Y66929D01*
X96901D01*
X96393Y65913D01*
Y66116D02*
X96088Y66726D01*
X96698D01*
X96393Y66116D01*
X87376Y66421D02*
X86868Y67437D01*
X87884D01*
X87376Y66421D01*
Y66624D02*
X87071Y67234D01*
X87681D01*
X87376Y66624D01*
X60198Y32639D02*
X59690Y33655D01*
X60706D01*
X60198Y32639D01*
Y32842D02*
X59893Y33452D01*
X60503D01*
X60198Y32842D01*
X48514Y26543D02*
X48006Y27559D01*
X49022D01*
X48514Y26543D01*
Y26746D02*
X48209Y27356D01*
X48819D01*
X48514Y26746D01*
X80264Y34036D02*
X79756Y35052D01*
X80772D01*
X80264Y34036D01*
Y34239D02*
X79959Y34849D01*
X80569D01*
X80264Y34239D01*
Y25400D02*
X79756Y26416D01*
X80772D01*
X80264Y25400D01*
Y25603D02*
X79959Y26213D01*
X80569D01*
X80264Y25603D01*
X80137Y17018D02*
X79629Y18034D01*
X80645D01*
X80137Y17018D01*
Y17221D02*
X79832Y17831D01*
X80442D01*
X80137Y17221D01*
X54610Y15621D02*
X54102Y16637D01*
X55118D01*
X54610Y15621D01*
Y15824D02*
X54305Y16434D01*
X54915D01*
X54610Y15824D01*
X135128Y72517D02*
X134620Y73533D01*
X135636D01*
X135128Y72517D01*
Y72720D02*
X134823Y73330D01*
X135433D01*
X135128Y72720D01*
X128651Y66802D02*
X128143Y67818D01*
X129159D01*
X128651Y66802D01*
Y67005D02*
X128346Y67615D01*
X128956D01*
X128651Y67005D01*
X121031Y90805D02*
X120523Y91821D01*
X121539D01*
X121031Y90805D01*
Y91008D02*
X120726Y91618D01*
X121336D01*
X121031Y91008D01*
X122047Y81026D02*
X121539Y82042D01*
X122555D01*
X122047Y81026D01*
Y81229D02*
X121742Y81839D01*
X122352D01*
X122047Y81229D01*
X97028Y74295D02*
X96520Y75311D01*
X97536D01*
X97028Y74295D01*
Y74498D02*
X96723Y75108D01*
X97333D01*
X97028Y74498D01*
X25146Y18669D02*
X24638Y19685D01*
X25654D01*
X25146Y18669D01*
Y18872D02*
X24841Y19482D01*
X25451D01*
X25146Y18872D01*
X30353Y22987D02*
X29845Y24003D01*
X30861D01*
X30353Y22987D01*
Y23190D02*
X30048Y23800D01*
X30658D01*
X30353Y23190D01*
X88900Y51943D02*
X88392Y52959D01*
X89408D01*
X88900Y51943D01*
Y52146D02*
X88595Y52756D01*
X89205D01*
X88900Y52146D01*
X114681Y53848D02*
X114173Y54864D01*
X115189D01*
X114681Y53848D01*
Y54051D02*
X114376Y54661D01*
X114986D01*
X114681Y54051D01*
X14986Y71882D02*
X14478Y72898D01*
X15494D01*
X14986Y71882D01*
Y72085D02*
X14681Y72695D01*
X15291D01*
X14986Y72085D01*
X103077Y52230D02*
X102569Y53246D01*
X103585D01*
X103077Y52230D01*
Y52433D02*
X102772Y53043D01*
X103382D01*
X103077Y52433D01*
X102950Y50325D02*
X102442Y51341D01*
X103458D01*
X102950Y50325D01*
Y50528D02*
X102645Y51138D01*
X103255D01*
X102950Y50528D01*
X101426Y49309D02*
X100918Y50325D01*
X101934D01*
X101426Y49309D01*
Y49512D02*
X101121Y50122D01*
X101731D01*
X101426Y49512D01*
X100791Y52230D02*
X100283Y53246D01*
X101299D01*
X100791Y52230D01*
Y52433D02*
X100486Y53043D01*
X101096D01*
X100791Y52433D01*
X100156Y54897D02*
X99648Y55913D01*
X100664D01*
X100156Y54897D01*
Y55100D02*
X99851Y55710D01*
X100461D01*
X100156Y55100D01*
X14812Y41943D02*
X14304Y42959D01*
X15320D01*
X14812Y41943D01*
Y42146D02*
X14507Y42756D01*
X15117D01*
X14812Y42146D01*
X12526Y61628D02*
X12018Y62644D01*
X13034D01*
X12526Y61628D01*
Y61831D02*
X12221Y62441D01*
X12831D01*
X12526Y61831D01*
X14431Y52992D02*
X13923Y54008D01*
X14939D01*
X14431Y52992D01*
Y53195D02*
X14126Y53805D01*
X14736D01*
X14431Y53195D01*
X38053Y61501D02*
X37545Y62517D01*
X38561D01*
X38053Y61501D01*
Y61704D02*
X37748Y62314D01*
X38358D01*
X38053Y61704D01*
X82122Y81440D02*
X81614Y82456D01*
X82630D01*
X82122Y81440D01*
Y81643D02*
X81817Y82253D01*
X82427D01*
X82122Y81643D01*
X82503Y71915D02*
X81995Y72931D01*
X83011D01*
X82503Y71915D01*
Y72118D02*
X82198Y72728D01*
X82808D01*
X82503Y72118D01*
X125937Y51849D02*
X125429Y52865D01*
X126445D01*
X125937Y51849D01*
Y52052D02*
X125632Y52662D01*
X126242D01*
X125937Y52052D01*
X118063Y52357D02*
X117555Y53373D01*
X118571D01*
X118063Y52357D01*
Y52560D02*
X117758Y53170D01*
X118368D01*
X118063Y52560D01*
X109173Y51468D02*
X108665Y52484D01*
X109681D01*
X109173Y51468D01*
Y51671D02*
X108868Y52281D01*
X109478D01*
X109173Y51671D01*
Y60104D02*
X108665Y61120D01*
X109681D01*
X109173Y60104D01*
Y60307D02*
X108868Y60917D01*
X109478D01*
X109173Y60307D01*
X100918Y42578D02*
X100410Y43594D01*
X101426D01*
X100918Y42578D01*
Y42781D02*
X100613Y43391D01*
X101223D01*
X100918Y42781D01*
Y44737D02*
X100410Y45753D01*
X101426D01*
X100918Y44737D01*
Y44940D02*
X100613Y45550D01*
X101223D01*
X100918Y44940D01*
X123778Y23401D02*
X123270Y24417D01*
X124286D01*
X123778Y23401D01*
Y23604D02*
X123473Y24214D01*
X124083D01*
X123778Y23604D01*
X122127Y22258D02*
X121619Y23274D01*
X122635D01*
X122127Y22258D01*
Y22461D02*
X121822Y23071D01*
X122432D01*
X122127Y22461D01*
X106760Y41181D02*
X106252Y42197D01*
X107268D01*
X106760Y41181D01*
Y41384D02*
X106455Y41994D01*
X107065D01*
X106760Y41384D01*
X123270Y58326D02*
X122762Y59342D01*
X123778D01*
X123270Y58326D01*
Y58529D02*
X122965Y59139D01*
X123575D01*
X123270Y58529D01*
X127842Y75852D02*
X127334Y76868D01*
X128350D01*
X127842Y75852D01*
Y76055D02*
X127537Y76665D01*
X128147D01*
X127842Y76055D01*
X139653Y64803D02*
X139145Y65819D01*
X140161D01*
X139653Y64803D01*
Y65006D02*
X139348Y65616D01*
X139958D01*
X139653Y65006D01*
X118190Y50198D02*
X117682Y51214D01*
X118698D01*
X118190Y50198D01*
Y50401D02*
X117885Y51011D01*
X118495D01*
X118190Y50401D01*
X117047Y47531D02*
X116539Y48547D01*
X117555D01*
X117047Y47531D01*
Y47734D02*
X116742Y48344D01*
X117352D01*
X117047Y47734D01*
X138129Y49817D02*
X137621Y50833D01*
X138637D01*
X138129Y49817D01*
Y50020D02*
X137824Y50630D01*
X138434D01*
X138129Y50020D01*
X123270Y49436D02*
X122762Y50452D01*
X123778D01*
X123270Y49436D01*
Y49639D02*
X122965Y50249D01*
X123575D01*
X123270Y49639D01*
X106125Y61882D02*
X105617Y62898D01*
X106633D01*
X106125Y61882D01*
Y62085D02*
X105820Y62695D01*
X106430D01*
X106125Y62085D01*
X138891Y34577D02*
X138383Y35593D01*
X139399D01*
X138891Y34577D01*
Y34780D02*
X138586Y35390D01*
X139196D01*
X138891Y34780D01*
X132795Y25306D02*
X132287Y26322D01*
X133303D01*
X132795Y25306D01*
Y25509D02*
X132490Y26119D01*
X133100D01*
X132795Y25509D01*
X132160Y30259D02*
X131652Y31275D01*
X132668D01*
X132160Y30259D01*
Y30462D02*
X131855Y31072D01*
X132465D01*
X132160Y30462D01*
X128510Y37625D02*
X128002Y38641D01*
X129018D01*
X128510Y37625D01*
Y37828D02*
X128205Y38438D01*
X128815D01*
X128510Y37828D01*
X127207Y33180D02*
X126699Y34196D01*
X127715D01*
X127207Y33180D01*
Y33383D02*
X126902Y33993D01*
X127512D01*
X127207Y33383D01*
X124540Y37498D02*
X124032Y38514D01*
X125048D01*
X124540Y37498D01*
Y37701D02*
X124235Y38311D01*
X124845D01*
X124540Y37701D01*
X131017Y28227D02*
X130509Y29243D01*
X131525D01*
X131017Y28227D01*
Y28430D02*
X130712Y29040D01*
X131322D01*
X131017Y28430D01*
X96092Y50833D02*
X95584Y51849D01*
X96600D01*
X96092Y50833D01*
Y51036D02*
X95787Y51646D01*
X96397D01*
X96092Y51036D01*
X122381Y74328D02*
X121873Y75344D01*
X122889D01*
X122381Y74328D01*
Y74531D02*
X122076Y75141D01*
X122686D01*
X122381Y74531D01*
X114761Y76614D02*
X114253Y77630D01*
X115269D01*
X114761Y76614D01*
Y76817D02*
X114456Y77427D01*
X115066D01*
X114761Y76817D01*
X132795Y52992D02*
X132287Y54008D01*
X133303D01*
X132795Y52992D01*
Y53195D02*
X132490Y53805D01*
X133100D01*
X132795Y53195D01*
X85043Y67851D02*
X84535Y68867D01*
X85551D01*
X85043Y67851D01*
Y68054D02*
X84738Y68664D01*
X85348D01*
X85043Y68054D01*
X108919Y43594D02*
X108411Y44610D01*
X109427D01*
X108919Y43594D01*
Y43797D02*
X108614Y44407D01*
X109224D01*
X108919Y43797D01*
Y46007D02*
X108411Y47023D01*
X109427D01*
X108919Y46007D01*
Y46210D02*
X108614Y46820D01*
X109224D01*
X108919Y46210D01*
X52531Y41181D02*
X52023Y42197D01*
X53039D01*
X52531Y41181D01*
Y41384D02*
X52226Y41994D01*
X52836D01*
X52531Y41384D01*
X102188Y37117D02*
X101680Y38133D01*
X102696D01*
X102188Y37117D01*
Y37320D02*
X101883Y37930D01*
X102493D01*
X102188Y37320D01*
X45292Y31275D02*
X44784Y32291D01*
X45800D01*
X45292Y31275D01*
Y31478D02*
X44987Y32088D01*
X45597D01*
X45292Y31478D01*
X102696Y28862D02*
X102188Y29878D01*
X103204D01*
X102696Y28862D01*
Y29065D02*
X102391Y29675D01*
X103001D01*
X102696Y29065D01*
X92663Y38387D02*
X92155Y39403D01*
X93171D01*
X92663Y38387D01*
Y38590D02*
X92358Y39200D01*
X92968D01*
X92663Y38590D01*
X94441Y34196D02*
X93933Y35212D01*
X94949D01*
X94441Y34196D01*
Y34399D02*
X94136Y35009D01*
X94746D01*
X94441Y34399D01*
X99013Y58707D02*
X98505Y59723D01*
X99521D01*
X99013Y58707D01*
Y58910D02*
X98708Y59520D01*
X99318D01*
X99013Y58910D01*
X100156Y59977D02*
X99648Y60993D01*
X100664D01*
X100156Y59977D01*
Y60180D02*
X99851Y60790D01*
X100461D01*
X100156Y60180D01*
X97235Y59977D02*
X96727Y60993D01*
X97743D01*
X97235Y59977D01*
Y60180D02*
X96930Y60790D01*
X97540D01*
X97235Y60180D01*
X79328Y73566D02*
X78820Y74582D01*
X79836D01*
X79328Y73566D01*
Y73769D02*
X79023Y74379D01*
X79633D01*
X79328Y73769D01*
X76407Y76487D02*
X75899Y77503D01*
X76915D01*
X76407Y76487D01*
Y76690D02*
X76102Y77300D01*
X76712D01*
X76407Y76690D01*
X81487Y87409D02*
X80979Y88425D01*
X81995D01*
X81487Y87409D01*
Y87612D02*
X81182Y88222D01*
X81792D01*
X81487Y87612D01*
X131017Y51849D02*
X130509Y52865D01*
X131525D01*
X131017Y51849D01*
Y52052D02*
X130712Y52662D01*
X131322D01*
X131017Y52052D01*
X132287Y50706D02*
X131779Y51722D01*
X132795D01*
X132287Y50706D01*
Y50909D02*
X131982Y51519D01*
X132592D01*
X132287Y50909D01*
X96092Y55659D02*
X95584Y56675D01*
X96600D01*
X96092Y55659D01*
Y55862D02*
X95787Y56472D01*
X96397D01*
X96092Y55862D01*
X101553Y25179D02*
X101045Y26195D01*
X102061D01*
X101553Y25179D01*
Y25382D02*
X101248Y25992D01*
X101858D01*
X101553Y25382D01*
X101934Y12479D02*
X101426Y13495D01*
X102442D01*
X101934Y12479D01*
Y12682D02*
X101629Y13292D01*
X102239D01*
X101934Y12682D01*
X95965Y57691D02*
X95457Y58707D01*
X96473D01*
X95965Y57691D01*
Y57894D02*
X95660Y58504D01*
X96270D01*
X95965Y57894D01*
X94314Y58961D02*
X93806Y59977D01*
X94822D01*
X94314Y58961D01*
Y59164D02*
X94009Y59774D01*
X94619D01*
X94314Y59164D01*
X82122Y54897D02*
X81614Y55913D01*
X82630D01*
X82122Y54897D01*
Y55100D02*
X81817Y55710D01*
X82427D01*
X82122Y55100D01*
X83773Y53627D02*
X83265Y54643D01*
X84281D01*
X83773Y53627D01*
Y53830D02*
X83468Y54440D01*
X84078D01*
X83773Y53830D01*
X84857Y52103D02*
X84349Y53119D01*
X85365D01*
X84857Y52103D01*
Y52306D02*
X84552Y52916D01*
X85162D01*
X84857Y52306D01*
X85932Y50325D02*
X85424Y51341D01*
X86440D01*
X85932Y50325D01*
Y50528D02*
X85627Y51138D01*
X86237D01*
X85932Y50528D01*
X102442Y54008D02*
X101934Y55024D01*
X102950D01*
X102442Y54008D01*
Y54211D02*
X102137Y54821D01*
X102747D01*
X102442Y54211D01*
X103331Y72677D02*
X102823Y73693D01*
X103839D01*
X103331Y72677D01*
Y72880D02*
X103026Y73490D01*
X103636D01*
X103331Y72880D01*
X87202Y48420D02*
X86694Y49436D01*
X87710D01*
X87202Y48420D01*
Y48623D02*
X86897Y49233D01*
X87507D01*
X87202Y48623D01*
X88218Y46769D02*
X87710Y47785D01*
X88726D01*
X88218Y46769D01*
Y46972D02*
X87913Y47582D01*
X88523D01*
X88218Y46972D01*
X86059Y60485D02*
X85551Y61501D01*
X86567D01*
X86059Y60485D01*
Y60688D02*
X85754Y61298D01*
X86364D01*
X86059Y60688D01*
X84916Y62136D02*
X84408Y63152D01*
X85424D01*
X84916Y62136D01*
Y62339D02*
X84611Y62949D01*
X85221D01*
X84916Y62339D01*
X83646Y63787D02*
X83138Y64803D01*
X84154D01*
X83646Y63787D01*
Y63990D02*
X83341Y64600D01*
X83951D01*
X83646Y63990D01*
X82122Y64803D02*
X81614Y65819D01*
X82630D01*
X82122Y64803D01*
Y65006D02*
X81817Y65616D01*
X82427D01*
X82122Y65006D01*
X52785Y50706D02*
X52277Y51722D01*
X53293D01*
X52785Y50706D01*
Y50909D02*
X52480Y51519D01*
X53090D01*
X52785Y50909D01*
X83011Y16289D02*
X82503Y17305D01*
X83519D01*
X83011Y16289D01*
Y16492D02*
X82706Y17102D01*
X83316D01*
X83011Y16492D01*
Y24798D02*
X82503Y25814D01*
X83519D01*
X83011Y24798D01*
Y25001D02*
X82706Y25611D01*
X83316D01*
X83011Y25001D01*
Y32926D02*
X82503Y33942D01*
X83519D01*
X83011Y32926D01*
Y33129D02*
X82706Y33739D01*
X83316D01*
X83011Y33129D01*
Y41435D02*
X82503Y42451D01*
X83519D01*
X83011Y41435D01*
Y41638D02*
X82706Y42248D01*
X83316D01*
X83011Y41638D01*
X62564Y40038D02*
X62056Y41054D01*
X63072D01*
X62564Y40038D01*
Y40241D02*
X62259Y40851D01*
X62869D01*
X62564Y40241D01*
Y31529D02*
X62056Y32545D01*
X63072D01*
X62564Y31529D01*
Y31732D02*
X62259Y32342D01*
X62869D01*
X62564Y31732D01*
Y23401D02*
X62056Y24417D01*
X63072D01*
X62564Y23401D01*
Y23604D02*
X62259Y24214D01*
X62869D01*
X62564Y23604D01*
Y14892D02*
X62056Y15908D01*
X63072D01*
X62564Y14892D01*
Y15095D02*
X62259Y15705D01*
X62869D01*
X62564Y15095D01*
D107*
X131398Y8669D02*
G03*
X131398Y8669I-508J0D01*
G01*
X136478D02*
G03*
X136478Y8669I-508J0D01*
G01*
X118698D02*
G03*
X118698Y8669I-508J0D01*
G01*
X123778D02*
G03*
X123778Y8669I-508J0D01*
G01*
X125683Y91346D02*
G03*
X125683Y91346I-508J0D01*
G01*
X135843D02*
G03*
X135843Y91346I-508J0D01*
G01*
X130763D02*
G03*
X130763Y91346I-508J0D01*
G01*
X112348D02*
G03*
X112348Y91346I-508J0D01*
G01*
X117428D02*
G03*
X117428Y91346I-508J0D01*
G01*
X107268D02*
G03*
X107268Y91346I-508J0D01*
G01*
X102188D02*
G03*
X102188Y91346I-508J0D01*
G01*
X93171D02*
G03*
X93171Y91346I-508J0D01*
G01*
X88091D02*
G03*
X88091Y91346I-508J0D01*
G01*
X69676D02*
G03*
X69676Y91346I-508J0D01*
G01*
X79836D02*
G03*
X79836Y91346I-508J0D01*
G01*
X74756D02*
G03*
X74756Y91346I-508J0D01*
G01*
X15193D02*
G03*
X15193Y91346I-508J0D01*
G01*
X10113D02*
G03*
X10113Y91346I-508J0D01*
G01*
X105998Y8669D02*
G03*
X105998Y8669I-508J0D01*
G01*
X111078D02*
G03*
X111078Y8669I-508J0D01*
G01*
X93298D02*
G03*
X93298Y8669I-508J0D01*
G01*
X98378D02*
G03*
X98378Y8669I-508J0D01*
G01*
X98632Y34450D02*
G03*
X98632Y34450I-508J0D01*
G01*
X86432Y38641D02*
G03*
X86432Y38641I-508J0D01*
G01*
X86440Y30005D02*
G03*
X86440Y30005I-508J0D01*
G01*
Y21496D02*
G03*
X86440Y21496I-508J0D01*
G01*
Y12924D02*
G03*
X86440Y12924I-508J0D01*
G01*
X65993Y11590D02*
G03*
X65993Y11590I-508J0D01*
G01*
Y19909D02*
G03*
X65993Y19909I-508J0D01*
G01*
Y28354D02*
G03*
X65993Y28354I-508J0D01*
G01*
Y36863D02*
G03*
X65993Y36863I-508J0D01*
G01*
D108*
X98429Y34450D02*
G03*
X98429Y34450I-305J0D01*
G01*
X86228Y38641D02*
G03*
X86228Y38641I-305J0D01*
G01*
X86237Y30005D02*
G03*
X86237Y30005I-305J0D01*
G01*
Y21496D02*
G03*
X86237Y21496I-305J0D01*
G01*
Y12924D02*
G03*
X86237Y12924I-305J0D01*
G01*
X65790Y11590D02*
G03*
X65790Y11590I-305J0D01*
G01*
Y19909D02*
G03*
X65790Y19909I-305J0D01*
G01*
Y28354D02*
G03*
X65790Y28354I-305J0D01*
G01*
Y36863D02*
G03*
X65790Y36863I-305J0D01*
G01*
M02*
