%FSLAX43Y43*%
%MOMM*%
G71*
G01*
G75*
G04 Layer_Color=16711935*
%ADD10R,0.600X1.550*%
%ADD11R,1.016X1.270*%
%ADD12O,0.610X2.032*%
%ADD13R,0.610X2.032*%
%ADD14R,4.100X1.520*%
%ADD15R,1.300X0.600*%
%ADD16R,2.200X1.800*%
%ADD17R,1.270X1.016*%
%ADD18O,2.200X0.600*%
%ADD19R,6.096X1.200*%
%ADD20R,1.050X1.400*%
%ADD21O,0.300X1.800*%
%ADD22O,1.800X0.300*%
%ADD23R,0.950X1.400*%
%ADD24R,1.400X0.950*%
%ADD25R,1.550X0.600*%
%ADD26O,0.350X2.100*%
%ADD27R,3.000X2.800*%
%ADD28R,9.000X10.600*%
%ADD29R,2.950X1.050*%
%ADD30C,1.000*%
%ADD31C,0.500*%
%ADD32C,0.300*%
%ADD33C,2.000*%
%ADD34C,0.400*%
%ADD35C,3.000*%
%ADD36C,0.254*%
%ADD37C,0.127*%
%ADD38C,1.900*%
%ADD39C,2.100*%
%ADD40R,1.524X1.524*%
%ADD41C,2.032*%
%ADD42C,1.700*%
%ADD43R,1.500X1.500*%
%ADD44C,1.500*%
%ADD45C,1.500*%
%ADD46R,1.600X1.600*%
%ADD47C,1.600*%
%ADD48R,1.500X1.500*%
%ADD49C,1.524*%
%ADD50C,2.200*%
%ADD51R,1.500X1.500*%
%ADD52C,2.000*%
%ADD53R,2.000X2.000*%
%ADD54C,2.300*%
G04:AMPARAMS|DCode=55|XSize=1.778mm|YSize=2.54mm|CornerRadius=0.445mm|HoleSize=0mm|Usage=FLASHONLY|Rotation=180.000|XOffset=0mm|YOffset=0mm|HoleType=Round|Shape=RoundedRectangle|*
%AMROUNDEDRECTD55*
21,1,1.778,1.651,0,0,180.0*
21,1,0.889,2.540,0,0,180.0*
1,1,0.889,-0.445,0.826*
1,1,0.889,0.445,0.826*
1,1,0.889,0.445,-0.826*
1,1,0.889,-0.445,-0.826*
%
%ADD55ROUNDEDRECTD55*%
%ADD56C,1.000*%
%ADD57C,1.270*%
%ADD58C,0.250*%
%ADD59C,0.200*%
%ADD60C,0.203*%
%ADD61C,0.178*%
%ADD62C,0.600*%
%ADD63C,0.152*%
%ADD64C,0.150*%
%ADD65R,0.965X2.134*%
%ADD66R,0.803X1.753*%
%ADD67R,1.219X1.473*%
%ADD68O,0.813X2.235*%
%ADD69R,0.813X2.235*%
%ADD70R,4.303X1.723*%
%ADD71R,1.503X0.803*%
%ADD72R,2.403X2.003*%
%ADD73R,1.473X1.219*%
%ADD74O,2.403X0.803*%
%ADD75R,6.299X1.403*%
%ADD76R,1.253X1.603*%
%ADD77O,0.503X2.003*%
%ADD78O,2.003X0.503*%
%ADD79R,1.153X1.603*%
%ADD80R,1.603X1.153*%
%ADD81R,1.753X0.803*%
%ADD82O,0.553X2.303*%
%ADD83R,3.203X3.003*%
%ADD84R,9.203X10.803*%
%ADD85R,3.153X1.253*%
%ADD86C,2.103*%
%ADD87C,2.303*%
%ADD88R,1.727X1.727*%
%ADD89C,2.235*%
%ADD90C,1.903*%
%ADD91R,1.703X1.703*%
%ADD92C,1.703*%
%ADD93C,1.703*%
%ADD94R,1.803X1.803*%
%ADD95C,1.803*%
%ADD96R,1.703X1.703*%
%ADD97C,2.403*%
%ADD98R,1.703X1.703*%
%ADD99C,2.203*%
%ADD100R,2.203X2.203*%
%ADD101C,2.503*%
G04:AMPARAMS|DCode=102|XSize=1.981mm|YSize=2.743mm|CornerRadius=0.546mm|HoleSize=0mm|Usage=FLASHONLY|Rotation=180.000|XOffset=0mm|YOffset=0mm|HoleType=Round|Shape=RoundedRectangle|*
%AMROUNDEDRECTD102*
21,1,1.981,1.651,0,0,180.0*
21,1,0.889,2.743,0,0,180.0*
1,1,1.092,-0.445,0.826*
1,1,1.092,0.445,0.826*
1,1,1.092,0.445,-0.826*
1,1,1.092,-0.445,-0.826*
%
%ADD102ROUNDEDRECTD102*%
%ADD103C,1.203*%
%ADD104C,1.473*%
D86*
X113745Y57056D02*
D03*
Y59596D02*
D03*
Y62136D02*
D03*
Y64676D02*
D03*
Y67216D02*
D03*
Y69756D02*
D03*
X70819Y6637D02*
D03*
X74629D02*
D03*
X78439D02*
D03*
X82249D02*
D03*
X86059D02*
D03*
X49864D02*
D03*
X53674D02*
D03*
X57484D02*
D03*
X61294D02*
D03*
X65104D02*
D03*
X28909D02*
D03*
X32719D02*
D03*
X36529D02*
D03*
X40339D02*
D03*
X44149D02*
D03*
X7954D02*
D03*
X11764D02*
D03*
X15574D02*
D03*
X19384D02*
D03*
X23194D02*
D03*
D87*
X130890Y8669D02*
D03*
X135970D02*
D03*
X118190D02*
D03*
X123270D02*
D03*
X125175Y91346D02*
D03*
X135335D02*
D03*
X130255D02*
D03*
X111840D02*
D03*
X116920D02*
D03*
X106760D02*
D03*
X101680D02*
D03*
X92663D02*
D03*
X87583D02*
D03*
X69168D02*
D03*
X79328D02*
D03*
X74248D02*
D03*
X14685D02*
D03*
X9605D02*
D03*
X105490Y8669D02*
D03*
X110570D02*
D03*
X92790D02*
D03*
X97870D02*
D03*
D88*
X67390Y32291D02*
D03*
Y15527D02*
D03*
Y42578D02*
D03*
Y33815D02*
D03*
Y25433D02*
D03*
Y17051D02*
D03*
Y40927D02*
D03*
Y23909D02*
D03*
D89*
X57230Y32291D02*
D03*
Y15527D02*
D03*
X77550Y42578D02*
D03*
Y33815D02*
D03*
Y25433D02*
D03*
Y17051D02*
D03*
X57230Y40927D02*
D03*
Y23909D02*
D03*
D90*
X48467Y11209D02*
D03*
Y34069D02*
D03*
X42625Y11209D02*
D03*
Y34069D02*
D03*
X36910Y11209D02*
D03*
Y34069D02*
D03*
X31068Y11209D02*
D03*
Y34069D02*
D03*
X25226Y11209D02*
D03*
Y34069D02*
D03*
X19511Y11209D02*
D03*
Y34069D02*
D03*
X13669Y11209D02*
D03*
Y34069D02*
D03*
X7827Y11209D02*
D03*
Y34069D02*
D03*
D91*
X18241Y38387D02*
D03*
X5033D02*
D03*
X30433D02*
D03*
Y51468D02*
D03*
X18241D02*
D03*
X4906D02*
D03*
X18241Y64676D02*
D03*
X4906D02*
D03*
X56595Y51341D02*
D03*
X68787D02*
D03*
X68914Y63406D02*
D03*
X56468Y63279D02*
D03*
X30560Y64676D02*
D03*
X42625Y38387D02*
D03*
Y64803D02*
D03*
X42752Y51595D02*
D03*
D92*
X20781Y38387D02*
D03*
X23321D02*
D03*
X25861D02*
D03*
X18241Y46007D02*
D03*
X20781D02*
D03*
X23321D02*
D03*
X7573Y38387D02*
D03*
X10113D02*
D03*
X12653D02*
D03*
X5033Y46007D02*
D03*
X7573D02*
D03*
X10113D02*
D03*
X32973Y38387D02*
D03*
X35513D02*
D03*
X38053D02*
D03*
X30433Y46007D02*
D03*
X32973D02*
D03*
X35513D02*
D03*
X32973Y51468D02*
D03*
X35513D02*
D03*
X38053D02*
D03*
X30433Y59088D02*
D03*
X32973D02*
D03*
X35513D02*
D03*
X20781Y51468D02*
D03*
X23321D02*
D03*
X25861D02*
D03*
X18241Y59088D02*
D03*
X20781D02*
D03*
X23321D02*
D03*
X7446Y51468D02*
D03*
X9986D02*
D03*
X12526D02*
D03*
X4906Y59088D02*
D03*
X7446D02*
D03*
X9986D02*
D03*
X20781Y64676D02*
D03*
X23321D02*
D03*
X25861D02*
D03*
X18241Y72296D02*
D03*
X20781D02*
D03*
X23321D02*
D03*
X7446Y64676D02*
D03*
X9986D02*
D03*
X12526D02*
D03*
X4906Y72296D02*
D03*
X7446D02*
D03*
X9986D02*
D03*
X59135Y51341D02*
D03*
X61675D02*
D03*
X64215D02*
D03*
X56595Y58961D02*
D03*
X59135D02*
D03*
X61675D02*
D03*
X71327Y51341D02*
D03*
X73867D02*
D03*
X76407D02*
D03*
X68787Y58961D02*
D03*
X71327D02*
D03*
X73867D02*
D03*
X71454Y63406D02*
D03*
X73994D02*
D03*
X76534D02*
D03*
X68914Y71026D02*
D03*
X71454D02*
D03*
X73994D02*
D03*
X59008Y63279D02*
D03*
X61548D02*
D03*
X64088D02*
D03*
X56468Y70899D02*
D03*
X59008D02*
D03*
X61548D02*
D03*
X33100Y64676D02*
D03*
X35640D02*
D03*
X38180D02*
D03*
X30560Y72296D02*
D03*
X33100D02*
D03*
X35640D02*
D03*
X45165Y38387D02*
D03*
X47705D02*
D03*
X50245D02*
D03*
X42625Y46007D02*
D03*
X45165D02*
D03*
X47705D02*
D03*
X45165Y64803D02*
D03*
X47705D02*
D03*
X50245D02*
D03*
X42625Y72423D02*
D03*
X45165D02*
D03*
X47705D02*
D03*
X45292Y51595D02*
D03*
X47832D02*
D03*
X50372D02*
D03*
X42752Y59215D02*
D03*
X45292D02*
D03*
X47832D02*
D03*
D93*
X25861Y46007D02*
D03*
X12653D02*
D03*
X38053D02*
D03*
Y59088D02*
D03*
X25861D02*
D03*
X12526D02*
D03*
X25861Y72296D02*
D03*
X12526D02*
D03*
X64215Y58961D02*
D03*
X76407D02*
D03*
X76534Y71026D02*
D03*
X64088Y70899D02*
D03*
X14645Y82202D02*
D03*
X105998Y75598D02*
D03*
X108538D02*
D03*
X111078D02*
D03*
X103458Y83218D02*
D03*
X105998D02*
D03*
X108538D02*
D03*
X111078D02*
D03*
X76915Y86901D02*
D03*
X74375D02*
D03*
X71835D02*
D03*
X69295D02*
D03*
X66755D02*
D03*
X64215D02*
D03*
X61675D02*
D03*
X59135D02*
D03*
X76915Y79281D02*
D03*
X74375D02*
D03*
X71835D02*
D03*
X69295D02*
D03*
X66755D02*
D03*
X64215D02*
D03*
X61675D02*
D03*
X88980Y75852D02*
D03*
X91520D02*
D03*
X94060D02*
D03*
X86440Y83472D02*
D03*
X88980D02*
D03*
X91520D02*
D03*
X94060D02*
D03*
X59135Y75344D02*
D03*
X74121D02*
D03*
X64088D02*
D03*
X69168D02*
D03*
X123397Y43467D02*
D03*
X118063Y41308D02*
D03*
X38180Y72296D02*
D03*
X50245Y46007D02*
D03*
Y72423D02*
D03*
X50372Y59215D02*
D03*
D94*
X50078Y83345D02*
D03*
D95*
X45078D02*
D03*
D96*
X9645Y82202D02*
D03*
X56595Y75344D02*
D03*
X71581D02*
D03*
X61548D02*
D03*
X66628D02*
D03*
D97*
X114222Y17385D02*
D03*
Y37885D02*
D03*
D98*
X103458Y75598D02*
D03*
X59135Y79281D02*
D03*
X86440Y75852D02*
D03*
X123397Y46007D02*
D03*
X118063Y43848D02*
D03*
D99*
X134700Y40800D02*
D03*
X132160D02*
D03*
D100*
X129620D02*
D03*
D101*
X21670Y95283D02*
D03*
X41990D02*
D03*
D102*
X77550Y39530D02*
D03*
X75010D02*
D03*
X80090D02*
D03*
X77550Y30767D02*
D03*
X75010D02*
D03*
X80090D02*
D03*
X77550Y22258D02*
D03*
X75010D02*
D03*
X80090D02*
D03*
X77550Y13749D02*
D03*
X75010D02*
D03*
X80090D02*
D03*
X57230Y37752D02*
D03*
X54690D02*
D03*
X59770D02*
D03*
X57230Y29243D02*
D03*
X54690D02*
D03*
X59770D02*
D03*
X57230Y20734D02*
D03*
X54690D02*
D03*
X59770D02*
D03*
X57230Y12479D02*
D03*
X54690D02*
D03*
X59770D02*
D03*
D103*
X98124Y34450D02*
D03*
X85924Y38641D02*
D03*
X85932Y30005D02*
D03*
Y21496D02*
D03*
Y12924D02*
D03*
X65485Y11590D02*
D03*
Y19909D02*
D03*
Y28354D02*
D03*
Y36863D02*
D03*
D104*
X101473Y34417D02*
D03*
X96012Y49530D02*
D03*
X96393Y66421D02*
D03*
X87376Y66929D02*
D03*
X60198Y33147D02*
D03*
X48514Y27051D02*
D03*
X80264Y34544D02*
D03*
Y25908D02*
D03*
X80137Y17526D02*
D03*
X54610Y16129D02*
D03*
X135128Y73025D02*
D03*
X128651Y67310D02*
D03*
X121031Y91313D02*
D03*
X122047Y81534D02*
D03*
X97028Y74803D02*
D03*
X25146Y19177D02*
D03*
X30353Y23495D02*
D03*
X88900Y52451D02*
D03*
X114681Y54356D02*
D03*
X14986Y72390D02*
D03*
X103077Y52738D02*
D03*
X102950Y50833D02*
D03*
X101426Y49817D02*
D03*
X100791Y52738D02*
D03*
X100156Y55405D02*
D03*
X14812Y42451D02*
D03*
X12526Y62136D02*
D03*
X14431Y53500D02*
D03*
X38053Y62009D02*
D03*
X82122Y81948D02*
D03*
X82503Y72423D02*
D03*
X125937Y52357D02*
D03*
X118063Y52865D02*
D03*
X109173Y51976D02*
D03*
Y60612D02*
D03*
X100918Y43086D02*
D03*
Y45245D02*
D03*
X123778Y23909D02*
D03*
X122127Y22766D02*
D03*
X106760Y41689D02*
D03*
X123270Y58834D02*
D03*
X127842Y76360D02*
D03*
X139653Y65311D02*
D03*
X118190Y50706D02*
D03*
X117047Y48039D02*
D03*
X138129Y50325D02*
D03*
X123270Y49944D02*
D03*
X106125Y62390D02*
D03*
X138891Y35085D02*
D03*
X132795Y25814D02*
D03*
X132160Y30767D02*
D03*
X128510Y38133D02*
D03*
X127207Y33688D02*
D03*
X124540Y38006D02*
D03*
X131017Y28735D02*
D03*
X96092Y51341D02*
D03*
X122381Y74836D02*
D03*
X114761Y77122D02*
D03*
X132795Y53500D02*
D03*
X85043Y68359D02*
D03*
X108919Y44102D02*
D03*
Y46515D02*
D03*
X52531Y41689D02*
D03*
X102188Y37625D02*
D03*
X45292Y31783D02*
D03*
X102696Y29370D02*
D03*
X92663Y38895D02*
D03*
X94441Y34704D02*
D03*
X99013Y59215D02*
D03*
X100156Y60485D02*
D03*
X97235D02*
D03*
X79328Y74074D02*
D03*
X76407Y76995D02*
D03*
X81487Y87917D02*
D03*
X131017Y52357D02*
D03*
X132287Y51214D02*
D03*
X96092Y56167D02*
D03*
X101553Y25687D02*
D03*
X101934Y12987D02*
D03*
X95965Y58199D02*
D03*
X94314Y59469D02*
D03*
X82122Y55405D02*
D03*
X83773Y54135D02*
D03*
X84857Y52611D02*
D03*
X85932Y50833D02*
D03*
X102442Y54516D02*
D03*
X103331Y73185D02*
D03*
X87202Y48928D02*
D03*
X88218Y47277D02*
D03*
X86059Y60993D02*
D03*
X84916Y62644D02*
D03*
X83646Y64295D02*
D03*
X82122Y65311D02*
D03*
X52785Y51214D02*
D03*
X83011Y16797D02*
D03*
Y25306D02*
D03*
Y33434D02*
D03*
Y41943D02*
D03*
X62564Y40546D02*
D03*
Y32037D02*
D03*
Y23909D02*
D03*
Y15400D02*
D03*
M02*
