%FSLAX43Y43*%
%MOMM*%
G71*
G01*
G75*
%ADD10R,0.600X1.550*%
%ADD11R,1.016X1.270*%
%ADD12O,0.610X2.032*%
%ADD13R,0.610X2.032*%
%ADD14R,4.100X1.520*%
%ADD15R,1.300X0.600*%
%ADD16R,2.200X1.800*%
%ADD17R,1.270X1.016*%
%ADD18O,2.200X0.600*%
%ADD19R,6.096X1.200*%
%ADD20R,1.050X1.400*%
%ADD21O,0.300X1.800*%
%ADD22O,1.800X0.300*%
%ADD23R,0.950X1.400*%
%ADD24R,1.400X0.950*%
%ADD25R,1.550X0.600*%
%ADD26O,0.350X2.100*%
%ADD27R,3.000X2.800*%
%ADD28R,9.000X10.600*%
%ADD29R,2.950X1.050*%
%ADD30C,1.000*%
%ADD31C,0.500*%
%ADD32C,0.300*%
%ADD33C,2.000*%
%ADD34C,0.400*%
%ADD35C,3.000*%
%ADD36C,0.254*%
%ADD37C,0.127*%
%ADD38C,1.900*%
%ADD39C,2.100*%
%ADD40R,1.524X1.524*%
%ADD41C,2.032*%
%ADD42C,1.700*%
%ADD43R,1.500X1.500*%
%ADD44C,1.500*%
%ADD45C,1.500*%
%ADD46R,1.600X1.600*%
%ADD47C,1.600*%
%ADD48R,1.500X1.500*%
%ADD49C,1.524*%
%ADD50C,2.200*%
%ADD51R,1.500X1.500*%
%ADD52C,2.000*%
%ADD53R,2.000X2.000*%
%ADD54C,2.300*%
G04:AMPARAMS|DCode=55|XSize=1.778mm|YSize=2.54mm|CornerRadius=0.445mm|HoleSize=0mm|Usage=FLASHONLY|Rotation=180.000|XOffset=0mm|YOffset=0mm|HoleType=Round|Shape=RoundedRectangle|*
%AMROUNDEDRECTD55*
21,1,1.778,1.651,0,0,180.0*
21,1,0.889,2.540,0,0,180.0*
1,1,0.889,-0.445,0.826*
1,1,0.889,0.445,0.826*
1,1,0.889,0.445,-0.826*
1,1,0.889,-0.445,-0.826*
%
%ADD55ROUNDEDRECTD55*%
%ADD56C,1.000*%
%ADD57C,1.270*%
%ADD58C,0.250*%
%ADD59C,0.200*%
%ADD60C,0.203*%
%ADD61C,0.178*%
%ADD62C,0.600*%
%ADD63C,0.152*%
%ADD64C,0.150*%
%ADD65R,0.965X2.134*%
%ADD66R,0.803X1.753*%
%ADD67R,1.219X1.473*%
%ADD68O,0.813X2.235*%
%ADD69R,0.813X2.235*%
%ADD70R,4.303X1.723*%
%ADD71R,1.503X0.803*%
%ADD72R,2.403X2.003*%
%ADD73R,1.473X1.219*%
%ADD74O,2.403X0.803*%
%ADD75R,6.299X1.403*%
%ADD76R,1.253X1.603*%
%ADD77O,0.503X2.003*%
%ADD78O,2.003X0.503*%
%ADD79R,1.153X1.603*%
%ADD80R,1.603X1.153*%
%ADD81R,1.753X0.803*%
%ADD82O,0.553X2.303*%
%ADD83R,3.203X3.003*%
%ADD84R,9.203X10.803*%
%ADD85R,3.153X1.253*%
%ADD86C,2.103*%
%ADD87C,2.303*%
%ADD88R,1.727X1.727*%
%ADD89C,2.235*%
%ADD90C,1.903*%
%ADD91R,1.703X1.703*%
%ADD92C,1.703*%
%ADD93C,1.703*%
%ADD94R,1.803X1.803*%
%ADD95C,1.803*%
%ADD96R,1.703X1.703*%
%ADD97C,2.403*%
%ADD98R,1.703X1.703*%
%ADD99C,2.203*%
%ADD100R,2.203X2.203*%
%ADD101C,2.503*%
G04:AMPARAMS|DCode=102|XSize=1.981mm|YSize=2.743mm|CornerRadius=0.546mm|HoleSize=0mm|Usage=FLASHONLY|Rotation=180.000|XOffset=0mm|YOffset=0mm|HoleType=Round|Shape=RoundedRectangle|*
%AMROUNDEDRECTD102*
21,1,1.981,1.651,0,0,180.0*
21,1,0.889,2.743,0,0,180.0*
1,1,1.092,-0.445,0.826*
1,1,1.092,0.445,0.826*
1,1,1.092,0.445,-0.826*
1,1,1.092,-0.445,-0.826*
%
%ADD102ROUNDEDRECTD102*%
%ADD103C,1.203*%
%ADD104C,1.473*%
%ADD105C,0.100*%
%ADD106C,0.050*%
%ADD107C,0.169*%
%ADD108C,0.102*%
D37*
X113145Y57056D02*
X114345D01*
X113745Y56456D02*
Y57656D01*
X113145Y59596D02*
X114345D01*
X113745Y58996D02*
Y60196D01*
X113145Y62136D02*
X114345D01*
X113745Y61536D02*
Y62736D01*
X113145Y64676D02*
X114345D01*
X113745Y64076D02*
Y65276D01*
X113145Y67216D02*
X114345D01*
X113745Y66616D02*
Y67816D01*
X113145Y69756D02*
X114345D01*
X113745Y69156D02*
Y70356D01*
X130190Y8669D02*
X131590D01*
X130890Y7969D02*
Y9369D01*
X135270Y8669D02*
X136670D01*
X135970Y7969D02*
Y9369D01*
X117490Y8669D02*
X118890D01*
X118190Y7969D02*
Y9369D01*
X122570Y8669D02*
X123970D01*
X123270Y7969D02*
Y9369D01*
X66844Y32291D02*
X67936D01*
X67390Y31745D02*
Y32837D01*
X56684Y32291D02*
X57776D01*
X57230Y31745D02*
Y32837D01*
X66844Y15527D02*
X67936D01*
X67390Y14981D02*
Y16073D01*
X56684Y15527D02*
X57776D01*
X57230Y14981D02*
Y16073D01*
X47967Y11209D02*
X48967D01*
X48467Y10709D02*
Y11709D01*
X47967Y34069D02*
X48967D01*
X48467Y33569D02*
Y34569D01*
X42125Y11209D02*
X43125D01*
X42625Y10709D02*
Y11709D01*
X42125Y34069D02*
X43125D01*
X42625Y33569D02*
Y34569D01*
X36410Y11209D02*
X37410D01*
X36910Y10709D02*
Y11709D01*
X36410Y34069D02*
X37410D01*
X36910Y33569D02*
Y34569D01*
X30568Y11209D02*
X31568D01*
X31068Y10709D02*
Y11709D01*
X30568Y34069D02*
X31568D01*
X31068Y33569D02*
Y34569D01*
X24726Y11209D02*
X25726D01*
X25226Y10709D02*
Y11709D01*
X24726Y34069D02*
X25726D01*
X25226Y33569D02*
Y34569D01*
X19011Y11209D02*
X20011D01*
X19511Y10709D02*
Y11709D01*
X19011Y34069D02*
X20011D01*
X19511Y33569D02*
Y34569D01*
X13169Y11209D02*
X14169D01*
X13669Y10709D02*
Y11709D01*
X13169Y34069D02*
X14169D01*
X13669Y33569D02*
Y34569D01*
X7327Y11209D02*
X8327D01*
X7827Y10709D02*
Y11709D01*
X7327Y34069D02*
X8327D01*
X7827Y33569D02*
Y34569D01*
X17791Y38387D02*
X18691D01*
X18241Y37937D02*
Y38837D01*
X20331Y38387D02*
X21231D01*
X20781Y37937D02*
Y38837D01*
X22871Y38387D02*
X23771D01*
X23321Y37937D02*
Y38837D01*
X25411Y38387D02*
X26311D01*
X25861Y37937D02*
Y38837D01*
X17791Y46007D02*
X18691D01*
X18241Y45557D02*
Y46457D01*
X20331Y46007D02*
X21231D01*
X20781Y45557D02*
Y46457D01*
X22871Y46007D02*
X23771D01*
X23321Y45557D02*
Y46457D01*
X25411Y46007D02*
X26311D01*
X25861Y45557D02*
Y46457D01*
X4583Y38387D02*
X5483D01*
X5033Y37937D02*
Y38837D01*
X7123Y38387D02*
X8023D01*
X7573Y37937D02*
Y38837D01*
X9663Y38387D02*
X10563D01*
X10113Y37937D02*
Y38837D01*
X12203Y38387D02*
X13103D01*
X12653Y37937D02*
Y38837D01*
X4583Y46007D02*
X5483D01*
X5033Y45557D02*
Y46457D01*
X7123Y46007D02*
X8023D01*
X7573Y45557D02*
Y46457D01*
X9663Y46007D02*
X10563D01*
X10113Y45557D02*
Y46457D01*
X12203Y46007D02*
X13103D01*
X12653Y45557D02*
Y46457D01*
X29983Y38387D02*
X30883D01*
X30433Y37937D02*
Y38837D01*
X32523Y38387D02*
X33423D01*
X32973Y37937D02*
Y38837D01*
X35063Y38387D02*
X35963D01*
X35513Y37937D02*
Y38837D01*
X37603Y38387D02*
X38503D01*
X38053Y37937D02*
Y38837D01*
X29983Y46007D02*
X30883D01*
X30433Y45557D02*
Y46457D01*
X32523Y46007D02*
X33423D01*
X32973Y45557D02*
Y46457D01*
X35063Y46007D02*
X35963D01*
X35513Y45557D02*
Y46457D01*
X37603Y46007D02*
X38503D01*
X38053Y45557D02*
Y46457D01*
X29983Y51468D02*
X30883D01*
X30433Y51018D02*
Y51918D01*
X32523Y51468D02*
X33423D01*
X32973Y51018D02*
Y51918D01*
X35063Y51468D02*
X35963D01*
X35513Y51018D02*
Y51918D01*
X37603Y51468D02*
X38503D01*
X38053Y51018D02*
Y51918D01*
X29983Y59088D02*
X30883D01*
X30433Y58638D02*
Y59538D01*
X32523Y59088D02*
X33423D01*
X32973Y58638D02*
Y59538D01*
X35063Y59088D02*
X35963D01*
X35513Y58638D02*
Y59538D01*
X37603Y59088D02*
X38503D01*
X38053Y58638D02*
Y59538D01*
X17791Y51468D02*
X18691D01*
X18241Y51018D02*
Y51918D01*
X20331Y51468D02*
X21231D01*
X20781Y51018D02*
Y51918D01*
X22871Y51468D02*
X23771D01*
X23321Y51018D02*
Y51918D01*
X25411Y51468D02*
X26311D01*
X25861Y51018D02*
Y51918D01*
X17791Y59088D02*
X18691D01*
X18241Y58638D02*
Y59538D01*
X20331Y59088D02*
X21231D01*
X20781Y58638D02*
Y59538D01*
X22871Y59088D02*
X23771D01*
X23321Y58638D02*
Y59538D01*
X25411Y59088D02*
X26311D01*
X25861Y58638D02*
Y59538D01*
X4456Y51468D02*
X5356D01*
X4906Y51018D02*
Y51918D01*
X6996Y51468D02*
X7896D01*
X7446Y51018D02*
Y51918D01*
X9536Y51468D02*
X10436D01*
X9986Y51018D02*
Y51918D01*
X12076Y51468D02*
X12976D01*
X12526Y51018D02*
Y51918D01*
X4456Y59088D02*
X5356D01*
X4906Y58638D02*
Y59538D01*
X6996Y59088D02*
X7896D01*
X7446Y58638D02*
Y59538D01*
X9536Y59088D02*
X10436D01*
X9986Y58638D02*
Y59538D01*
X12076Y59088D02*
X12976D01*
X12526Y58638D02*
Y59538D01*
X17791Y64676D02*
X18691D01*
X18241Y64226D02*
Y65126D01*
X20331Y64676D02*
X21231D01*
X20781Y64226D02*
Y65126D01*
X22871Y64676D02*
X23771D01*
X23321Y64226D02*
Y65126D01*
X25411Y64676D02*
X26311D01*
X25861Y64226D02*
Y65126D01*
X17791Y72296D02*
X18691D01*
X18241Y71846D02*
Y72746D01*
X20331Y72296D02*
X21231D01*
X20781Y71846D02*
Y72746D01*
X22871Y72296D02*
X23771D01*
X23321Y71846D02*
Y72746D01*
X25411Y72296D02*
X26311D01*
X25861Y71846D02*
Y72746D01*
X4456Y64676D02*
X5356D01*
X4906Y64226D02*
Y65126D01*
X6996Y64676D02*
X7896D01*
X7446Y64226D02*
Y65126D01*
X9536Y64676D02*
X10436D01*
X9986Y64226D02*
Y65126D01*
X12076Y64676D02*
X12976D01*
X12526Y64226D02*
Y65126D01*
X4456Y72296D02*
X5356D01*
X4906Y71846D02*
Y72746D01*
X6996Y72296D02*
X7896D01*
X7446Y71846D02*
Y72746D01*
X9536Y72296D02*
X10436D01*
X9986Y71846D02*
Y72746D01*
X12076Y72296D02*
X12976D01*
X12526Y71846D02*
Y72746D01*
X56145Y51341D02*
X57045D01*
X56595Y50891D02*
Y51791D01*
X58685Y51341D02*
X59585D01*
X59135Y50891D02*
Y51791D01*
X61225Y51341D02*
X62125D01*
X61675Y50891D02*
Y51791D01*
X63765Y51341D02*
X64665D01*
X64215Y50891D02*
Y51791D01*
X56145Y58961D02*
X57045D01*
X56595Y58511D02*
Y59411D01*
X58685Y58961D02*
X59585D01*
X59135Y58511D02*
Y59411D01*
X61225Y58961D02*
X62125D01*
X61675Y58511D02*
Y59411D01*
X63765Y58961D02*
X64665D01*
X64215Y58511D02*
Y59411D01*
X68337Y51341D02*
X69237D01*
X68787Y50891D02*
Y51791D01*
X70877Y51341D02*
X71777D01*
X71327Y50891D02*
Y51791D01*
X73417Y51341D02*
X74317D01*
X73867Y50891D02*
Y51791D01*
X75957Y51341D02*
X76857D01*
X76407Y50891D02*
Y51791D01*
X68337Y58961D02*
X69237D01*
X68787Y58511D02*
Y59411D01*
X70877Y58961D02*
X71777D01*
X71327Y58511D02*
Y59411D01*
X73417Y58961D02*
X74317D01*
X73867Y58511D02*
Y59411D01*
X75957Y58961D02*
X76857D01*
X76407Y58511D02*
Y59411D01*
X68464Y63406D02*
X69364D01*
X68914Y62956D02*
Y63856D01*
X71004Y63406D02*
X71904D01*
X71454Y62956D02*
Y63856D01*
X73544Y63406D02*
X74444D01*
X73994Y62956D02*
Y63856D01*
X76084Y63406D02*
X76984D01*
X76534Y62956D02*
Y63856D01*
X68464Y71026D02*
X69364D01*
X68914Y70576D02*
Y71476D01*
X71004Y71026D02*
X71904D01*
X71454Y70576D02*
Y71476D01*
X73544Y71026D02*
X74444D01*
X73994Y70576D02*
Y71476D01*
X76084Y71026D02*
X76984D01*
X76534Y70576D02*
Y71476D01*
X56018Y63279D02*
X56918D01*
X56468Y62829D02*
Y63729D01*
X58558Y63279D02*
X59458D01*
X59008Y62829D02*
Y63729D01*
X61098Y63279D02*
X61998D01*
X61548Y62829D02*
Y63729D01*
X63638Y63279D02*
X64538D01*
X64088Y62829D02*
Y63729D01*
X56018Y70899D02*
X56918D01*
X56468Y70449D02*
Y71349D01*
X58558Y70899D02*
X59458D01*
X59008Y70449D02*
Y71349D01*
X61098Y70899D02*
X61998D01*
X61548Y70449D02*
Y71349D01*
X63638Y70899D02*
X64538D01*
X64088Y70449D02*
Y71349D01*
X124475Y91346D02*
X125875D01*
X125175Y90646D02*
Y92046D01*
X134635Y91346D02*
X136035D01*
X135335Y90646D02*
Y92046D01*
X129555Y91346D02*
X130955D01*
X130255Y90646D02*
Y92046D01*
X111140Y91346D02*
X112540D01*
X111840Y90646D02*
Y92046D01*
X116220Y91346D02*
X117620D01*
X116920Y90646D02*
Y92046D01*
X106060Y91346D02*
X107460D01*
X106760Y90646D02*
Y92046D01*
X100980Y91346D02*
X102380D01*
X101680Y90646D02*
Y92046D01*
X91963Y91346D02*
X93363D01*
X92663Y90646D02*
Y92046D01*
X86883Y91346D02*
X88283D01*
X87583Y90646D02*
Y92046D01*
X68468Y91346D02*
X69868D01*
X69168Y90646D02*
Y92046D01*
X78628Y91346D02*
X80028D01*
X79328Y90646D02*
Y92046D01*
X73548Y91346D02*
X74948D01*
X74248Y90646D02*
Y92046D01*
X49628Y83345D02*
X50528D01*
X50078Y82895D02*
Y83795D01*
X44628Y83345D02*
X45528D01*
X45078Y82895D02*
Y83795D01*
X9195Y82202D02*
X10095D01*
X9645Y81752D02*
Y82652D01*
X14195Y82202D02*
X15095D01*
X14645Y81752D02*
Y82652D01*
X13985Y91346D02*
X15385D01*
X14685Y90646D02*
Y92046D01*
X8905Y91346D02*
X10305D01*
X9605Y90646D02*
Y92046D01*
X61619Y97000D02*
X64619D01*
X63119Y95500D02*
Y98500D01*
X140500Y97000D02*
X143500D01*
X142000Y95500D02*
Y98500D01*
X1500Y97000D02*
X4500D01*
X3000Y95500D02*
Y98500D01*
X140500Y3000D02*
X143500D01*
X142000Y1500D02*
Y4500D01*
X1500Y3000D02*
X4500D01*
X3000Y1500D02*
Y4500D01*
X113472Y17385D02*
X114972D01*
X114222Y16635D02*
Y18135D01*
X113472Y37885D02*
X114972D01*
X114222Y37135D02*
Y38635D01*
X103008Y75598D02*
X103908D01*
X103458Y75148D02*
Y76048D01*
X105548Y75598D02*
X106448D01*
X105998Y75148D02*
Y76048D01*
X108088Y75598D02*
X108988D01*
X108538Y75148D02*
Y76048D01*
X110628Y75598D02*
X111528D01*
X111078Y75148D02*
Y76048D01*
X103008Y83218D02*
X103908D01*
X103458Y82768D02*
Y83668D01*
X105548Y83218D02*
X106448D01*
X105998Y82768D02*
Y83668D01*
X108088Y83218D02*
X108988D01*
X108538Y82768D02*
Y83668D01*
X110628Y83218D02*
X111528D01*
X111078Y82768D02*
Y83668D01*
X76465Y86901D02*
X77365D01*
X76915Y86451D02*
Y87351D01*
X73925Y86901D02*
X74825D01*
X74375Y86451D02*
Y87351D01*
X71385Y86901D02*
X72285D01*
X71835Y86451D02*
Y87351D01*
X68845Y86901D02*
X69745D01*
X69295Y86451D02*
Y87351D01*
X66305Y86901D02*
X67205D01*
X66755Y86451D02*
Y87351D01*
X63765Y86901D02*
X64665D01*
X64215Y86451D02*
Y87351D01*
X61225Y86901D02*
X62125D01*
X61675Y86451D02*
Y87351D01*
X58685Y86901D02*
X59585D01*
X59135Y86451D02*
Y87351D01*
X76465Y79281D02*
X77365D01*
X76915Y78831D02*
Y79731D01*
X73925Y79281D02*
X74825D01*
X74375Y78831D02*
Y79731D01*
X71385Y79281D02*
X72285D01*
X71835Y78831D02*
Y79731D01*
X68845Y79281D02*
X69745D01*
X69295Y78831D02*
Y79731D01*
X66305Y79281D02*
X67205D01*
X66755Y78831D02*
Y79731D01*
X63765Y79281D02*
X64665D01*
X64215Y78831D02*
Y79731D01*
X61225Y79281D02*
X62125D01*
X61675Y78831D02*
Y79731D01*
X58685Y79281D02*
X59585D01*
X59135Y78831D02*
Y79731D01*
X85990Y75852D02*
X86890D01*
X86440Y75402D02*
Y76302D01*
X88530Y75852D02*
X89430D01*
X88980Y75402D02*
Y76302D01*
X91070Y75852D02*
X91970D01*
X91520Y75402D02*
Y76302D01*
X93610Y75852D02*
X94510D01*
X94060Y75402D02*
Y76302D01*
X85990Y83472D02*
X86890D01*
X86440Y83022D02*
Y83922D01*
X88530Y83472D02*
X89430D01*
X88980Y83022D02*
Y83922D01*
X91070Y83472D02*
X91970D01*
X91520Y83022D02*
Y83922D01*
X93610Y83472D02*
X94510D01*
X94060Y83022D02*
Y83922D01*
X58735Y75344D02*
X59535D01*
X59135Y74944D02*
Y75744D01*
X56195Y75344D02*
X56995D01*
X56595Y74944D02*
Y75744D01*
X73721Y75344D02*
X74521D01*
X74121Y74944D02*
Y75744D01*
X71181Y75344D02*
X71981D01*
X71581Y74944D02*
Y75744D01*
X63688Y75344D02*
X64488D01*
X64088Y74944D02*
Y75744D01*
X61148Y75344D02*
X61948D01*
X61548Y74944D02*
Y75744D01*
X68768Y75344D02*
X69568D01*
X69168Y74944D02*
Y75744D01*
X66228Y75344D02*
X67028D01*
X66628Y74944D02*
Y75744D01*
X134100Y40800D02*
X135300D01*
X134700Y40200D02*
Y41400D01*
X131560Y40800D02*
X132760D01*
X132160Y40200D02*
Y41400D01*
X129020Y40800D02*
X130220D01*
X129620Y40200D02*
Y41400D01*
X122997Y43467D02*
X123797D01*
X123397Y43067D02*
Y43867D01*
X122997Y46007D02*
X123797D01*
X123397Y45607D02*
Y46407D01*
X117663Y41308D02*
X118463D01*
X118063Y40908D02*
Y41708D01*
X117663Y43848D02*
X118463D01*
X118063Y43448D02*
Y44248D01*
X66844Y42578D02*
X67936D01*
X67390Y42032D02*
Y43124D01*
X77004Y42578D02*
X78096D01*
X77550Y42032D02*
Y43124D01*
X66844Y33815D02*
X67936D01*
X67390Y33269D02*
Y34361D01*
X77004Y33815D02*
X78096D01*
X77550Y33269D02*
Y34361D01*
X104790Y8669D02*
X106190D01*
X105490Y7969D02*
Y9369D01*
X109870Y8669D02*
X111270D01*
X110570Y7969D02*
Y9369D01*
X66844Y25433D02*
X67936D01*
X67390Y24887D02*
Y25979D01*
X77004Y25433D02*
X78096D01*
X77550Y24887D02*
Y25979D01*
X66844Y17051D02*
X67936D01*
X67390Y16505D02*
Y17597D01*
X77004Y17051D02*
X78096D01*
X77550Y16505D02*
Y17597D01*
X66844Y40927D02*
X67936D01*
X67390Y40381D02*
Y41473D01*
X56684Y40927D02*
X57776D01*
X57230Y40381D02*
Y41473D01*
X92090Y8669D02*
X93490D01*
X92790Y7969D02*
Y9369D01*
X97170Y8669D02*
X98570D01*
X97870Y7969D02*
Y9369D01*
X66844Y23909D02*
X67936D01*
X67390Y23363D02*
Y24455D01*
X56684Y23909D02*
X57776D01*
X57230Y23363D02*
Y24455D01*
X20870Y95283D02*
X22470D01*
X21670Y94483D02*
Y96083D01*
X41190Y95283D02*
X42790D01*
X41990Y94483D02*
Y96083D01*
X70219Y6637D02*
X71419D01*
X70819Y6037D02*
Y7237D01*
X74029Y6637D02*
X75229D01*
X74629Y6037D02*
Y7237D01*
X77839Y6637D02*
X79039D01*
X78439Y6037D02*
Y7237D01*
X81649Y6637D02*
X82849D01*
X82249Y6037D02*
Y7237D01*
X85459Y6637D02*
X86659D01*
X86059Y6037D02*
Y7237D01*
X77004Y39530D02*
X78096D01*
X77550Y38984D02*
Y40076D01*
X74464Y39530D02*
X75556D01*
X75010Y38984D02*
Y40076D01*
X79544Y39530D02*
X80636D01*
X80090Y38984D02*
Y40076D01*
X77004Y30767D02*
X78096D01*
X77550Y30221D02*
Y31313D01*
X74464Y30767D02*
X75556D01*
X75010Y30221D02*
Y31313D01*
X79544Y30767D02*
X80636D01*
X80090Y30221D02*
Y31313D01*
X77004Y22258D02*
X78096D01*
X77550Y21712D02*
Y22804D01*
X74464Y22258D02*
X75556D01*
X75010Y21712D02*
Y22804D01*
X79544Y22258D02*
X80636D01*
X80090Y21712D02*
Y22804D01*
X77004Y13749D02*
X78096D01*
X77550Y13203D02*
Y14295D01*
X74464Y13749D02*
X75556D01*
X75010Y13203D02*
Y14295D01*
X79544Y13749D02*
X80636D01*
X80090Y13203D02*
Y14295D01*
X56684Y37752D02*
X57776D01*
X57230Y37206D02*
Y38298D01*
X54144Y37752D02*
X55236D01*
X54690Y37206D02*
Y38298D01*
X59224Y37752D02*
X60316D01*
X59770Y37206D02*
Y38298D01*
X56684Y29243D02*
X57776D01*
X57230Y28697D02*
Y29789D01*
X54144Y29243D02*
X55236D01*
X54690Y28697D02*
Y29789D01*
X59224Y29243D02*
X60316D01*
X59770Y28697D02*
Y29789D01*
X56684Y20734D02*
X57776D01*
X57230Y20188D02*
Y21280D01*
X54144Y20734D02*
X55236D01*
X54690Y20188D02*
Y21280D01*
X59224Y20734D02*
X60316D01*
X59770Y20188D02*
Y21280D01*
X56684Y12479D02*
X57776D01*
X57230Y11933D02*
Y13025D01*
X54144Y12479D02*
X55236D01*
X54690Y11933D02*
Y13025D01*
X59224Y12479D02*
X60316D01*
X59770Y11933D02*
Y13025D01*
X30110Y64676D02*
X31010D01*
X30560Y64226D02*
Y65126D01*
X32650Y64676D02*
X33550D01*
X33100Y64226D02*
Y65126D01*
X35190Y64676D02*
X36090D01*
X35640Y64226D02*
Y65126D01*
X37730Y64676D02*
X38630D01*
X38180Y64226D02*
Y65126D01*
X30110Y72296D02*
X31010D01*
X30560Y71846D02*
Y72746D01*
X32650Y72296D02*
X33550D01*
X33100Y71846D02*
Y72746D01*
X35190Y72296D02*
X36090D01*
X35640Y71846D02*
Y72746D01*
X37730Y72296D02*
X38630D01*
X38180Y71846D02*
Y72746D01*
X42175Y38387D02*
X43075D01*
X42625Y37937D02*
Y38837D01*
X44715Y38387D02*
X45615D01*
X45165Y37937D02*
Y38837D01*
X47255Y38387D02*
X48155D01*
X47705Y37937D02*
Y38837D01*
X49795Y38387D02*
X50695D01*
X50245Y37937D02*
Y38837D01*
X42175Y46007D02*
X43075D01*
X42625Y45557D02*
Y46457D01*
X44715Y46007D02*
X45615D01*
X45165Y45557D02*
Y46457D01*
X47255Y46007D02*
X48155D01*
X47705Y45557D02*
Y46457D01*
X49795Y46007D02*
X50695D01*
X50245Y45557D02*
Y46457D01*
X42175Y64803D02*
X43075D01*
X42625Y64353D02*
Y65253D01*
X44715Y64803D02*
X45615D01*
X45165Y64353D02*
Y65253D01*
X47255Y64803D02*
X48155D01*
X47705Y64353D02*
Y65253D01*
X49795Y64803D02*
X50695D01*
X50245Y64353D02*
Y65253D01*
X42175Y72423D02*
X43075D01*
X42625Y71973D02*
Y72873D01*
X44715Y72423D02*
X45615D01*
X45165Y71973D02*
Y72873D01*
X47255Y72423D02*
X48155D01*
X47705Y71973D02*
Y72873D01*
X49795Y72423D02*
X50695D01*
X50245Y71973D02*
Y72873D01*
X42302Y51595D02*
X43202D01*
X42752Y51145D02*
Y52045D01*
X44842Y51595D02*
X45742D01*
X45292Y51145D02*
Y52045D01*
X47382Y51595D02*
X48282D01*
X47832Y51145D02*
Y52045D01*
X49922Y51595D02*
X50822D01*
X50372Y51145D02*
Y52045D01*
X42302Y59215D02*
X43202D01*
X42752Y58765D02*
Y59665D01*
X44842Y59215D02*
X45742D01*
X45292Y58765D02*
Y59665D01*
X47382Y59215D02*
X48282D01*
X47832Y58765D02*
Y59665D01*
X49922Y59215D02*
X50822D01*
X50372Y58765D02*
Y59665D01*
X49264Y6637D02*
X50464D01*
X49864Y6037D02*
Y7237D01*
X53074Y6637D02*
X54274D01*
X53674Y6037D02*
Y7237D01*
X56884Y6637D02*
X58084D01*
X57484Y6037D02*
Y7237D01*
X60694Y6637D02*
X61894D01*
X61294Y6037D02*
Y7237D01*
X64504Y6637D02*
X65704D01*
X65104Y6037D02*
Y7237D01*
X28309Y6637D02*
X29509D01*
X28909Y6037D02*
Y7237D01*
X32119Y6637D02*
X33319D01*
X32719Y6037D02*
Y7237D01*
X35929Y6637D02*
X37129D01*
X36529Y6037D02*
Y7237D01*
X39739Y6637D02*
X40939D01*
X40339Y6037D02*
Y7237D01*
X43549Y6637D02*
X44749D01*
X44149Y6037D02*
Y7237D01*
X7354Y6637D02*
X8554D01*
X7954Y6037D02*
Y7237D01*
X11164Y6637D02*
X12364D01*
X11764Y6037D02*
Y7237D01*
X14974Y6637D02*
X16174D01*
X15574Y6037D02*
Y7237D01*
X18784Y6637D02*
X19984D01*
X19384Y6037D02*
Y7237D01*
X22594Y6637D02*
X23794D01*
X23194Y6037D02*
Y7237D01*
X97874Y34450D02*
X98374D01*
X98124Y34200D02*
Y34700D01*
X101117Y34417D02*
X101829D01*
X101473Y34061D02*
Y34773D01*
X95656Y49530D02*
X96368D01*
X96012Y49174D02*
Y49886D01*
X96037Y66421D02*
X96749D01*
X96393Y66065D02*
Y66777D01*
X87020Y66929D02*
X87732D01*
X87376Y66573D02*
Y67285D01*
X59842Y33147D02*
X60554D01*
X60198Y32791D02*
Y33503D01*
X48158Y27051D02*
X48870D01*
X48514Y26695D02*
Y27407D01*
X79908Y34544D02*
X80620D01*
X80264Y34188D02*
Y34900D01*
X79908Y25908D02*
X80620D01*
X80264Y25552D02*
Y26264D01*
X79781Y17526D02*
X80493D01*
X80137Y17170D02*
Y17882D01*
X54254Y16129D02*
X54966D01*
X54610Y15773D02*
Y16485D01*
X134772Y73025D02*
X135484D01*
X135128Y72669D02*
Y73381D01*
X128295Y67310D02*
X129007D01*
X128651Y66954D02*
Y67666D01*
X120675Y91313D02*
X121387D01*
X121031Y90957D02*
Y91669D01*
X121691Y81534D02*
X122403D01*
X122047Y81178D02*
Y81890D01*
X96672Y74803D02*
X97384D01*
X97028Y74447D02*
Y75159D01*
X24790Y19177D02*
X25502D01*
X25146Y18821D02*
Y19533D01*
X29997Y23495D02*
X30709D01*
X30353Y23139D02*
Y23851D01*
X88544Y52451D02*
X89256D01*
X88900Y52095D02*
Y52807D01*
X114325Y54356D02*
X115037D01*
X114681Y54000D02*
Y54712D01*
X14630Y72390D02*
X15342D01*
X14986Y72034D02*
Y72746D01*
X102721Y52738D02*
X103433D01*
X103077Y52382D02*
Y53094D01*
X102594Y50833D02*
X103306D01*
X102950Y50477D02*
Y51189D01*
X101070Y49817D02*
X101782D01*
X101426Y49461D02*
Y50173D01*
X100435Y52738D02*
X101147D01*
X100791Y52382D02*
Y53094D01*
X99800Y55405D02*
X100512D01*
X100156Y55049D02*
Y55761D01*
X14456Y42451D02*
X15168D01*
X14812Y42095D02*
Y42807D01*
X12170Y62136D02*
X12882D01*
X12526Y61780D02*
Y62492D01*
X14075Y53500D02*
X14787D01*
X14431Y53144D02*
Y53856D01*
X37697Y62009D02*
X38409D01*
X38053Y61653D02*
Y62365D01*
X81766Y81948D02*
X82478D01*
X82122Y81592D02*
Y82304D01*
X82147Y72423D02*
X82859D01*
X82503Y72067D02*
Y72779D01*
X125581Y52357D02*
X126293D01*
X125937Y52001D02*
Y52713D01*
X117707Y52865D02*
X118419D01*
X118063Y52509D02*
Y53221D01*
X108817Y51976D02*
X109529D01*
X109173Y51620D02*
Y52332D01*
X108817Y60612D02*
X109529D01*
X109173Y60256D02*
Y60968D01*
X100562Y43086D02*
X101274D01*
X100918Y42730D02*
Y43442D01*
X100562Y45245D02*
X101274D01*
X100918Y44889D02*
Y45601D01*
X123422Y23909D02*
X124134D01*
X123778Y23553D02*
Y24265D01*
X121771Y22766D02*
X122483D01*
X122127Y22410D02*
Y23122D01*
X106404Y41689D02*
X107116D01*
X106760Y41333D02*
Y42045D01*
X122914Y58834D02*
X123626D01*
X123270Y58478D02*
Y59190D01*
X127486Y76360D02*
X128198D01*
X127842Y76004D02*
Y76716D01*
X139297Y65311D02*
X140009D01*
X139653Y64955D02*
Y65667D01*
X117834Y50706D02*
X118546D01*
X118190Y50350D02*
Y51062D01*
X116691Y48039D02*
X117403D01*
X117047Y47683D02*
Y48395D01*
X137773Y50325D02*
X138485D01*
X138129Y49969D02*
Y50681D01*
X122914Y49944D02*
X123626D01*
X123270Y49588D02*
Y50300D01*
X105769Y62390D02*
X106481D01*
X106125Y62034D02*
Y62746D01*
X138535Y35085D02*
X139247D01*
X138891Y34729D02*
Y35441D01*
X132439Y25814D02*
X133151D01*
X132795Y25458D02*
Y26170D01*
X131804Y30767D02*
X132516D01*
X132160Y30411D02*
Y31123D01*
X128154Y38133D02*
X128866D01*
X128510Y37777D02*
Y38489D01*
X126851Y33688D02*
X127563D01*
X127207Y33332D02*
Y34044D01*
X124184Y38006D02*
X124896D01*
X124540Y37650D02*
Y38362D01*
X130661Y28735D02*
X131373D01*
X131017Y28379D02*
Y29091D01*
X95736Y51341D02*
X96448D01*
X96092Y50985D02*
Y51697D01*
X122025Y74836D02*
X122737D01*
X122381Y74480D02*
Y75192D01*
X114405Y77122D02*
X115117D01*
X114761Y76766D02*
Y77478D01*
X132439Y53500D02*
X133151D01*
X132795Y53144D02*
Y53856D01*
X84687Y68359D02*
X85399D01*
X85043Y68003D02*
Y68715D01*
X108563Y44102D02*
X109275D01*
X108919Y43746D02*
Y44458D01*
X108563Y46515D02*
X109275D01*
X108919Y46159D02*
Y46871D01*
X52175Y41689D02*
X52887D01*
X52531Y41333D02*
Y42045D01*
X101832Y37625D02*
X102544D01*
X102188Y37269D02*
Y37981D01*
X44936Y31783D02*
X45648D01*
X45292Y31427D02*
Y32139D01*
X102340Y29370D02*
X103052D01*
X102696Y29014D02*
Y29726D01*
X92307Y38895D02*
X93019D01*
X92663Y38539D02*
Y39251D01*
X94085Y34704D02*
X94797D01*
X94441Y34348D02*
Y35060D01*
X98657Y59215D02*
X99369D01*
X99013Y58859D02*
Y59571D01*
X99800Y60485D02*
X100512D01*
X100156Y60129D02*
Y60841D01*
X96879Y60485D02*
X97591D01*
X97235Y60129D02*
Y60841D01*
X78972Y74074D02*
X79684D01*
X79328Y73718D02*
Y74430D01*
X76051Y76995D02*
X76763D01*
X76407Y76639D02*
Y77351D01*
X81131Y87917D02*
X81843D01*
X81487Y87561D02*
Y88273D01*
X130661Y52357D02*
X131373D01*
X131017Y52001D02*
Y52713D01*
X131931Y51214D02*
X132643D01*
X132287Y50858D02*
Y51570D01*
X95736Y56167D02*
X96448D01*
X96092Y55811D02*
Y56523D01*
X101197Y25687D02*
X101909D01*
X101553Y25331D02*
Y26043D01*
X101578Y12987D02*
X102290D01*
X101934Y12631D02*
Y13343D01*
X95609Y58199D02*
X96321D01*
X95965Y57843D02*
Y58555D01*
X93958Y59469D02*
X94670D01*
X94314Y59113D02*
Y59825D01*
X81766Y55405D02*
X82478D01*
X82122Y55049D02*
Y55761D01*
X83417Y54135D02*
X84129D01*
X83773Y53779D02*
Y54491D01*
X84501Y52611D02*
X85213D01*
X84857Y52255D02*
Y52967D01*
X85576Y50833D02*
X86288D01*
X85932Y50477D02*
Y51189D01*
X102086Y54516D02*
X102798D01*
X102442Y54160D02*
Y54872D01*
X102975Y73185D02*
X103687D01*
X103331Y72829D02*
Y73541D01*
X86846Y48928D02*
X87558D01*
X87202Y48572D02*
Y49284D01*
X87862Y47277D02*
X88574D01*
X88218Y46921D02*
Y47633D01*
X85703Y60993D02*
X86415D01*
X86059Y60637D02*
Y61349D01*
X84560Y62644D02*
X85272D01*
X84916Y62288D02*
Y63000D01*
X83290Y64295D02*
X84002D01*
X83646Y63939D02*
Y64651D01*
X81766Y65311D02*
X82478D01*
X82122Y64955D02*
Y65667D01*
X85674Y38641D02*
X86174D01*
X85924Y38391D02*
Y38891D01*
X85682Y30005D02*
X86182D01*
X85932Y29755D02*
Y30255D01*
X85682Y21496D02*
X86182D01*
X85932Y21246D02*
Y21746D01*
X85682Y12924D02*
X86182D01*
X85932Y12674D02*
Y13174D01*
X52429Y51214D02*
X53141D01*
X52785Y50858D02*
Y51570D01*
X65235Y11590D02*
X65735D01*
X65485Y11340D02*
Y11840D01*
X65235Y19909D02*
X65735D01*
X65485Y19659D02*
Y20159D01*
X65235Y28354D02*
X65735D01*
X65485Y28104D02*
Y28604D01*
X65235Y36863D02*
X65735D01*
X65485Y36613D02*
Y37113D01*
X82655Y16797D02*
X83367D01*
X83011Y16441D02*
Y17153D01*
X82655Y25306D02*
X83367D01*
X83011Y24950D02*
Y25662D01*
X82655Y33434D02*
X83367D01*
X83011Y33078D02*
Y33790D01*
X82655Y41943D02*
X83367D01*
X83011Y41587D02*
Y42299D01*
X62208Y40546D02*
X62920D01*
X62564Y40190D02*
Y40902D01*
X62208Y32037D02*
X62920D01*
X62564Y31681D02*
Y32393D01*
X62208Y23909D02*
X62920D01*
X62564Y23553D02*
Y24265D01*
X62208Y15400D02*
X62920D01*
X62564Y15044D02*
Y15756D01*
M02*
