M48
;Layer_Color=9474304
;FILE_FORMAT=4:3
METRIC,LZ
;TYPE=PLATED
T1F00S00C0.500
T2F00S00C0.711
T3F00S00C0.800
T4F00S00C0.900
T5F00S00C1.000
T6F00S00C1.092
T7F00S00C1.200
T8F00S00C1.400
T9F00S00C1.500
T10F00S00C1.600
T11F00S00C3.000
%
T01
X0065485Y001159
Y0019909
Y0028354
X0085932Y0021496
Y0012924
Y0030005
X0085924Y0038641
X0098124Y003445
X0065485Y0036863
T02
X0025146Y0019177
X0030353Y0023495
X0048514Y0027051
X005461Y0016129
X0062564Y00154
Y0023909
X0080264Y0025908
X0083011Y0025306
Y0016797
X0080137Y0017526
X0101934Y0012987
X0101553Y0025687
X0102696Y002937
X0122127Y0022766
X0123778Y0023909
X0132795Y0025814
X0131017Y0028735
X013216Y0030767
X0127207Y0033688
X012851Y0038133
X012454Y0038006
X012327Y0049944
X0125937Y0052357
X0131017
X0132287Y0051214
X0132795Y00535
X0138129Y0050325
X0138891Y0035085
X0139653Y0065311
X0128651Y006731
X012327Y0058834
X0118063Y0052865
X011819Y0050706
X0117047Y0048039
X0114681Y0054356
X0109173Y0051976
X0108919Y0046515
Y0044102
X010676Y0041689
X0100375Y0043625
X0100918Y0045245
X0101426Y0049817
X010295Y0050833
X0103077Y0052738
X0100791
X0102442Y0054516
X0100203Y0056007
X0096092Y0056167
X0095965Y0058199
X0094314Y0059469
X0097235Y0060485
X0100156
X0099013Y0059215
X0096393Y0066421
X0087376Y0066929
X0085043Y0068359
X0083646Y0064295
X0082122Y0065311
X0084916Y0062644
X0086059Y0060993
X0083773Y0054135
X0084603Y0052484
X0085932Y0050833
X0087202Y0048928
X0088218Y0047277
X00889Y0052451
X0097028Y0051181
X0096012Y004953
X009271Y0037592
X0094441Y0034704
X0101473Y0034417
X0102188Y0037625
X0083011Y0033434
X0080264Y0034544
X0083011Y0041943
X0082122Y0055405
X0106125Y006239
X0109173Y0060612
X0052785Y0051214
X0052531Y0041689
X0062564Y0040546
Y0032037
X0060198Y0033147
X0045292Y0031783
X0038053Y0062009
X0012526Y0062136
X0014431Y00535
X0014812Y0042451
X0014986Y007239
X0076407Y0076995
X0079328Y0074074
X0082503Y0072423
X0082122Y0081948
X0081487Y0087917
X0097028Y0074803
X0103331Y0073185
X0114761Y0077122
X0122381Y0074836
X0127842Y007636
X0135128Y0073025
X0122047Y0081534
X0121031Y0091313
T03
X0118063Y0041308
Y0043848
X0123397Y0043467
Y0046007
X0074121Y0075344
X0071581
X0069168
X0066628
X0064088
X0061548
X0059135
X0056595
T04
X0076407Y0051341
Y0058961
X0076534Y0063406
X0073994
X0071454
X0068914
X0068787Y0058961
X0071327
X0073867
Y0051341
X0071327
X0068787
X0064215
X0061675
X0059135
X0056595
X0050372Y0051595
X0047832
X0045292
X0042752
X0038053Y0051468
X0035513
Y0046007
X0038053
X0042625
X0045165
X0047705
X0050245
Y0038387
X0047705
X0045165
X0042625
X0038053
X0035513
Y0059088
X0038053
X0042752Y0059215
X0045292
X0047832
X0050372
X0050245Y0064803
X0047705
X0045165
X0042625
X003818Y0064676
X003564
X0056468Y0063279
X0059008
X0061548
X0064088
X0064215Y0058961
X0061675
X0059135
X0056595
X0032973Y0059088
X0030433
X0025861
X0023321
X0020781
X0018241
Y0064676
X0020781
X0023321
X0025861
X003056
X00331
X0032973Y0051468
X0030433
X0025861
X0023321
X0020781
X0018241
Y0046007
X0020781
X0023321
X0025861
X0030433
X0032973
Y0038387
X0030433
X0025861
X0023321
X0020781
X0018241
X0012653
X0010113
X0007573
X0005033
Y0046007
X0007573
X0010113
X0012653
X0012526Y0051468
X0009986
X0007446
X0004906
Y0059088
X0007446
X0009986
X0012526
Y0064676
X0009986
X0007446
X0004906
Y0072296
X0007446
X0009986
X0012526
X0018241
X0020781
X0023321
X0025861
X003056
X00331
X0014645Y0082202
X0009645
X003564Y0072296
X003818
X0042625Y0072423
X0045165
X0047705
X0050245
X0056468Y0070899
X0059008
X0061548
X0064088
X0068914Y0071026
X0071454
X0073994
X0071835Y0079281
X0069295
X0066755
X0064215
X0061675
X0059135
Y0086901
X0061675
X0064215
X0066755
X0069295
X0071835
X0050078Y0083345
X0045078
X0074375Y0086901
X0076915
Y0079281
X0074375
X0076534Y0071026
X008644Y0075852
X008898
X009152
X009406
Y0083472
X009152
X008898
X008644
X0103458Y0083218
X0105998
X0108538
X0111078
Y0075598
X0108538
X0105998
X0103458
T05
X0007827Y0011209
X0013669
X0019511
X0025226
X0031068
X003691
X0042625
X0048467
Y0034069
X0042625
X003691
X0031068
X0025226
X0019511
X0013669
X0007827
T06
X005469Y0012479
X005723
X005977
X005723Y0015527
Y0020734
X005977
X005469
X005723Y0023909
Y0029243
X005977
X005469
X006739Y0025433
Y0023909
Y0017051
Y0015527
X007501Y0013749
X007755
X008009
X007755Y0017051
Y0022258
X008009
X007501
X007755Y0025433
Y0030767
X008009
X007501
X007755Y0033815
Y003953
X008009
X007501
X007755Y0042578
X006739Y0042578
Y0040927
Y0033815
Y0032291
X005723Y0032291
Y0037752
X005977
X005469
X005723Y0040927
T07
X0007954Y0006637
X0011764
X0015574
X0019384
X0023194
X0028909
X0032719
X0036529
X0040339
X0044149
X0049864
X0053674
X0057484
X0061294
X0065104
X0070819
X0074629
X0078439
X0082249
X0086059
X012962Y00408
X013216
X01347
X0113745Y0057056
Y0059596
Y0062136
Y0064676
Y0067216
Y0069756
T08
X009279Y0008669
X009787
X010549
X011057
X011819
X012327
X013089
X013597
X0014685Y0091346
X0009605
X0069168
X0074248
X0079328
X0087583
X0092663
X010168
X010676
X011184
X011692
X0125175
X0130255
X0135335
T09
X0114222Y0017385
Y0037885
T10
X002167Y0095283
X004199
T11
X0003Y0003
X0142
X0003Y0097
X0063119
X0142
M30
