%FSLAX43Y43*%
%MOMM*%
G71*
G01*
G75*
%ADD10R,2.950X1.050*%
%ADD11R,9.000X10.600*%
%ADD12R,3.000X2.800*%
%ADD13R,1.050X1.400*%
%ADD14R,0.950X1.400*%
%ADD15O,0.350X2.100*%
%ADD16R,1.016X1.270*%
%ADD17R,1.270X1.016*%
%ADD18R,1.400X0.950*%
%ADD19R,1.550X0.600*%
%ADD20O,1.800X0.300*%
%ADD21O,0.300X1.800*%
%ADD22R,6.096X1.200*%
%ADD23O,2.200X0.600*%
%ADD24R,0.600X1.550*%
%ADD25R,2.200X1.800*%
%ADD26R,1.300X0.600*%
%ADD27R,4.100X1.520*%
%ADD28R,0.610X2.032*%
%ADD29O,0.610X2.032*%
%ADD30C,0.300*%
%ADD31C,0.250*%
%ADD32C,0.500*%
%ADD33C,0.400*%
%ADD34C,0.254*%
%ADD35C,1.000*%
%ADD36C,2.000*%
%ADD37C,3.000*%
%ADD38C,0.800*%
%ADD39C,0.127*%
%ADD40C,1.900*%
%ADD41C,1.500*%
%ADD42C,1.500*%
%ADD43R,1.500X1.500*%
G04:AMPARAMS|DCode=44|XSize=1.778mm|YSize=2.54mm|CornerRadius=0.445mm|HoleSize=0mm|Usage=FLASHONLY|Rotation=180.000|XOffset=0mm|YOffset=0mm|HoleType=Round|Shape=RoundedRectangle|*
%AMROUNDEDRECTD44*
21,1,1.778,1.651,0,0,180.0*
21,1,0.889,2.540,0,0,180.0*
1,1,0.889,-0.445,0.826*
1,1,0.889,0.445,0.826*
1,1,0.889,0.445,-0.826*
1,1,0.889,-0.445,-0.826*
%
%ADD44ROUNDEDRECTD44*%
%ADD45C,2.300*%
%ADD46C,2.032*%
%ADD47R,1.524X1.524*%
%ADD48C,2.100*%
%ADD49R,1.500X1.500*%
%ADD50R,2.000X2.000*%
%ADD51C,2.000*%
%ADD52R,1.500X1.500*%
%ADD53C,2.200*%
%ADD54C,1.524*%
%ADD55C,1.600*%
%ADD56R,1.600X1.600*%
%ADD57C,1.700*%
%ADD58C,1.270*%
%ADD59C,1.000*%
%ADD60C,1.500*%
%ADD61C,0.200*%
%ADD62C,0.600*%
%ADD63C,0.178*%
%ADD64C,0.203*%
%ADD65C,0.152*%
%ADD66C,0.150*%
%ADD67R,0.965X2.134*%
G36*
X144373Y78556D02*
X144379Y78555D01*
X144379D01*
X144383Y78554D01*
X144387Y78553D01*
X144391Y78552D01*
X144392D01*
X144393Y78551D01*
X144397Y78547D01*
X144398Y78546D01*
X144399Y78541D01*
Y78255D01*
Y78253D01*
X144397Y78249D01*
X144395Y78247D01*
X144391Y78244D01*
X144390D01*
X144387Y78243D01*
X144383Y78242D01*
X144379Y78241D01*
X144374D01*
X144368Y78240D01*
X144346D01*
X144340Y78241D01*
X144339D01*
X144336Y78242D01*
X144332Y78243D01*
X144328Y78244D01*
X144327D01*
X144325Y78245D01*
X144323Y78247D01*
X144321Y78249D01*
X144320Y78250D01*
X144319Y78251D01*
X144318Y78253D01*
Y78256D01*
Y78352D01*
X143982D01*
X144027Y78268D01*
X144028Y78268D01*
X144030Y78264D01*
X144032Y78259D01*
X144033Y78254D01*
Y78253D01*
Y78251D01*
Y78247D01*
X144031Y78244D01*
X144030D01*
X144028Y78242D01*
X144024Y78241D01*
X144020Y78240D01*
X144013D01*
X144006Y78239D01*
X143976D01*
X143970Y78241D01*
X143969D01*
X143967Y78242D01*
X143962Y78245D01*
X143961Y78246D01*
X143960Y78247D01*
X143956Y78253D01*
X143884Y78364D01*
X143883Y78365D01*
X143881Y78369D01*
Y78370D01*
X143880Y78371D01*
Y78377D01*
Y78378D01*
X143879Y78381D01*
Y78385D01*
Y78389D01*
Y78390D01*
X143878Y78395D01*
Y78401D01*
Y78410D01*
Y78411D01*
Y78413D01*
Y78419D01*
Y78426D01*
X143879Y78433D01*
Y78435D01*
X143880Y78439D01*
X143881Y78444D01*
X143882Y78448D01*
Y78449D01*
X143883Y78451D01*
X143884Y78453D01*
X143886Y78455D01*
X143887Y78456D01*
X143891Y78457D01*
X144318D01*
Y78541D01*
Y78542D01*
Y78543D01*
X144319Y78546D01*
X144321Y78547D01*
Y78548D01*
X144323Y78549D01*
X144325Y78550D01*
X144328Y78552D01*
X144329D01*
X144331Y78553D01*
X144336Y78554D01*
X144340Y78555D01*
X144341D01*
X144345Y78556D01*
X144352Y78557D01*
X144366D01*
X144373Y78556D01*
D02*
G37*
G36*
X144246Y78970D02*
X144257Y78969D01*
X144268Y78967D01*
X144281Y78965D01*
X144294Y78961D01*
X144306Y78956D01*
X144307Y78955D01*
X144312Y78953D01*
X144318Y78950D01*
X144326Y78945D01*
X144335Y78940D01*
X144343Y78933D01*
X144353Y78924D01*
X144362Y78914D01*
X144363Y78913D01*
X144366Y78909D01*
X144370Y78903D01*
X144375Y78897D01*
X144380Y78887D01*
X144385Y78876D01*
X144391Y78864D01*
X144396Y78851D01*
Y78849D01*
X144398Y78844D01*
X144400Y78837D01*
X144402Y78826D01*
X144404Y78815D01*
X144406Y78800D01*
X144407Y78784D01*
X144408Y78768D01*
Y78767D01*
Y78764D01*
Y78759D01*
X144407Y78753D01*
Y78746D01*
X144406Y78739D01*
X144404Y78722D01*
Y78721D01*
X144403Y78718D01*
Y78714D01*
X144402Y78709D01*
X144400Y78697D01*
X144397Y78683D01*
Y78682D01*
X144396Y78680D01*
X144395Y78677D01*
X144394Y78673D01*
X144391Y78664D01*
X144388Y78656D01*
X144387Y78654D01*
X144385Y78650D01*
X144382Y78645D01*
X144380Y78641D01*
X144379D01*
X144379Y78639D01*
X144375Y78636D01*
X144374D01*
X144372Y78635D01*
X144366Y78633D01*
X144362D01*
X144358Y78632D01*
X144315D01*
X144311Y78633D01*
X144308Y78634D01*
X144304Y78635D01*
X144303D01*
X144301Y78636D01*
X144300Y78638D01*
X144298Y78639D01*
X144297Y78640D01*
X144296Y78641D01*
X144295Y78643D01*
Y78645D01*
Y78646D01*
X144296Y78648D01*
X144297Y78652D01*
X144300Y78657D01*
X144300Y78659D01*
X144302Y78663D01*
X144306Y78669D01*
X144310Y78678D01*
Y78679D01*
X144311Y78681D01*
X144312Y78684D01*
X144313Y78688D01*
X144316Y78698D01*
X144320Y78711D01*
Y78712D01*
X144321Y78715D01*
Y78719D01*
X144322Y78724D01*
X144323Y78731D01*
Y78739D01*
X144324Y78757D01*
Y78758D01*
Y78761D01*
Y78766D01*
X144323Y78771D01*
X144322Y78784D01*
X144320Y78799D01*
Y78800D01*
X144319Y78802D01*
X144318Y78806D01*
X144316Y78811D01*
X144311Y78821D01*
X144304Y78831D01*
X144303Y78832D01*
X144302Y78833D01*
X144297Y78839D01*
X144289Y78846D01*
X144278Y78852D01*
X144277D01*
X144275Y78853D01*
X144271Y78855D01*
X144267Y78856D01*
X144261Y78858D01*
X144255Y78859D01*
X144240Y78860D01*
X144233D01*
X144228Y78859D01*
X144218Y78857D01*
X144206Y78853D01*
X144205D01*
X144203Y78852D01*
X144197Y78848D01*
X144188Y78842D01*
X144181Y78834D01*
X144180Y78833D01*
X144179Y78832D01*
X144177Y78829D01*
X144175Y78825D01*
X144170Y78815D01*
X144165Y78801D01*
Y78800D01*
X144164Y78797D01*
X144163Y78793D01*
X144162Y78787D01*
X144161Y78780D01*
X144160Y78772D01*
X144159Y78762D01*
Y78751D01*
Y78750D01*
Y78747D01*
Y78743D01*
Y78738D01*
X144160Y78724D01*
X144162Y78709D01*
Y78708D01*
Y78706D01*
X144163Y78703D01*
Y78698D01*
X144164Y78687D01*
Y78674D01*
Y78672D01*
X144163Y78667D01*
X144162Y78663D01*
X144159Y78658D01*
X144158Y78657D01*
X144154Y78656D01*
X144147Y78654D01*
X144138Y78653D01*
X143909D01*
X143904Y78654D01*
X143897Y78656D01*
X143890Y78659D01*
X143889Y78660D01*
X143886Y78664D01*
X143883Y78669D01*
X143882Y78678D01*
Y78923D01*
Y78924D01*
Y78925D01*
X143883Y78927D01*
X143885Y78929D01*
Y78930D01*
X143887Y78931D01*
X143889Y78933D01*
X143893Y78935D01*
X143894D01*
X143897Y78936D01*
X143901Y78937D01*
X143906Y78938D01*
X143908D01*
X143912Y78939D01*
X143919Y78940D01*
X143935D01*
X143940Y78939D01*
X143951Y78938D01*
X143956Y78937D01*
X143961Y78935D01*
X143963Y78934D01*
X143966Y78932D01*
X143970Y78928D01*
X143971Y78926D01*
X143972Y78923D01*
Y78740D01*
X144083D01*
Y78741D01*
Y78742D01*
X144082Y78748D01*
X144081Y78757D01*
Y78767D01*
Y78768D01*
Y78769D01*
Y78772D01*
X144080Y78776D01*
Y78785D01*
Y78796D01*
Y78797D01*
Y78798D01*
Y78803D01*
X144081Y78811D01*
Y78822D01*
X144083Y78832D01*
X144085Y78845D01*
X144087Y78858D01*
X144091Y78870D01*
Y78871D01*
X144093Y78876D01*
X144095Y78882D01*
X144098Y78889D01*
X144102Y78898D01*
X144106Y78907D01*
X144119Y78925D01*
X144120Y78926D01*
X144122Y78929D01*
X144127Y78933D01*
X144132Y78938D01*
X144139Y78943D01*
X144146Y78949D01*
X144156Y78954D01*
X144166Y78959D01*
X144167Y78960D01*
X144171Y78961D01*
X144177Y78963D01*
X144184Y78965D01*
X144194Y78967D01*
X144205Y78969D01*
X144218Y78971D01*
X144238D01*
X144246Y78970D01*
D02*
G37*
G36*
X143939Y77653D02*
X143945Y77652D01*
X143946D01*
X143950Y77651D01*
X143954Y77650D01*
X143959Y77649D01*
X143960D01*
X143962Y77648D01*
X143964Y77646D01*
X143966Y77644D01*
X143967Y77642D01*
X143968Y77637D01*
Y77509D01*
X144386D01*
X144389Y77508D01*
X144392Y77506D01*
Y77505D01*
X144394Y77504D01*
X144395Y77501D01*
X144397Y77497D01*
Y77496D01*
X144398Y77493D01*
X144399Y77487D01*
X144400Y77480D01*
Y77478D01*
Y77474D01*
X144401Y77466D01*
Y77456D01*
Y77455D01*
Y77453D01*
Y77450D01*
Y77447D01*
Y77438D01*
X144400Y77430D01*
Y77428D01*
X144399Y77424D01*
X144398Y77419D01*
X144397Y77414D01*
Y77413D01*
X144396Y77411D01*
X144394Y77408D01*
X144392Y77405D01*
X144391D01*
X144389Y77404D01*
X144384Y77403D01*
X143968D01*
Y77274D01*
Y77273D01*
Y77271D01*
X143966Y77266D01*
X143964Y77265D01*
X143962Y77264D01*
X143959Y77262D01*
X143958D01*
X143955Y77261D01*
X143951Y77260D01*
X143945Y77259D01*
X143940D01*
X143934Y77258D01*
X143912D01*
X143905Y77259D01*
X143904D01*
X143901Y77260D01*
X143896Y77261D01*
X143892Y77262D01*
X143891D01*
X143889Y77263D01*
X143887Y77265D01*
X143885Y77266D01*
X143884Y77267D01*
X143883Y77268D01*
X143882Y77271D01*
Y77274D01*
Y77638D01*
Y77639D01*
Y77640D01*
X143883Y77642D01*
X143885Y77644D01*
Y77645D01*
X143887Y77646D01*
X143889Y77647D01*
X143892Y77649D01*
X143893D01*
X143896Y77650D01*
X143900Y77651D01*
X143905Y77652D01*
X143906D01*
X143911Y77653D01*
X143917Y77654D01*
X143933D01*
X143939Y77653D01*
D02*
G37*
G36*
X143977Y78128D02*
X143984Y78127D01*
X143984D01*
X143988Y78126D01*
X143992Y78125D01*
X143996Y78124D01*
X143997D01*
X143999Y78123D01*
X144001Y78122D01*
X144003Y78120D01*
X144004Y78118D01*
X144005Y78114D01*
Y78113D01*
X144004Y78110D01*
X144002Y78105D01*
X143998Y78097D01*
X143997Y78095D01*
X143993Y78089D01*
X143988Y78079D01*
X143983Y78067D01*
Y78066D01*
X143981Y78063D01*
X143980Y78059D01*
X143978Y78054D01*
X143975Y78047D01*
X143972Y78039D01*
X143967Y78021D01*
Y78020D01*
X143966Y78016D01*
X143964Y78011D01*
X143963Y78003D01*
X143961Y77994D01*
X143960Y77984D01*
X143959Y77972D01*
Y77959D01*
Y77957D01*
Y77953D01*
X143960Y77946D01*
X143961Y77937D01*
X143962Y77926D01*
X143965Y77914D01*
X143968Y77903D01*
X143973Y77891D01*
X143974Y77890D01*
X143975Y77886D01*
X143978Y77880D01*
X143983Y77873D01*
X143987Y77865D01*
X143993Y77857D01*
X144001Y77848D01*
X144010Y77839D01*
X144011Y77838D01*
X144014Y77835D01*
X144019Y77832D01*
X144025Y77828D01*
X144034Y77822D01*
X144044Y77816D01*
X144055Y77811D01*
X144066Y77806D01*
X144068D01*
X144072Y77804D01*
X144079Y77803D01*
X144088Y77801D01*
X144099Y77799D01*
X144111Y77797D01*
X144125Y77796D01*
X144140Y77795D01*
X144147D01*
X144155Y77796D01*
X144166Y77797D01*
X144179Y77798D01*
X144192Y77800D01*
X144205Y77803D01*
X144219Y77807D01*
X144220Y77808D01*
X144224Y77809D01*
X144230Y77812D01*
X144238Y77816D01*
X144247Y77820D01*
X144257Y77826D01*
X144275Y77839D01*
X144276Y77840D01*
X144279Y77843D01*
X144283Y77848D01*
X144288Y77854D01*
X144294Y77861D01*
X144299Y77870D01*
X144304Y77879D01*
X144309Y77890D01*
Y77891D01*
X144311Y77895D01*
X144312Y77902D01*
X144314Y77910D01*
X144316Y77919D01*
X144318Y77931D01*
X144319Y77943D01*
X144320Y77956D01*
Y77957D01*
Y77959D01*
Y77963D01*
X144319Y77967D01*
X144318Y77978D01*
X144316Y77991D01*
Y77991D01*
X144315Y77993D01*
X144314Y77997D01*
X144313Y78001D01*
X144309Y78012D01*
X144304Y78024D01*
X144185D01*
Y77925D01*
Y77924D01*
X144184Y77921D01*
X144181Y77917D01*
X144177Y77914D01*
X144175Y77913D01*
X144173D01*
X144170Y77912D01*
X144165Y77912D01*
X144160D01*
X144154Y77911D01*
X144134D01*
X144128Y77912D01*
X144127D01*
X144123Y77912D01*
X144119Y77913D01*
X144115Y77914D01*
X144114D01*
X144112Y77915D01*
X144110Y77917D01*
X144108Y77918D01*
X144107Y77919D01*
X144106Y77920D01*
X144105Y77922D01*
Y77925D01*
Y78100D01*
Y78101D01*
Y78104D01*
X144106Y78107D01*
X144108Y78110D01*
Y78111D01*
X144110Y78113D01*
X144112Y78116D01*
X144115Y78119D01*
X144116Y78120D01*
X144118Y78121D01*
X144121Y78123D01*
X144126Y78125D01*
X144127Y78126D01*
X144130Y78127D01*
X144134Y78128D01*
X144346D01*
X144352Y78127D01*
X144359Y78126D01*
X144366Y78123D01*
X144367Y78122D01*
X144371Y78119D01*
X144376Y78114D01*
X144380Y78106D01*
Y78105D01*
X144381Y78104D01*
X144382Y78101D01*
X144383Y78097D01*
X144387Y78087D01*
X144391Y78073D01*
Y78072D01*
X144392Y78071D01*
X144393Y78067D01*
X144394Y78062D01*
X144396Y78049D01*
X144399Y78034D01*
Y78033D01*
X144400Y78031D01*
Y78027D01*
X144401Y78022D01*
X144402Y78015D01*
X144403Y78008D01*
X144405Y77992D01*
Y77991D01*
Y77989D01*
X144406Y77985D01*
Y77980D01*
X144407Y77973D01*
Y77966D01*
X144408Y77951D01*
Y77950D01*
Y77948D01*
Y77945D01*
Y77940D01*
X144407Y77935D01*
Y77928D01*
X144406Y77913D01*
X144404Y77896D01*
X144400Y77877D01*
X144396Y77858D01*
X144390Y77839D01*
Y77838D01*
X144389Y77837D01*
X144387Y77832D01*
X144382Y77822D01*
X144378Y77811D01*
X144370Y77797D01*
X144361Y77784D01*
X144351Y77770D01*
X144339Y77756D01*
X144338Y77754D01*
X144334Y77751D01*
X144326Y77745D01*
X144316Y77737D01*
X144304Y77729D01*
X144290Y77720D01*
X144274Y77712D01*
X144257Y77705D01*
X144256D01*
X144255Y77704D01*
X144252Y77703D01*
X144248Y77702D01*
X144238Y77699D01*
X144224Y77696D01*
X144208Y77693D01*
X144189Y77690D01*
X144169Y77688D01*
X144146Y77687D01*
X144136D01*
X144130Y77688D01*
X144124D01*
X144108Y77689D01*
X144091Y77692D01*
X144071Y77695D01*
X144052Y77700D01*
X144032Y77706D01*
X144031D01*
X144030Y77707D01*
X144027Y77708D01*
X144023Y77710D01*
X144015Y77714D01*
X144002Y77720D01*
X143989Y77727D01*
X143975Y77737D01*
X143960Y77748D01*
X143946Y77760D01*
X143944Y77762D01*
X143941Y77766D01*
X143935Y77774D01*
X143927Y77784D01*
X143918Y77796D01*
X143909Y77811D01*
X143901Y77828D01*
X143893Y77845D01*
Y77846D01*
X143892Y77847D01*
X143891Y77850D01*
X143890Y77854D01*
X143887Y77864D01*
X143883Y77877D01*
X143879Y77894D01*
X143876Y77913D01*
X143874Y77934D01*
X143873Y77956D01*
Y77958D01*
Y77962D01*
Y77968D01*
X143874Y77977D01*
Y77986D01*
X143875Y77996D01*
X143878Y78017D01*
Y78018D01*
X143879Y78022D01*
X143880Y78027D01*
X143881Y78033D01*
X143885Y78049D01*
X143890Y78065D01*
Y78066D01*
X143891Y78069D01*
X143892Y78072D01*
X143894Y78077D01*
X143898Y78089D01*
X143904Y78100D01*
Y78101D01*
X143904Y78102D01*
X143908Y78108D01*
X143912Y78113D01*
X143917Y78118D01*
X143918Y78119D01*
X143921Y78121D01*
X143926Y78124D01*
X143933Y78126D01*
X143935Y78127D01*
X143941Y78128D01*
X143944D01*
X143949Y78129D01*
X143970D01*
X143977Y78128D01*
D02*
G37*
G36*
X144371Y80406D02*
X144378Y80406D01*
X144379D01*
X144382Y80405D01*
X144386Y80404D01*
X144390Y80403D01*
X144391D01*
X144393Y80402D01*
X144395Y80400D01*
X144397Y80398D01*
X144398Y80396D01*
X144399Y80392D01*
Y80131D01*
Y80130D01*
Y80129D01*
X144398Y80124D01*
X144396Y80117D01*
X144392Y80110D01*
X144390Y80109D01*
X144386Y80106D01*
X144378Y80102D01*
X144373Y80101D01*
X143912D01*
X143909Y80102D01*
X143905D01*
X143897Y80105D01*
X143890Y80110D01*
X143889Y80112D01*
X143886Y80116D01*
X143883Y80123D01*
X143882Y80131D01*
Y80390D01*
Y80391D01*
Y80392D01*
X143883Y80394D01*
X143885Y80396D01*
Y80397D01*
X143887Y80398D01*
X143889Y80399D01*
X143892Y80401D01*
X143893D01*
X143895Y80402D01*
X143900Y80403D01*
X143904Y80404D01*
X143905D01*
X143909Y80405D01*
X143916Y80406D01*
X143930D01*
X143937Y80405D01*
X143943Y80404D01*
X143944D01*
X143947Y80403D01*
X143951Y80402D01*
X143955Y80401D01*
X143956D01*
X143958Y80400D01*
X143960Y80398D01*
X143962Y80396D01*
X143963Y80395D01*
X143964Y80390D01*
Y80206D01*
X144091D01*
Y80362D01*
Y80363D01*
Y80364D01*
X144092Y80366D01*
X144094Y80367D01*
Y80368D01*
X144096Y80369D01*
X144098Y80370D01*
X144101Y80372D01*
X144102D01*
X144103Y80373D01*
X144107Y80374D01*
X144112Y80375D01*
X144113D01*
X144117Y80376D01*
X144124Y80377D01*
X144139D01*
X144144Y80376D01*
X144151Y80375D01*
X144152D01*
X144155Y80374D01*
X144163Y80372D01*
X144164D01*
X144165Y80371D01*
X144169Y80367D01*
X144170Y80366D01*
X144171Y80362D01*
Y80206D01*
X144317D01*
Y80392D01*
Y80393D01*
Y80394D01*
X144318Y80396D01*
X144320Y80398D01*
Y80399D01*
X144322Y80400D01*
X144324Y80401D01*
X144327Y80403D01*
X144328D01*
X144330Y80404D01*
X144335Y80405D01*
X144339Y80406D01*
X144340D01*
X144344Y80406D01*
X144350Y80407D01*
X144365D01*
X144371Y80406D01*
D02*
G37*
G36*
X144374Y80924D02*
X144379Y80922D01*
X144380Y80921D01*
X144383Y80921D01*
X144387Y80918D01*
X144391Y80914D01*
X144392Y80913D01*
X144394Y80911D01*
X144396Y80906D01*
X144398Y80901D01*
Y80900D01*
X144399Y80897D01*
X144400Y80892D01*
Y80886D01*
Y80841D01*
Y80841D01*
Y80840D01*
Y80834D01*
X144399Y80826D01*
X144398Y80817D01*
X144397Y80815D01*
X144395Y80811D01*
X144392Y80805D01*
X144387Y80799D01*
X144386Y80798D01*
X144381Y80794D01*
X144376Y80788D01*
X144367Y80782D01*
X144366D01*
X144365Y80781D01*
X144362Y80779D01*
X144358Y80777D01*
X144348Y80771D01*
X144335Y80764D01*
X144093Y80636D01*
X144092D01*
X144089Y80634D01*
X144085Y80632D01*
X144079Y80629D01*
X144072Y80626D01*
X144064Y80622D01*
X144047Y80613D01*
X144046Y80612D01*
X144043Y80611D01*
X144037Y80609D01*
X144031Y80606D01*
X144023Y80604D01*
X144015Y80600D01*
X143997Y80593D01*
Y80592D01*
X144008D01*
X144016Y80593D01*
X144034D01*
X144056Y80594D01*
X144066D01*
X144073Y80595D01*
X144386D01*
X144389Y80594D01*
X144392Y80592D01*
X144394Y80590D01*
X144395Y80588D01*
X144397Y80584D01*
Y80583D01*
X144398Y80580D01*
X144399Y80576D01*
X144400Y80569D01*
Y80567D01*
Y80564D01*
X144401Y80556D01*
Y80546D01*
Y80545D01*
Y80544D01*
Y80538D01*
Y80530D01*
X144400Y80523D01*
Y80522D01*
X144399Y80518D01*
X144398Y80513D01*
X144397Y80509D01*
Y80508D01*
X144396Y80506D01*
X144394Y80504D01*
X144392Y80502D01*
X144391D01*
X144389Y80501D01*
X144384Y80500D01*
X143917D01*
X143913Y80501D01*
X143909D01*
X143901Y80505D01*
X143896Y80507D01*
X143892Y80511D01*
Y80512D01*
X143890Y80513D01*
X143887Y80519D01*
X143884Y80526D01*
X143882Y80538D01*
Y80594D01*
Y80595D01*
Y80597D01*
Y80603D01*
X143883Y80611D01*
X143885Y80619D01*
Y80620D01*
X143886Y80621D01*
X143887Y80626D01*
X143890Y80632D01*
X143894Y80638D01*
X143895Y80640D01*
X143898Y80643D01*
X143904Y80648D01*
X143910Y80653D01*
X143912Y80654D01*
X143917Y80658D01*
X143926Y80663D01*
X143937Y80669D01*
X144126Y80769D01*
X144127D01*
X144129Y80771D01*
X144132Y80772D01*
X144137Y80775D01*
X144146Y80780D01*
X144159Y80786D01*
X144160D01*
X144162Y80788D01*
X144165Y80789D01*
X144170Y80792D01*
X144180Y80797D01*
X144192Y80802D01*
X144193D01*
X144195Y80804D01*
X144198Y80805D01*
X144203Y80807D01*
X144213Y80813D01*
X144225Y80818D01*
X144226D01*
X144228Y80819D01*
X144231Y80821D01*
X144235Y80823D01*
X144245Y80828D01*
X144257Y80834D01*
X144246D01*
X144239Y80833D01*
X144221D01*
X144199Y80832D01*
X143896D01*
X143891Y80834D01*
X143890D01*
X143889Y80836D01*
X143887Y80838D01*
X143885Y80841D01*
Y80842D01*
X143884Y80845D01*
X143883Y80850D01*
X143882Y80856D01*
Y80858D01*
X143881Y80863D01*
X143880Y80870D01*
Y80880D01*
Y80881D01*
Y80881D01*
Y80887D01*
X143881Y80895D01*
X143882Y80902D01*
Y80904D01*
X143883Y80908D01*
X143884Y80913D01*
X143885Y80917D01*
Y80918D01*
X143886Y80920D01*
X143888Y80921D01*
X143891Y80923D01*
Y80924D01*
X143893Y80925D01*
X143895Y80926D01*
X144368D01*
X144374Y80924D01*
D02*
G37*
G36*
X144161Y79400D02*
X144176D01*
X144193Y79398D01*
X144212Y79396D01*
X144231Y79394D01*
X144251Y79390D01*
X144253D01*
X144256Y79389D01*
X144259Y79388D01*
X144268Y79386D01*
X144280Y79382D01*
X144294Y79378D01*
X144307Y79373D01*
X144322Y79366D01*
X144336Y79358D01*
X144338Y79357D01*
X144341Y79354D01*
X144347Y79349D01*
X144355Y79342D01*
X144364Y79334D01*
X144373Y79324D01*
X144381Y79312D01*
X144389Y79299D01*
X144390Y79298D01*
X144392Y79293D01*
X144395Y79285D01*
X144398Y79275D01*
X144402Y79262D01*
X144405Y79247D01*
X144407Y79229D01*
X144408Y79211D01*
Y79210D01*
Y79209D01*
Y79206D01*
Y79202D01*
X144407Y79192D01*
X144406Y79179D01*
X144404Y79166D01*
X144400Y79150D01*
X144396Y79136D01*
X144390Y79122D01*
X144389Y79120D01*
X144386Y79116D01*
X144382Y79110D01*
X144377Y79102D01*
X144369Y79094D01*
X144360Y79085D01*
X144349Y79075D01*
X144338Y79067D01*
X144336Y79066D01*
X144332Y79064D01*
X144324Y79060D01*
X144314Y79057D01*
X144302Y79052D01*
X144288Y79047D01*
X144272Y79043D01*
X144255Y79039D01*
X144253D01*
X144250Y79038D01*
X144246D01*
X144235Y79037D01*
X144221Y79035D01*
X144205Y79034D01*
X144186Y79032D01*
X144165Y79031D01*
X144127D01*
X144120Y79032D01*
X144105D01*
X144088Y79033D01*
X144069Y79035D01*
X144051Y79038D01*
X144031Y79041D01*
X144030D01*
X144029Y79042D01*
X144026D01*
X144023Y79043D01*
X144014Y79045D01*
X144001Y79049D01*
X143988Y79053D01*
X143974Y79059D01*
X143959Y79065D01*
X143945Y79073D01*
X143944Y79074D01*
X143940Y79077D01*
X143934Y79083D01*
X143926Y79090D01*
X143917Y79098D01*
X143908Y79108D01*
X143900Y79120D01*
X143892Y79133D01*
X143891Y79135D01*
X143889Y79139D01*
X143886Y79147D01*
X143882Y79157D01*
X143878Y79170D01*
X143875Y79185D01*
X143873Y79202D01*
X143872Y79220D01*
Y79221D01*
Y79222D01*
Y79225D01*
Y79229D01*
X143873Y79239D01*
X143874Y79252D01*
X143877Y79265D01*
X143880Y79280D01*
X143885Y79295D01*
X143891Y79308D01*
X143892Y79310D01*
X143894Y79314D01*
X143899Y79321D01*
X143904Y79329D01*
X143912Y79337D01*
X143921Y79346D01*
X143932Y79356D01*
X143944Y79364D01*
X143945Y79365D01*
X143949Y79367D01*
X143957Y79371D01*
X143967Y79376D01*
X143979Y79379D01*
X143993Y79384D01*
X144010Y79388D01*
X144027Y79392D01*
X144029D01*
X144032Y79393D01*
X144036D01*
X144046Y79395D01*
X144060Y79397D01*
X144076Y79398D01*
X144095Y79400D01*
X144116Y79401D01*
X144154D01*
X144161Y79400D01*
D02*
G37*
G36*
X144212Y79835D02*
X144222Y79834D01*
X144227Y79833D01*
X144231Y79831D01*
X144232Y79830D01*
X144235Y79827D01*
X144239Y79823D01*
X144240Y79817D01*
Y79651D01*
Y79649D01*
X144239Y79645D01*
X144236Y79640D01*
X144231Y79636D01*
X144230D01*
X144229Y79635D01*
X144227D01*
X144223Y79634D01*
X144220Y79633D01*
X144214D01*
X144207Y79632D01*
X144191D01*
X144186Y79633D01*
X144177Y79634D01*
X144172Y79635D01*
X144168Y79636D01*
X144166Y79637D01*
X144163Y79640D01*
X144160Y79644D01*
X144158Y79651D01*
Y79817D01*
Y79818D01*
Y79820D01*
X144159Y79823D01*
X144161Y79825D01*
Y79826D01*
X144163Y79827D01*
X144165Y79829D01*
X144168Y79831D01*
X144169D01*
X144171Y79832D01*
X144175Y79833D01*
X144181Y79834D01*
X144181D01*
X144185Y79835D01*
X144191Y79836D01*
X144207D01*
X144212Y79835D01*
D02*
G37*
G36*
Y77043D02*
X144222Y77042D01*
X144227Y77041D01*
X144231Y77040D01*
X144232Y77039D01*
X144235Y77036D01*
X144239Y77032D01*
X144240Y77026D01*
Y76859D01*
Y76857D01*
X144239Y76853D01*
X144236Y76848D01*
X144231Y76844D01*
X144230D01*
X144229Y76843D01*
X144227D01*
X144223Y76843D01*
X144220Y76842D01*
X144214D01*
X144207Y76841D01*
X144191D01*
X144186Y76842D01*
X144177Y76843D01*
X144172Y76843D01*
X144168Y76844D01*
X144166Y76845D01*
X144163Y76848D01*
X144160Y76852D01*
X144158Y76859D01*
Y77026D01*
Y77027D01*
Y77029D01*
X144159Y77032D01*
X144161Y77034D01*
Y77035D01*
X144163Y77036D01*
X144165Y77038D01*
X144168Y77040D01*
X144169D01*
X144171Y77041D01*
X144175Y77041D01*
X144181Y77042D01*
X144181D01*
X144185Y77043D01*
X144191Y77044D01*
X144207D01*
X144212Y77043D01*
D02*
G37*
G36*
X140862Y79691D02*
X140905Y79687D01*
X140952Y79683D01*
X141006Y79672D01*
X141057Y79660D01*
X141112Y79640D01*
X141116Y79636D01*
X141135Y79629D01*
X141159Y79617D01*
X141190Y79601D01*
X141225Y79578D01*
X141264Y79550D01*
X141303Y79519D01*
X141338Y79480D01*
X141342Y79476D01*
X141354Y79461D01*
X141369Y79437D01*
X141389Y79410D01*
X141412Y79371D01*
X141432Y79328D01*
X141455Y79277D01*
X141475Y79223D01*
Y79215D01*
X141483Y79195D01*
X141490Y79164D01*
X141498Y79125D01*
X141506Y79070D01*
X141514Y79012D01*
X141518Y78945D01*
X141522Y78871D01*
Y78699D01*
X142189D01*
X142201Y78696D01*
X142213Y78688D01*
Y78684D01*
X142220Y78680D01*
X142224Y78668D01*
X142232Y78653D01*
Y78649D01*
X142236Y78637D01*
X142240Y78614D01*
X142244Y78586D01*
Y78578D01*
Y78559D01*
X142248Y78528D01*
Y78485D01*
Y78481D01*
Y78477D01*
Y78450D01*
Y78418D01*
X142244Y78383D01*
Y78375D01*
X142240Y78360D01*
X142236Y78340D01*
X142232Y78317D01*
Y78313D01*
X142228Y78305D01*
X142220Y78293D01*
X142213Y78286D01*
X142209D01*
X142201Y78282D01*
X142181Y78278D01*
X140311D01*
X140296Y78282D01*
X140280D01*
X140245Y78293D01*
X140210Y78317D01*
X140202Y78325D01*
X140190Y78344D01*
X140179Y78375D01*
X140171Y78418D01*
Y78906D01*
Y78910D01*
Y78918D01*
Y78934D01*
Y78953D01*
X140175Y78996D01*
X140179Y79047D01*
Y79051D01*
Y79059D01*
X140183Y79074D01*
Y79090D01*
X140187Y79113D01*
X140190Y79141D01*
X140202Y79203D01*
Y79207D01*
X140206Y79219D01*
X140210Y79238D01*
X140218Y79262D01*
X140229Y79289D01*
X140241Y79320D01*
X140272Y79390D01*
X140276Y79394D01*
X140280Y79406D01*
X140292Y79426D01*
X140304Y79449D01*
X140347Y79500D01*
X140397Y79554D01*
X140401Y79558D01*
X140409Y79566D01*
X140425Y79578D01*
X140448Y79593D01*
X140471Y79609D01*
X140503Y79625D01*
X140573Y79656D01*
X140577D01*
X140593Y79664D01*
X140612Y79668D01*
X140639Y79675D01*
X140674Y79683D01*
X140710Y79687D01*
X140753Y79695D01*
X140831D01*
X140862Y79691D01*
D02*
G37*
G36*
X142759Y81428D02*
X142775Y81424D01*
X142790Y81420D01*
X142794Y81417D01*
X142806Y81409D01*
X142822Y81393D01*
X142826Y81370D01*
Y79851D01*
Y79843D01*
X142822Y79832D01*
X142810Y79812D01*
X142790Y79796D01*
X142783D01*
X142763Y79793D01*
X142728Y79789D01*
X142705Y79785D01*
X142630D01*
X142591Y79789D01*
X142576Y79793D01*
X142560Y79796D01*
X142556Y79800D01*
X142545Y79808D01*
X142533Y79828D01*
X142529Y79851D01*
Y81370D01*
Y81378D01*
X142533Y81389D01*
X142541Y81405D01*
X142560Y81420D01*
X142568Y81424D01*
X142587Y81428D01*
X142603Y81432D01*
X142623D01*
X142650Y81436D01*
X142720D01*
X142759Y81428D01*
D02*
G37*
G36*
X142002Y76583D02*
X142006D01*
X142017Y76580D01*
X142049Y76576D01*
X142053D01*
X142060Y76572D01*
X142084Y76564D01*
X142088D01*
X142092Y76556D01*
X142103Y76548D01*
X142115Y76537D01*
X142119Y76533D01*
X142127Y76521D01*
X142142Y76501D01*
X142162Y76470D01*
Y76466D01*
X142166Y76462D01*
X142174Y76451D01*
X142178Y76435D01*
X142197Y76396D01*
X142217Y76345D01*
Y76341D01*
X142220Y76334D01*
X142224Y76318D01*
X142228Y76298D01*
X142236Y76275D01*
X142244Y76248D01*
X142256Y76181D01*
Y76177D01*
X142260Y76166D01*
X142263Y76146D01*
Y76123D01*
X142267Y76092D01*
X142271Y76056D01*
X142275Y75978D01*
Y75974D01*
Y75971D01*
Y75959D01*
Y75943D01*
X142271Y75900D01*
X142267Y75850D01*
X142260Y75791D01*
X142248Y75725D01*
X142232Y75658D01*
X142213Y75592D01*
X142209Y75584D01*
X142201Y75565D01*
X142185Y75533D01*
X142162Y75494D01*
X142135Y75447D01*
X142103Y75401D01*
X142064Y75350D01*
X142017Y75303D01*
X142010Y75299D01*
X141994Y75283D01*
X141967Y75260D01*
X141928Y75237D01*
X141881Y75205D01*
X141822Y75174D01*
X141760Y75147D01*
X141690Y75119D01*
X141686D01*
X141682Y75116D01*
X141670D01*
X141654Y75112D01*
X141615Y75100D01*
X141561Y75088D01*
X141490Y75077D01*
X141416Y75069D01*
X141326Y75061D01*
X141233Y75057D01*
X141190D01*
X141166Y75061D01*
X141139D01*
X141077Y75065D01*
X141002Y75073D01*
X140924Y75088D01*
X140846Y75104D01*
X140768Y75127D01*
X140764D01*
X140760Y75131D01*
X140749Y75135D01*
X140733Y75139D01*
X140694Y75155D01*
X140647Y75178D01*
X140593Y75205D01*
X140534Y75240D01*
X140475Y75280D01*
X140421Y75322D01*
X140413Y75326D01*
X140397Y75346D01*
X140374Y75373D01*
X140343Y75408D01*
X140308Y75451D01*
X140272Y75502D01*
X140237Y75561D01*
X140210Y75623D01*
Y75627D01*
X140206Y75631D01*
X140198Y75654D01*
X140187Y75689D01*
X140171Y75740D01*
X140159Y75799D01*
X140147Y75865D01*
X140140Y75935D01*
X140136Y76013D01*
Y76017D01*
Y76029D01*
Y76045D01*
Y76068D01*
X140144Y76119D01*
X140151Y76177D01*
Y76181D01*
X140155Y76193D01*
X140159Y76209D01*
X140163Y76228D01*
X140175Y76275D01*
X140190Y76326D01*
Y76330D01*
X140194Y76338D01*
X140198Y76349D01*
X140206Y76369D01*
X140222Y76408D01*
X140245Y76451D01*
Y76455D01*
X140249Y76459D01*
X140261Y76482D01*
X140276Y76505D01*
X140296Y76525D01*
X140300Y76529D01*
X140308Y76537D01*
X140319Y76548D01*
X140331Y76556D01*
X140335D01*
X140343Y76560D01*
X140354Y76564D01*
X140370Y76568D01*
X140374D01*
X140382Y76572D01*
X140401D01*
X140421Y76576D01*
X140425D01*
X140440Y76580D01*
X140553D01*
X140581Y76576D01*
X140585D01*
X140600Y76572D01*
X140616Y76568D01*
X140635Y76564D01*
X140639D01*
X140647Y76560D01*
X140655Y76552D01*
X140663Y76544D01*
X140667Y76537D01*
X140671Y76517D01*
Y76513D01*
X140667Y76501D01*
X140659Y76482D01*
X140643Y76455D01*
X140639Y76447D01*
X140624Y76431D01*
X140608Y76400D01*
X140585Y76361D01*
Y76357D01*
X140577Y76349D01*
X140573Y76338D01*
X140565Y76322D01*
X140542Y76279D01*
X140522Y76220D01*
Y76216D01*
X140518Y76205D01*
X140511Y76189D01*
X140507Y76166D01*
X140499Y76138D01*
X140495Y76107D01*
X140491Y76068D01*
Y76029D01*
Y76025D01*
Y76010D01*
X140495Y75986D01*
X140499Y75955D01*
X140503Y75924D01*
X140511Y75885D01*
X140526Y75850D01*
X140542Y75810D01*
X140546Y75807D01*
X140550Y75795D01*
X140561Y75775D01*
X140577Y75752D01*
X140600Y75728D01*
X140624Y75701D01*
X140651Y75674D01*
X140686Y75646D01*
X140690Y75643D01*
X140702Y75635D01*
X140721Y75623D01*
X140749Y75607D01*
X140784Y75592D01*
X140823Y75576D01*
X140866Y75561D01*
X140913Y75545D01*
X140920D01*
X140936Y75541D01*
X140963Y75533D01*
X140999Y75529D01*
X141045Y75522D01*
X141096Y75514D01*
X141151Y75510D01*
X141244D01*
X141280Y75514D01*
X141323D01*
X141369Y75518D01*
X141424Y75525D01*
X141479Y75533D01*
X141529Y75545D01*
X141533D01*
X141553Y75553D01*
X141576Y75561D01*
X141608Y75572D01*
X141643Y75588D01*
X141678Y75607D01*
X141717Y75627D01*
X141752Y75650D01*
X141756Y75654D01*
X141768Y75662D01*
X141783Y75678D01*
X141799Y75697D01*
X141822Y75721D01*
X141842Y75752D01*
X141861Y75783D01*
X141881Y75818D01*
Y75822D01*
X141889Y75838D01*
X141893Y75857D01*
X141900Y75885D01*
X141908Y75916D01*
X141912Y75955D01*
X141920Y76041D01*
Y76045D01*
Y76060D01*
Y76080D01*
X141916Y76107D01*
X141908Y76170D01*
X141896Y76236D01*
Y76240D01*
X141893Y76252D01*
X141885Y76263D01*
X141877Y76283D01*
X141861Y76330D01*
X141838Y76377D01*
Y76380D01*
X141834Y76388D01*
X141818Y76412D01*
X141799Y76439D01*
X141779Y76470D01*
X141775Y76478D01*
X141764Y76494D01*
X141756Y76513D01*
X141752Y76533D01*
Y76537D01*
Y76541D01*
X141760Y76556D01*
Y76560D01*
X141768Y76564D01*
X141775Y76568D01*
X141787Y76572D01*
X141791D01*
X141803Y76576D01*
X141818Y76580D01*
X141842Y76583D01*
X141846D01*
X141865Y76587D01*
X141978D01*
X142002Y76583D01*
D02*
G37*
G36*
X142119Y78024D02*
X142146Y78020D01*
X142150D01*
X142166Y78016D01*
X142181Y78012D01*
X142201Y78008D01*
X142205D01*
X142213Y78005D01*
X142224Y77997D01*
X142232Y77989D01*
X142236Y77981D01*
X142240Y77962D01*
Y77013D01*
Y77009D01*
Y77005D01*
X142236Y76982D01*
X142228Y76954D01*
X142213Y76927D01*
X142205Y76923D01*
X142189Y76911D01*
X142154Y76896D01*
X142135Y76892D01*
X140222D01*
X140202Y76900D01*
X140198Y76904D01*
X140194Y76907D01*
X140187Y76919D01*
X140179Y76935D01*
Y76939D01*
X140175Y76950D01*
X140171Y76970D01*
X140167Y76997D01*
Y77001D01*
Y77005D01*
X140163Y77029D01*
X140159Y77060D01*
Y77103D01*
Y77107D01*
Y77114D01*
Y77138D01*
X140163Y77169D01*
X140167Y77200D01*
Y77204D01*
Y77208D01*
X140171Y77224D01*
X140175Y77247D01*
X140179Y77267D01*
Y77271D01*
X140183Y77278D01*
X140190Y77290D01*
X140202Y77302D01*
Y77306D01*
X140210Y77310D01*
X140218Y77313D01*
X141893D01*
Y77962D01*
Y77965D01*
Y77969D01*
X141896Y77981D01*
X141904Y77989D01*
Y77993D01*
X141912Y77997D01*
X141920Y78001D01*
X141932Y78008D01*
X141935D01*
X141947Y78012D01*
X141963Y78016D01*
X141986Y78020D01*
X141990D01*
X142006Y78024D01*
X142033Y78028D01*
X142092D01*
X142119Y78024D01*
D02*
G37*
G36*
X144393Y76195D02*
X144395Y76193D01*
X144396Y76191D01*
X144398Y76187D01*
Y76186D01*
X144399Y76183D01*
Y76177D01*
X144400Y76170D01*
Y76169D01*
Y76168D01*
Y76165D01*
Y76162D01*
X144401Y76151D01*
Y76138D01*
Y76137D01*
Y76135D01*
Y76132D01*
Y76129D01*
Y76120D01*
X144400Y76111D01*
Y76109D01*
X144399Y76105D01*
X144398Y76100D01*
X144397Y76095D01*
Y76094D01*
X144396Y76092D01*
X144394Y76090D01*
X144392Y76087D01*
X144391D01*
X144389Y76086D01*
X144383Y76084D01*
X144268Y76037D01*
X144267D01*
X144265Y76036D01*
X144261Y76034D01*
X144257Y76032D01*
X144246Y76026D01*
X144234Y76020D01*
X144233D01*
X144231Y76019D01*
X144225Y76015D01*
X144217Y76010D01*
X144209Y76003D01*
X144208D01*
X144207Y76001D01*
X144203Y75996D01*
X144198Y75989D01*
X144193Y75980D01*
Y75979D01*
X144192Y75978D01*
X144191Y75975D01*
X144190Y75972D01*
X144188Y75963D01*
X144187Y75951D01*
Y75919D01*
X144386D01*
X144389Y75918D01*
X144392Y75916D01*
Y75915D01*
X144394Y75914D01*
X144395Y75911D01*
X144397Y75907D01*
Y75906D01*
X144398Y75903D01*
X144399Y75897D01*
X144400Y75891D01*
Y75889D01*
Y75884D01*
X144401Y75876D01*
Y75865D01*
Y75864D01*
Y75863D01*
Y75856D01*
Y75849D01*
X144400Y75840D01*
Y75838D01*
X144399Y75834D01*
X144398Y75829D01*
X144397Y75823D01*
Y75822D01*
X144396Y75820D01*
X144394Y75817D01*
X144392Y75815D01*
X144391D01*
X144389Y75814D01*
X144384Y75814D01*
X143912D01*
X143909Y75814D01*
X143905D01*
X143897Y75817D01*
X143890Y75822D01*
X143889Y75824D01*
X143886Y75828D01*
X143883Y75835D01*
X143882Y75844D01*
Y75978D01*
Y75979D01*
Y75982D01*
Y75985D01*
Y75990D01*
Y76001D01*
X143883Y76012D01*
Y76012D01*
Y76013D01*
X143884Y76019D01*
Y76027D01*
X143885Y76036D01*
Y76037D01*
X143886Y76041D01*
X143887Y76047D01*
X143889Y76054D01*
X143891Y76063D01*
X143894Y76073D01*
X143901Y76091D01*
Y76092D01*
X143903Y76095D01*
X143904Y76100D01*
X143908Y76106D01*
X143917Y76121D01*
X143929Y76134D01*
X143930Y76135D01*
X143932Y76137D01*
X143936Y76140D01*
X143941Y76144D01*
X143946Y76149D01*
X143953Y76153D01*
X143970Y76161D01*
X143971D01*
X143974Y76163D01*
X143979Y76164D01*
X143985Y76166D01*
X143993Y76168D01*
X144003Y76169D01*
X144013Y76171D01*
X144033D01*
X144040Y76170D01*
X144047Y76169D01*
X144055Y76168D01*
X144071Y76164D01*
X144072D01*
X144075Y76163D01*
X144079Y76161D01*
X144084Y76159D01*
X144097Y76153D01*
X144109Y76144D01*
X144110Y76143D01*
X144112Y76142D01*
X144115Y76139D01*
X144119Y76135D01*
X144129Y76126D01*
X144139Y76112D01*
X144140Y76111D01*
X144141Y76109D01*
X144142Y76105D01*
X144145Y76100D01*
X144149Y76093D01*
X144152Y76087D01*
X144158Y76070D01*
Y76071D01*
X144159Y76072D01*
X144162Y76077D01*
X144167Y76084D01*
X144173Y76091D01*
X144174Y76093D01*
X144178Y76097D01*
X144184Y76103D01*
X144192Y76110D01*
X144194Y76112D01*
X144199Y76116D01*
X144208Y76122D01*
X144218Y76128D01*
X144219D01*
X144221Y76129D01*
X144223Y76131D01*
X144227Y76132D01*
X144238Y76137D01*
X144251Y76143D01*
X144352Y76186D01*
X144353D01*
X144355Y76187D01*
X144361Y76189D01*
X144368Y76192D01*
X144375Y76194D01*
X144376Y76195D01*
X144379Y76196D01*
X144382Y76197D01*
X144388D01*
X144393Y76195D01*
D02*
G37*
G36*
X144262Y76614D02*
X144272Y76613D01*
X144282Y76610D01*
X144284Y76609D01*
X144287Y76607D01*
X144290Y76605D01*
X144292Y76600D01*
Y76554D01*
X144387D01*
X144390Y76553D01*
X144392Y76551D01*
X144394Y76549D01*
X144395Y76546D01*
X144397Y76542D01*
Y76541D01*
X144398Y76538D01*
X144399Y76533D01*
X144400Y76526D01*
Y76525D01*
Y76521D01*
X144401Y76513D01*
Y76502D01*
Y76501D01*
Y76500D01*
Y76493D01*
Y76486D01*
X144400Y76478D01*
Y76476D01*
X144399Y76472D01*
X144398Y76467D01*
X144397Y76462D01*
Y76461D01*
X144396Y76459D01*
X144394Y76456D01*
X144392Y76454D01*
X144391D01*
X144390Y76453D01*
X144385Y76452D01*
X144292D01*
Y76254D01*
Y76253D01*
Y76250D01*
X144291Y76244D01*
Y76243D01*
X144290Y76242D01*
X144288Y76239D01*
X144285Y76237D01*
X144284D01*
X144281Y76235D01*
X144276Y76234D01*
X144270Y76233D01*
X144263D01*
X144256Y76232D01*
X144221D01*
X144218Y76233D01*
X144212D01*
X144206Y76234D01*
X144205D01*
X144201Y76235D01*
X144196Y76237D01*
X144191Y76238D01*
X144190Y76239D01*
X144187Y76240D01*
X144182Y76242D01*
X144178Y76245D01*
X143894Y76405D01*
X143893D01*
X143892Y76407D01*
X143890Y76408D01*
X143888Y76411D01*
X143887Y76412D01*
X143886Y76415D01*
X143885Y76419D01*
X143883Y76425D01*
Y76427D01*
X143882Y76431D01*
X143881Y76438D01*
X143880Y76447D01*
Y76448D01*
Y76449D01*
Y76451D01*
X143879Y76455D01*
Y76466D01*
Y76479D01*
Y76480D01*
Y76483D01*
Y76486D01*
Y76490D01*
X143880Y76502D01*
X143881Y76514D01*
Y76515D01*
Y76517D01*
X143882Y76523D01*
X143883Y76529D01*
X143884Y76536D01*
Y76538D01*
X143885Y76541D01*
X143887Y76545D01*
X143890Y76549D01*
Y76550D01*
X143892Y76552D01*
X143894Y76553D01*
X143897Y76554D01*
X144208D01*
Y76600D01*
Y76601D01*
X144209Y76604D01*
X144213Y76606D01*
X144215Y76608D01*
X144219Y76610D01*
X144221Y76611D01*
X144222Y76612D01*
X144226Y76613D01*
X144230D01*
X144236Y76614D01*
X144243Y76615D01*
X144258D01*
X144262Y76614D01*
D02*
G37*
G36*
X141686Y83150D02*
X141717Y83146D01*
X141752Y83142D01*
X141822Y83123D01*
X141826D01*
X141838Y83119D01*
X141854Y83111D01*
X141877Y83099D01*
X141928Y83072D01*
X141982Y83037D01*
X141986Y83033D01*
X141994Y83029D01*
X142006Y83017D01*
X142021Y83002D01*
X142060Y82959D01*
X142099Y82908D01*
X142103Y82904D01*
X142107Y82896D01*
X142115Y82881D01*
X142127Y82861D01*
X142139Y82834D01*
X142154Y82806D01*
X142181Y82744D01*
Y82740D01*
X142185Y82728D01*
X142193Y82709D01*
X142197Y82685D01*
X142205Y82658D01*
X142213Y82627D01*
X142228Y82553D01*
Y82549D01*
Y82533D01*
X142232Y82514D01*
Y82486D01*
X142236Y82451D01*
Y82416D01*
X142240Y82373D01*
Y82326D01*
Y81776D01*
Y81772D01*
Y81768D01*
X142236Y81745D01*
X142228Y81717D01*
X142213Y81690D01*
X142205Y81686D01*
X142189Y81674D01*
X142154Y81659D01*
X142135Y81655D01*
X140292D01*
X140280Y81659D01*
X140265D01*
X140229Y81670D01*
X140202Y81690D01*
X140198Y81698D01*
X140187Y81713D01*
X140175Y81741D01*
X140171Y81776D01*
Y82295D01*
Y82299D01*
Y82303D01*
Y82326D01*
Y82361D01*
X140175Y82408D01*
X140179Y82459D01*
X140187Y82514D01*
X140194Y82568D01*
X140206Y82619D01*
Y82627D01*
X140210Y82642D01*
X140218Y82666D01*
X140229Y82697D01*
X140245Y82732D01*
X140261Y82767D01*
X140280Y82806D01*
X140304Y82842D01*
X140308Y82845D01*
X140315Y82857D01*
X140327Y82873D01*
X140347Y82892D01*
X140370Y82916D01*
X140397Y82939D01*
X140432Y82959D01*
X140468Y82978D01*
X140471Y82982D01*
X140483Y82986D01*
X140507Y82994D01*
X140534Y83006D01*
X140565Y83013D01*
X140604Y83021D01*
X140651Y83025D01*
X140698Y83029D01*
X140725D01*
X140745Y83025D01*
X140788Y83021D01*
X140838Y83009D01*
X140842D01*
X140850Y83006D01*
X140862Y83002D01*
X140878Y82994D01*
X140917Y82978D01*
X140959Y82951D01*
X140963D01*
X140967Y82943D01*
X140991Y82927D01*
X141022Y82900D01*
X141057Y82861D01*
Y82857D01*
X141065Y82853D01*
X141073Y82842D01*
X141081Y82826D01*
X141100Y82787D01*
X141123Y82740D01*
Y82744D01*
X141127Y82756D01*
X141131Y82771D01*
X141135Y82791D01*
X141155Y82845D01*
X141182Y82900D01*
Y82904D01*
X141190Y82912D01*
X141198Y82927D01*
X141209Y82947D01*
X141241Y82990D01*
X141284Y83033D01*
X141287Y83037D01*
X141295Y83041D01*
X141307Y83052D01*
X141326Y83064D01*
X141346Y83080D01*
X141373Y83091D01*
X141432Y83119D01*
X141436D01*
X141447Y83123D01*
X141463Y83130D01*
X141487Y83138D01*
X141514Y83142D01*
X141545Y83150D01*
X141619Y83154D01*
X141658D01*
X141686Y83150D01*
D02*
G37*
G36*
X143940Y75727D02*
X143946Y75726D01*
X143947D01*
X143951Y75725D01*
X143955Y75724D01*
X143959Y75723D01*
X143960D01*
X143962Y75722D01*
X143964Y75720D01*
X143966Y75718D01*
X143967Y75716D01*
X143968Y75712D01*
Y75543D01*
X144107D01*
Y75701D01*
Y75702D01*
Y75703D01*
X144108Y75705D01*
X144110Y75707D01*
Y75708D01*
X144112Y75709D01*
X144114Y75710D01*
X144117Y75712D01*
X144118Y75713D01*
X144120Y75714D01*
X144124Y75715D01*
X144130Y75716D01*
X144131D01*
X144135Y75717D01*
X144162D01*
X144169Y75716D01*
X144170D01*
X144174Y75715D01*
X144178Y75714D01*
X144182Y75712D01*
X144183D01*
X144185Y75711D01*
X144187Y75709D01*
X144189Y75707D01*
X144190Y75706D01*
X144191Y75701D01*
Y75543D01*
X144386D01*
X144389Y75542D01*
X144392Y75540D01*
X144394Y75538D01*
X144395Y75536D01*
X144397Y75532D01*
Y75531D01*
X144398Y75528D01*
X144399Y75522D01*
X144400Y75515D01*
Y75513D01*
Y75508D01*
X144401Y75500D01*
Y75491D01*
Y75490D01*
Y75488D01*
Y75485D01*
Y75482D01*
Y75473D01*
X144400Y75464D01*
Y75462D01*
X144399Y75458D01*
X144398Y75454D01*
X144397Y75449D01*
Y75448D01*
X144396Y75446D01*
X144394Y75443D01*
X144392Y75440D01*
X144391D01*
X144389Y75439D01*
X144383Y75438D01*
X143912D01*
X143909Y75439D01*
X143905D01*
X143897Y75442D01*
X143890Y75447D01*
X143889Y75449D01*
X143886Y75453D01*
X143883Y75459D01*
X143882Y75468D01*
Y75712D01*
Y75713D01*
Y75714D01*
X143883Y75716D01*
X143885Y75718D01*
Y75719D01*
X143887Y75720D01*
X143889Y75721D01*
X143892Y75723D01*
X143893D01*
X143896Y75724D01*
X143900Y75725D01*
X143905Y75726D01*
X143906D01*
X143911Y75727D01*
X143917Y75728D01*
X143933D01*
X143940Y75727D01*
D02*
G37*
G36*
X144389Y81144D02*
X144392Y81142D01*
Y81141D01*
X144394Y81140D01*
X144395Y81137D01*
X144397Y81133D01*
Y81132D01*
X144398Y81129D01*
X144399Y81123D01*
X144400Y81117D01*
Y81115D01*
Y81110D01*
X144401Y81102D01*
Y81092D01*
Y81091D01*
Y81089D01*
Y81086D01*
Y81083D01*
Y81075D01*
X144400Y81066D01*
Y81064D01*
X144399Y81060D01*
X144398Y81055D01*
X144397Y81050D01*
Y81049D01*
X144396Y81047D01*
X144394Y81044D01*
X144392Y81041D01*
X144391D01*
X144389Y81040D01*
X144384Y81039D01*
X143895D01*
X143890Y81041D01*
X143889Y81042D01*
X143888Y81043D01*
X143886Y81046D01*
X143884Y81050D01*
Y81051D01*
X143883Y81055D01*
X143882Y81060D01*
X143881Y81067D01*
Y81069D01*
X143880Y81074D01*
X143879Y81081D01*
Y81092D01*
Y81093D01*
Y81095D01*
Y81101D01*
X143880Y81109D01*
X143881Y81117D01*
Y81118D01*
Y81118D01*
X143882Y81122D01*
X143883Y81128D01*
X143884Y81133D01*
Y81134D01*
X143885Y81136D01*
X143887Y81139D01*
X143890Y81142D01*
Y81143D01*
X143892Y81144D01*
X143894Y81145D01*
X144386D01*
X144389Y81144D01*
D02*
G37*
G36*
X82633Y27631D02*
X72473D01*
Y28266D01*
X82633D01*
Y27631D01*
D02*
G37*
G36*
X64850Y33561D02*
X64850Y31021D01*
X63580D01*
Y33561D01*
X64850Y33561D01*
D02*
G37*
G36*
X71200Y24163D02*
X69930Y24163D01*
X69930Y26703D01*
X71200D01*
Y24163D01*
D02*
G37*
G36*
X62313Y26107D02*
X52153D01*
Y26742D01*
X62313D01*
Y26107D01*
D02*
G37*
G36*
X71200Y32545D02*
X69930Y32545D01*
X69930Y35085D01*
X71200D01*
Y32545D01*
D02*
G37*
G36*
X64850Y42197D02*
X64850Y39657D01*
X63580D01*
Y42197D01*
X64850Y42197D01*
D02*
G37*
G36*
X71200Y41308D02*
X69930Y41308D01*
X69930Y43848D01*
X71200D01*
Y41308D01*
D02*
G37*
G36*
X62313Y34616D02*
X52153D01*
Y35251D01*
X62313D01*
Y34616D01*
D02*
G37*
G36*
X82633Y36394D02*
X72473D01*
Y37029D01*
X82633D01*
Y36394D01*
D02*
G37*
G36*
X64850Y16797D02*
X64850Y14257D01*
X63580D01*
Y16797D01*
X64850Y16797D01*
D02*
G37*
G36*
X71200Y15781D02*
X69930Y15781D01*
X69930Y18321D01*
X71200D01*
Y15781D01*
D02*
G37*
G36*
X82633Y10613D02*
X72473D01*
Y11248D01*
X82633D01*
Y10613D01*
D02*
G37*
G36*
X143977Y81672D02*
X143984Y81671D01*
X143984D01*
X143988Y81670D01*
X143992Y81669D01*
X143996Y81668D01*
X143997D01*
X143999Y81667D01*
X144001Y81666D01*
X144003Y81664D01*
X144004Y81662D01*
X144005Y81658D01*
Y81657D01*
X144004Y81654D01*
X144002Y81648D01*
X143998Y81640D01*
X143997Y81638D01*
X143993Y81633D01*
X143988Y81623D01*
X143983Y81610D01*
Y81609D01*
X143981Y81606D01*
X143980Y81602D01*
X143978Y81597D01*
X143975Y81591D01*
X143972Y81583D01*
X143967Y81564D01*
Y81563D01*
X143966Y81559D01*
X143964Y81554D01*
X143963Y81547D01*
X143961Y81538D01*
X143960Y81527D01*
X143959Y81515D01*
Y81503D01*
Y81501D01*
Y81497D01*
X143960Y81489D01*
X143961Y81480D01*
X143962Y81470D01*
X143965Y81458D01*
X143968Y81446D01*
X143973Y81435D01*
X143974Y81434D01*
X143975Y81430D01*
X143978Y81424D01*
X143983Y81417D01*
X143987Y81408D01*
X143993Y81400D01*
X144001Y81392D01*
X144010Y81383D01*
X144011Y81382D01*
X144014Y81379D01*
X144019Y81375D01*
X144025Y81371D01*
X144034Y81365D01*
X144044Y81359D01*
X144055Y81355D01*
X144066Y81350D01*
X144068D01*
X144072Y81348D01*
X144079Y81347D01*
X144088Y81345D01*
X144099Y81343D01*
X144111Y81341D01*
X144125Y81340D01*
X144140Y81339D01*
X144147D01*
X144155Y81340D01*
X144166Y81341D01*
X144179Y81342D01*
X144192Y81344D01*
X144205Y81347D01*
X144219Y81351D01*
X144220Y81352D01*
X144224Y81353D01*
X144230Y81356D01*
X144238Y81359D01*
X144247Y81363D01*
X144257Y81369D01*
X144275Y81383D01*
X144276Y81384D01*
X144279Y81387D01*
X144283Y81392D01*
X144288Y81397D01*
X144294Y81404D01*
X144299Y81413D01*
X144304Y81423D01*
X144309Y81434D01*
Y81435D01*
X144311Y81438D01*
X144312Y81445D01*
X144314Y81453D01*
X144316Y81463D01*
X144318Y81475D01*
X144319Y81486D01*
X144320Y81500D01*
Y81501D01*
Y81503D01*
Y81507D01*
X144319Y81511D01*
X144318Y81521D01*
X144316Y81534D01*
Y81535D01*
X144315Y81537D01*
X144314Y81541D01*
X144313Y81545D01*
X144309Y81555D01*
X144304Y81567D01*
X144185D01*
Y81469D01*
Y81468D01*
X144184Y81465D01*
X144181Y81461D01*
X144177Y81458D01*
X144175Y81457D01*
X144173D01*
X144170Y81456D01*
X144165Y81455D01*
X144160D01*
X144154Y81454D01*
X144134D01*
X144128Y81455D01*
X144127D01*
X144123Y81456D01*
X144119Y81457D01*
X144115Y81458D01*
X144114D01*
X144112Y81459D01*
X144110Y81461D01*
X144108Y81462D01*
X144107Y81463D01*
X144106Y81464D01*
X144105Y81466D01*
Y81469D01*
Y81643D01*
Y81644D01*
Y81647D01*
X144106Y81650D01*
X144108Y81654D01*
Y81655D01*
X144110Y81657D01*
X144112Y81660D01*
X144115Y81663D01*
X144116Y81664D01*
X144118Y81665D01*
X144121Y81667D01*
X144126Y81669D01*
X144127Y81670D01*
X144130Y81671D01*
X144134Y81672D01*
X144346D01*
X144352Y81671D01*
X144359Y81670D01*
X144366Y81667D01*
X144367Y81666D01*
X144371Y81663D01*
X144376Y81658D01*
X144380Y81649D01*
Y81648D01*
X144381Y81647D01*
X144382Y81644D01*
X144383Y81640D01*
X144387Y81631D01*
X144391Y81617D01*
Y81616D01*
X144392Y81614D01*
X144393Y81610D01*
X144394Y81605D01*
X144396Y81593D01*
X144399Y81578D01*
Y81577D01*
X144400Y81574D01*
Y81570D01*
X144401Y81565D01*
X144402Y81558D01*
X144403Y81552D01*
X144405Y81536D01*
Y81535D01*
Y81532D01*
X144406Y81528D01*
Y81523D01*
X144407Y81516D01*
Y81510D01*
X144408Y81494D01*
Y81493D01*
Y81491D01*
Y81488D01*
Y81483D01*
X144407Y81478D01*
Y81472D01*
X144406Y81457D01*
X144404Y81439D01*
X144400Y81421D01*
X144396Y81401D01*
X144390Y81383D01*
Y81382D01*
X144389Y81381D01*
X144387Y81375D01*
X144382Y81365D01*
X144378Y81355D01*
X144370Y81341D01*
X144361Y81327D01*
X144351Y81314D01*
X144339Y81300D01*
X144338Y81298D01*
X144334Y81294D01*
X144326Y81288D01*
X144316Y81280D01*
X144304Y81273D01*
X144290Y81264D01*
X144274Y81255D01*
X144257Y81248D01*
X144256D01*
X144255Y81247D01*
X144252Y81246D01*
X144248Y81245D01*
X144238Y81242D01*
X144224Y81239D01*
X144208Y81237D01*
X144189Y81234D01*
X144169Y81232D01*
X144146Y81231D01*
X144136D01*
X144130Y81232D01*
X144124D01*
X144108Y81233D01*
X144091Y81236D01*
X144071Y81238D01*
X144052Y81243D01*
X144032Y81249D01*
X144031D01*
X144030Y81250D01*
X144027Y81251D01*
X144023Y81253D01*
X144015Y81257D01*
X144002Y81264D01*
X143989Y81271D01*
X143975Y81280D01*
X143960Y81291D01*
X143946Y81304D01*
X143944Y81306D01*
X143941Y81310D01*
X143935Y81317D01*
X143927Y81327D01*
X143918Y81340D01*
X143909Y81355D01*
X143901Y81371D01*
X143893Y81389D01*
Y81390D01*
X143892Y81391D01*
X143891Y81394D01*
X143890Y81397D01*
X143887Y81407D01*
X143883Y81421D01*
X143879Y81437D01*
X143876Y81457D01*
X143874Y81477D01*
X143873Y81500D01*
Y81502D01*
Y81506D01*
Y81512D01*
X143874Y81520D01*
Y81529D01*
X143875Y81540D01*
X143878Y81560D01*
Y81561D01*
X143879Y81565D01*
X143880Y81570D01*
X143881Y81577D01*
X143885Y81593D01*
X143890Y81608D01*
Y81609D01*
X143891Y81612D01*
X143892Y81616D01*
X143894Y81621D01*
X143898Y81633D01*
X143904Y81643D01*
Y81644D01*
X143904Y81645D01*
X143908Y81651D01*
X143912Y81657D01*
X143917Y81662D01*
X143918Y81663D01*
X143921Y81665D01*
X143926Y81668D01*
X143933Y81670D01*
X143935Y81671D01*
X143941Y81672D01*
X143944D01*
X143949Y81673D01*
X143970D01*
X143977Y81672D01*
D02*
G37*
G36*
X62313Y9343D02*
X52153D01*
Y9978D01*
X62313D01*
Y9343D01*
D02*
G37*
G36*
X82633Y19122D02*
X72473D01*
Y19757D01*
X82633D01*
Y19122D01*
D02*
G37*
G36*
X62313Y17598D02*
X52153D01*
Y18233D01*
X62313D01*
Y17598D01*
D02*
G37*
G36*
X64850Y25179D02*
X64850Y22639D01*
X63580D01*
Y25179D01*
X64850Y25179D01*
D02*
G37*
%LPC*%
G36*
X140831Y79254D02*
X140792D01*
X140768Y79250D01*
X140710Y79238D01*
X140651Y79215D01*
X140647D01*
X140639Y79207D01*
X140628Y79199D01*
X140612Y79187D01*
X140577Y79156D01*
X140550Y79117D01*
Y79113D01*
X140546Y79109D01*
X140538Y79098D01*
X140530Y79082D01*
X140518Y79043D01*
X140507Y79000D01*
Y78996D01*
X140503Y78988D01*
Y78977D01*
X140499Y78961D01*
X140495Y78922D01*
Y78875D01*
Y78699D01*
X141198D01*
Y78887D01*
Y78891D01*
Y78902D01*
Y78922D01*
X141194Y78945D01*
X141186Y78996D01*
X141174Y79051D01*
Y79055D01*
X141170Y79062D01*
X141163Y79074D01*
X141155Y79090D01*
X141131Y79129D01*
X141100Y79164D01*
X141096Y79168D01*
X141092Y79172D01*
X141081Y79180D01*
X141065Y79187D01*
X141030Y79211D01*
X140983Y79230D01*
X140979D01*
X140971Y79234D01*
X140956Y79238D01*
X140936Y79242D01*
X140889Y79250D01*
X140831Y79254D01*
D02*
G37*
G36*
X144208Y76452D02*
X143970D01*
Y76451D01*
X144208Y76316D01*
Y76452D01*
D02*
G37*
G36*
X141635Y82717D02*
X141611D01*
X141592Y82713D01*
X141553Y82705D01*
X141510Y82689D01*
X141506D01*
X141498Y82685D01*
X141475Y82674D01*
X141444Y82650D01*
X141412Y82619D01*
X141405Y82611D01*
X141389Y82588D01*
X141369Y82553D01*
X141354Y82502D01*
Y82498D01*
X141350Y82490D01*
X141346Y82475D01*
X141342Y82451D01*
X141338Y82424D01*
X141334Y82393D01*
X141330Y82357D01*
Y82314D01*
Y82069D01*
X141920D01*
Y82369D01*
Y82373D01*
Y82385D01*
Y82400D01*
X141916Y82420D01*
X141912Y82471D01*
X141904Y82518D01*
Y82521D01*
X141900Y82529D01*
X141889Y82553D01*
X141873Y82584D01*
X141850Y82619D01*
Y82623D01*
X141842Y82627D01*
X141826Y82646D01*
X141795Y82670D01*
X141760Y82689D01*
X141756D01*
X141748Y82693D01*
X141740Y82697D01*
X141725Y82705D01*
X141686Y82713D01*
X141635Y82717D01*
D02*
G37*
G36*
X144034Y76062D02*
X144030D01*
X144025Y76061D01*
X144020D01*
X144005Y76057D01*
X143998Y76054D01*
X143991Y76051D01*
X143990Y76050D01*
X143988Y76049D01*
X143985Y76046D01*
X143982Y76042D01*
X143978Y76036D01*
X143974Y76030D01*
X143970Y76021D01*
X143967Y76012D01*
Y76011D01*
X143966Y76007D01*
X143965Y76001D01*
X143964Y75993D01*
Y75991D01*
X143963Y75986D01*
X143962Y75977D01*
Y75966D01*
Y75919D01*
X144108D01*
Y75973D01*
Y75973D01*
Y75976D01*
Y75980D01*
X144107Y75986D01*
X144106Y75999D01*
X144103Y76012D01*
Y76012D01*
X144102Y76014D01*
X144102Y76017D01*
X144100Y76021D01*
X144095Y76030D01*
X144088Y76039D01*
Y76040D01*
X144086Y76041D01*
X144081Y76046D01*
X144074Y76051D01*
X144065Y76056D01*
X144064D01*
X144062Y76057D01*
X144061Y76058D01*
X144057Y76059D01*
X144047Y76061D01*
X144034Y76062D01*
D02*
G37*
G36*
X144165Y79295D02*
X144121D01*
X144111Y79294D01*
X144101D01*
X144079Y79292D01*
X144074D01*
X144069Y79291D01*
X144062D01*
X144047Y79289D01*
X144030Y79286D01*
X144029D01*
X144026Y79285D01*
X144023Y79284D01*
X144018Y79283D01*
X144006Y79280D01*
X143994Y79275D01*
X143993D01*
X143991Y79274D01*
X143985Y79271D01*
X143979Y79266D01*
X143972Y79260D01*
X143970Y79258D01*
X143967Y79255D01*
X143963Y79248D01*
X143959Y79240D01*
X143958Y79238D01*
X143957Y79233D01*
X143956Y79225D01*
X143955Y79217D01*
Y79216D01*
Y79213D01*
X143956Y79209D01*
Y79203D01*
X143960Y79190D01*
X143963Y79183D01*
X143967Y79178D01*
X143968Y79177D01*
X143969Y79175D01*
X143972Y79172D01*
X143976Y79169D01*
X143981Y79165D01*
X143986Y79161D01*
X143994Y79157D01*
X144002Y79153D01*
X144003D01*
X144006Y79152D01*
X144011Y79150D01*
X144018Y79148D01*
X144025Y79146D01*
X144035Y79144D01*
X144046Y79142D01*
X144059Y79140D01*
X144064D01*
X144071Y79139D01*
X144081D01*
X144092Y79139D01*
X144105D01*
X144120Y79138D01*
X144156D01*
X144169Y79139D01*
X144183D01*
X144199Y79139D01*
X144214Y79140D01*
X144228Y79141D01*
X144230D01*
X144234Y79142D01*
X144241Y79143D01*
X144249Y79144D01*
X144259Y79146D01*
X144267Y79149D01*
X144277Y79152D01*
X144286Y79155D01*
X144287D01*
X144290Y79157D01*
X144293Y79159D01*
X144298Y79162D01*
X144307Y79170D01*
X144312Y79175D01*
X144316Y79179D01*
Y79180D01*
X144317Y79182D01*
X144318Y79185D01*
X144320Y79189D01*
X144323Y79201D01*
X144324Y79215D01*
Y79216D01*
Y79218D01*
Y79220D01*
X144323Y79224D01*
X144322Y79233D01*
X144319Y79242D01*
Y79243D01*
X144318Y79244D01*
X144315Y79249D01*
X144311Y79256D01*
X144304Y79262D01*
X144302Y79264D01*
X144298Y79268D01*
X144290Y79273D01*
X144280Y79278D01*
X144279D01*
X144277Y79279D01*
X144274Y79280D01*
X144269Y79282D01*
X144259Y79285D01*
X144245Y79288D01*
X144244D01*
X144241Y79289D01*
X144237D01*
X144231Y79290D01*
X144224Y79291D01*
X144217Y79292D01*
X144199Y79293D01*
X144194D01*
X144189Y79294D01*
X144175D01*
X144165Y79295D01*
D02*
G37*
G36*
X140749Y82607D02*
X140725D01*
X140710Y82603D01*
X140674Y82599D01*
X140639Y82588D01*
X140635D01*
X140632Y82584D01*
X140608Y82572D01*
X140585Y82557D01*
X140557Y82529D01*
X140550Y82521D01*
X140538Y82502D01*
X140522Y82471D01*
X140507Y82432D01*
Y82428D01*
X140503Y82420D01*
X140499Y82408D01*
X140495Y82393D01*
Y82369D01*
X140491Y82342D01*
X140487Y82279D01*
Y82069D01*
X141022D01*
Y82299D01*
Y82303D01*
Y82314D01*
Y82330D01*
X141018Y82354D01*
X141014Y82400D01*
X141010Y82424D01*
X141002Y82443D01*
Y82447D01*
X140999Y82451D01*
X140987Y82475D01*
X140967Y82506D01*
X140944Y82533D01*
X140936Y82541D01*
X140917Y82557D01*
X140889Y82572D01*
X140858Y82588D01*
X140854D01*
X140850Y82592D01*
X140827Y82599D01*
X140792Y82603D01*
X140749Y82607D01*
D02*
G37*
%LPD*%
D31*
X35010Y81181D02*
G03*
X35010Y81181I-125J0D01*
G01*
X128351Y75323D02*
G03*
X128351Y75323I-125J0D01*
G01*
X134177Y27377D02*
G03*
X134177Y27377I-125J0D01*
G01*
X106434Y48197D02*
G03*
X106434Y48197I-125J0D01*
G01*
X85265Y75852D02*
G03*
X85265Y75852I-125J0D01*
G01*
X57960Y79281D02*
G03*
X57960Y79281I-125J0D01*
G01*
X102283Y75598D02*
G03*
X102283Y75598I-125J0D01*
G01*
X127319Y68525D02*
G03*
X127319Y68525I-125J0D01*
G01*
X101512Y17673D02*
G03*
X101512Y17673I-125J0D01*
G01*
X129009Y46376D02*
G03*
X129009Y46376I-125J0D01*
G01*
X127845Y66362D02*
G03*
X127845Y66362I-125J0D01*
G01*
X101258Y30881D02*
G03*
X101258Y30881I-125J0D01*
G01*
D32*
X100377Y15823D02*
G03*
X100377Y15823I-250J0D01*
G01*
X100123Y29031D02*
G03*
X100123Y29031I-250J0D01*
G01*
D33*
X125094Y69580D02*
G03*
X125094Y69580I-200J0D01*
G01*
D34*
X52230Y9302D02*
X62230D01*
X52230Y14080D02*
X62230D01*
X52230Y9302D02*
Y14080D01*
X62230Y9302D02*
Y14080D01*
X52230Y17557D02*
X62230D01*
X52230Y22335D02*
X62230D01*
X52230Y17557D02*
Y22335D01*
X62230Y17557D02*
Y22335D01*
X52230Y26066D02*
X62230D01*
X52230Y30844D02*
X62230D01*
X52230Y26066D02*
Y30844D01*
X62230Y26066D02*
Y30844D01*
X52230Y34575D02*
X62230D01*
X52230Y39353D02*
X62230D01*
X52230Y34575D02*
Y39353D01*
X62230Y34575D02*
Y39353D01*
X72550Y10572D02*
X82550D01*
X72550Y15350D02*
X82550D01*
X72550Y10572D02*
Y15350D01*
X82550Y10572D02*
Y15350D01*
X72550Y19081D02*
X82550D01*
X72550Y23859D02*
X82550D01*
X72550Y19081D02*
Y23859D01*
X82550Y19081D02*
Y23859D01*
X72550Y27590D02*
X82550D01*
X72550Y32368D02*
X82550D01*
X72550Y27590D02*
Y32368D01*
X82550Y27590D02*
Y32368D01*
X72550Y36353D02*
X82550D01*
X72550Y41131D02*
X82550D01*
X72550Y36353D02*
Y41131D01*
X82550Y36353D02*
Y41131D01*
X59770Y25179D02*
X59770Y22639D01*
X64850Y22639D02*
X64850Y25179D01*
X59770Y22639D02*
X64850Y22639D01*
X59770Y25179D02*
X64850Y25179D01*
X59770Y42197D02*
X59770Y39657D01*
X64850Y39657D02*
X64850Y42197D01*
X59770Y39657D02*
X64850Y39657D01*
X59770Y42197D02*
X64850Y42197D01*
X75010Y18321D02*
X75010Y15781D01*
X69930Y15781D02*
X69930Y18321D01*
X75010Y18321D01*
X69930Y15781D02*
X75010Y15781D01*
X75010Y26703D02*
X75010Y24163D01*
X69930Y24163D02*
X69930Y26703D01*
X75010Y26703D01*
X69930Y24163D02*
X75010Y24163D01*
X75010Y35085D02*
X75010Y32545D01*
X69930Y32545D02*
X69930Y35085D01*
X75010Y35085D01*
X69930Y32545D02*
X75010Y32545D01*
X75010Y43848D02*
X75010Y41308D01*
X69930Y41308D02*
X69930Y43848D01*
X75010Y43848D01*
X69930Y41308D02*
X75010Y41308D01*
X143925Y19309D02*
Y25608D01*
Y19309D02*
Y25608D01*
X140826Y24059D02*
X143925Y19233D01*
X140826Y24059D02*
X143925Y19233D01*
X137600Y22433D02*
X143925Y19309D01*
X137600Y22433D02*
X143925Y19309D01*
X137600Y22433D02*
X143925Y25634D01*
X137600Y22433D02*
X143925Y25634D01*
X59770Y16797D02*
X59770Y14257D01*
X64850Y14257D02*
X64850Y16797D01*
X59770Y14257D02*
X64850Y14257D01*
X59770Y16797D02*
X64850Y16797D01*
X59770Y33561D02*
X59770Y31021D01*
X64850Y31021D02*
X64850Y33561D01*
X59770Y31021D02*
X64850Y31021D01*
X59770Y33561D02*
X64850Y33561D01*
X104267Y36449D02*
Y34925D01*
X105029D01*
X105283Y35179D01*
Y35433D01*
X105029Y35687D01*
X104267D01*
X105029D01*
X105283Y35941D01*
Y36195D01*
X105029Y36449D01*
X104267D01*
X105791Y34925D02*
Y35941D01*
X106298Y36449D01*
X106806Y35941D01*
Y34925D01*
Y35687D01*
X105791D01*
X107314Y36449D02*
X108330D01*
X107822D01*
Y34925D01*
X108838Y36449D02*
Y34925D01*
Y35687D01*
X109853D01*
Y36449D01*
Y34925D01*
X110361D02*
X110869D01*
X110615D01*
Y36449D01*
X110361Y36195D01*
X43180Y91186D02*
X42926Y91440D01*
X42418D01*
X42164Y91186D01*
Y90170D01*
X42418Y89916D01*
X42926D01*
X43180Y90170D01*
X43688Y89916D02*
X44195D01*
X43941D01*
Y91440D01*
X43688Y91186D01*
X36449Y80518D02*
X36195Y80772D01*
X35687D01*
X35433Y80518D01*
Y79502D01*
X35687Y79248D01*
X36195D01*
X36449Y79502D01*
X37972Y79248D02*
X36957D01*
X37972Y80264D01*
Y80518D01*
X37718Y80772D01*
X37210D01*
X36957Y80518D01*
X3810Y82804D02*
X3556Y83058D01*
X3048D01*
X2794Y82804D01*
Y81788D01*
X3048Y81534D01*
X3556D01*
X3810Y81788D01*
X4318Y82804D02*
X4571Y83058D01*
X5079D01*
X5333Y82804D01*
Y82550D01*
X5079Y82296D01*
X4825D01*
X5079D01*
X5333Y82042D01*
Y81788D01*
X5079Y81534D01*
X4571D01*
X4318Y81788D01*
X81280Y79629D02*
X81026Y79375D01*
Y78867D01*
X81280Y78613D01*
X82296D01*
X82550Y78867D01*
Y79375D01*
X82296Y79629D01*
X82550Y80898D02*
X81026D01*
X81788Y80137D01*
Y81152D01*
X54102Y73660D02*
X53848Y73914D01*
X53340D01*
X53086Y73660D01*
Y72644D01*
X53340Y72390D01*
X53848D01*
X54102Y72644D01*
X55625Y73914D02*
X54610D01*
Y73152D01*
X55117Y73406D01*
X55371D01*
X55625Y73152D01*
Y72644D01*
X55371Y72390D01*
X54863D01*
X54610Y72644D01*
X64389Y73406D02*
X64135Y73660D01*
X63627D01*
X63373Y73406D01*
Y72390D01*
X63627Y72136D01*
X64135D01*
X64389Y72390D01*
X65912Y73660D02*
X65404Y73406D01*
X64897Y72898D01*
Y72390D01*
X65150Y72136D01*
X65658D01*
X65912Y72390D01*
Y72644D01*
X65658Y72898D01*
X64897D01*
X69215Y73533D02*
X68961Y73787D01*
X68453D01*
X68199Y73533D01*
Y72517D01*
X68453Y72263D01*
X68961D01*
X69215Y72517D01*
X69723Y73787D02*
X70738D01*
Y73533D01*
X69723Y72517D01*
Y72263D01*
X74549Y73787D02*
X74295Y74041D01*
X73787D01*
X73533Y73787D01*
Y72771D01*
X73787Y72517D01*
X74295D01*
X74549Y72771D01*
X75057Y73787D02*
X75310Y74041D01*
X75818D01*
X76072Y73787D01*
Y73533D01*
X75818Y73279D01*
X76072Y73025D01*
Y72771D01*
X75818Y72517D01*
X75310D01*
X75057Y72771D01*
Y73025D01*
X75310Y73279D01*
X75057Y73533D01*
Y73787D01*
X75310Y73279D02*
X75818D01*
X98044Y79248D02*
X97790Y78994D01*
Y78486D01*
X98044Y78232D01*
X99060D01*
X99314Y78486D01*
Y78994D01*
X99060Y79248D01*
Y79756D02*
X99314Y80009D01*
Y80517D01*
X99060Y80771D01*
X98044D01*
X97790Y80517D01*
Y80009D01*
X98044Y79756D01*
X98298D01*
X98552Y80009D01*
Y80771D01*
X119634Y67818D02*
X119380Y67564D01*
Y67056D01*
X119634Y66802D01*
X120650D01*
X120904Y67056D01*
Y67564D01*
X120650Y67818D01*
X120904Y68326D02*
Y68833D01*
Y68579D01*
X119380D01*
X119634Y68326D01*
Y69595D02*
X119380Y69849D01*
Y70357D01*
X119634Y70611D01*
X120650D01*
X120904Y70357D01*
Y69849D01*
X120650Y69595D01*
X119634D01*
X85090Y55880D02*
X84836Y55626D01*
Y55118D01*
X85090Y54864D01*
X86106D01*
X86360Y55118D01*
Y55626D01*
X86106Y55880D01*
X86360Y56388D02*
Y56895D01*
Y56641D01*
X84836D01*
X85090Y56388D01*
X86360Y57657D02*
Y58165D01*
Y57911D01*
X84836D01*
X85090Y57657D01*
X93726Y43180D02*
X93472Y43434D01*
X92964D01*
X92710Y43180D01*
Y42164D01*
X92964Y41910D01*
X93472D01*
X93726Y42164D01*
X94234Y41910D02*
X94741D01*
X94487D01*
Y43434D01*
X94234Y43180D01*
X96519Y41910D02*
X95503D01*
X96519Y42926D01*
Y43180D01*
X96265Y43434D01*
X95757D01*
X95503Y43180D01*
X114935Y54102D02*
X114681Y54356D01*
X114173D01*
X113919Y54102D01*
Y53086D01*
X114173Y52832D01*
X114681D01*
X114935Y53086D01*
X115443Y52832D02*
X115950D01*
X115696D01*
Y54356D01*
X115443Y54102D01*
X116712D02*
X116966Y54356D01*
X117474D01*
X117728Y54102D01*
Y53848D01*
X117474Y53594D01*
X117220D01*
X117474D01*
X117728Y53340D01*
Y53086D01*
X117474Y52832D01*
X116966D01*
X116712Y53086D01*
X106807Y62611D02*
X106553Y62357D01*
Y61849D01*
X106807Y61595D01*
X107823D01*
X108077Y61849D01*
Y62357D01*
X107823Y62611D01*
X108077Y63119D02*
Y63626D01*
Y63372D01*
X106553D01*
X106807Y63119D01*
X108077Y65150D02*
X106553D01*
X107315Y64388D01*
Y65404D01*
X94281Y65753D02*
X94027Y66007D01*
X93519D01*
X93265Y65753D01*
Y64737D01*
X93519Y64483D01*
X94027D01*
X94281Y64737D01*
X94789Y64483D02*
X95296D01*
X95042D01*
Y66007D01*
X94789Y65753D01*
X97074Y66007D02*
X96058D01*
Y65245D01*
X96566Y65499D01*
X96820D01*
X97074Y65245D01*
Y64737D01*
X96820Y64483D01*
X96312D01*
X96058Y64737D01*
X106346Y67277D02*
X106092Y67531D01*
X105584D01*
X105330Y67277D01*
Y66261D01*
X105584Y66007D01*
X106092D01*
X106346Y66261D01*
X106854Y66007D02*
X107361D01*
X107107D01*
Y67531D01*
X106854Y67277D01*
X109139Y67531D02*
X108631Y67277D01*
X108123Y66769D01*
Y66261D01*
X108377Y66007D01*
X108885D01*
X109139Y66261D01*
Y66515D01*
X108885Y66769D01*
X108123D01*
X102489Y43053D02*
X102235Y43307D01*
X101727D01*
X101473Y43053D01*
Y42037D01*
X101727Y41783D01*
X102235D01*
X102489Y42037D01*
X102997Y41783D02*
X103504D01*
X103250D01*
Y43307D01*
X102997Y43053D01*
X104266Y43307D02*
X105282D01*
Y43053D01*
X104266Y42037D01*
Y41783D01*
X123571Y77724D02*
X123317Y77470D01*
Y76962D01*
X123571Y76708D01*
X124587D01*
X124841Y76962D01*
Y77470D01*
X124587Y77724D01*
X124841Y78232D02*
Y78739D01*
Y78485D01*
X123317D01*
X123571Y78232D01*
Y79501D02*
X123317Y79755D01*
Y80263D01*
X123571Y80517D01*
X123825D01*
X124079Y80263D01*
X124333Y80517D01*
X124587D01*
X124841Y80263D01*
Y79755D01*
X124587Y79501D01*
X124333D01*
X124079Y79755D01*
X123825Y79501D01*
X123571D01*
X124079Y79755D02*
Y80263D01*
X119507Y57150D02*
X119253Y57404D01*
X118745D01*
X118491Y57150D01*
Y56134D01*
X118745Y55880D01*
X119253D01*
X119507Y56134D01*
X120015Y55880D02*
X120522D01*
X120268D01*
Y57404D01*
X120015Y57150D01*
X121284Y56134D02*
X121538Y55880D01*
X122046D01*
X122300Y56134D01*
Y57150D01*
X122046Y57404D01*
X121538D01*
X121284Y57150D01*
Y56896D01*
X121538Y56642D01*
X122300D01*
X122555Y41783D02*
X122301Y42037D01*
X121793D01*
X121539Y41783D01*
Y40767D01*
X121793Y40513D01*
X122301D01*
X122555Y40767D01*
X124078Y40513D02*
X123063D01*
X124078Y41529D01*
Y41783D01*
X123824Y42037D01*
X123316D01*
X123063Y41783D01*
X124586D02*
X124840Y42037D01*
X125348D01*
X125602Y41783D01*
Y40767D01*
X125348Y40513D01*
X124840D01*
X124586Y40767D01*
Y41783D01*
X112776Y42164D02*
X112522Y42418D01*
X112014D01*
X111760Y42164D01*
Y41148D01*
X112014Y40894D01*
X112522D01*
X112776Y41148D01*
X114299Y40894D02*
X113284D01*
X114299Y41910D01*
Y42164D01*
X114045Y42418D01*
X113537D01*
X113284Y42164D01*
X114807Y40894D02*
X115315D01*
X115061D01*
Y42418D01*
X114807Y42164D01*
X23749Y98806D02*
Y97282D01*
X24511D01*
X24765Y97536D01*
Y98552D01*
X24511Y98806D01*
X23749D01*
X25273Y97282D02*
X25780D01*
X25526D01*
Y98806D01*
X25273Y98552D01*
X53721Y43561D02*
Y42037D01*
X54483D01*
X54737Y42291D01*
Y43307D01*
X54483Y43561D01*
X53721D01*
X56260Y42037D02*
X55245D01*
X56260Y43053D01*
Y43307D01*
X56006Y43561D01*
X55498D01*
X55245Y43307D01*
X52959Y16510D02*
Y14986D01*
X53721D01*
X53975Y15240D01*
Y16256D01*
X53721Y16510D01*
X52959D01*
X54483Y16256D02*
X54736Y16510D01*
X55244D01*
X55498Y16256D01*
Y16002D01*
X55244Y15748D01*
X54990D01*
X55244D01*
X55498Y15494D01*
Y15240D01*
X55244Y14986D01*
X54736D01*
X54483Y15240D01*
X53594Y34290D02*
Y32766D01*
X54356D01*
X54610Y33020D01*
Y34036D01*
X54356Y34290D01*
X53594D01*
X55879Y32766D02*
Y34290D01*
X55118Y33528D01*
X56133D01*
X53436Y25925D02*
Y24401D01*
X54198D01*
X54452Y24655D01*
Y25671D01*
X54198Y25925D01*
X53436D01*
X55975D02*
X54959D01*
Y25163D01*
X55467Y25417D01*
X55721D01*
X55975Y25163D01*
Y24655D01*
X55721Y24401D01*
X55213D01*
X54959Y24655D01*
X78994Y17907D02*
Y16383D01*
X79756D01*
X80010Y16637D01*
Y17653D01*
X79756Y17907D01*
X78994D01*
X81533D02*
X81025Y17653D01*
X80518Y17145D01*
Y16637D01*
X80771Y16383D01*
X81279D01*
X81533Y16637D01*
Y16891D01*
X81279Y17145D01*
X80518D01*
X79248Y35179D02*
Y33655D01*
X80010D01*
X80264Y33909D01*
Y34925D01*
X80010Y35179D01*
X79248D01*
X80772D02*
X81787D01*
Y34925D01*
X80772Y33909D01*
Y33655D01*
X78994Y26289D02*
Y24765D01*
X79756D01*
X80010Y25019D01*
Y26035D01*
X79756Y26289D01*
X78994D01*
X80518Y26035D02*
X80771Y26289D01*
X81279D01*
X81533Y26035D01*
Y25781D01*
X81279Y25527D01*
X81533Y25273D01*
Y25019D01*
X81279Y24765D01*
X80771D01*
X80518Y25019D01*
Y25273D01*
X80771Y25527D01*
X80518Y25781D01*
Y26035D01*
X80771Y25527D02*
X81279D01*
X70231Y45974D02*
Y44450D01*
X70993D01*
X71247Y44704D01*
Y45720D01*
X70993Y45974D01*
X70231D01*
X71755Y44704D02*
X72008Y44450D01*
X72516D01*
X72770Y44704D01*
Y45720D01*
X72516Y45974D01*
X72008D01*
X71755Y45720D01*
Y45466D01*
X72008Y45212D01*
X72770D01*
X25019Y79629D02*
X25527D01*
X25273D01*
Y78105D01*
X25019D01*
X25527D01*
X27304Y79375D02*
X27050Y79629D01*
X26543D01*
X26289Y79375D01*
Y78359D01*
X26543Y78105D01*
X27050D01*
X27304Y78359D01*
X27812Y78105D02*
X28320D01*
X28066D01*
Y79629D01*
X27812Y79375D01*
X1651Y40259D02*
Y40767D01*
Y40513D01*
X3175D01*
Y40259D01*
Y40767D01*
X1905Y42544D02*
X1651Y42290D01*
Y41783D01*
X1905Y41529D01*
X2921D01*
X3175Y41783D01*
Y42290D01*
X2921Y42544D01*
X3175Y44068D02*
Y43052D01*
X2159Y44068D01*
X1905D01*
X1651Y43814D01*
Y43306D01*
X1905Y43052D01*
X14852Y53285D02*
Y53792D01*
Y53539D01*
X16375D01*
Y53285D01*
Y53792D01*
X15106Y55570D02*
X14852Y55316D01*
Y54808D01*
X15106Y54554D01*
X16121D01*
X16375Y54808D01*
Y55316D01*
X16121Y55570D01*
X15106Y56078D02*
X14852Y56332D01*
Y56839D01*
X15106Y57093D01*
X15360D01*
X15613Y56839D01*
Y56586D01*
Y56839D01*
X15867Y57093D01*
X16121D01*
X16375Y56839D01*
Y56332D01*
X16121Y56078D01*
X1524Y53467D02*
Y53975D01*
Y53721D01*
X3048D01*
Y53467D01*
Y53975D01*
X1778Y55752D02*
X1524Y55498D01*
Y54991D01*
X1778Y54737D01*
X2794D01*
X3048Y54991D01*
Y55498D01*
X2794Y55752D01*
X3048Y57022D02*
X1524D01*
X2286Y56260D01*
Y57276D01*
X14859Y66548D02*
Y67056D01*
Y66802D01*
X16383D01*
Y66548D01*
Y67056D01*
X15113Y68833D02*
X14859Y68579D01*
Y68072D01*
X15113Y67818D01*
X16129D01*
X16383Y68072D01*
Y68579D01*
X16129Y68833D01*
X14859Y70357D02*
Y69341D01*
X15621D01*
X15367Y69849D01*
Y70103D01*
X15621Y70357D01*
X16129D01*
X16383Y70103D01*
Y69595D01*
X16129Y69341D01*
X1524Y66548D02*
Y67056D01*
Y66802D01*
X3048D01*
Y66548D01*
Y67056D01*
X1778Y68833D02*
X1524Y68579D01*
Y68072D01*
X1778Y67818D01*
X2794D01*
X3048Y68072D01*
Y68579D01*
X2794Y68833D01*
X1524Y70357D02*
X1778Y69849D01*
X2286Y69341D01*
X2794D01*
X3048Y69595D01*
Y70103D01*
X2794Y70357D01*
X2540D01*
X2286Y70103D01*
Y69341D01*
X27686Y45085D02*
Y45593D01*
Y45339D01*
X29210D01*
Y45085D01*
Y45593D01*
X27940Y47370D02*
X27686Y47116D01*
Y46609D01*
X27940Y46355D01*
X28956D01*
X29210Y46609D01*
Y47116D01*
X28956Y47370D01*
X27686Y47878D02*
Y48894D01*
X27940D01*
X28956Y47878D01*
X29210D01*
X14986Y40259D02*
Y40767D01*
Y40513D01*
X16510D01*
Y40259D01*
Y40767D01*
X15240Y42544D02*
X14986Y42290D01*
Y41783D01*
X15240Y41529D01*
X16256D01*
X16510Y41783D01*
Y42290D01*
X16256Y42544D01*
X15240Y43052D02*
X14986Y43306D01*
Y43814D01*
X15240Y44068D01*
X15494D01*
X15748Y43814D01*
X16002Y44068D01*
X16256D01*
X16510Y43814D01*
Y43306D01*
X16256Y43052D01*
X16002D01*
X15748Y43306D01*
X15494Y43052D01*
X15240D01*
X15748Y43306D02*
Y43814D01*
X27686Y58166D02*
Y58674D01*
Y58420D01*
X29210D01*
Y58166D01*
Y58674D01*
X27940Y60451D02*
X27686Y60197D01*
Y59690D01*
X27940Y59436D01*
X28956D01*
X29210Y59690D01*
Y60197D01*
X28956Y60451D01*
Y60959D02*
X29210Y61213D01*
Y61721D01*
X28956Y61975D01*
X27940D01*
X27686Y61721D01*
Y61213D01*
X27940Y60959D01*
X28194D01*
X28448Y61213D01*
Y61975D01*
X29366Y75445D02*
X29874D01*
X29620D01*
Y73922D01*
X29366D01*
X29874D01*
X31651Y75191D02*
X31398Y75445D01*
X30890D01*
X30636Y75191D01*
Y74176D01*
X30890Y73922D01*
X31398D01*
X31651Y74176D01*
X32159Y73922D02*
X32667D01*
X32413D01*
Y75445D01*
X32159Y75191D01*
X33429D02*
X33683Y75445D01*
X34191D01*
X34445Y75191D01*
Y74176D01*
X34191Y73922D01*
X33683D01*
X33429Y74176D01*
Y75191D01*
X41431Y49156D02*
X41939D01*
X41685D01*
Y47633D01*
X41431D01*
X41939D01*
X43716Y48902D02*
X43463Y49156D01*
X42955D01*
X42701Y48902D01*
Y47887D01*
X42955Y47633D01*
X43463D01*
X43716Y47887D01*
X44224Y47633D02*
X44732D01*
X44478D01*
Y49156D01*
X44224Y48902D01*
X45494Y47633D02*
X46002D01*
X45748D01*
Y49156D01*
X45494Y48902D01*
X101727Y26924D02*
Y27432D01*
Y27178D01*
X103251D01*
Y26924D01*
Y27432D01*
X101981Y29209D02*
X101727Y28955D01*
Y28448D01*
X101981Y28194D01*
X102997D01*
X103251Y28448D01*
Y28955D01*
X102997Y29209D01*
X103251Y29717D02*
Y30225D01*
Y29971D01*
X101727D01*
X101981Y29717D01*
X103251Y32002D02*
Y30987D01*
X102235Y32002D01*
X101981D01*
X101727Y31748D01*
Y31241D01*
X101981Y30987D01*
X41431Y75572D02*
X41939D01*
X41685D01*
Y74049D01*
X41431D01*
X41939D01*
X43716Y75318D02*
X43463Y75572D01*
X42955D01*
X42701Y75318D01*
Y74303D01*
X42955Y74049D01*
X43463D01*
X43716Y74303D01*
X44224Y74049D02*
X44732D01*
X44478D01*
Y75572D01*
X44224Y75318D01*
X45494D02*
X45748Y75572D01*
X46256D01*
X46510Y75318D01*
Y75064D01*
X46256Y74810D01*
X46002D01*
X46256D01*
X46510Y74556D01*
Y74303D01*
X46256Y74049D01*
X45748D01*
X45494Y74303D01*
X41558Y62364D02*
X42066D01*
X41812D01*
Y60841D01*
X41558D01*
X42066D01*
X43843Y62110D02*
X43590Y62364D01*
X43082D01*
X42828Y62110D01*
Y61095D01*
X43082Y60841D01*
X43590D01*
X43843Y61095D01*
X44351Y60841D02*
X44859D01*
X44605D01*
Y62364D01*
X44351Y62110D01*
X46383Y60841D02*
Y62364D01*
X45621Y61602D01*
X46637D01*
X126492Y26924D02*
X127000D01*
X126746D01*
Y25400D01*
X126492D01*
X127000D01*
X128777Y26670D02*
X128523Y26924D01*
X128016D01*
X127762Y26670D01*
Y25654D01*
X128016Y25400D01*
X128523D01*
X128777Y25654D01*
X129285Y25400D02*
X129793D01*
X129539D01*
Y26924D01*
X129285Y26670D01*
X131570Y26924D02*
X130555D01*
Y26162D01*
X131063Y26416D01*
X131316D01*
X131570Y26162D01*
Y25654D01*
X131316Y25400D01*
X130809D01*
X130555Y25654D01*
X130302Y38608D02*
X130810D01*
X130556D01*
Y37084D01*
X130302D01*
X130810D01*
X132587Y38354D02*
X132333Y38608D01*
X131826D01*
X131572Y38354D01*
Y37338D01*
X131826Y37084D01*
X132333D01*
X132587Y37338D01*
X133095Y37084D02*
X133603D01*
X133349D01*
Y38608D01*
X133095Y38354D01*
X135380Y38608D02*
X134873Y38354D01*
X134365Y37846D01*
Y37338D01*
X134619Y37084D01*
X135126D01*
X135380Y37338D01*
Y37592D01*
X135126Y37846D01*
X134365D01*
X78359Y64770D02*
Y65278D01*
Y65024D01*
X79883D01*
Y64770D01*
Y65278D01*
X78613Y67055D02*
X78359Y66801D01*
Y66294D01*
X78613Y66040D01*
X79629D01*
X79883Y66294D01*
Y66801D01*
X79629Y67055D01*
X79883Y67563D02*
Y68071D01*
Y67817D01*
X78359D01*
X78613Y67563D01*
X78359Y68833D02*
Y69848D01*
X78613D01*
X79629Y68833D01*
X79883D01*
X78359Y52451D02*
Y52959D01*
Y52705D01*
X79883D01*
Y52451D01*
Y52959D01*
X78613Y54736D02*
X78359Y54482D01*
Y53975D01*
X78613Y53721D01*
X79629D01*
X79883Y53975D01*
Y54482D01*
X79629Y54736D01*
X79883Y55244D02*
Y55752D01*
Y55498D01*
X78359D01*
X78613Y55244D01*
Y56514D02*
X78359Y56768D01*
Y57275D01*
X78613Y57529D01*
X78867D01*
X79121Y57275D01*
X79375Y57529D01*
X79629D01*
X79883Y57275D01*
Y56768D01*
X79629Y56514D01*
X79375D01*
X79121Y56768D01*
X78867Y56514D01*
X78613D01*
X79121Y56768D02*
Y57275D01*
X53086Y64516D02*
Y65024D01*
Y64770D01*
X54610D01*
Y64516D01*
Y65024D01*
X53340Y66801D02*
X53086Y66547D01*
Y66040D01*
X53340Y65786D01*
X54356D01*
X54610Y66040D01*
Y66547D01*
X54356Y66801D01*
X54610Y67309D02*
Y67817D01*
Y67563D01*
X53086D01*
X53340Y67309D01*
X54356Y68579D02*
X54610Y68833D01*
Y69340D01*
X54356Y69594D01*
X53340D01*
X53086Y69340D01*
Y68833D01*
X53340Y68579D01*
X53594D01*
X53848Y68833D01*
Y69594D01*
X53213Y52324D02*
Y52832D01*
Y52578D01*
X54737D01*
Y52324D01*
Y52832D01*
X53467Y54609D02*
X53213Y54355D01*
Y53848D01*
X53467Y53594D01*
X54483D01*
X54737Y53848D01*
Y54355D01*
X54483Y54609D01*
X54737Y56133D02*
Y55117D01*
X53721Y56133D01*
X53467D01*
X53213Y55879D01*
Y55371D01*
X53467Y55117D01*
Y56641D02*
X53213Y56895D01*
Y57402D01*
X53467Y57656D01*
X54483D01*
X54737Y57402D01*
Y56895D01*
X54483Y56641D01*
X53467D01*
X101854Y11811D02*
Y12319D01*
Y12065D01*
X103378D01*
Y11811D01*
Y12319D01*
X102108Y14096D02*
X101854Y13842D01*
Y13335D01*
X102108Y13081D01*
X103124D01*
X103378Y13335D01*
Y13842D01*
X103124Y14096D01*
X103378Y15620D02*
Y14604D01*
X102362Y15620D01*
X102108D01*
X101854Y15366D01*
Y14858D01*
X102108Y14604D01*
X103378Y16128D02*
Y16635D01*
Y16382D01*
X101854D01*
X102108Y16128D01*
X3810Y93472D02*
X3302D01*
X3556D01*
Y92202D01*
X3302Y91948D01*
X3048D01*
X2794Y92202D01*
X4318Y91948D02*
X4825D01*
X4571D01*
Y93472D01*
X4318Y93218D01*
X63500Y94615D02*
X62992D01*
X63246D01*
Y93345D01*
X62992Y93091D01*
X62738D01*
X62484Y93345D01*
X65023Y93091D02*
X64008D01*
X65023Y94107D01*
Y94361D01*
X64769Y94615D01*
X64261D01*
X64008Y94361D01*
X96139Y90678D02*
Y90170D01*
Y90424D01*
X97409D01*
X97663Y90170D01*
Y89916D01*
X97409Y89662D01*
X96393Y91186D02*
X96139Y91439D01*
Y91947D01*
X96393Y92201D01*
X96647D01*
X96901Y91947D01*
Y91693D01*
Y91947D01*
X97155Y92201D01*
X97409D01*
X97663Y91947D01*
Y91439D01*
X97409Y91186D01*
X120015Y87249D02*
Y86741D01*
Y86995D01*
X121285D01*
X121539Y86741D01*
Y86487D01*
X121285Y86233D01*
X121539Y88518D02*
X120015D01*
X120777Y87757D01*
Y88772D01*
X137160Y88646D02*
X136652D01*
X136906D01*
Y87376D01*
X136652Y87122D01*
X136398D01*
X136144Y87376D01*
X138683Y88646D02*
X137668D01*
Y87884D01*
X138175Y88138D01*
X138429D01*
X138683Y87884D01*
Y87376D01*
X138429Y87122D01*
X137921D01*
X137668Y87376D01*
X127381Y59817D02*
X126873D01*
X127127D01*
Y58547D01*
X126873Y58293D01*
X126619D01*
X126365Y58547D01*
X128904Y59817D02*
X128396Y59563D01*
X127889Y59055D01*
Y58547D01*
X128142Y58293D01*
X128650D01*
X128904Y58547D01*
Y58801D01*
X128650Y59055D01*
X127889D01*
X6531Y10269D02*
X6023D01*
X6277D01*
Y8999D01*
X6023Y8745D01*
X5770D01*
X5516Y8999D01*
X7039Y10269D02*
X8055D01*
Y10015D01*
X7039Y8999D01*
Y8745D01*
X27486Y10269D02*
X26978D01*
X27232D01*
Y8999D01*
X26978Y8745D01*
X26725D01*
X26471Y8999D01*
X27994Y10015D02*
X28248Y10269D01*
X28756D01*
X29010Y10015D01*
Y9761D01*
X28756Y9507D01*
X29010Y9253D01*
Y8999D01*
X28756Y8745D01*
X28248D01*
X27994Y8999D01*
Y9253D01*
X28248Y9507D01*
X27994Y9761D01*
Y10015D01*
X28248Y9507D02*
X28756D01*
X48441Y10269D02*
X47933D01*
X48187D01*
Y8999D01*
X47933Y8745D01*
X47680D01*
X47426Y8999D01*
X48949D02*
X49203Y8745D01*
X49711D01*
X49965Y8999D01*
Y10015D01*
X49711Y10269D01*
X49203D01*
X48949Y10015D01*
Y9761D01*
X49203Y9507D01*
X49965D01*
X80518Y9906D02*
X80010D01*
X80264D01*
Y8636D01*
X80010Y8382D01*
X79756D01*
X79502Y8636D01*
X81026Y8382D02*
X81533D01*
X81279D01*
Y9906D01*
X81026Y9652D01*
X82295D02*
X82549Y9906D01*
X83057D01*
X83311Y9652D01*
Y8636D01*
X83057Y8382D01*
X82549D01*
X82295Y8636D01*
Y9652D01*
X88138Y12192D02*
Y11684D01*
Y11938D01*
X89408D01*
X89662Y11684D01*
Y11430D01*
X89408Y11176D01*
X89662Y12700D02*
Y13207D01*
Y12953D01*
X88138D01*
X88392Y12700D01*
X89662Y13969D02*
Y14477D01*
Y14223D01*
X88138D01*
X88392Y13969D01*
X105029Y12573D02*
X104521D01*
X104775D01*
Y11303D01*
X104521Y11049D01*
X104267D01*
X104013Y11303D01*
X105537Y11049D02*
X106044D01*
X105790D01*
Y12573D01*
X105537Y12319D01*
X107822Y11049D02*
X106806D01*
X107822Y12065D01*
Y12319D01*
X107568Y12573D01*
X107060D01*
X106806Y12319D01*
X121666Y12700D02*
X121158D01*
X121412D01*
Y11430D01*
X121158Y11176D01*
X120904D01*
X120650Y11430D01*
X122174Y11176D02*
X122681D01*
X122427D01*
Y12700D01*
X122174Y12446D01*
X123443D02*
X123697Y12700D01*
X124205D01*
X124459Y12446D01*
Y12192D01*
X124205Y11938D01*
X123951D01*
X124205D01*
X124459Y11684D01*
Y11430D01*
X124205Y11176D01*
X123697D01*
X123443Y11430D01*
X130810Y12192D02*
Y11684D01*
Y11938D01*
X132080D01*
X132334Y11684D01*
Y11430D01*
X132080Y11176D01*
X132334Y12700D02*
Y13207D01*
Y12953D01*
X130810D01*
X131064Y12700D01*
X132334Y14731D02*
X130810D01*
X131572Y13969D01*
Y14985D01*
X108966Y73025D02*
X108458D01*
X108712D01*
Y71755D01*
X108458Y71501D01*
X108204D01*
X107950Y71755D01*
X109474Y71501D02*
X109981D01*
X109727D01*
Y73025D01*
X109474Y72771D01*
X111759Y73025D02*
X110743D01*
Y72263D01*
X111251Y72517D01*
X111505D01*
X111759Y72263D01*
Y71755D01*
X111505Y71501D01*
X110997D01*
X110743Y71755D01*
X44704Y98679D02*
Y97155D01*
X45720D01*
X46228D02*
X46735D01*
X46481D01*
Y98679D01*
X46228Y98425D01*
X53340Y31496D02*
Y32512D01*
X53086Y32766D01*
X52578D01*
X52324Y32512D01*
Y31496D01*
X52578Y31242D01*
X53086D01*
X52832Y31750D02*
X53340Y31242D01*
X53086D02*
X53340Y31496D01*
X53848Y31242D02*
X54355D01*
X54101D01*
Y32766D01*
X53848Y32512D01*
X51261Y11971D02*
X50245D01*
X49991Y11717D01*
Y11209D01*
X50245Y10955D01*
X51261D01*
X51515Y11209D01*
Y11717D01*
X51007Y11463D02*
X51515Y11971D01*
Y11717D02*
X51261Y11971D01*
X51515Y13494D02*
Y12479D01*
X50499Y13494D01*
X50245D01*
X49991Y13240D01*
Y12732D01*
X50245Y12479D01*
X53467Y40132D02*
Y41148D01*
X53213Y41402D01*
X52705D01*
X52451Y41148D01*
Y40132D01*
X52705Y39878D01*
X53213D01*
X52959Y40386D02*
X53467Y39878D01*
X53213D02*
X53467Y40132D01*
X53975Y41148D02*
X54228Y41402D01*
X54736D01*
X54990Y41148D01*
Y40894D01*
X54736Y40640D01*
X54482D01*
X54736D01*
X54990Y40386D01*
Y40132D01*
X54736Y39878D01*
X54228D01*
X53975Y40132D01*
X53340Y22987D02*
Y24003D01*
X53086Y24257D01*
X52578D01*
X52324Y24003D01*
Y22987D01*
X52578Y22733D01*
X53086D01*
X52832Y23241D02*
X53340Y22733D01*
X53086D02*
X53340Y22987D01*
X54609Y22733D02*
Y24257D01*
X53848Y23495D01*
X54863D01*
X131572Y63199D02*
Y64215D01*
X131318Y64469D01*
X130810D01*
X130556Y64215D01*
Y63199D01*
X130810Y62945D01*
X131318D01*
X131064Y63453D02*
X131572Y62945D01*
X131318D02*
X131572Y63199D01*
X133095Y64469D02*
X132080D01*
Y63707D01*
X132587Y63961D01*
X132841D01*
X133095Y63707D01*
Y63199D01*
X132841Y62945D01*
X132333D01*
X132080Y63199D01*
X72009Y13716D02*
X70993D01*
X70739Y13462D01*
Y12954D01*
X70993Y12700D01*
X72009D01*
X72263Y12954D01*
Y13462D01*
X71755Y13208D02*
X72263Y13716D01*
Y13462D02*
X72009Y13716D01*
X70739Y15239D02*
X70993Y14731D01*
X71501Y14224D01*
X72009D01*
X72263Y14477D01*
Y14985D01*
X72009Y15239D01*
X71755D01*
X71501Y14985D01*
Y14224D01*
X72009Y30607D02*
X70993D01*
X70739Y30353D01*
Y29845D01*
X70993Y29591D01*
X72009D01*
X72263Y29845D01*
Y30353D01*
X71755Y30099D02*
X72263Y30607D01*
Y30353D02*
X72009Y30607D01*
X70739Y31115D02*
Y32130D01*
X70993D01*
X72009Y31115D01*
X72263D01*
X71882Y22098D02*
X70866D01*
X70612Y21844D01*
Y21336D01*
X70866Y21082D01*
X71882D01*
X72136Y21336D01*
Y21844D01*
X71628Y21590D02*
X72136Y22098D01*
Y21844D02*
X71882Y22098D01*
X70866Y22606D02*
X70612Y22859D01*
Y23367D01*
X70866Y23621D01*
X71120D01*
X71374Y23367D01*
X71628Y23621D01*
X71882D01*
X72136Y23367D01*
Y22859D01*
X71882Y22606D01*
X71628D01*
X71374Y22859D01*
X71120Y22606D01*
X70866D01*
X71374Y22859D02*
Y23367D01*
X72136Y39370D02*
X71120D01*
X70866Y39116D01*
Y38608D01*
X71120Y38354D01*
X72136D01*
X72390Y38608D01*
Y39116D01*
X71882Y38862D02*
X72390Y39370D01*
Y39116D02*
X72136Y39370D01*
Y39878D02*
X72390Y40131D01*
Y40639D01*
X72136Y40893D01*
X71120D01*
X70866Y40639D01*
Y40131D01*
X71120Y39878D01*
X71374D01*
X71628Y40131D01*
Y40893D01*
X99060Y82169D02*
X97536D01*
Y82931D01*
X97790Y83185D01*
X98298D01*
X98552Y82931D01*
Y82169D01*
Y82677D02*
X99060Y83185D01*
Y83693D02*
Y84200D01*
Y83946D01*
X97536D01*
X97790Y83693D01*
X97155Y82169D02*
X95631D01*
Y82931D01*
X95885Y83185D01*
X96393D01*
X96647Y82931D01*
Y82169D01*
Y82677D02*
X97155Y83185D01*
Y84708D02*
Y83693D01*
X96139Y84708D01*
X95885D01*
X95631Y84454D01*
Y83946D01*
X95885Y83693D01*
X89281Y86995D02*
Y88519D01*
X90043D01*
X90297Y88265D01*
Y87757D01*
X90043Y87503D01*
X89281D01*
X89789D02*
X90297Y86995D01*
X90805Y88265D02*
X91058Y88519D01*
X91566D01*
X91820Y88265D01*
Y88011D01*
X91566Y87757D01*
X91312D01*
X91566D01*
X91820Y87503D01*
Y87249D01*
X91566Y86995D01*
X91058D01*
X90805Y87249D01*
X89027Y86868D02*
X87503D01*
Y87630D01*
X87757Y87884D01*
X88265D01*
X88519Y87630D01*
Y86868D01*
Y87376D02*
X89027Y87884D01*
Y89153D02*
X87503D01*
X88265Y88392D01*
Y89407D01*
X84836Y82169D02*
X83312D01*
Y82931D01*
X83566Y83185D01*
X84074D01*
X84328Y82931D01*
Y82169D01*
Y82677D02*
X84836Y83185D01*
X83312Y84708D02*
Y83693D01*
X84074D01*
X83820Y84200D01*
Y84454D01*
X84074Y84708D01*
X84582D01*
X84836Y84454D01*
Y83946D01*
X84582Y83693D01*
X75438Y88011D02*
Y89535D01*
X76200D01*
X76454Y89281D01*
Y88773D01*
X76200Y88519D01*
X75438D01*
X75946D02*
X76454Y88011D01*
X77977Y89535D02*
X77469Y89281D01*
X76962Y88773D01*
Y88265D01*
X77215Y88011D01*
X77723D01*
X77977Y88265D01*
Y88519D01*
X77723Y88773D01*
X76962D01*
X116840Y83439D02*
X115316D01*
Y84201D01*
X115570Y84455D01*
X116078D01*
X116332Y84201D01*
Y83439D01*
Y83947D02*
X116840Y84455D01*
X115316Y84963D02*
Y85978D01*
X115570D01*
X116586Y84963D01*
X116840D01*
X78599Y81534D02*
Y83058D01*
X79361D01*
X79615Y82804D01*
Y82296D01*
X79361Y82042D01*
X78599D01*
X79107D02*
X79615Y81534D01*
X80123Y82804D02*
X80376Y83058D01*
X80884D01*
X81138Y82804D01*
Y82550D01*
X80884Y82296D01*
X81138Y82042D01*
Y81788D01*
X80884Y81534D01*
X80376D01*
X80123Y81788D01*
Y82042D01*
X80376Y82296D01*
X80123Y82550D01*
Y82804D01*
X80376Y82296D02*
X80884D01*
X114935Y83439D02*
X113411D01*
Y84201D01*
X113665Y84455D01*
X114173D01*
X114427Y84201D01*
Y83439D01*
Y83947D02*
X114935Y84455D01*
X114681Y84963D02*
X114935Y85216D01*
Y85724D01*
X114681Y85978D01*
X113665D01*
X113411Y85724D01*
Y85216D01*
X113665Y84963D01*
X113919D01*
X114173Y85216D01*
Y85978D01*
X82169Y74295D02*
X80645D01*
Y75057D01*
X80899Y75311D01*
X81407D01*
X81661Y75057D01*
Y74295D01*
Y74803D02*
X82169Y75311D01*
Y75819D02*
Y76326D01*
Y76072D01*
X80645D01*
X80899Y75819D01*
Y77088D02*
X80645Y77342D01*
Y77850D01*
X80899Y78104D01*
X81915D01*
X82169Y77850D01*
Y77342D01*
X81915Y77088D01*
X80899D01*
X105617Y87282D02*
Y88806D01*
X106379D01*
X106633Y88552D01*
Y88044D01*
X106379Y87790D01*
X105617D01*
X106125D02*
X106633Y87282D01*
X107141D02*
X107648D01*
X107394D01*
Y88806D01*
X107141Y88552D01*
X108410Y87282D02*
X108918D01*
X108664D01*
Y88806D01*
X108410Y88552D01*
X101219Y85090D02*
X99695D01*
Y85852D01*
X99949Y86106D01*
X100457D01*
X100711Y85852D01*
Y85090D01*
Y85598D02*
X101219Y86106D01*
Y86614D02*
Y87121D01*
Y86867D01*
X99695D01*
X99949Y86614D01*
X101219Y88899D02*
Y87883D01*
X100203Y88899D01*
X99949D01*
X99695Y88645D01*
Y88137D01*
X99949Y87883D01*
X76708Y72644D02*
Y74168D01*
X77470D01*
X77724Y73914D01*
Y73406D01*
X77470Y73152D01*
X76708D01*
X77216D02*
X77724Y72644D01*
X78232D02*
X78739D01*
X78485D01*
Y74168D01*
X78232Y73914D01*
X79501D02*
X79755Y74168D01*
X80263D01*
X80517Y73914D01*
Y73660D01*
X80263Y73406D01*
X80009D01*
X80263D01*
X80517Y73152D01*
Y72898D01*
X80263Y72644D01*
X79755D01*
X79501Y72898D01*
X99568Y85090D02*
X98044D01*
Y85852D01*
X98298Y86106D01*
X98806D01*
X99060Y85852D01*
Y85090D01*
Y85598D02*
X99568Y86106D01*
Y86614D02*
Y87121D01*
Y86867D01*
X98044D01*
X98298Y86614D01*
X99568Y88645D02*
X98044D01*
X98806Y87883D01*
Y88899D01*
X119634Y84709D02*
X118110D01*
Y85471D01*
X118364Y85725D01*
X118872D01*
X119126Y85471D01*
Y84709D01*
Y85217D02*
X119634Y85725D01*
Y86233D02*
Y86740D01*
Y86486D01*
X118110D01*
X118364Y86233D01*
X119380Y87502D02*
X119634Y87756D01*
Y88264D01*
X119380Y88518D01*
X118364D01*
X118110Y88264D01*
Y87756D01*
X118364Y87502D01*
X118618D01*
X118872Y87756D01*
Y88518D01*
X3175Y47498D02*
Y49022D01*
X3937D01*
X4191Y48768D01*
Y48260D01*
X3937Y48006D01*
X3175D01*
X3683D02*
X4191Y47498D01*
X5714D02*
X4699D01*
X5714Y48514D01*
Y48768D01*
X5460Y49022D01*
X4952D01*
X4699Y48768D01*
X6222Y47498D02*
X6730D01*
X6476D01*
Y49022D01*
X6222Y48768D01*
X15748Y60706D02*
Y62230D01*
X16510D01*
X16764Y61976D01*
Y61468D01*
X16510Y61214D01*
X15748D01*
X16256D02*
X16764Y60706D01*
X18287D02*
X17272D01*
X18287Y61722D01*
Y61976D01*
X18033Y62230D01*
X17525D01*
X17272Y61976D01*
X19811Y60706D02*
X18795D01*
X19811Y61722D01*
Y61976D01*
X19557Y62230D01*
X19049D01*
X18795Y61976D01*
X6223Y31750D02*
X4699D01*
Y32512D01*
X4953Y32766D01*
X5461D01*
X5715Y32512D01*
Y31750D01*
Y32258D02*
X6223Y32766D01*
Y34289D02*
Y33274D01*
X5207Y34289D01*
X4953D01*
X4699Y34035D01*
Y33527D01*
X4953Y33274D01*
Y34797D02*
X4699Y35051D01*
Y35559D01*
X4953Y35813D01*
X5207D01*
X5461Y35559D01*
Y35305D01*
Y35559D01*
X5715Y35813D01*
X5969D01*
X6223Y35559D01*
Y35051D01*
X5969Y34797D01*
X29718Y31623D02*
X28194D01*
Y32385D01*
X28448Y32639D01*
X28956D01*
X29210Y32385D01*
Y31623D01*
Y32131D02*
X29718Y32639D01*
Y34162D02*
Y33147D01*
X28702Y34162D01*
X28448D01*
X28194Y33908D01*
Y33400D01*
X28448Y33147D01*
X29718Y35432D02*
X28194D01*
X28956Y34670D01*
Y35686D01*
X2540Y60579D02*
Y62103D01*
X3302D01*
X3556Y61849D01*
Y61341D01*
X3302Y61087D01*
X2540D01*
X3048D02*
X3556Y60579D01*
X5079D02*
X4064D01*
X5079Y61595D01*
Y61849D01*
X4825Y62103D01*
X4317D01*
X4064Y61849D01*
X6603Y62103D02*
X5587D01*
Y61341D01*
X6095Y61595D01*
X6349D01*
X6603Y61341D01*
Y60833D01*
X6349Y60579D01*
X5841D01*
X5587Y60833D01*
X19939Y75565D02*
Y77089D01*
X20701D01*
X20955Y76835D01*
Y76327D01*
X20701Y76073D01*
X19939D01*
X20447D02*
X20955Y75565D01*
X22478D02*
X21463D01*
X22478Y76581D01*
Y76835D01*
X22224Y77089D01*
X21716D01*
X21463Y76835D01*
X24002Y77089D02*
X23494Y76835D01*
X22986Y76327D01*
Y75819D01*
X23240Y75565D01*
X23748D01*
X24002Y75819D01*
Y76073D01*
X23748Y76327D01*
X22986D01*
X12319Y31623D02*
X10795D01*
Y32385D01*
X11049Y32639D01*
X11557D01*
X11811Y32385D01*
Y31623D01*
Y32131D02*
X12319Y32639D01*
Y34162D02*
Y33147D01*
X11303Y34162D01*
X11049D01*
X10795Y33908D01*
Y33400D01*
X11049Y33147D01*
X10795Y34670D02*
Y35686D01*
X11049D01*
X12065Y34670D01*
X12319D01*
X35560Y31496D02*
X34036D01*
Y32258D01*
X34290Y32512D01*
X34798D01*
X35052Y32258D01*
Y31496D01*
Y32004D02*
X35560Y32512D01*
Y34035D02*
Y33020D01*
X34544Y34035D01*
X34290D01*
X34036Y33781D01*
Y33273D01*
X34290Y33020D01*
Y34543D02*
X34036Y34797D01*
Y35305D01*
X34290Y35559D01*
X34544D01*
X34798Y35305D01*
X35052Y35559D01*
X35306D01*
X35560Y35305D01*
Y34797D01*
X35306Y34543D01*
X35052D01*
X34798Y34797D01*
X34544Y34543D01*
X34290D01*
X34798Y34797D02*
Y35305D01*
X2667Y73914D02*
Y75438D01*
X3429D01*
X3683Y75184D01*
Y74676D01*
X3429Y74422D01*
X2667D01*
X3175D02*
X3683Y73914D01*
X5206D02*
X4191D01*
X5206Y74930D01*
Y75184D01*
X4952Y75438D01*
X4444D01*
X4191Y75184D01*
X5714Y74168D02*
X5968Y73914D01*
X6476D01*
X6730Y74168D01*
Y75184D01*
X6476Y75438D01*
X5968D01*
X5714Y75184D01*
Y74930D01*
X5968Y74676D01*
X6730D01*
X28575Y48768D02*
Y50292D01*
X29337D01*
X29591Y50038D01*
Y49530D01*
X29337Y49276D01*
X28575D01*
X29083D02*
X29591Y48768D01*
X30099Y50038D02*
X30352Y50292D01*
X30860D01*
X31114Y50038D01*
Y49784D01*
X30860Y49530D01*
X30606D01*
X30860D01*
X31114Y49276D01*
Y49022D01*
X30860Y48768D01*
X30352D01*
X30099Y49022D01*
X31622Y50038D02*
X31876Y50292D01*
X32384D01*
X32638Y50038D01*
Y49022D01*
X32384Y48768D01*
X31876D01*
X31622Y49022D01*
Y50038D01*
X18288Y31623D02*
X16764D01*
Y32385D01*
X17018Y32639D01*
X17526D01*
X17780Y32385D01*
Y31623D01*
Y32131D02*
X18288Y32639D01*
X17018Y33147D02*
X16764Y33400D01*
Y33908D01*
X17018Y34162D01*
X17272D01*
X17526Y33908D01*
Y33654D01*
Y33908D01*
X17780Y34162D01*
X18034D01*
X18288Y33908D01*
Y33400D01*
X18034Y33147D01*
X18288Y34670D02*
Y35178D01*
Y34924D01*
X16764D01*
X17018Y34670D01*
X41275Y31496D02*
X39751D01*
Y32258D01*
X40005Y32512D01*
X40513D01*
X40767Y32258D01*
Y31496D01*
Y32004D02*
X41275Y32512D01*
X40005Y33020D02*
X39751Y33273D01*
Y33781D01*
X40005Y34035D01*
X40259D01*
X40513Y33781D01*
Y33527D01*
Y33781D01*
X40767Y34035D01*
X41021D01*
X41275Y33781D01*
Y33273D01*
X41021Y33020D01*
X41275Y35559D02*
Y34543D01*
X40259Y35559D01*
X40005D01*
X39751Y35305D01*
Y34797D01*
X40005Y34543D01*
X15621Y47498D02*
Y49022D01*
X16383D01*
X16637Y48768D01*
Y48260D01*
X16383Y48006D01*
X15621D01*
X16129D02*
X16637Y47498D01*
X17145Y48768D02*
X17398Y49022D01*
X17906D01*
X18160Y48768D01*
Y48514D01*
X17906Y48260D01*
X17652D01*
X17906D01*
X18160Y48006D01*
Y47752D01*
X17906Y47498D01*
X17398D01*
X17145Y47752D01*
X18668Y48768D02*
X18922Y49022D01*
X19430D01*
X19684Y48768D01*
Y48514D01*
X19430Y48260D01*
X19176D01*
X19430D01*
X19684Y48006D01*
Y47752D01*
X19430Y47498D01*
X18922D01*
X18668Y47752D01*
X28194Y61976D02*
Y63500D01*
X28956D01*
X29210Y63246D01*
Y62738D01*
X28956Y62484D01*
X28194D01*
X28702D02*
X29210Y61976D01*
X29718Y63246D02*
X29971Y63500D01*
X30479D01*
X30733Y63246D01*
Y62992D01*
X30479Y62738D01*
X30225D01*
X30479D01*
X30733Y62484D01*
Y62230D01*
X30479Y61976D01*
X29971D01*
X29718Y62230D01*
X32003Y61976D02*
Y63500D01*
X31241Y62738D01*
X32257D01*
X24003Y31496D02*
X22479D01*
Y32258D01*
X22733Y32512D01*
X23241D01*
X23495Y32258D01*
Y31496D01*
Y32004D02*
X24003Y32512D01*
X22733Y33020D02*
X22479Y33273D01*
Y33781D01*
X22733Y34035D01*
X22987D01*
X23241Y33781D01*
Y33527D01*
Y33781D01*
X23495Y34035D01*
X23749D01*
X24003Y33781D01*
Y33273D01*
X23749Y33020D01*
X22479Y35559D02*
Y34543D01*
X23241D01*
X22987Y35051D01*
Y35305D01*
X23241Y35559D01*
X23749D01*
X24003Y35305D01*
Y34797D01*
X23749Y34543D01*
X47117Y31623D02*
X45593D01*
Y32385D01*
X45847Y32639D01*
X46355D01*
X46609Y32385D01*
Y31623D01*
Y32131D02*
X47117Y32639D01*
X45847Y33147D02*
X45593Y33400D01*
Y33908D01*
X45847Y34162D01*
X46101D01*
X46355Y33908D01*
Y33654D01*
Y33908D01*
X46609Y34162D01*
X46863D01*
X47117Y33908D01*
Y33400D01*
X46863Y33147D01*
X45593Y35686D02*
X45847Y35178D01*
X46355Y34670D01*
X46863D01*
X47117Y34924D01*
Y35432D01*
X46863Y35686D01*
X46609D01*
X46355Y35432D01*
Y34670D01*
X122301Y74676D02*
X120777D01*
Y75438D01*
X121031Y75692D01*
X121539D01*
X121793Y75438D01*
Y74676D01*
Y75184D02*
X122301Y75692D01*
X121031Y76200D02*
X120777Y76453D01*
Y76961D01*
X121031Y77215D01*
X121285D01*
X121539Y76961D01*
Y76707D01*
Y76961D01*
X121793Y77215D01*
X122047D01*
X122301Y76961D01*
Y76453D01*
X122047Y76200D01*
X120777Y77723D02*
Y78739D01*
X121031D01*
X122047Y77723D01*
X122301D01*
X114554Y74676D02*
X113030D01*
Y75438D01*
X113284Y75692D01*
X113792D01*
X114046Y75438D01*
Y74676D01*
Y75184D02*
X114554Y75692D01*
X113284Y76200D02*
X113030Y76453D01*
Y76961D01*
X113284Y77215D01*
X113538D01*
X113792Y76961D01*
Y76707D01*
Y76961D01*
X114046Y77215D01*
X114300D01*
X114554Y76961D01*
Y76453D01*
X114300Y76200D01*
X113284Y77723D02*
X113030Y77977D01*
Y78485D01*
X113284Y78739D01*
X113538D01*
X113792Y78485D01*
X114046Y78739D01*
X114300D01*
X114554Y78485D01*
Y77977D01*
X114300Y77723D01*
X114046D01*
X113792Y77977D01*
X113538Y77723D01*
X113284D01*
X113792Y77977D02*
Y78485D01*
X121158Y49530D02*
X119634D01*
Y50292D01*
X119888Y50546D01*
X120396D01*
X120650Y50292D01*
Y49530D01*
Y50038D02*
X121158Y50546D01*
X119888Y51054D02*
X119634Y51307D01*
Y51815D01*
X119888Y52069D01*
X120142D01*
X120396Y51815D01*
Y51561D01*
Y51815D01*
X120650Y52069D01*
X120904D01*
X121158Y51815D01*
Y51307D01*
X120904Y51054D01*
Y52577D02*
X121158Y52831D01*
Y53339D01*
X120904Y53593D01*
X119888D01*
X119634Y53339D01*
Y52831D01*
X119888Y52577D01*
X120142D01*
X120396Y52831D01*
Y53593D01*
X125730Y49530D02*
X124206D01*
Y50292D01*
X124460Y50546D01*
X124968D01*
X125222Y50292D01*
Y49530D01*
Y50038D02*
X125730Y50546D01*
Y51815D02*
X124206D01*
X124968Y51054D01*
Y52069D01*
X124460Y52577D02*
X124206Y52831D01*
Y53339D01*
X124460Y53593D01*
X125476D01*
X125730Y53339D01*
Y52831D01*
X125476Y52577D01*
X124460D01*
X66929Y29210D02*
Y30734D01*
X67691D01*
X67945Y30480D01*
Y29972D01*
X67691Y29718D01*
X66929D01*
X67437D02*
X67945Y29210D01*
X69214D02*
Y30734D01*
X68453Y29972D01*
X69468D01*
X69976Y29210D02*
X70484D01*
X70230D01*
Y30734D01*
X69976Y30480D01*
X66872Y11590D02*
Y13114D01*
X67633D01*
X67887Y12860D01*
Y12352D01*
X67633Y12098D01*
X66872D01*
X67380D02*
X67887Y11590D01*
X69157D02*
Y13114D01*
X68395Y12352D01*
X69411D01*
X70934Y11590D02*
X69919D01*
X70934Y12606D01*
Y12860D01*
X70680Y13114D01*
X70173D01*
X69919Y12860D01*
X91393Y32672D02*
X89869D01*
Y33434D01*
X90123Y33688D01*
X90631D01*
X90885Y33434D01*
Y32672D01*
Y33180D02*
X91393Y33688D01*
Y34957D02*
X89869D01*
X90631Y34196D01*
Y35211D01*
X90123Y35719D02*
X89869Y35973D01*
Y36481D01*
X90123Y36735D01*
X90377D01*
X90631Y36481D01*
Y36227D01*
Y36481D01*
X90885Y36735D01*
X91139D01*
X91393Y36481D01*
Y35973D01*
X91139Y35719D01*
X100584Y36703D02*
X99060D01*
Y37465D01*
X99314Y37719D01*
X99822D01*
X100076Y37465D01*
Y36703D01*
Y37211D02*
X100584Y37719D01*
Y38988D02*
X99060D01*
X99822Y38227D01*
Y39242D01*
X100584Y40512D02*
X99060D01*
X99822Y39750D01*
Y40766D01*
X66802Y26670D02*
Y28194D01*
X67564D01*
X67818Y27940D01*
Y27432D01*
X67564Y27178D01*
X66802D01*
X67310D02*
X67818Y26670D01*
X69087D02*
Y28194D01*
X68326Y27432D01*
X69341D01*
X70865Y28194D02*
X69849D01*
Y27432D01*
X70357Y27686D01*
X70611D01*
X70865Y27432D01*
Y26924D01*
X70611Y26670D01*
X70103D01*
X69849Y26924D01*
X66675Y8509D02*
Y10033D01*
X67437D01*
X67691Y9779D01*
Y9271D01*
X67437Y9017D01*
X66675D01*
X67183D02*
X67691Y8509D01*
X68960D02*
Y10033D01*
X68199Y9271D01*
X69214D01*
X70738Y10033D02*
X70230Y9779D01*
X69722Y9271D01*
Y8763D01*
X69976Y8509D01*
X70484D01*
X70738Y8763D01*
Y9017D01*
X70484Y9271D01*
X69722D01*
X66618Y37689D02*
Y39213D01*
X67379D01*
X67633Y38959D01*
Y38451D01*
X67379Y38197D01*
X66618D01*
X67126D02*
X67633Y37689D01*
X68903D02*
Y39213D01*
X68141Y38451D01*
X69157D01*
X69665Y39213D02*
X70680D01*
Y38959D01*
X69665Y37943D01*
Y37689D01*
X66618Y20671D02*
Y22195D01*
X67379D01*
X67633Y21941D01*
Y21433D01*
X67379Y21179D01*
X66618D01*
X67126D02*
X67633Y20671D01*
X68903D02*
Y22195D01*
X68141Y21433D01*
X69157D01*
X69665Y21941D02*
X69919Y22195D01*
X70426D01*
X70680Y21941D01*
Y21687D01*
X70426Y21433D01*
X70680Y21179D01*
Y20925D01*
X70426Y20671D01*
X69919D01*
X69665Y20925D01*
Y21179D01*
X69919Y21433D01*
X69665Y21687D01*
Y21941D01*
X69919Y21433D02*
X70426D01*
X89662Y25019D02*
X88138D01*
Y25781D01*
X88392Y26035D01*
X88900D01*
X89154Y25781D01*
Y25019D01*
Y25527D02*
X89662Y26035D01*
Y27304D02*
X88138D01*
X88900Y26543D01*
Y27558D01*
X89408Y28066D02*
X89662Y28320D01*
Y28828D01*
X89408Y29082D01*
X88392D01*
X88138Y28828D01*
Y28320D01*
X88392Y28066D01*
X88646D01*
X88900Y28320D01*
Y29082D01*
X97282Y36703D02*
X95758D01*
Y37465D01*
X96012Y37719D01*
X96520D01*
X96774Y37465D01*
Y36703D01*
Y37211D02*
X97282Y37719D01*
X95758Y39242D02*
Y38227D01*
X96520D01*
X96266Y38734D01*
Y38988D01*
X96520Y39242D01*
X97028D01*
X97282Y38988D01*
Y38480D01*
X97028Y38227D01*
X96012Y39750D02*
X95758Y40004D01*
Y40512D01*
X96012Y40766D01*
X97028D01*
X97282Y40512D01*
Y40004D01*
X97028Y39750D01*
X96012D01*
X66438Y34767D02*
Y36291D01*
X67200D01*
X67454Y36037D01*
Y35529D01*
X67200Y35275D01*
X66438D01*
X66946D02*
X67454Y34767D01*
X68977Y36291D02*
X67962D01*
Y35529D01*
X68469Y35783D01*
X68723D01*
X68977Y35529D01*
Y35021D01*
X68723Y34767D01*
X68215D01*
X67962Y35021D01*
X69485Y34767D02*
X69993D01*
X69739D01*
Y36291D01*
X69485Y36037D01*
X66675Y18415D02*
Y19939D01*
X67437D01*
X67691Y19685D01*
Y19177D01*
X67437Y18923D01*
X66675D01*
X67183D02*
X67691Y18415D01*
X69214Y19939D02*
X68199D01*
Y19177D01*
X68706Y19431D01*
X68960D01*
X69214Y19177D01*
Y18669D01*
X68960Y18415D01*
X68452D01*
X68199Y18669D01*
X70738Y18415D02*
X69722D01*
X70738Y19431D01*
Y19685D01*
X70484Y19939D01*
X69976D01*
X69722Y19685D01*
X131699Y66421D02*
X130175D01*
Y67183D01*
X130429Y67437D01*
X130937D01*
X131191Y67183D01*
Y66421D01*
Y66929D02*
X131699Y67437D01*
X130175Y68960D02*
Y67945D01*
X130937D01*
X130683Y68452D01*
Y68706D01*
X130937Y68960D01*
X131445D01*
X131699Y68706D01*
Y68198D01*
X131445Y67945D01*
X130429Y69468D02*
X130175Y69722D01*
Y70230D01*
X130429Y70484D01*
X130683D01*
X130937Y70230D01*
Y69976D01*
Y70230D01*
X131191Y70484D01*
X131445D01*
X131699Y70230D01*
Y69722D01*
X131445Y69468D01*
X107061Y46736D02*
Y48260D01*
X107823D01*
X108077Y48006D01*
Y47498D01*
X107823Y47244D01*
X107061D01*
X107569D02*
X108077Y46736D01*
X109600Y48260D02*
X108585D01*
Y47498D01*
X109092Y47752D01*
X109346D01*
X109600Y47498D01*
Y46990D01*
X109346Y46736D01*
X108838D01*
X108585Y46990D01*
X110870Y46736D02*
Y48260D01*
X110108Y47498D01*
X111124D01*
X123952Y83820D02*
Y85344D01*
X124714D01*
X124968Y85090D01*
Y84582D01*
X124714Y84328D01*
X123952D01*
X124460D02*
X124968Y83820D01*
X126491Y85344D02*
X125476D01*
Y84582D01*
X125983Y84836D01*
X126237D01*
X126491Y84582D01*
Y84074D01*
X126237Y83820D01*
X125729D01*
X125476Y84074D01*
X128015Y85344D02*
X126999D01*
Y84582D01*
X127507Y84836D01*
X127761D01*
X128015Y84582D01*
Y84074D01*
X127761Y83820D01*
X127253D01*
X126999Y84074D01*
X110871Y49530D02*
X109347D01*
Y50292D01*
X109601Y50546D01*
X110109D01*
X110363Y50292D01*
Y49530D01*
Y50038D02*
X110871Y50546D01*
X109347Y52069D02*
Y51054D01*
X110109D01*
X109855Y51561D01*
Y51815D01*
X110109Y52069D01*
X110617D01*
X110871Y51815D01*
Y51307D01*
X110617Y51054D01*
X109347Y53593D02*
X109601Y53085D01*
X110109Y52577D01*
X110617D01*
X110871Y52831D01*
Y53339D01*
X110617Y53593D01*
X110363D01*
X110109Y53339D01*
Y52577D01*
X129921Y85090D02*
Y86614D01*
X130683D01*
X130937Y86360D01*
Y85852D01*
X130683Y85598D01*
X129921D01*
X130429D02*
X130937Y85090D01*
X132460Y86614D02*
X131445D01*
Y85852D01*
X131952Y86106D01*
X132206D01*
X132460Y85852D01*
Y85344D01*
X132206Y85090D01*
X131698D01*
X131445Y85344D01*
X132968Y86614D02*
X133984D01*
Y86360D01*
X132968Y85344D01*
Y85090D01*
X107061Y44831D02*
Y46355D01*
X107823D01*
X108077Y46101D01*
Y45593D01*
X107823Y45339D01*
X107061D01*
X107569D02*
X108077Y44831D01*
X109600Y46355D02*
X108585D01*
Y45593D01*
X109092Y45847D01*
X109346D01*
X109600Y45593D01*
Y45085D01*
X109346Y44831D01*
X108838D01*
X108585Y45085D01*
X110108Y46101D02*
X110362Y46355D01*
X110870D01*
X111124Y46101D01*
Y45847D01*
X110870Y45593D01*
X111124Y45339D01*
Y45085D01*
X110870Y44831D01*
X110362D01*
X110108Y45085D01*
Y45339D01*
X110362Y45593D01*
X110108Y45847D01*
Y46101D01*
X110362Y45593D02*
X110870D01*
X139700Y30988D02*
Y32512D01*
X140462D01*
X140716Y32258D01*
Y31750D01*
X140462Y31496D01*
X139700D01*
X140208D02*
X140716Y30988D01*
X142239Y32512D02*
X141224D01*
Y31750D01*
X141731Y32004D01*
X141985D01*
X142239Y31750D01*
Y31242D01*
X141985Y30988D01*
X141477D01*
X141224Y31242D01*
X142747D02*
X143001Y30988D01*
X143509D01*
X143763Y31242D01*
Y32258D01*
X143509Y32512D01*
X143001D01*
X142747Y32258D01*
Y32004D01*
X143001Y31750D01*
X143763D01*
X139700Y26670D02*
Y28194D01*
X140462D01*
X140716Y27940D01*
Y27432D01*
X140462Y27178D01*
X139700D01*
X140208D02*
X140716Y26670D01*
X142239Y28194D02*
X141731Y27940D01*
X141224Y27432D01*
Y26924D01*
X141477Y26670D01*
X141985D01*
X142239Y26924D01*
Y27178D01*
X141985Y27432D01*
X141224D01*
X142747Y27940D02*
X143001Y28194D01*
X143509D01*
X143763Y27940D01*
Y26924D01*
X143509Y26670D01*
X143001D01*
X142747Y26924D01*
Y27940D01*
X107188Y42672D02*
Y44196D01*
X107950D01*
X108204Y43942D01*
Y43434D01*
X107950Y43180D01*
X107188D01*
X107696D02*
X108204Y42672D01*
X109727Y44196D02*
X109219Y43942D01*
X108712Y43434D01*
Y42926D01*
X108965Y42672D01*
X109473D01*
X109727Y42926D01*
Y43180D01*
X109473Y43434D01*
X108712D01*
X110235Y42672D02*
X110743D01*
X110489D01*
Y44196D01*
X110235Y43942D01*
X127000Y15367D02*
X125476D01*
Y16129D01*
X125730Y16383D01*
X126238D01*
X126492Y16129D01*
Y15367D01*
Y15875D02*
X127000Y16383D01*
X125476Y17906D02*
X125730Y17398D01*
X126238Y16891D01*
X126746D01*
X127000Y17144D01*
Y17652D01*
X126746Y17906D01*
X126492D01*
X126238Y17652D01*
Y16891D01*
X127000Y19430D02*
Y18414D01*
X125984Y19430D01*
X125730D01*
X125476Y19176D01*
Y18668D01*
X125730Y18414D01*
X136779Y15748D02*
X135255D01*
Y16510D01*
X135509Y16764D01*
X136017D01*
X136271Y16510D01*
Y15748D01*
Y16256D02*
X136779Y16764D01*
X135255Y18287D02*
X135509Y17779D01*
X136017Y17272D01*
X136525D01*
X136779Y17525D01*
Y18033D01*
X136525Y18287D01*
X136271D01*
X136017Y18033D01*
Y17272D01*
X135509Y18795D02*
X135255Y19049D01*
Y19557D01*
X135509Y19811D01*
X135763D01*
X136017Y19557D01*
Y19303D01*
Y19557D01*
X136271Y19811D01*
X136525D01*
X136779Y19557D01*
Y19049D01*
X136525Y18795D01*
X130810Y35052D02*
Y36576D01*
X131572D01*
X131826Y36322D01*
Y35814D01*
X131572Y35560D01*
X130810D01*
X131318D02*
X131826Y35052D01*
X133349Y36576D02*
X132841Y36322D01*
X132334Y35814D01*
Y35306D01*
X132587Y35052D01*
X133095D01*
X133349Y35306D01*
Y35560D01*
X133095Y35814D01*
X132334D01*
X134619Y35052D02*
Y36576D01*
X133857Y35814D01*
X134873D01*
X125349Y29083D02*
X123825D01*
Y29845D01*
X124079Y30099D01*
X124587D01*
X124841Y29845D01*
Y29083D01*
Y29591D02*
X125349Y30099D01*
X123825Y31622D02*
X124079Y31114D01*
X124587Y30607D01*
X125095D01*
X125349Y30860D01*
Y31368D01*
X125095Y31622D01*
X124841D01*
X124587Y31368D01*
Y30607D01*
X123825Y33146D02*
Y32130D01*
X124587D01*
X124333Y32638D01*
Y32892D01*
X124587Y33146D01*
X125095D01*
X125349Y32892D01*
Y32384D01*
X125095Y32130D01*
X129413Y15367D02*
X127889D01*
Y16129D01*
X128143Y16383D01*
X128651D01*
X128905Y16129D01*
Y15367D01*
Y15875D02*
X129413Y16383D01*
X127889Y17906D02*
X128143Y17398D01*
X128651Y16891D01*
X129159D01*
X129413Y17144D01*
Y17652D01*
X129159Y17906D01*
X128905D01*
X128651Y17652D01*
Y16891D01*
X127889Y19430D02*
X128143Y18922D01*
X128651Y18414D01*
X129159D01*
X129413Y18668D01*
Y19176D01*
X129159Y19430D01*
X128905D01*
X128651Y19176D01*
Y18414D01*
X134747Y15875D02*
X133223D01*
Y16637D01*
X133477Y16891D01*
X133985D01*
X134239Y16637D01*
Y15875D01*
Y16383D02*
X134747Y16891D01*
X133223Y18414D02*
X133477Y17906D01*
X133985Y17399D01*
X134493D01*
X134747Y17652D01*
Y18160D01*
X134493Y18414D01*
X134239D01*
X133985Y18160D01*
Y17399D01*
X133223Y18922D02*
Y19938D01*
X133477D01*
X134493Y18922D01*
X134747D01*
X84963Y15748D02*
Y17272D01*
X85725D01*
X85979Y17018D01*
Y16510D01*
X85725Y16256D01*
X84963D01*
X85471D02*
X85979Y15748D01*
X87502Y17272D02*
X86994Y17018D01*
X86487Y16510D01*
Y16002D01*
X86740Y15748D01*
X87248D01*
X87502Y16002D01*
Y16256D01*
X87248Y16510D01*
X86487D01*
X88010Y17018D02*
X88264Y17272D01*
X88772D01*
X89026Y17018D01*
Y16764D01*
X88772Y16510D01*
X89026Y16256D01*
Y16002D01*
X88772Y15748D01*
X88264D01*
X88010Y16002D01*
Y16256D01*
X88264Y16510D01*
X88010Y16764D01*
Y17018D01*
X88264Y16510D02*
X88772D01*
X87122Y30734D02*
Y32258D01*
X87884D01*
X88138Y32004D01*
Y31496D01*
X87884Y31242D01*
X87122D01*
X87630D02*
X88138Y30734D01*
X89661Y32258D02*
X89153Y32004D01*
X88646Y31496D01*
Y30988D01*
X88899Y30734D01*
X89407D01*
X89661Y30988D01*
Y31242D01*
X89407Y31496D01*
X88646D01*
X90169Y30988D02*
X90423Y30734D01*
X90931D01*
X91185Y30988D01*
Y32004D01*
X90931Y32258D01*
X90423D01*
X90169Y32004D01*
Y31750D01*
X90423Y31496D01*
X91185D01*
X101346Y17780D02*
Y19304D01*
X102108D01*
X102362Y19050D01*
Y18542D01*
X102108Y18288D01*
X101346D01*
X101854D02*
X102362Y17780D01*
X102870Y19304D02*
X103885D01*
Y19050D01*
X102870Y18034D01*
Y17780D01*
X104393Y19050D02*
X104647Y19304D01*
X105155D01*
X105409Y19050D01*
Y18034D01*
X105155Y17780D01*
X104647D01*
X104393Y18034D01*
Y19050D01*
X95885Y20320D02*
X94361D01*
Y21082D01*
X94615Y21336D01*
X95123D01*
X95377Y21082D01*
Y20320D01*
Y20828D02*
X95885Y21336D01*
X94361Y21844D02*
Y22859D01*
X94615D01*
X95631Y21844D01*
X95885D01*
Y23367D02*
Y23875D01*
Y23621D01*
X94361D01*
X94615Y23367D01*
X84328Y8636D02*
Y10160D01*
X85090D01*
X85344Y9906D01*
Y9398D01*
X85090Y9144D01*
X84328D01*
X84836D02*
X85344Y8636D01*
X85852Y10160D02*
X86867D01*
Y9906D01*
X85852Y8890D01*
Y8636D01*
X88391D02*
X87375D01*
X88391Y9652D01*
Y9906D01*
X88137Y10160D01*
X87629D01*
X87375Y9906D01*
X82931Y25654D02*
Y27178D01*
X83693D01*
X83947Y26924D01*
Y26416D01*
X83693Y26162D01*
X82931D01*
X83439D02*
X83947Y25654D01*
X84455Y27178D02*
X85470D01*
Y26924D01*
X84455Y25908D01*
Y25654D01*
X85978Y26924D02*
X86232Y27178D01*
X86740D01*
X86994Y26924D01*
Y26670D01*
X86740Y26416D01*
X86486D01*
X86740D01*
X86994Y26162D01*
Y25908D01*
X86740Y25654D01*
X86232D01*
X85978Y25908D01*
X86995Y22606D02*
Y24130D01*
X87757D01*
X88011Y23876D01*
Y23368D01*
X87757Y23114D01*
X86995D01*
X87503D02*
X88011Y22606D01*
X88519Y24130D02*
X89534D01*
Y23876D01*
X88519Y22860D01*
Y22606D01*
X90804D02*
Y24130D01*
X90042Y23368D01*
X91058D01*
X87122Y40386D02*
Y41910D01*
X87884D01*
X88138Y41656D01*
Y41148D01*
X87884Y40894D01*
X87122D01*
X87630D02*
X88138Y40386D01*
X88646Y41910D02*
X89661D01*
Y41656D01*
X88646Y40640D01*
Y40386D01*
X91185Y41910D02*
X90169D01*
Y41148D01*
X90677Y41402D01*
X90931D01*
X91185Y41148D01*
Y40640D01*
X90931Y40386D01*
X90423D01*
X90169Y40640D01*
X99949Y22098D02*
Y23622D01*
X100711D01*
X100965Y23368D01*
Y22860D01*
X100711Y22606D01*
X99949D01*
X100457D02*
X100965Y22098D01*
X101473Y23622D02*
X102488D01*
Y23368D01*
X101473Y22352D01*
Y22098D01*
X104012Y23622D02*
X103504Y23368D01*
X102996Y22860D01*
Y22352D01*
X103250Y22098D01*
X103758D01*
X104012Y22352D01*
Y22606D01*
X103758Y22860D01*
X102996D01*
X91694Y15748D02*
X90170D01*
Y16510D01*
X90424Y16764D01*
X90932D01*
X91186Y16510D01*
Y15748D01*
Y16256D02*
X91694Y16764D01*
X90170Y17272D02*
Y18287D01*
X90424D01*
X91440Y17272D01*
X91694D01*
X90170Y18795D02*
Y19811D01*
X90424D01*
X91440Y18795D01*
X91694D01*
X86995Y19050D02*
Y20574D01*
X87757D01*
X88011Y20320D01*
Y19812D01*
X87757Y19558D01*
X86995D01*
X87503D02*
X88011Y19050D01*
X88519Y20574D02*
X89534D01*
Y20320D01*
X88519Y19304D01*
Y19050D01*
X90042Y20320D02*
X90296Y20574D01*
X90804D01*
X91058Y20320D01*
Y20066D01*
X90804Y19812D01*
X91058Y19558D01*
Y19304D01*
X90804Y19050D01*
X90296D01*
X90042Y19304D01*
Y19558D01*
X90296Y19812D01*
X90042Y20066D01*
Y20320D01*
X90296Y19812D02*
X90804D01*
X86995Y37211D02*
Y38735D01*
X87757D01*
X88011Y38481D01*
Y37973D01*
X87757Y37719D01*
X86995D01*
X87503D02*
X88011Y37211D01*
X88519Y38735D02*
X89534D01*
Y38481D01*
X88519Y37465D01*
Y37211D01*
X90042Y37465D02*
X90296Y37211D01*
X90804D01*
X91058Y37465D01*
Y38481D01*
X90804Y38735D01*
X90296D01*
X90042Y38481D01*
Y38227D01*
X90296Y37973D01*
X91058D01*
X55880Y82042D02*
X57150D01*
X57404Y82296D01*
Y82804D01*
X57150Y83058D01*
X55880D01*
X57404Y83566D02*
Y84073D01*
Y83819D01*
X55880D01*
X56134Y83566D01*
X83058Y74549D02*
X84328D01*
X84582Y74803D01*
Y75311D01*
X84328Y75565D01*
X83058D01*
X84582Y77088D02*
Y76073D01*
X83566Y77088D01*
X83312D01*
X83058Y76834D01*
Y76326D01*
X83312Y76073D01*
X100203Y74168D02*
X101473D01*
X101727Y74422D01*
Y74930D01*
X101473Y75184D01*
X100203D01*
X100457Y75692D02*
X100203Y75945D01*
Y76453D01*
X100457Y76707D01*
X100711D01*
X100965Y76453D01*
Y76199D01*
Y76453D01*
X101219Y76707D01*
X101473D01*
X101727Y76453D01*
Y75945D01*
X101473Y75692D01*
X120523Y84582D02*
Y83312D01*
X120777Y83058D01*
X121285D01*
X121539Y83312D01*
Y84582D01*
X122808Y83058D02*
Y84582D01*
X122047Y83820D01*
X123062D01*
X86313Y63279D02*
Y62009D01*
X86567Y61755D01*
X87075D01*
X87329Y62009D01*
Y63279D01*
X88852D02*
X87837D01*
Y62517D01*
X88344Y62771D01*
X88598D01*
X88852Y62517D01*
Y62009D01*
X88598Y61755D01*
X88090D01*
X87837Y62009D01*
X123571Y68199D02*
Y66929D01*
X123825Y66675D01*
X124333D01*
X124587Y66929D01*
Y68199D01*
X126110D02*
X125602Y67945D01*
X125095Y67437D01*
Y66929D01*
X125348Y66675D01*
X125856D01*
X126110Y66929D01*
Y67183D01*
X125856Y67437D01*
X125095D01*
X126238Y81280D02*
X127508D01*
X127762Y81534D01*
Y82042D01*
X127508Y82296D01*
X126238D01*
Y82804D02*
Y83819D01*
X126492D01*
X127508Y82804D01*
X127762D01*
X90758Y73566D02*
X91774Y72042D01*
Y73566D02*
X90758Y72042D01*
X92282D02*
X92789D01*
X92535D01*
Y73566D01*
X92282Y73312D01*
X140083Y50918D02*
Y51917D01*
Y51417D01*
X137084D01*
Y50918D01*
Y51917D01*
X140083Y53417D02*
X137084D01*
Y54916D01*
X137584Y55416D01*
X139584D01*
X140083Y54916D01*
Y53417D01*
X139584Y61414D02*
X140083Y60914D01*
Y59915D01*
X139584Y59415D01*
X137584D01*
X137084Y59915D01*
Y60914D01*
X137584Y61414D01*
X140083Y63913D02*
Y62914D01*
X139584Y62414D01*
X137584D01*
X137084Y62914D01*
Y63913D01*
X137584Y64413D01*
X139584D01*
X140083Y63913D01*
Y65413D02*
X137084D01*
Y66912D01*
X137584Y67412D01*
X139584D01*
X140083Y66912D01*
Y65413D01*
Y70411D02*
Y68412D01*
X137084D01*
Y70411D01*
X138584Y68412D02*
Y69412D01*
D39*
X105414Y70454D02*
G03*
X103839Y71407I-1575J-825D01*
G01*
Y67851D02*
G03*
X105414Y68804I0J1778D01*
G01*
X97413Y71407D02*
G03*
X95838Y70454I0J-1778D01*
G01*
Y68804D02*
G03*
X97413Y67851I1575J825D01*
G01*
X111586Y48928D02*
X115142D01*
X111586Y47150D02*
X115142Y47150D01*
Y48928D01*
X111586Y47150D02*
X111586Y48928D01*
Y51087D02*
X115142D01*
X111586Y49309D02*
X115142Y49309D01*
Y51087D01*
X111586Y49309D02*
X111586Y51087D01*
X127334Y76995D02*
Y80551D01*
X125556Y80551D02*
X125556Y76995D01*
X127334D01*
X125556Y80551D02*
X127334Y80551D01*
X118698Y59723D02*
X122254D01*
X118698Y57945D02*
X122254Y57945D01*
Y59723D01*
X118698Y57945D02*
X118698Y59723D01*
X83138Y88552D02*
X84916Y88552D01*
X83138Y84996D02*
X84916D01*
X83138Y88552D02*
X83138Y84996D01*
X84916D02*
Y88552D01*
X85424Y88552D02*
X87202Y88552D01*
X85424Y84996D02*
X87202D01*
X85424Y88552D02*
X85424Y84996D01*
X87202D02*
Y88552D01*
X92536Y88679D02*
X94314Y88679D01*
X92536Y85123D02*
X94314D01*
X92536Y88679D02*
X92536Y85123D01*
X94314D02*
Y88679D01*
X88472Y84869D02*
X88472Y86647D01*
X92028Y84869D02*
Y86647D01*
X88472Y84869D02*
X92028Y84869D01*
X88472Y86647D02*
X92028D01*
X94695Y85123D02*
X96473Y85123D01*
X94695Y88679D02*
X96473D01*
X96473Y85123D01*
X94695Y85123D02*
Y88679D01*
X82884Y78011D02*
Y81567D01*
X84662D02*
X84662Y78011D01*
X82884Y81567D02*
X84662D01*
X82884Y78011D02*
X84662Y78011D01*
X101299Y88679D02*
X103077Y88679D01*
X101299Y85123D02*
X103077D01*
X101299Y88679D02*
X101299Y85123D01*
X103077D02*
Y88679D01*
X111332Y85123D02*
X113110Y85123D01*
X111332Y88679D02*
X113110D01*
X113110Y85123D01*
X111332Y85123D02*
Y88679D01*
X109173D02*
X110951Y88679D01*
X109173Y85123D02*
X110951D01*
X109173Y88679D02*
X109173Y85123D01*
X110951D02*
Y88679D01*
X105363Y84996D02*
X105363Y86774D01*
X108919Y84996D02*
Y86774D01*
X105363Y84996D02*
X108919Y84996D01*
X105363Y86774D02*
X108919D01*
X103331Y88679D02*
X105109Y88679D01*
X103331Y85123D02*
X105109D01*
X103331Y88679D02*
X103331Y85123D01*
X105109D02*
Y88679D01*
X97362Y67842D02*
X103848D01*
X97362Y71407D02*
X103839D01*
X94822Y72042D02*
X94822Y67343D01*
X106506D01*
X106506Y72042D01*
X94822D02*
X106506D01*
X99775Y77757D02*
Y81313D01*
X101553D02*
X101553Y77757D01*
X99775Y81313D02*
X101553D01*
X99775Y77757D02*
X101553Y77757D01*
X78439Y88806D02*
X80217Y88806D01*
X78439Y85250D02*
X80217D01*
X78439Y88806D02*
X78439Y85250D01*
X80217D02*
Y88806D01*
X82122Y83091D02*
X82122Y84869D01*
X78566Y83091D02*
Y84869D01*
X82122Y84869D01*
X78566Y83091D02*
X82122D01*
X78439Y80424D02*
X80217Y80424D01*
X78439Y76868D02*
X80217D01*
X78439Y80424D02*
X78439Y76868D01*
X80217D02*
Y80424D01*
X76534Y74836D02*
X76534Y76614D01*
X80090Y74836D02*
Y76614D01*
X76534Y74836D02*
X80090Y74836D01*
X76534Y76614D02*
X80090D01*
X10494Y60358D02*
X10494Y62136D01*
X6938Y60358D02*
Y62136D01*
X10494Y62136D01*
X6938Y60358D02*
X10494D01*
X10748Y47404D02*
X10748Y49182D01*
X7192Y47404D02*
Y49182D01*
X10748Y49182D01*
X7192Y47404D02*
X10748D01*
Y73439D02*
X10748Y75217D01*
X7192Y73439D02*
Y75217D01*
X10748Y75217D01*
X7192Y73439D02*
X10748D01*
X23702Y47277D02*
X23702Y49055D01*
X20146Y47277D02*
Y49055D01*
X23702Y49055D01*
X20146Y47277D02*
X23702D01*
X23829Y60358D02*
X23829Y62136D01*
X20273Y60358D02*
Y62136D01*
X23829Y62136D01*
X20273Y60358D02*
X23829D01*
Y73439D02*
X23829Y75217D01*
X20273Y73439D02*
Y75217D01*
X23829Y75217D01*
X20273Y73439D02*
X23829D01*
X36021Y60358D02*
X36021Y62136D01*
X32465Y60358D02*
Y62136D01*
X36021Y62136D01*
X32465Y60358D02*
X36021D01*
Y47150D02*
X36021Y48928D01*
X32465Y47150D02*
Y48928D01*
X36021Y48928D01*
X32465Y47150D02*
X36021D01*
X62691Y19210D02*
X66247D01*
X62691Y17432D02*
X66247Y17432D01*
Y19210D01*
X62691Y17432D02*
X62691Y19210D01*
X97362Y32799D02*
Y36355D01*
X95584Y36355D02*
X95584Y32799D01*
X97362D01*
X95584Y36355D02*
X97362Y36355D01*
X66247Y20607D02*
X66247Y22385D01*
X62691Y20607D02*
Y22385D01*
X66247Y22385D01*
X62691Y20607D02*
X66247D01*
X62691Y10828D02*
X66247D01*
X62691Y9050D02*
X66247Y9050D01*
Y10828D01*
X62691Y9050D02*
X62691Y10828D01*
X100664Y32799D02*
Y36355D01*
X98886Y36355D02*
X98886Y32799D01*
X100664D01*
X98886Y36355D02*
X100664Y36355D01*
X66247Y12225D02*
X66247Y14003D01*
X62691Y12225D02*
Y14003D01*
X66247Y14003D01*
X62691Y12225D02*
X66247D01*
X62611Y36195D02*
X66167D01*
X62611Y34417D02*
X66167Y34417D01*
Y36195D01*
X62611Y34417D02*
X62611Y36195D01*
X66247Y37625D02*
X66247Y39403D01*
X62691Y37625D02*
Y39403D01*
X66247Y39403D01*
X62691Y37625D02*
X66247D01*
X93679Y32799D02*
Y36355D01*
X91901Y36355D02*
X91901Y32799D01*
X93679D01*
X91901Y36355D02*
X93679Y36355D01*
X62738Y27686D02*
X66294D01*
X62738Y25908D02*
X66294Y25908D01*
Y27686D01*
X62738Y25908D02*
X62738Y27686D01*
X66247Y28989D02*
X66247Y30767D01*
X62691Y28989D02*
Y30767D01*
X66247Y30767D01*
X62691Y28989D02*
X66247D01*
X91647Y25052D02*
Y28608D01*
X89869Y28608D02*
X89869Y25052D01*
X91647D01*
X89869Y28608D02*
X91647Y28608D01*
X83138Y38006D02*
X86694D01*
X83138Y36228D02*
X86694Y36228D01*
Y38006D01*
X83138Y36228D02*
X83138Y38006D01*
Y20861D02*
X86694D01*
X83138Y19083D02*
X86694Y19083D01*
Y20861D01*
X83138Y19083D02*
X83138Y20861D01*
X91774Y11844D02*
Y15400D01*
X89996Y15400D02*
X89996Y11844D01*
X91774D01*
X89996Y15400D02*
X91774Y15400D01*
X96219Y21496D02*
X99775D01*
X96219Y23274D02*
X99775Y23274D01*
X96219Y21496D02*
Y23274D01*
X99775Y21496D02*
X99775Y23274D01*
X86694Y39403D02*
X86694Y41181D01*
X83138Y39403D02*
Y41181D01*
X86694Y41181D01*
X83138Y39403D02*
X86694D01*
Y22131D02*
X86694Y23909D01*
X83138Y22131D02*
Y23909D01*
X86694Y23909D01*
X83138Y22131D02*
X86694D01*
X83138Y29243D02*
X86694D01*
X83138Y27465D02*
X86694Y27465D01*
Y29243D01*
X83138Y27465D02*
X83138Y29243D01*
Y12225D02*
X86694D01*
X83138Y10447D02*
X86694Y10447D01*
Y12225D01*
X83138Y10447D02*
X83138Y12225D01*
X94314Y20226D02*
Y23782D01*
X92536Y23782D02*
X92536Y20226D01*
X94314D01*
X92536Y23782D02*
X94314Y23782D01*
X98759Y19591D02*
X102315D01*
X98759Y21369D02*
X102315Y21369D01*
X98759Y19591D02*
Y21369D01*
X102315Y19591D02*
X102315Y21369D01*
X86694Y30640D02*
X86694Y32418D01*
X83138Y30640D02*
Y32418D01*
X86694Y32418D01*
X83138Y30640D02*
X86694D01*
Y13622D02*
X86694Y15400D01*
X83138Y13622D02*
Y15400D01*
X86694Y15400D01*
X83138Y13622D02*
X86694D01*
X132033Y70010D02*
X133811Y70010D01*
X132033Y66454D02*
X133811D01*
X132033Y70010D02*
X132033Y66454D01*
X133811D02*
Y70010D01*
X102823Y45499D02*
X106379D01*
X102823Y43721D02*
X106379Y43721D01*
Y45499D01*
X102823Y43721D02*
X102823Y45499D01*
X119079Y66708D02*
Y70264D01*
X117301Y70264D02*
X117301Y66708D01*
X119079D01*
X117301Y70264D02*
X119079Y70264D01*
X123016Y49055D02*
X126572D01*
X123016Y47277D02*
X126572Y47277D01*
Y49055D01*
X123016Y47277D02*
X123016Y49055D01*
X118698Y47277D02*
X122254D01*
X118698Y49055D02*
X122254Y49055D01*
X118698Y47277D02*
Y49055D01*
X122254Y47277D02*
X122254Y49055D01*
X110062Y61374D02*
Y64930D01*
X108284Y64930D02*
X108284Y61374D01*
X110062D01*
X108284Y64930D02*
X110062Y64930D01*
X113364Y51595D02*
Y55151D01*
X111586Y55151D02*
X111586Y51595D01*
X113364D01*
X111586Y55151D02*
X113364Y55151D01*
X92282Y43848D02*
X95838D01*
X92282Y45626D02*
X95838Y45626D01*
X92282Y43848D02*
Y45626D01*
X95838Y43848D02*
X95838Y45626D01*
X86821Y53500D02*
Y57056D01*
X88599D02*
X88599Y53500D01*
X86821Y57056D02*
X88599D01*
X86821Y53500D02*
X88599Y53500D01*
X116666Y74201D02*
X120222D01*
X116666Y72423D02*
X120222Y72423D01*
Y74201D01*
X116666Y72423D02*
X116666Y74201D01*
X112602Y72423D02*
X116158D01*
X112602Y74201D02*
X116158Y74201D01*
X112602Y72423D02*
Y74201D01*
X116158Y72423D02*
X116158Y74201D01*
X120222Y74709D02*
Y82837D01*
X115142Y74709D02*
X120222D01*
X115142D02*
Y82837D01*
X120222D01*
X113745Y87028D02*
X113745Y88806D01*
X117301Y87028D02*
Y88806D01*
X113745Y87028D02*
X117301Y87028D01*
X113745Y88806D02*
X117301D01*
D61*
X41412Y54770D02*
G03*
X41412Y56040I0J635D01*
G01*
X41412Y54770D02*
G03*
X41412Y56040I0J635D01*
G01*
X41285Y67978D02*
G03*
X41285Y69248I0J635D01*
G01*
X41285Y67978D02*
G03*
X41285Y69248I0J635D01*
G01*
X41285Y41562D02*
G03*
X41285Y42832I0J635D01*
G01*
X41285Y41562D02*
G03*
X41285Y42832I0J635D01*
G01*
X29220Y67851D02*
G03*
X29220Y69121I0J635D01*
G01*
X29220Y67851D02*
G03*
X29220Y69121I0J635D01*
G01*
X56029Y98147D02*
G03*
X50049Y98147I-2990J-4007D01*
G01*
Y90133D02*
G03*
X56029Y90133I2990J4007D01*
G01*
X56850Y95940D02*
G03*
X49228Y95940I-3811J-1800D01*
G01*
X50889Y94140D02*
G03*
X50889Y94140I-350J0D01*
G01*
X49228Y92340D02*
G03*
X56850Y92340I3811J1800D01*
G01*
X116815Y44450D02*
G03*
X117351Y40443I1248J-1872D01*
G01*
X118775D02*
G03*
X119217Y44509I-712J2135D01*
G01*
X122149Y46609D02*
G03*
X122685Y42602I1248J-1872D01*
G01*
X124109D02*
G03*
X124551Y46668I-712J2135D01*
G01*
X66026Y74096D02*
G03*
X70033Y74632I1872J1248D01*
G01*
Y76056D02*
G03*
X65967Y76498I-2135J-712D01*
G01*
X60946Y74096D02*
G03*
X64953Y74632I1872J1248D01*
G01*
Y76056D02*
G03*
X60887Y76498I-2135J-712D01*
G01*
X70979Y74096D02*
G03*
X74986Y74632I1872J1248D01*
G01*
Y76056D02*
G03*
X70920Y76498I-2135J-712D01*
G01*
X55993Y74096D02*
G03*
X60000Y74632I1872J1248D01*
G01*
Y76056D02*
G03*
X55934Y76498I-2135J-712D01*
G01*
X85150Y79027D02*
G03*
X85150Y80297I0J635D01*
G01*
X58125Y82456D02*
G03*
X58125Y83726I0J635D01*
G01*
X102168Y78773D02*
G03*
X102168Y80043I0J635D01*
G01*
X111170Y33360D02*
G03*
X117396Y33343I3083J-10975D01*
G01*
X116889Y34016D02*
G03*
X117396Y33343I700J0D01*
G01*
X111170Y33360D02*
G03*
X111681Y34034I-189J674D01*
G01*
X112951Y32401D02*
G03*
X109210Y13634I1302J-10016D01*
G01*
X119318Y13647D02*
G03*
X115555Y32401I-5065J8738D01*
G01*
X112381Y39685D02*
G03*
X111681Y38985I0J-700D01*
G01*
X116889D02*
G03*
X116189Y39685I-700J0D01*
G01*
X115555Y19400D02*
G03*
X115555Y25370I-1302J2985D01*
G01*
X112951D02*
G03*
X112951Y19400I1302J-2985D01*
G01*
X17395Y82202D02*
G03*
X17395Y82202I-5250J0D01*
G01*
X54328Y83345D02*
G03*
X54328Y83345I-6750J0D01*
G01*
X55128Y66454D02*
G03*
X55128Y67724I0J635D01*
G01*
X55128Y66454D02*
G03*
X55128Y67724I0J635D01*
G01*
X67574Y66581D02*
G03*
X67574Y67851I0J635D01*
G01*
X67574Y66581D02*
G03*
X67574Y67851I0J635D01*
G01*
X67447Y54516D02*
G03*
X67447Y55786I0J635D01*
G01*
X67447Y54516D02*
G03*
X67447Y55786I0J635D01*
G01*
X55255Y54516D02*
G03*
X55255Y55786I0J635D01*
G01*
X55255Y54516D02*
G03*
X55255Y55786I0J635D01*
G01*
X3566Y67851D02*
G03*
X3566Y69121I0J635D01*
G01*
X3566Y67851D02*
G03*
X3566Y69121I0J635D01*
G01*
X16901Y67851D02*
G03*
X16901Y69121I0J635D01*
G01*
X16901Y67851D02*
G03*
X16901Y69121I0J635D01*
G01*
X3566Y54643D02*
G03*
X3566Y55913I0J635D01*
G01*
X3566Y54643D02*
G03*
X3566Y55913I0J635D01*
G01*
X16901Y54643D02*
G03*
X16901Y55913I0J635D01*
G01*
X16901Y54643D02*
G03*
X16901Y55913I0J635D01*
G01*
X29093Y54643D02*
G03*
X29093Y55913I0J635D01*
G01*
X29093Y54643D02*
G03*
X29093Y55913I0J635D01*
G01*
X29093Y41562D02*
G03*
X29093Y42832I0J635D01*
G01*
X29093Y41562D02*
G03*
X29093Y42832I0J635D01*
G01*
X3693Y41562D02*
G03*
X3693Y42832I0J635D01*
G01*
X3693Y41562D02*
G03*
X3693Y42832I0J635D01*
G01*
X16901Y41562D02*
G03*
X16901Y42832I0J635D01*
G01*
X16901Y41562D02*
G03*
X16901Y42832I0J635D01*
G01*
X5354Y-1363D02*
Y7837D01*
Y-1363D02*
X25794Y-1363D01*
Y7837D01*
X23813D02*
X25794D01*
X9658Y-613D02*
X10060D01*
X9859Y-1363D02*
X10060Y-613D01*
X9658D02*
X9859Y-1363D01*
X13468Y-613D02*
X13870D01*
X13669Y-1363D02*
X13870Y-613D01*
X13468D02*
X13669Y-1363D01*
X17278Y-613D02*
X17680D01*
X17479Y-1363D02*
X17680Y-613D01*
X17278D02*
X17479Y-1363D01*
X21088Y-613D02*
X21490D01*
X21289Y-1363D02*
X21490Y-613D01*
X21088D02*
X21289Y-1363D01*
X5354Y2237D02*
X25794D01*
X5354Y1837D02*
X25794D01*
X5354Y7837D02*
X7336D01*
X8573D02*
X11146D01*
X12383D02*
X14956D01*
X16193D02*
X18766D01*
X20003D02*
X22576D01*
X26309Y-1363D02*
Y7837D01*
Y-1363D02*
X46749Y-1363D01*
Y7837D01*
X44768D02*
X46749D01*
X30613Y-613D02*
X31015D01*
X30814Y-1363D02*
X31015Y-613D01*
X30613D02*
X30814Y-1363D01*
X34423Y-613D02*
X34825D01*
X34624Y-1363D02*
X34825Y-613D01*
X34423D02*
X34624Y-1363D01*
X38233Y-613D02*
X38635D01*
X38434Y-1363D02*
X38635Y-613D01*
X38233D02*
X38434Y-1363D01*
X42043Y-613D02*
X42445D01*
X42244Y-1363D02*
X42445Y-613D01*
X42043D02*
X42244Y-1363D01*
X26309Y2237D02*
X46749D01*
X26309Y1837D02*
X46749D01*
X26309Y7837D02*
X28291D01*
X29528D02*
X32101D01*
X33338D02*
X35911D01*
X37148D02*
X39721D01*
X40958D02*
X43531D01*
X47264Y-1363D02*
Y7837D01*
Y-1363D02*
X67704Y-1363D01*
Y7837D01*
X65723D02*
X67704D01*
X51568Y-613D02*
X51970D01*
X51769Y-1363D02*
X51970Y-613D01*
X51568D02*
X51769Y-1363D01*
X55378Y-613D02*
X55780D01*
X55579Y-1363D02*
X55780Y-613D01*
X55378D02*
X55579Y-1363D01*
X59188Y-613D02*
X59590D01*
X59389Y-1363D02*
X59590Y-613D01*
X59188D02*
X59389Y-1363D01*
X62998Y-613D02*
X63400D01*
X63199Y-1363D02*
X63400Y-613D01*
X62998D02*
X63199Y-1363D01*
X47264Y2237D02*
X67704D01*
X47264Y1837D02*
X67704D01*
X47264Y7837D02*
X49246D01*
X50483D02*
X53056D01*
X54293D02*
X56866D01*
X58103D02*
X60676D01*
X61913D02*
X64486D01*
X41412Y58055D02*
X51712D01*
X41412Y52755D02*
X51712D01*
Y58055D01*
X41412Y56040D02*
Y58055D01*
Y52755D02*
Y54770D01*
X41285Y71263D02*
X51585D01*
X41285Y65963D02*
X51585D01*
Y71263D01*
X41285Y69248D02*
Y71263D01*
Y65963D02*
Y67978D01*
Y44847D02*
X51585D01*
X41285Y39547D02*
X51585D01*
Y44847D01*
X41285Y42832D02*
Y44847D01*
Y39547D02*
Y41562D01*
X29220Y71136D02*
X39520D01*
X29220Y65836D02*
X39520D01*
Y71136D01*
X29220Y69121D02*
Y71136D01*
Y65836D02*
Y67851D01*
X68219Y-1363D02*
Y7837D01*
Y-1363D02*
X88659Y-1363D01*
Y7837D01*
X86678D02*
X88659D01*
X72523Y-613D02*
X72925D01*
X72724Y-1363D02*
X72925Y-613D01*
X72523D02*
X72724Y-1363D01*
X76333Y-613D02*
X76735D01*
X76534Y-1363D02*
X76735Y-613D01*
X76333D02*
X76534Y-1363D01*
X80143Y-613D02*
X80545D01*
X80344Y-1363D02*
X80545Y-613D01*
X80143D02*
X80344Y-1363D01*
X83953Y-613D02*
X84355D01*
X84154Y-1363D02*
X84355Y-613D01*
X83953D02*
X84154Y-1363D01*
X68219Y2237D02*
X88659D01*
X68219Y1837D02*
X88659D01*
X68219Y7837D02*
X70201D01*
X71438D02*
X74011D01*
X75248D02*
X77821D01*
X79058D02*
X81631D01*
X82868D02*
X85441D01*
X28985Y90731D02*
X31785D01*
Y80531D02*
Y90731D01*
X28985Y80531D02*
X31785D01*
X34580Y92483D02*
Y98083D01*
X34780Y92483D02*
Y98083D01*
X34980Y92483D02*
Y98083D01*
X35180Y92483D02*
Y98083D01*
X35380Y92483D02*
Y98083D01*
X35580Y92483D02*
Y98083D01*
X22980Y94633D02*
X27080D01*
X22980Y95933D02*
X27080D01*
X36580D02*
X40680D01*
X36580Y94633D02*
X40680D01*
X27080Y92483D02*
X36580D01*
X27080D02*
Y98083D01*
X36580D01*
Y92483D02*
Y98083D01*
X56029Y98147D02*
X58987Y95940D01*
X47091D02*
X50049Y98147D01*
X56029Y90133D02*
X58987Y92340D01*
X47091D02*
X50049Y90133D01*
X38053Y81373D02*
Y82523D01*
X126191Y85970D02*
Y87070D01*
X131271Y87367D02*
Y88467D01*
X127926Y76773D02*
X138426D01*
X127926Y80773D02*
X138426D01*
X127926Y76773D02*
Y80773D01*
X138426Y76773D02*
Y80773D01*
X125768Y12987D02*
X126868D01*
X127800D02*
X128900D01*
X135340Y13478D02*
X136440D01*
X133435Y13462D02*
X134535D01*
X89250Y10669D02*
X101410D01*
X89250Y-1331D02*
Y10669D01*
X101410Y-1331D02*
Y10669D01*
X96895Y-1331D02*
X97265Y-31D01*
X91815Y-1331D02*
X92185Y-31D01*
X93022Y-81D02*
X93035Y-31D01*
X92545D02*
X92558Y-81D01*
X93022D01*
X92185Y-31D02*
X93395D01*
X93765Y-1331D01*
X92134Y-211D02*
X93446D01*
X90049Y7619D02*
X90451D01*
X90049D02*
X90250Y6869D01*
X90451Y7619D01*
X100209D02*
X100611D01*
X95129D02*
X95531D01*
X100209D02*
X100410Y6869D01*
X100611Y7619D01*
X95330Y6869D02*
X95531Y7619D01*
X97214Y-211D02*
X98526D01*
X97638Y-81D02*
X98102D01*
X97625Y-31D02*
X97638Y-81D01*
X98102D02*
X98115Y-31D01*
X97265D02*
X98475D01*
X98845Y-1331D01*
X95129Y7619D02*
X95330Y6869D01*
X89250Y1669D02*
X101410D01*
X89250Y-1331D02*
X101410D01*
X89250Y43D02*
X101410D01*
X101950Y10669D02*
X114110D01*
X101950Y-1331D02*
Y10669D01*
X114110Y-1331D02*
Y10669D01*
X109595Y-1331D02*
X109965Y-31D01*
X104515Y-1331D02*
X104885Y-31D01*
X105722Y-81D02*
X105735Y-31D01*
X105245D02*
X105258Y-81D01*
X105722D01*
X104885Y-31D02*
X106095D01*
X106465Y-1331D01*
X104834Y-211D02*
X106146D01*
X102749Y7619D02*
X103151D01*
X102749D02*
X102950Y6869D01*
X103151Y7619D01*
X112909D02*
X113311D01*
X107829D02*
X108231D01*
X112909D02*
X113110Y6869D01*
X113311Y7619D01*
X108030Y6869D02*
X108231Y7619D01*
X109914Y-211D02*
X111226D01*
X110338Y-81D02*
X110802D01*
X110325Y-31D02*
X110338Y-81D01*
X110802D02*
X110815Y-31D01*
X109965D02*
X111175D01*
X111545Y-1331D01*
X107829Y7619D02*
X108030Y6869D01*
X101950Y1669D02*
X114110D01*
X101950Y-1331D02*
X114110D01*
X101950Y43D02*
X114110D01*
X119163Y43128D02*
X120163D01*
X119663Y42628D02*
Y43628D01*
X113364Y45457D02*
Y46557D01*
X113237Y43298D02*
Y44398D01*
X130102Y32632D02*
X133202D01*
X130102Y27632D02*
X133202D01*
X130102D02*
Y32632D01*
X133202Y27632D02*
Y32632D01*
X137452Y27211D02*
X138552D01*
X137452Y30894D02*
X138552D01*
X126022Y29751D02*
X127122D01*
X132922Y33265D02*
Y34365D01*
X124497Y45287D02*
X125497D01*
X124997Y44787D02*
Y45787D01*
X126953Y39022D02*
Y43848D01*
X137367D01*
X126953Y42578D02*
X137367D01*
X126953Y39022D02*
X137367D01*
Y43848D01*
X102870Y65719D02*
Y66869D01*
X105009Y48647D02*
Y61147D01*
X92509Y48647D02*
Y61147D01*
Y48647D02*
X105009D01*
X92509Y61147D02*
X105009D01*
X98933Y65719D02*
Y66869D01*
X67348Y76444D02*
Y77444D01*
X66848Y76944D02*
X67848D01*
X62268Y76444D02*
Y77444D01*
X61768Y76944D02*
X62768D01*
X72301Y76444D02*
Y77444D01*
X71801Y76944D02*
X72801D01*
X57315Y76444D02*
Y77444D01*
X56815Y76944D02*
X57815D01*
X95350Y77012D02*
Y82312D01*
X85150Y80297D02*
Y82312D01*
Y77012D02*
Y79027D01*
Y82312D02*
X95350D01*
X85150Y77012D02*
X95350D01*
X58125Y80441D02*
X77925D01*
X58125Y85741D02*
X77925D01*
X58125Y80441D02*
Y82456D01*
Y83726D02*
Y85741D01*
X77925Y80441D02*
Y85741D01*
X112368Y76758D02*
Y82058D01*
X102168Y80043D02*
Y82058D01*
Y76758D02*
Y78773D01*
Y82058D02*
X112368D01*
X102168Y76758D02*
X112368D01*
X114053Y13648D02*
X114453D01*
X114053D02*
Y15648D01*
X114453D01*
Y13648D02*
Y15648D01*
X114053Y13648D02*
X114453D01*
X108561Y12508D02*
X109210Y13634D01*
X119318Y13647D02*
X119970Y12522D01*
X111681Y34034D02*
Y38985D01*
X112381Y39685D02*
X116189D01*
X116889Y34016D02*
Y38985D01*
X112951Y18357D02*
Y36913D01*
X115555Y18270D02*
Y37000D01*
X114053Y34148D02*
X114453D01*
Y34948D01*
X115253D01*
Y35348D01*
X114453D02*
X115253D01*
X114453D02*
Y36148D01*
X114053D02*
X114453D01*
X114053Y35348D02*
Y36148D01*
X113253Y35348D02*
X114053D01*
X113253Y34948D02*
Y35348D01*
Y34948D02*
X114053D01*
Y34148D02*
Y34948D01*
Y34148D02*
X114453D01*
X125694Y68780D02*
Y73780D01*
X123894Y68780D02*
Y73780D01*
Y68780D02*
X125694D01*
X123894Y73780D02*
X125694D01*
X6065Y89346D02*
X18225D01*
Y101346D01*
X6065Y89346D02*
Y101346D01*
X10210Y100046D02*
X10580Y101346D01*
X15290Y100046D02*
X15660Y101346D01*
X14440Y100046D02*
X14453Y100096D01*
X14917D02*
X14930Y100046D01*
X14453Y100096D02*
X14917D01*
X14080Y100046D02*
X15290D01*
X13710Y101346D02*
X14080Y100046D01*
X14029Y100226D02*
X15341D01*
X17024Y92396D02*
X17426D01*
X17225Y93146D02*
X17426Y92396D01*
X17024D02*
X17225Y93146D01*
X6864Y92396D02*
X7266D01*
X11944D02*
X12346D01*
X7065Y93146D02*
X7266Y92396D01*
X6864D02*
X7065Y93146D01*
X11944Y92396D02*
X12145Y93146D01*
X8949Y100226D02*
X10261D01*
X9373Y100096D02*
X9837D01*
X9850Y100046D01*
X9360D02*
X9373Y100096D01*
X9000Y100046D02*
X10210D01*
X8630Y101346D02*
X9000Y100046D01*
X12145Y93146D02*
X12346Y92396D01*
X6065Y98346D02*
X18225D01*
X6065Y101346D02*
X18225D01*
X6065Y99972D02*
X18225D01*
X7545Y82202D02*
X8545D01*
X8045Y81702D02*
Y82702D01*
X51228Y83345D02*
X52228D01*
X51728Y82845D02*
Y83845D01*
X65628Y89346D02*
X82868D01*
Y101346D01*
X65628Y89346D02*
Y101346D01*
X69773Y100046D02*
X70143Y101346D01*
X74853Y100046D02*
X75223Y101346D01*
X79933Y100046D02*
X80303Y101346D01*
X79083Y100046D02*
X79096Y100096D01*
X79560D02*
X79573Y100046D01*
X79096Y100096D02*
X79560D01*
X78723Y100046D02*
X79933D01*
X78353Y101346D02*
X78723Y100046D01*
X78672Y100226D02*
X79984D01*
X76587Y92396D02*
X76989D01*
X76788Y93146D02*
X76989Y92396D01*
X76587D02*
X76788Y93146D01*
X71507Y92396D02*
X71909D01*
X71507D02*
X71708Y93146D01*
X73592Y100226D02*
X74904D01*
X74016Y100096D02*
X74480D01*
X74493Y100046D01*
X74003D02*
X74016Y100096D01*
X73643Y100046D02*
X74853D01*
X73273Y101346D02*
X73643Y100046D01*
X69400Y100096D02*
X69413Y100046D01*
X68923D02*
X68936Y100096D01*
X69400D01*
X68193Y101346D02*
X68563Y100046D01*
X69773D01*
X68512Y100226D02*
X69824D01*
X71708Y93146D02*
X71909Y92396D01*
X65628Y98346D02*
X82868D01*
X65628Y101346D02*
X82868D01*
X65628Y99972D02*
X82868D01*
X84043Y89346D02*
X96203D01*
Y101346D01*
X84043Y89346D02*
Y101346D01*
X88188Y100046D02*
X88558Y101346D01*
X93268Y100046D02*
X93638Y101346D01*
X92418Y100046D02*
X92431Y100096D01*
X92895D02*
X92908Y100046D01*
X92431Y100096D02*
X92895D01*
X92058Y100046D02*
X93268D01*
X91688Y101346D02*
X92058Y100046D01*
X92007Y100226D02*
X93319D01*
X95002Y92396D02*
X95404D01*
X95203Y93146D02*
X95404Y92396D01*
X95002D02*
X95203Y93146D01*
X84842Y92396D02*
X85244D01*
X89922D02*
X90324D01*
X85043Y93146D02*
X85244Y92396D01*
X84842D02*
X85043Y93146D01*
X89922Y92396D02*
X90123Y93146D01*
X86927Y100226D02*
X88239D01*
X87351Y100096D02*
X87815D01*
X87828Y100046D01*
X87338D02*
X87351Y100096D01*
X86978Y100046D02*
X88188D01*
X86608Y101346D02*
X86978Y100046D01*
X90123Y93146D02*
X90324Y92396D01*
X84043Y98346D02*
X96203D01*
X84043Y101346D02*
X96203D01*
X84043Y99972D02*
X96203D01*
X98140Y89346D02*
X120460D01*
Y101346D01*
X98140Y89346D02*
Y101346D01*
X102285Y100046D02*
X102655Y101346D01*
X107365Y100046D02*
X107735Y101346D01*
X112445Y100046D02*
X112815Y101346D01*
X111235Y100046D02*
X112445D01*
X110865Y101346D02*
X111235Y100046D01*
X115945Y101346D02*
X116315Y100046D01*
X111184Y100226D02*
X112496D01*
X114179Y92396D02*
X114581D01*
X114380Y93146D02*
X114581Y92396D01*
X114179D02*
X114380Y93146D01*
X104019Y92396D02*
X104421D01*
X109099D02*
X109501D01*
X104220Y93146D02*
X104421Y92396D01*
X104019D02*
X104220Y93146D01*
X109099Y92396D02*
X109300Y93146D01*
X116315Y100046D02*
X117525D01*
X116264Y100226D02*
X117576D01*
X106104D02*
X107416D01*
X106155Y100046D02*
X107365D01*
X105785Y101346D02*
X106155Y100046D01*
X100705Y101346D02*
X101075Y100046D01*
X102285D01*
X101024Y100226D02*
X102336D01*
X109300Y93146D02*
X109501Y92396D01*
X98140Y98346D02*
X120460D01*
X98140Y101346D02*
X120460D01*
X98140Y99972D02*
X120460D01*
X117525Y100046D02*
X117895Y101346D01*
X121635Y89346D02*
X138875D01*
Y101346D01*
X121635Y89346D02*
Y101346D01*
X125780Y100046D02*
X126150Y101346D01*
X130860Y100046D02*
X131230Y101346D01*
X135940Y100046D02*
X136310Y101346D01*
X135090Y100046D02*
X135103Y100096D01*
X135567D02*
X135580Y100046D01*
X135103Y100096D02*
X135567D01*
X134730Y100046D02*
X135940D01*
X134360Y101346D02*
X134730Y100046D01*
X134679Y100226D02*
X135991D01*
X132594Y92396D02*
X132996D01*
X132795Y93146D02*
X132996Y92396D01*
X132594D02*
X132795Y93146D01*
X127514Y92396D02*
X127916D01*
X127514D02*
X127715Y93146D01*
X129599Y100226D02*
X130911D01*
X130023Y100096D02*
X130487D01*
X130500Y100046D01*
X130010D02*
X130023Y100096D01*
X129650Y100046D02*
X130860D01*
X129280Y101346D02*
X129650Y100046D01*
X125407Y100096D02*
X125420Y100046D01*
X124930D02*
X124943Y100096D01*
X125407D01*
X124200Y101346D02*
X124570Y100046D01*
X125780D01*
X124519Y100226D02*
X125831D01*
X127715Y93146D02*
X127916Y92396D01*
X121635Y98346D02*
X138875D01*
X121635Y101346D02*
X138875D01*
X121635Y99972D02*
X138875D01*
X55128Y69739D02*
X65428D01*
X55128Y64439D02*
X65428D01*
Y69739D01*
X55128Y67724D02*
Y69739D01*
Y64439D02*
Y66454D01*
X67574Y69866D02*
X77874D01*
X67574Y64566D02*
X77874D01*
Y69866D01*
X67574Y67851D02*
Y69866D01*
Y64566D02*
Y66581D01*
X67447Y57801D02*
X77747D01*
X67447Y52501D02*
X77747D01*
Y57801D01*
X67447Y55786D02*
Y57801D01*
Y52501D02*
Y54516D01*
X55255Y57801D02*
X65555D01*
X55255Y52501D02*
X65555D01*
Y57801D01*
X55255Y55786D02*
Y57801D01*
Y52501D02*
Y54516D01*
X3566Y71136D02*
X13866D01*
X3566Y65836D02*
X13866D01*
Y71136D01*
X3566Y69121D02*
Y71136D01*
Y65836D02*
Y67851D01*
X16901Y71136D02*
X27201D01*
X16901Y65836D02*
X27201D01*
Y71136D01*
X16901Y69121D02*
Y71136D01*
Y65836D02*
Y67851D01*
X3566Y57928D02*
X13866D01*
X3566Y52628D02*
X13866D01*
Y57928D01*
X3566Y55913D02*
Y57928D01*
Y52628D02*
Y54643D01*
X16901Y57928D02*
X27201D01*
X16901Y52628D02*
X27201D01*
Y57928D01*
X16901Y55913D02*
Y57928D01*
Y52628D02*
Y54643D01*
X29093Y57928D02*
X39393D01*
X29093Y52628D02*
X39393D01*
Y57928D01*
X29093Y55913D02*
Y57928D01*
Y52628D02*
Y54643D01*
Y44847D02*
X39393D01*
X29093Y39547D02*
X39393D01*
Y44847D01*
X29093Y42832D02*
Y44847D01*
Y39547D02*
Y41562D01*
X3693Y44847D02*
X13993D01*
X3693Y39547D02*
X13993D01*
Y44847D01*
X3693Y42832D02*
Y44847D01*
Y39547D02*
Y41562D01*
X16901Y44847D02*
X27201D01*
X16901Y39547D02*
X27201D01*
Y44847D01*
X16901Y42832D02*
Y44847D01*
Y39547D02*
Y41562D01*
X7827Y12479D02*
Y14289D01*
Y30989D02*
Y32799D01*
X10427Y14289D02*
Y30989D01*
X5227Y14289D02*
X10427D01*
X5227D02*
Y30989D01*
X10427D01*
X13669Y12479D02*
Y14289D01*
Y30989D02*
Y32799D01*
X16269Y14289D02*
Y30989D01*
X11069Y14289D02*
X16269D01*
X11069D02*
Y30989D01*
X16269D01*
X19511Y12479D02*
Y14289D01*
Y30989D02*
Y32799D01*
X22111Y14289D02*
Y30989D01*
X16911Y14289D02*
X22111D01*
X16911D02*
Y30989D01*
X22111D01*
X25226Y12479D02*
Y14289D01*
Y30989D02*
Y32799D01*
X27826Y14289D02*
Y30989D01*
X22626Y14289D02*
X27826D01*
X22626D02*
Y30989D01*
X27826D01*
X31068Y12479D02*
Y14289D01*
Y30989D02*
Y32799D01*
X33668Y14289D02*
Y30989D01*
X28468Y14289D02*
X33668D01*
X28468D02*
Y30989D01*
X33668D01*
X36910Y12479D02*
Y14289D01*
Y30989D02*
Y32799D01*
X39510Y14289D02*
Y30989D01*
X34310Y14289D02*
X39510D01*
X34310D02*
Y30989D01*
X39510D01*
X42625Y12479D02*
Y14289D01*
Y30989D02*
Y32799D01*
X45225Y14289D02*
Y30989D01*
X40025Y14289D02*
X45225D01*
X40025D02*
Y30989D01*
X45225D01*
X48467Y12479D02*
Y14289D01*
Y30989D02*
Y32799D01*
X51067Y14289D02*
Y30989D01*
X45867Y14289D02*
X51067D01*
X45867D02*
Y30989D01*
X51067D01*
X92327Y13723D02*
Y16823D01*
X101127Y13723D02*
Y16823D01*
X92327Y13723D02*
X101127D01*
X92327Y16823D02*
X101127D01*
X114650Y10669D02*
X126810D01*
X114650Y-1331D02*
Y10669D01*
X126810Y-1331D02*
Y10669D01*
X122295Y-1331D02*
X122665Y-31D01*
X117215Y-1331D02*
X117585Y-31D01*
X118422Y-81D02*
X118435Y-31D01*
X117945D02*
X117958Y-81D01*
X118422D01*
X117585Y-31D02*
X118795D01*
X119165Y-1331D01*
X117534Y-211D02*
X118846D01*
X115449Y7619D02*
X115851D01*
X115449D02*
X115650Y6869D01*
X115851Y7619D01*
X125609D02*
X126011D01*
X120529D02*
X120931D01*
X125609D02*
X125810Y6869D01*
X126011Y7619D01*
X120730Y6869D02*
X120931Y7619D01*
X122614Y-211D02*
X123926D01*
X123038Y-81D02*
X123502D01*
X123025Y-31D02*
X123038Y-81D01*
X123502D02*
X123515Y-31D01*
X122665D02*
X123875D01*
X124245Y-1331D01*
X120529Y7619D02*
X120730Y6869D01*
X114650Y1669D02*
X126810D01*
X114650Y-1331D02*
X126810D01*
X114650Y43D02*
X126810D01*
X127350Y10669D02*
X139510D01*
X127350Y-1331D02*
Y10669D01*
X139510Y-1331D02*
Y10669D01*
X134995Y-1331D02*
X135365Y-31D01*
X129915Y-1331D02*
X130285Y-31D01*
X131122Y-81D02*
X131135Y-31D01*
X130645D02*
X130658Y-81D01*
X131122D01*
X130285Y-31D02*
X131495D01*
X131865Y-1331D01*
X130234Y-211D02*
X131546D01*
X128149Y7619D02*
X128551D01*
X128149D02*
X128350Y6869D01*
X128551Y7619D01*
X138309D02*
X138711D01*
X133229D02*
X133631D01*
X138309D02*
X138510Y6869D01*
X138711Y7619D01*
X133430Y6869D02*
X133631Y7619D01*
X135314Y-211D02*
X136626D01*
X135738Y-81D02*
X136202D01*
X135725Y-31D02*
X135738Y-81D01*
X136202D02*
X136215Y-31D01*
X135365D02*
X136575D01*
X136945Y-1331D01*
X133229Y7619D02*
X133430Y6869D01*
X127350Y1669D02*
X139510D01*
X127350Y-1331D02*
X139510D01*
X127350Y43D02*
X139510D01*
X129534Y56926D02*
Y59026D01*
X135134Y44926D02*
Y59026D01*
X129534Y44926D02*
Y46526D01*
X133634Y44926D02*
X135134D01*
X133634Y59026D02*
X135134D01*
X129534D02*
X130634D01*
X129534Y44926D02*
X130634D01*
X121720Y61757D02*
X124820D01*
X121720Y65817D02*
X124820D01*
X110845Y57056D02*
X112375D01*
Y69756D01*
X110845D02*
X112375D01*
X111845Y57056D02*
Y69756D01*
X110845Y69483D02*
X111845D01*
X110845Y57329D02*
X111845D01*
X110845Y55786D02*
Y71026D01*
X116645D01*
Y55786D02*
Y71026D01*
X110845Y55786D02*
X116645D01*
X92073Y26931D02*
Y30031D01*
X100873Y26931D02*
Y30031D01*
X92073Y26931D02*
X100873D01*
X92073Y30031D02*
X100873D01*
D62*
X129226Y77773D02*
G03*
X129226Y77773I-300J0D01*
G01*
X104309Y49647D02*
G03*
X104309Y49647I-300J0D01*
G01*
X86450Y78012D02*
G03*
X86450Y78012I-300J0D01*
G01*
X59425Y81441D02*
G03*
X59425Y81441I-300J0D01*
G01*
X103468Y77758D02*
G03*
X103468Y77758I-300J0D01*
G01*
D63*
X138875Y13861D02*
G03*
X138875Y13861I-191J0D01*
G01*
X138443Y14788D02*
G03*
X138677Y14097I965J-58D01*
G01*
X138733Y16642D02*
G03*
X138431Y15705I1443J-983D01*
G01*
X142876Y14483D02*
G03*
X142876Y14483I-99J0D01*
G01*
X143224D02*
G03*
X143224Y14483I-447J0D01*
G01*
X138431Y16083D02*
X138812D01*
X138517Y14803D02*
Y15682D01*
X139942Y15603D02*
X140178D01*
Y14724D02*
Y15603D01*
X139942Y14724D02*
X140178D01*
X139942D02*
Y15603D01*
X139312Y14084D02*
X139795Y14115D01*
Y13670D02*
Y14115D01*
X139312Y13670D02*
X139795D01*
X139312D02*
Y14084D01*
X138939Y14041D02*
X138946Y13703D01*
X138893Y14041D02*
X138906D01*
X143003Y15956D02*
X143130D01*
X142873Y14968D02*
Y16319D01*
X142558D02*
X142873D01*
X138443Y14788D02*
X138677Y14097D01*
X138431Y15705D02*
X138733Y16642D01*
X138946Y13703D02*
Y17152D01*
X137669Y12273D02*
Y18623D01*
X144019Y12273D02*
Y18623D01*
X138273Y15682D02*
X138517D01*
X138273Y14803D02*
X138517D01*
X138273D02*
Y15682D01*
X137669Y18623D02*
X144019D01*
X137669Y12273D02*
X144019D01*
X138893Y14041D02*
X142243Y14338D01*
X138761Y16642D02*
X142558Y16319D01*
X137874Y18186D02*
X143582Y12895D01*
X137963Y12560D02*
X143625Y18059D01*
D64*
X141791Y24008D02*
G03*
X141512Y23856I53J-429D01*
G01*
X141791Y24008D02*
G03*
X141512Y23856I53J-429D01*
G01*
X140801Y21646D02*
G03*
X140699Y22281I-2875J-134D01*
G01*
X140902Y23272D02*
G03*
X140699Y22281I866J-694D01*
G01*
X140801Y21646D02*
G03*
X140699Y22281I-2875J-134D01*
G01*
X140902Y23272D02*
G03*
X140699Y22281I866J-694D01*
G01*
X140775Y21113D02*
G03*
X140750Y20935I610J-178D01*
G01*
X140775Y21113D02*
G03*
X140801Y21265I-627J183D01*
G01*
X141842Y21214D02*
G03*
X141563Y20605I525J-610D01*
G01*
X140775Y21113D02*
G03*
X140750Y20935I610J-178D01*
G01*
X140775Y21113D02*
G03*
X140801Y21265I-627J183D01*
G01*
X141842Y21214D02*
G03*
X141563Y20605I525J-610D01*
G01*
X143036Y23754D02*
G03*
X142604Y23932I-432J-435D01*
G01*
X142884Y23551D02*
G03*
X143036Y23754I59J114D01*
G01*
X142172Y23602D02*
G03*
X142376Y23576I148J358D01*
G01*
X143036Y23754D02*
G03*
X142604Y23932I-432J-435D01*
G01*
X142884Y23551D02*
G03*
X143036Y23754I59J114D01*
G01*
X142172Y23602D02*
G03*
X142376Y23576I148J358D01*
G01*
X142909Y22941D02*
G03*
X142299Y22306I26J-635D01*
G01*
X142909Y22941D02*
G03*
X142985Y23170I-55J145D01*
G01*
X142934Y23195D02*
G03*
X142503Y23170I-194J-389D01*
G01*
X142503Y23170D02*
G03*
X142249Y22992I2916J-4435D01*
G01*
X142909Y22941D02*
G03*
X142299Y22306I26J-635D01*
G01*
X142909Y22941D02*
G03*
X142985Y23170I-55J145D01*
G01*
X142934Y23195D02*
G03*
X142503Y23170I-194J-389D01*
G01*
X142503Y23170D02*
G03*
X142249Y22992I2916J-4435D01*
G01*
X140801Y21265D02*
G03*
X140801Y21646I-4080J191D01*
G01*
X141080Y23399D02*
G03*
X140902Y23272I136J-378D01*
G01*
X141080Y23399D02*
G03*
X141283Y23576I-122J345D01*
G01*
X141893Y23399D02*
G03*
X141944Y23526I-265J180D01*
G01*
X141613Y23018D02*
G03*
X141893Y23399I-5505J4330D01*
G01*
X140801Y21265D02*
G03*
X140801Y21646I-4080J191D01*
G01*
X141080Y23399D02*
G03*
X140902Y23272I136J-378D01*
G01*
X141080Y23399D02*
G03*
X141283Y23576I-122J345D01*
G01*
X141893Y23399D02*
G03*
X141944Y23526I-265J180D01*
G01*
X141613Y23018D02*
G03*
X141893Y23399I-5505J4330D01*
G01*
X142172Y23602D02*
G03*
X141969Y23678I-1411J-3454D01*
G01*
X142172Y23602D02*
G03*
X141969Y23678I-1411J-3454D01*
G01*
X142249Y22992D02*
G03*
X141944Y22484I465J-624D01*
G01*
X142249Y22992D02*
G03*
X141944Y22484I465J-624D01*
G01*
X141842Y21214D02*
G03*
X141995Y21392I-511J592D01*
G01*
X141842Y21214D02*
G03*
X141995Y21392I-511J592D01*
G01*
X141283Y23576D02*
X141385Y23703D01*
X141512Y23856D01*
X141791Y24008D02*
X141817D01*
X141918Y23983D01*
X141283Y23576D02*
X141385Y23703D01*
X141512Y23856D01*
X141791Y24008D02*
X141817D01*
X141918Y23983D01*
X142274Y23932D02*
X142604D01*
X142731Y23627D02*
X142884Y23551D01*
X142376Y23576D02*
X142731Y23627D01*
X142274Y23932D02*
X142604D01*
X142731Y23627D02*
X142884Y23551D01*
X142376Y23576D02*
X142731Y23627D01*
X142934Y23195D02*
X142985Y23170D01*
X142934Y23195D02*
X142985Y23170D01*
X141918Y23983D02*
X142071Y23957D01*
X142274Y23932D01*
X141944Y23526D02*
X141969Y23678D01*
X141918Y23983D02*
X142071Y23957D01*
X142274Y23932D01*
X141944Y23526D02*
X141969Y23678D01*
X141995Y21392D02*
X142299Y22306D01*
X141995Y21392D02*
X142299Y22306D01*
D65*
X132359Y47618D02*
Y48888D01*
Y47618D02*
X133629D01*
X144424Y47643D02*
Y48913D01*
X143154Y47643D02*
X144424D01*
X132410Y72466D02*
Y73736D01*
X133680D01*
X143129Y73787D02*
X144399D01*
Y72517D02*
Y73787D01*
D66*
X23449Y5287D02*
X22973D01*
X22925Y4858D01*
X22973Y4906D01*
X23116Y4954D01*
X23258D01*
X23401Y4906D01*
X23496Y4811D01*
X23544Y4668D01*
Y4573D01*
X23496Y4430D01*
X23401Y4335D01*
X23258Y4287D01*
X23116D01*
X22973Y4335D01*
X22925Y4382D01*
X22878Y4477D01*
X19544Y5287D02*
X19068Y4620D01*
X19782D01*
X19544Y5287D02*
Y4287D01*
X15353Y5287D02*
X15876D01*
X15591Y4906D01*
X15734D01*
X15829Y4858D01*
X15876Y4811D01*
X15924Y4668D01*
Y4573D01*
X15876Y4430D01*
X15781Y4335D01*
X15638Y4287D01*
X15496D01*
X15353Y4335D01*
X15305Y4382D01*
X15258Y4477D01*
X11495Y5049D02*
Y5096D01*
X11543Y5192D01*
X11590Y5239D01*
X11686Y5287D01*
X11876D01*
X11971Y5239D01*
X12019Y5192D01*
X12066Y5096D01*
Y5001D01*
X12019Y4906D01*
X11924Y4763D01*
X11448Y4287D01*
X12114D01*
X7938Y5096D02*
X8033Y5144D01*
X8176Y5287D01*
Y4287D01*
X44404Y5287D02*
X43928D01*
X43880Y4858D01*
X43928Y4906D01*
X44071Y4954D01*
X44213D01*
X44356Y4906D01*
X44451Y4811D01*
X44499Y4668D01*
Y4573D01*
X44451Y4430D01*
X44356Y4335D01*
X44213Y4287D01*
X44071D01*
X43928Y4335D01*
X43880Y4382D01*
X43833Y4477D01*
X40499Y5287D02*
X40023Y4620D01*
X40737D01*
X40499Y5287D02*
Y4287D01*
X36308Y5287D02*
X36831D01*
X36546Y4906D01*
X36689D01*
X36784Y4858D01*
X36831Y4811D01*
X36879Y4668D01*
Y4573D01*
X36831Y4430D01*
X36736Y4335D01*
X36593Y4287D01*
X36451D01*
X36308Y4335D01*
X36260Y4382D01*
X36213Y4477D01*
X32450Y5049D02*
Y5096D01*
X32498Y5192D01*
X32545Y5239D01*
X32641Y5287D01*
X32831D01*
X32926Y5239D01*
X32974Y5192D01*
X33021Y5096D01*
Y5001D01*
X32974Y4906D01*
X32879Y4763D01*
X32403Y4287D01*
X33069D01*
X28893Y5096D02*
X28988Y5144D01*
X29131Y5287D01*
Y4287D01*
X65359Y5287D02*
X64883D01*
X64835Y4858D01*
X64883Y4906D01*
X65026Y4954D01*
X65168D01*
X65311Y4906D01*
X65406Y4811D01*
X65454Y4668D01*
Y4573D01*
X65406Y4430D01*
X65311Y4335D01*
X65168Y4287D01*
X65026D01*
X64883Y4335D01*
X64835Y4382D01*
X64788Y4477D01*
X61454Y5287D02*
X60978Y4620D01*
X61692D01*
X61454Y5287D02*
Y4287D01*
X57263Y5287D02*
X57786D01*
X57501Y4906D01*
X57644D01*
X57739Y4858D01*
X57786Y4811D01*
X57834Y4668D01*
Y4573D01*
X57786Y4430D01*
X57691Y4335D01*
X57548Y4287D01*
X57406D01*
X57263Y4335D01*
X57215Y4382D01*
X57168Y4477D01*
X53405Y5049D02*
Y5096D01*
X53453Y5192D01*
X53500Y5239D01*
X53596Y5287D01*
X53786D01*
X53881Y5239D01*
X53929Y5192D01*
X53976Y5096D01*
Y5001D01*
X53929Y4906D01*
X53834Y4763D01*
X53358Y4287D01*
X54024D01*
X49848Y5096D02*
X49943Y5144D01*
X50086Y5287D01*
Y4287D01*
X86314Y5287D02*
X85838D01*
X85790Y4858D01*
X85838Y4906D01*
X85981Y4954D01*
X86123D01*
X86266Y4906D01*
X86361Y4811D01*
X86409Y4668D01*
Y4573D01*
X86361Y4430D01*
X86266Y4335D01*
X86123Y4287D01*
X85981D01*
X85838Y4335D01*
X85790Y4382D01*
X85743Y4477D01*
X82409Y5287D02*
X81933Y4620D01*
X82647D01*
X82409Y5287D02*
Y4287D01*
X78218Y5287D02*
X78741D01*
X78456Y4906D01*
X78599D01*
X78694Y4858D01*
X78741Y4811D01*
X78789Y4668D01*
Y4573D01*
X78741Y4430D01*
X78646Y4335D01*
X78503Y4287D01*
X78361D01*
X78218Y4335D01*
X78170Y4382D01*
X78123Y4477D01*
X74360Y5049D02*
Y5096D01*
X74408Y5192D01*
X74455Y5239D01*
X74551Y5287D01*
X74741D01*
X74836Y5239D01*
X74884Y5192D01*
X74931Y5096D01*
Y5001D01*
X74884Y4906D01*
X74789Y4763D01*
X74313Y4287D01*
X74979D01*
X70803Y5096D02*
X70898Y5144D01*
X71041Y5287D01*
Y4287D01*
X92430Y7078D02*
X92525Y7126D01*
X92668Y7269D01*
Y6269D01*
X97478Y7031D02*
Y7078D01*
X97525Y7174D01*
X97573Y7221D01*
X97668Y7269D01*
X97858D01*
X97954Y7221D01*
X98001Y7174D01*
X98049Y7078D01*
Y6983D01*
X98001Y6888D01*
X97906Y6745D01*
X97430Y6269D01*
X98097D01*
X105130Y7078D02*
X105225Y7126D01*
X105368Y7269D01*
Y6269D01*
X110178Y7031D02*
Y7078D01*
X110225Y7174D01*
X110273Y7221D01*
X110368Y7269D01*
X110558D01*
X110654Y7221D01*
X110701Y7174D01*
X110749Y7078D01*
Y6983D01*
X110701Y6888D01*
X110606Y6745D01*
X110130Y6269D01*
X110797D01*
X15045Y92937D02*
X14950Y92889D01*
X14807Y92746D01*
Y93746D01*
X9997Y92984D02*
Y92937D01*
X9950Y92841D01*
X9902Y92794D01*
X9807Y92746D01*
X9617D01*
X9521Y92794D01*
X9474Y92841D01*
X9426Y92937D01*
Y93032D01*
X9474Y93127D01*
X9569Y93270D01*
X10045Y93746D01*
X9378D01*
X69513Y92746D02*
X68989D01*
X69275Y93127D01*
X69132D01*
X69037Y93175D01*
X68989Y93222D01*
X68941Y93365D01*
Y93460D01*
X68989Y93603D01*
X69084Y93698D01*
X69227Y93746D01*
X69370D01*
X69513Y93698D01*
X69560Y93651D01*
X69608Y93556D01*
X74560Y92984D02*
Y92937D01*
X74513Y92841D01*
X74465Y92794D01*
X74370Y92746D01*
X74180D01*
X74084Y92794D01*
X74037Y92841D01*
X73989Y92937D01*
Y93032D01*
X74037Y93127D01*
X74132Y93270D01*
X74608Y93746D01*
X73941D01*
X79608Y92937D02*
X79513Y92889D01*
X79370Y92746D01*
Y93746D01*
X93023Y92937D02*
X92928Y92889D01*
X92785Y92746D01*
Y93746D01*
X87975Y92984D02*
Y92937D01*
X87928Y92841D01*
X87880Y92794D01*
X87785Y92746D01*
X87595D01*
X87499Y92794D01*
X87452Y92841D01*
X87404Y92937D01*
Y93032D01*
X87452Y93127D01*
X87547Y93270D01*
X88023Y93746D01*
X87356D01*
X101524Y92746D02*
X102000Y93413D01*
X101286D01*
X101524Y92746D02*
Y93746D01*
X117200Y92937D02*
X117105Y92889D01*
X116962Y92746D01*
Y93746D01*
X112152Y92984D02*
Y92937D01*
X112105Y92841D01*
X112057Y92794D01*
X111962Y92746D01*
X111772D01*
X111676Y92794D01*
X111629Y92841D01*
X111581Y92937D01*
Y93032D01*
X111629Y93127D01*
X111724Y93270D01*
X112200Y93746D01*
X111533D01*
X107105Y92746D02*
X106581D01*
X106867Y93127D01*
X106724D01*
X106629Y93175D01*
X106581Y93222D01*
X106533Y93365D01*
Y93460D01*
X106581Y93603D01*
X106676Y93698D01*
X106819Y93746D01*
X106962D01*
X107105Y93698D01*
X107152Y93651D01*
X107200Y93556D01*
X125520Y92746D02*
X124996D01*
X125282Y93127D01*
X125139D01*
X125044Y93175D01*
X124996Y93222D01*
X124948Y93365D01*
Y93460D01*
X124996Y93603D01*
X125091Y93698D01*
X125234Y93746D01*
X125377D01*
X125520Y93698D01*
X125567Y93651D01*
X125615Y93556D01*
X130567Y92984D02*
Y92937D01*
X130520Y92841D01*
X130472Y92794D01*
X130377Y92746D01*
X130187D01*
X130091Y92794D01*
X130044Y92841D01*
X129996Y92937D01*
Y93032D01*
X130044Y93127D01*
X130139Y93270D01*
X130615Y93746D01*
X129948D01*
X135615Y92937D02*
X135520Y92889D01*
X135377Y92746D01*
Y93746D01*
X117830Y7078D02*
X117925Y7126D01*
X118068Y7269D01*
Y6269D01*
X122878Y7031D02*
Y7078D01*
X122925Y7174D01*
X122973Y7221D01*
X123068Y7269D01*
X123258D01*
X123354Y7221D01*
X123401Y7174D01*
X123449Y7078D01*
Y6983D01*
X123401Y6888D01*
X123306Y6745D01*
X122830Y6269D01*
X123497D01*
X130530Y7078D02*
X130625Y7126D01*
X130768Y7269D01*
Y6269D01*
X135578Y7031D02*
Y7078D01*
X135625Y7174D01*
X135673Y7221D01*
X135768Y7269D01*
X135958D01*
X136054Y7221D01*
X136101Y7174D01*
X136149Y7078D01*
Y6983D01*
X136101Y6888D01*
X136006Y6745D01*
X135530Y6269D01*
X136197D01*
X127784Y55126D02*
Y55626D01*
Y55376D01*
X126284D01*
X126534Y55126D01*
Y56376D02*
X126284Y56626D01*
Y57125D01*
X126534Y57375D01*
X127534D01*
X127784Y57125D01*
Y56626D01*
X127534Y56376D01*
X126534D01*
X127784Y46976D02*
Y47476D01*
Y47226D01*
X126284D01*
X126534Y46976D01*
X115949Y69976D02*
X115997Y69881D01*
X116140Y69738D01*
X115140D01*
D67*
X119739Y78773D02*
D03*
M02*
