%FSLAX43Y43*%
%MOMM*%
G71*
G01*
G75*
G04 Layer_Color=8388736*
%ADD10R,0.600X1.550*%
%ADD11R,1.016X1.270*%
%ADD12O,0.610X2.032*%
%ADD13R,0.610X2.032*%
%ADD14R,4.100X1.520*%
%ADD15R,1.300X0.600*%
%ADD16R,2.200X1.800*%
%ADD17R,1.270X1.016*%
%ADD18O,2.200X0.600*%
%ADD19R,6.096X1.200*%
%ADD20R,1.050X1.400*%
%ADD21O,0.300X1.800*%
%ADD22O,1.800X0.300*%
%ADD23R,0.950X1.400*%
%ADD24R,1.400X0.950*%
%ADD25R,1.550X0.600*%
%ADD26O,0.350X2.100*%
%ADD27R,3.000X2.800*%
%ADD28R,9.000X10.600*%
%ADD29R,2.950X1.050*%
%ADD30C,1.000*%
%ADD31C,0.500*%
%ADD32C,0.300*%
%ADD33C,2.000*%
%ADD34C,0.400*%
%ADD35C,3.000*%
%ADD36C,0.254*%
%ADD37C,0.127*%
%ADD38C,1.900*%
%ADD39C,2.100*%
%ADD40R,1.524X1.524*%
%ADD41C,2.032*%
%ADD42C,1.700*%
%ADD43R,1.500X1.500*%
%ADD44C,1.500*%
%ADD45C,1.500*%
%ADD46R,1.600X1.600*%
%ADD47C,1.600*%
%ADD48R,1.500X1.500*%
%ADD49C,1.524*%
%ADD50C,2.200*%
%ADD51R,1.500X1.500*%
%ADD52C,2.000*%
%ADD53R,2.000X2.000*%
%ADD54C,2.300*%
G04:AMPARAMS|DCode=55|XSize=1.778mm|YSize=2.54mm|CornerRadius=0.445mm|HoleSize=0mm|Usage=FLASHONLY|Rotation=180.000|XOffset=0mm|YOffset=0mm|HoleType=Round|Shape=RoundedRectangle|*
%AMROUNDEDRECTD55*
21,1,1.778,1.651,0,0,180.0*
21,1,0.889,2.540,0,0,180.0*
1,1,0.889,-0.445,0.826*
1,1,0.889,0.445,0.826*
1,1,0.889,0.445,-0.826*
1,1,0.889,-0.445,-0.826*
%
%ADD55ROUNDEDRECTD55*%
%ADD56C,1.000*%
%ADD57C,1.270*%
%ADD58C,0.250*%
%ADD59C,0.200*%
%ADD60C,0.203*%
%ADD61C,0.178*%
%ADD62C,0.600*%
%ADD63C,0.152*%
%ADD64C,0.150*%
%ADD65R,0.965X2.134*%
%ADD66R,0.803X1.753*%
%ADD67R,1.219X1.473*%
%ADD68O,0.813X2.235*%
%ADD69R,0.813X2.235*%
%ADD70R,4.303X1.723*%
%ADD71R,1.503X0.803*%
%ADD72R,2.403X2.003*%
%ADD73R,1.473X1.219*%
%ADD74O,2.403X0.803*%
%ADD75R,6.299X1.403*%
%ADD76R,1.253X1.603*%
%ADD77O,0.503X2.003*%
%ADD78O,2.003X0.503*%
%ADD79R,1.153X1.603*%
%ADD80R,1.603X1.153*%
%ADD81R,1.753X0.803*%
%ADD82O,0.553X2.303*%
%ADD83R,3.203X3.003*%
%ADD84R,9.203X10.803*%
%ADD85R,3.153X1.253*%
%ADD86C,2.103*%
%ADD87C,2.303*%
%ADD88R,1.727X1.727*%
%ADD89C,2.235*%
%ADD90C,1.903*%
%ADD91R,1.703X1.703*%
%ADD92C,1.703*%
%ADD93C,1.703*%
%ADD94R,1.803X1.803*%
%ADD95C,1.803*%
%ADD96R,1.703X1.703*%
%ADD97C,2.403*%
%ADD98R,1.703X1.703*%
%ADD99C,2.203*%
%ADD100R,2.203X2.203*%
%ADD101C,2.503*%
G04:AMPARAMS|DCode=102|XSize=1.981mm|YSize=2.743mm|CornerRadius=0.546mm|HoleSize=0mm|Usage=FLASHONLY|Rotation=180.000|XOffset=0mm|YOffset=0mm|HoleType=Round|Shape=RoundedRectangle|*
%AMROUNDEDRECTD102*
21,1,1.981,1.651,0,0,180.0*
21,1,0.889,2.743,0,0,180.0*
1,1,1.092,-0.445,0.826*
1,1,1.092,0.445,0.826*
1,1,1.092,0.445,-0.826*
1,1,1.092,-0.445,-0.826*
%
%ADD102ROUNDEDRECTD102*%
%ADD103C,1.203*%
%ADD104C,1.473*%
%ADD105C,0.100*%
D64*
X115949Y69976D02*
X115997Y69881D01*
X116140Y69738D01*
X115140D01*
D105*
X100598Y29281D02*
G03*
X100598Y29281I-500J0D01*
G01*
X126345Y64812D02*
G03*
X126345Y64812I-500J0D01*
G01*
X100852Y16073D02*
G03*
X100852Y16073I-500J0D01*
G01*
X18495Y40292D02*
G03*
X18495Y40292I-254J0D01*
G01*
X16901Y41562D02*
G03*
X16901Y42832I0J635D01*
G01*
X5287Y40292D02*
G03*
X5287Y40292I-254J0D01*
G01*
X3693Y41562D02*
G03*
X3693Y42832I0J635D01*
G01*
X30687Y40292D02*
G03*
X30687Y40292I-254J0D01*
G01*
X29093Y41562D02*
G03*
X29093Y42832I0J635D01*
G01*
X30687Y53373D02*
G03*
X30687Y53373I-254J0D01*
G01*
X29093Y54643D02*
G03*
X29093Y55913I0J635D01*
G01*
X18495Y53373D02*
G03*
X18495Y53373I-254J0D01*
G01*
X16901Y54643D02*
G03*
X16901Y55913I0J635D01*
G01*
X5160Y53373D02*
G03*
X5160Y53373I-254J0D01*
G01*
X3566Y54643D02*
G03*
X3566Y55913I0J635D01*
G01*
X18495Y66581D02*
G03*
X18495Y66581I-254J0D01*
G01*
X16901Y67851D02*
G03*
X16901Y69121I0J635D01*
G01*
X5160Y66581D02*
G03*
X5160Y66581I-254J0D01*
G01*
X3566Y67851D02*
G03*
X3566Y69121I0J635D01*
G01*
X56849Y53246D02*
G03*
X56849Y53246I-254J0D01*
G01*
X55255Y54516D02*
G03*
X55255Y55786I0J635D01*
G01*
X69041Y53246D02*
G03*
X69041Y53246I-254J0D01*
G01*
X67447Y54516D02*
G03*
X67447Y55786I0J635D01*
G01*
X69168Y65311D02*
G03*
X69168Y65311I-254J0D01*
G01*
X67574Y66581D02*
G03*
X67574Y67851I0J635D01*
G01*
X56722Y65184D02*
G03*
X56722Y65184I-254J0D01*
G01*
X55128Y66454D02*
G03*
X55128Y67724I0J635D01*
G01*
X54328Y83345D02*
G03*
X54328Y83345I-6750J0D01*
G01*
X17395Y82202D02*
G03*
X17395Y82202I-5250J0D01*
G01*
X119318Y13647D02*
G03*
X115555Y32401I-5065J8738D01*
G01*
X112951Y25370D02*
G03*
X112951Y19400I1302J-2985D01*
G01*
X115555D02*
G03*
X115555Y25370I-1302J2985D01*
G01*
X112951Y17749D02*
G03*
X115555Y17749I1302J0D01*
G01*
X116889Y38985D02*
G03*
X116189Y39685I-700J0D01*
G01*
X112381D02*
G03*
X111681Y38985I0J-700D01*
G01*
X116889Y34016D02*
G03*
X117396Y33343I700J0D01*
G01*
X111170Y33360D02*
G03*
X111681Y34034I-189J674D01*
G01*
X112951Y32401D02*
G03*
X109210Y13634I1302J-10016D01*
G01*
X111170Y33360D02*
G03*
X117396Y33343I3083J-10975D01*
G01*
X60115Y75344D02*
G03*
X60115Y75344I-2250J0D01*
G01*
X75101D02*
G03*
X75101Y75344I-2250J0D01*
G01*
X65068D02*
G03*
X65068Y75344I-2250J0D01*
G01*
X70148D02*
G03*
X70148Y75344I-2250J0D01*
G01*
X125647Y44737D02*
G03*
X125647Y44737I-2250J0D01*
G01*
X132977Y28382D02*
G03*
X132977Y28382I-500J0D01*
G01*
X120313Y42578D02*
G03*
X120313Y42578I-2250J0D01*
G01*
X50889Y94140D02*
G03*
X50889Y94140I-350J0D01*
G01*
X56854Y94540D02*
G03*
X56854Y93740I0J-400D01*
G01*
X49224D02*
G03*
X49224Y94540I0J400D01*
G01*
X57254Y94140D02*
G03*
X57254Y94140I-4215J0D01*
G01*
X50049Y90133D02*
G03*
X56029Y90133I2990J4007D01*
G01*
Y98147D02*
G03*
X50049Y98147I-2990J-4007D01*
G01*
X21670Y95933D02*
G03*
X21670Y94633I0J-650D01*
G01*
X41990D02*
G03*
X41990Y95933I0J650D01*
G01*
X86324Y7837D02*
G03*
X85794Y7837I-265J-300D01*
G01*
X82514D02*
G03*
X81984Y7837I-265J-300D01*
G01*
X78704D02*
G03*
X78174Y7837I-265J-300D01*
G01*
X74894D02*
G03*
X74364Y7837I-265J-300D01*
G01*
X71084D02*
G03*
X70554Y7837I-265J-300D01*
G01*
X30814Y66581D02*
G03*
X30814Y66581I-254J0D01*
G01*
X29220Y67851D02*
G03*
X29220Y69121I0J635D01*
G01*
X42879Y40292D02*
G03*
X42879Y40292I-254J0D01*
G01*
X41285Y41562D02*
G03*
X41285Y42832I0J635D01*
G01*
X42879Y66708D02*
G03*
X42879Y66708I-254J0D01*
G01*
X41285Y67978D02*
G03*
X41285Y69248I0J635D01*
G01*
X43006Y53500D02*
G03*
X43006Y53500I-254J0D01*
G01*
X41412Y54770D02*
G03*
X41412Y56040I0J635D01*
G01*
X65369Y7837D02*
G03*
X64839Y7837I-265J-300D01*
G01*
X61559D02*
G03*
X61029Y7837I-265J-300D01*
G01*
X57749D02*
G03*
X57219Y7837I-265J-300D01*
G01*
X53939D02*
G03*
X53409Y7837I-265J-300D01*
G01*
X50129D02*
G03*
X49599Y7837I-265J-300D01*
G01*
X44414D02*
G03*
X43884Y7837I-265J-300D01*
G01*
X40604D02*
G03*
X40074Y7837I-265J-300D01*
G01*
X36794D02*
G03*
X36264Y7837I-265J-300D01*
G01*
X32984D02*
G03*
X32454Y7837I-265J-300D01*
G01*
X29174D02*
G03*
X28644Y7837I-265J-300D01*
G01*
X23459D02*
G03*
X22929Y7837I-265J-300D01*
G01*
X19649D02*
G03*
X19119Y7837I-265J-300D01*
G01*
X15839D02*
G03*
X15309Y7837I-265J-300D01*
G01*
X12029D02*
G03*
X11499Y7837I-265J-300D01*
G01*
X8219D02*
G03*
X7689Y7837I-265J-300D01*
G01*
X92103Y30481D02*
X100843D01*
X92103Y26481D02*
Y30481D01*
Y26481D02*
X100843D01*
Y30481D01*
X110845Y55786D02*
X116645D01*
Y71026D01*
X110845D02*
X116645D01*
X110845Y55786D02*
Y71026D01*
Y57329D02*
X111845D01*
X110845Y69483D02*
X111845D01*
Y57056D02*
Y69756D01*
X110845D02*
X112375D01*
Y57056D02*
Y69756D01*
X110845Y57056D02*
X112375D01*
X113405Y69436D02*
X114045D01*
X113405D02*
Y70076D01*
X114045D01*
Y69436D02*
Y70076D01*
Y66896D02*
Y67536D01*
X113405D02*
X114045D01*
X113405Y66896D02*
Y67536D01*
Y66896D02*
X114045D01*
X113405Y64356D02*
X114045D01*
X113405D02*
Y64996D01*
X114045D01*
Y64356D02*
Y64996D01*
X113405Y61816D02*
X114045D01*
X113405D02*
Y62456D01*
X114045D01*
Y61816D02*
Y62456D01*
X113405Y59276D02*
X114045D01*
Y59916D01*
X113405D02*
X114045D01*
X113405Y59276D02*
Y59916D01*
Y56736D02*
X114045D01*
Y57376D01*
X113405D02*
X114045D01*
X113405Y56736D02*
Y57376D01*
X127950Y61877D02*
Y65697D01*
X126830Y61997D02*
X127950Y61877D01*
X118590D02*
X127950D01*
X118590D02*
Y65697D01*
X127950D01*
X128070Y65817D01*
X126830Y65577D02*
X127950Y65697D01*
X118710Y65577D02*
X126830D01*
X118470Y65817D02*
X118710Y65577D01*
Y61997D02*
Y65577D01*
X118470Y61757D02*
X118710Y61997D01*
X126830D01*
X117865Y62387D02*
X118470D01*
X117865D02*
Y62897D01*
X118470D01*
X117865Y64677D02*
X118470D01*
X117865D02*
Y65187D01*
X118470D01*
X128070D02*
X128660D01*
Y64677D02*
Y65187D01*
X128070Y64677D02*
X128660D01*
X128070Y62897D02*
X128675D01*
Y62387D02*
Y62897D01*
X128070Y62387D02*
X128675D01*
X126830Y61997D02*
Y65577D01*
X128070Y61757D02*
Y65817D01*
X118470D02*
X128070D01*
X118470Y61757D02*
Y65817D01*
Y61757D02*
X128070D01*
X128070Y65187D02*
X128070Y65817D01*
X128070Y65187D02*
X128070Y65817D01*
X127350Y43D02*
X139510D01*
X127350Y-1331D02*
X139510D01*
X127350Y1669D02*
X139510D01*
X133229Y7619D02*
X133430Y6869D01*
X136575Y-31D02*
X136945Y-1331D01*
X135365Y-31D02*
X136575D01*
X136202Y-81D02*
X136215Y-31D01*
X135725D02*
X135738Y-81D01*
X136202D01*
X135314Y-211D02*
X136626D01*
X133430Y6869D02*
X133631Y7619D01*
X138510Y6869D02*
X138711Y7619D01*
X138309D02*
X138510Y6869D01*
X133229Y7619D02*
X133631D01*
X138309D02*
X138711D01*
X128350Y6869D02*
X128551Y7619D01*
X128149D02*
X128350Y6869D01*
X128149Y7619D02*
X128551D01*
X130234Y-211D02*
X131546D01*
X131495Y-31D02*
X131865Y-1331D01*
X130285Y-31D02*
X131495D01*
X130658Y-81D02*
X131122D01*
X130645Y-31D02*
X130658Y-81D01*
X131122D02*
X131135Y-31D01*
X129915Y-1331D02*
X130285Y-31D01*
X134995Y-1331D02*
X135365Y-31D01*
X139510Y-1331D02*
Y10669D01*
X127350Y-1331D02*
Y10669D01*
X139510D01*
X114650Y43D02*
X126810D01*
X114650Y-1331D02*
X126810D01*
X114650Y1669D02*
X126810D01*
X120529Y7619D02*
X120730Y6869D01*
X123875Y-31D02*
X124245Y-1331D01*
X122665Y-31D02*
X123875D01*
X123502Y-81D02*
X123515Y-31D01*
X123025D02*
X123038Y-81D01*
X123502D01*
X122614Y-211D02*
X123926D01*
X120730Y6869D02*
X120931Y7619D01*
X125810Y6869D02*
X126011Y7619D01*
X125609D02*
X125810Y6869D01*
X120529Y7619D02*
X120931D01*
X125609D02*
X126011D01*
X115650Y6869D02*
X115851Y7619D01*
X115449D02*
X115650Y6869D01*
X115449Y7619D02*
X115851D01*
X117534Y-211D02*
X118846D01*
X118795Y-31D02*
X119165Y-1331D01*
X117585Y-31D02*
X118795D01*
X117958Y-81D02*
X118422D01*
X117945Y-31D02*
X117958Y-81D01*
X118422D02*
X118435Y-31D01*
X117215Y-1331D02*
X117585Y-31D01*
X122295Y-1331D02*
X122665Y-31D01*
X126810Y-1331D02*
Y10669D01*
X114650Y-1331D02*
Y10669D01*
X126810D01*
X92357Y17273D02*
X101097D01*
X92357Y13273D02*
Y17273D01*
Y13273D02*
X101097D01*
Y17273D01*
X45867Y14289D02*
Y30989D01*
X51067D01*
Y14289D02*
Y30989D01*
X45867Y14289D02*
X51067D01*
X48067Y11209D02*
Y14289D01*
X48867Y11209D02*
Y14289D01*
X48067Y30989D02*
Y34069D01*
X48867Y30989D02*
Y34069D01*
X40025Y14289D02*
Y30989D01*
X45225D01*
Y14289D02*
Y30989D01*
X40025Y14289D02*
X45225D01*
X42225Y11209D02*
Y14289D01*
X43025Y11209D02*
Y14289D01*
X42225Y30989D02*
Y34069D01*
X43025Y30989D02*
Y34069D01*
X34310Y14289D02*
Y30989D01*
X39510D01*
Y14289D02*
Y30989D01*
X34310Y14289D02*
X39510D01*
X36510Y11209D02*
Y14289D01*
X37310Y11209D02*
Y14289D01*
X36510Y30989D02*
Y34069D01*
X37310Y30989D02*
Y34069D01*
X28468Y14289D02*
Y30989D01*
X33668D01*
Y14289D02*
Y30989D01*
X28468Y14289D02*
X33668D01*
X30668Y11209D02*
Y14289D01*
X31468Y11209D02*
Y14289D01*
X30668Y30989D02*
Y34069D01*
X31468Y30989D02*
Y34069D01*
X22626Y14289D02*
Y30989D01*
X27826D01*
Y14289D02*
Y30989D01*
X22626Y14289D02*
X27826D01*
X24826Y11209D02*
Y14289D01*
X25626Y11209D02*
Y14289D01*
X24826Y30989D02*
Y34069D01*
X25626Y30989D02*
Y34069D01*
X16911Y14289D02*
Y30989D01*
X22111D01*
Y14289D02*
Y30989D01*
X16911Y14289D02*
X22111D01*
X19111Y11209D02*
Y14289D01*
X19911Y11209D02*
Y14289D01*
X19111Y30989D02*
Y34069D01*
X19911Y30989D02*
Y34069D01*
X11069Y14289D02*
Y30989D01*
X16269D01*
Y14289D02*
Y30989D01*
X11069Y14289D02*
X16269D01*
X13269Y11209D02*
Y14289D01*
X14069Y11209D02*
Y14289D01*
X13269Y30989D02*
Y34069D01*
X14069Y30989D02*
Y34069D01*
X5227Y14289D02*
Y30989D01*
X10427D01*
Y14289D02*
Y30989D01*
X5227Y14289D02*
X10427D01*
X7427Y11209D02*
Y14289D01*
X8227Y11209D02*
Y14289D01*
X7427Y30989D02*
Y34069D01*
X8227Y30989D02*
Y34069D01*
X16901Y38897D02*
X27201D01*
Y45497D01*
X16901D02*
X27201D01*
X16901Y38897D02*
Y41562D01*
Y42832D02*
Y45497D01*
X3693Y38897D02*
X13993D01*
Y45497D01*
X3693D02*
X13993D01*
X3693Y38897D02*
Y41562D01*
Y42832D02*
Y45497D01*
X29093Y38897D02*
X39393D01*
Y45497D01*
X29093D02*
X39393D01*
X29093Y38897D02*
Y41562D01*
Y42832D02*
Y45497D01*
Y51978D02*
X39393D01*
Y58578D01*
X29093D02*
X39393D01*
X29093Y51978D02*
Y54643D01*
Y55913D02*
Y58578D01*
X16901Y51978D02*
X27201D01*
Y58578D01*
X16901D02*
X27201D01*
X16901Y51978D02*
Y54643D01*
Y55913D02*
Y58578D01*
X3566Y51978D02*
X13866D01*
Y58578D01*
X3566D02*
X13866D01*
X3566Y51978D02*
Y54643D01*
Y55913D02*
Y58578D01*
X16901Y65186D02*
X27201D01*
Y71786D01*
X16901D02*
X27201D01*
X16901Y65186D02*
Y67851D01*
Y69121D02*
Y71786D01*
X3566Y65186D02*
X13866D01*
Y71786D01*
X3566D02*
X13866D01*
X3566Y65186D02*
Y67851D01*
Y69121D02*
Y71786D01*
X55255Y51851D02*
X65555D01*
Y58451D01*
X55255D02*
X65555D01*
X55255Y51851D02*
Y54516D01*
Y55786D02*
Y58451D01*
X67447Y51851D02*
X77747D01*
Y58451D01*
X67447D02*
X77747D01*
X67447Y51851D02*
Y54516D01*
Y55786D02*
Y58451D01*
X67574Y63916D02*
X77874D01*
Y70516D01*
X67574D02*
X77874D01*
X67574Y63916D02*
Y66581D01*
Y67851D02*
Y70516D01*
X55128Y63789D02*
X65428D01*
Y70389D01*
X55128D02*
X65428D01*
X55128Y63789D02*
Y66454D01*
Y67724D02*
Y70389D01*
X121635Y99972D02*
X138875D01*
X121635Y101346D02*
X138875D01*
X121635Y98346D02*
X138875D01*
X127715Y93146D02*
X127916Y92396D01*
X124519Y100226D02*
X125831D01*
X124570Y100046D02*
X125780D01*
X124200Y101346D02*
X124570Y100046D01*
X124943Y100096D02*
X125407D01*
X124930Y100046D02*
X124943Y100096D01*
X125407D02*
X125420Y100046D01*
X129280Y101346D02*
X129650Y100046D01*
X130860D01*
X130010D02*
X130023Y100096D01*
X130487D02*
X130500Y100046D01*
X130023Y100096D02*
X130487D01*
X129599Y100226D02*
X130911D01*
X127514Y92396D02*
X127715Y93146D01*
X127514Y92396D02*
X127916D01*
X132594D02*
X132795Y93146D01*
X132996Y92396D01*
X132594D02*
X132996D01*
X134679Y100226D02*
X135991D01*
X134360Y101346D02*
X134730Y100046D01*
X135940D01*
X135103Y100096D02*
X135567D01*
X135580Y100046D01*
X135090D02*
X135103Y100096D01*
X135940Y100046D02*
X136310Y101346D01*
X130860Y100046D02*
X131230Y101346D01*
X125780Y100046D02*
X126150Y101346D01*
X121635Y89346D02*
Y101346D01*
X138875Y89346D02*
Y101346D01*
X121635Y89346D02*
X138875D01*
X117525Y100046D02*
X117895Y101346D01*
X98140Y99972D02*
X120460D01*
X98140Y101346D02*
X120460D01*
X98140Y98346D02*
X120460D01*
X109300Y93146D02*
X109501Y92396D01*
X101024Y100226D02*
X102336D01*
X101075Y100046D02*
X102285D01*
X100705Y101346D02*
X101075Y100046D01*
X101448Y100096D02*
X101912D01*
X101435Y100046D02*
X101448Y100096D01*
X101912D02*
X101925Y100046D01*
X105785Y101346D02*
X106155Y100046D01*
X107365D01*
X106515D02*
X106528Y100096D01*
X106992D02*
X107005Y100046D01*
X106528Y100096D02*
X106992D01*
X106104Y100226D02*
X107416D01*
X116264D02*
X117576D01*
X116315Y100046D02*
X117525D01*
X109099Y92396D02*
X109300Y93146D01*
X104019Y92396D02*
X104220Y93146D01*
X104421Y92396D01*
X109099D02*
X109501D01*
X104019D02*
X104421D01*
X114179D02*
X114380Y93146D01*
X114581Y92396D01*
X114179D02*
X114581D01*
X111184Y100226D02*
X112496D01*
X115945Y101346D02*
X116315Y100046D01*
X110865Y101346D02*
X111235Y100046D01*
X112445D01*
X111608Y100096D02*
X112072D01*
X117152D02*
X117165Y100046D01*
X116688Y100096D02*
X117152D01*
X116675Y100046D02*
X116688Y100096D01*
X112072D02*
X112085Y100046D01*
X111595D02*
X111608Y100096D01*
X112445Y100046D02*
X112815Y101346D01*
X107365Y100046D02*
X107735Y101346D01*
X102285Y100046D02*
X102655Y101346D01*
X98140Y89346D02*
Y101346D01*
X120460Y89346D02*
Y101346D01*
X98140Y89346D02*
X120460D01*
X84043Y99972D02*
X96203D01*
X84043Y101346D02*
X96203D01*
X84043Y98346D02*
X96203D01*
X90123Y93146D02*
X90324Y92396D01*
X86608Y101346D02*
X86978Y100046D01*
X88188D01*
X87338D02*
X87351Y100096D01*
X87815D02*
X87828Y100046D01*
X87351Y100096D02*
X87815D01*
X86927Y100226D02*
X88239D01*
X89922Y92396D02*
X90123Y93146D01*
X84842Y92396D02*
X85043Y93146D01*
X85244Y92396D01*
X89922D02*
X90324D01*
X84842D02*
X85244D01*
X95002D02*
X95203Y93146D01*
X95404Y92396D01*
X95002D02*
X95404D01*
X92007Y100226D02*
X93319D01*
X91688Y101346D02*
X92058Y100046D01*
X93268D01*
X92431Y100096D02*
X92895D01*
X92908Y100046D01*
X92418D02*
X92431Y100096D01*
X93268Y100046D02*
X93638Y101346D01*
X88188Y100046D02*
X88558Y101346D01*
X84043Y89346D02*
Y101346D01*
X96203Y89346D02*
Y101346D01*
X84043Y89346D02*
X96203D01*
X65628Y99972D02*
X82868D01*
X65628Y101346D02*
X82868D01*
X65628Y98346D02*
X82868D01*
X71708Y93146D02*
X71909Y92396D01*
X68512Y100226D02*
X69824D01*
X68563Y100046D02*
X69773D01*
X68193Y101346D02*
X68563Y100046D01*
X68936Y100096D02*
X69400D01*
X68923Y100046D02*
X68936Y100096D01*
X69400D02*
X69413Y100046D01*
X73273Y101346D02*
X73643Y100046D01*
X74853D01*
X74003D02*
X74016Y100096D01*
X74480D02*
X74493Y100046D01*
X74016Y100096D02*
X74480D01*
X73592Y100226D02*
X74904D01*
X71507Y92396D02*
X71708Y93146D01*
X71507Y92396D02*
X71909D01*
X76587D02*
X76788Y93146D01*
X76989Y92396D01*
X76587D02*
X76989D01*
X78672Y100226D02*
X79984D01*
X78353Y101346D02*
X78723Y100046D01*
X79933D01*
X79096Y100096D02*
X79560D01*
X79573Y100046D01*
X79083D02*
X79096Y100096D01*
X79933Y100046D02*
X80303Y101346D01*
X74853Y100046D02*
X75223Y101346D01*
X69773Y100046D02*
X70143Y101346D01*
X65628Y89346D02*
Y101346D01*
X82868Y89346D02*
Y101346D01*
X65628Y89346D02*
X82868D01*
X51228Y83345D02*
X52228D01*
X51728Y82845D02*
Y83845D01*
X7545Y82202D02*
X8545D01*
X8045Y81702D02*
Y82702D01*
X6065Y99972D02*
X18225D01*
X6065Y101346D02*
X18225D01*
X6065Y98346D02*
X18225D01*
X12145Y93146D02*
X12346Y92396D01*
X8630Y101346D02*
X9000Y100046D01*
X10210D01*
X9360D02*
X9373Y100096D01*
X9837D02*
X9850Y100046D01*
X9373Y100096D02*
X9837D01*
X8949Y100226D02*
X10261D01*
X11944Y92396D02*
X12145Y93146D01*
X6864Y92396D02*
X7065Y93146D01*
X7266Y92396D01*
X11944D02*
X12346D01*
X6864D02*
X7266D01*
X17024D02*
X17225Y93146D01*
X17426Y92396D01*
X17024D02*
X17426D01*
X14029Y100226D02*
X15341D01*
X13710Y101346D02*
X14080Y100046D01*
X15290D01*
X14453Y100096D02*
X14917D01*
X14930Y100046D01*
X14440D02*
X14453Y100096D01*
X15290Y100046D02*
X15660Y101346D01*
X10210Y100046D02*
X10580Y101346D01*
X6065Y89346D02*
Y101346D01*
X18225Y89346D02*
Y101346D01*
X6065Y89346D02*
X18225D01*
X114053Y34148D02*
X114453D01*
X114053D02*
Y34948D01*
X113253D02*
X114053D01*
X113253D02*
Y35348D01*
X114053D01*
Y36148D01*
X114453D01*
Y35348D02*
Y36148D01*
Y35348D02*
X115253D01*
Y34948D02*
Y35348D01*
X114453Y34948D02*
X115253D01*
X114453Y34148D02*
Y34948D01*
X114053Y34148D02*
X114453D01*
X112951Y38085D02*
X115555D01*
Y17749D02*
Y38085D01*
X112951Y17749D02*
Y38085D01*
X116889Y34016D02*
Y38985D01*
X112381Y39685D02*
X116189D01*
X111681Y34034D02*
Y38985D01*
X119318Y13647D02*
X119970Y12522D01*
X108561Y12508D02*
X109210Y13634D01*
X114053Y13648D02*
X114453D01*
Y15648D01*
X114053D02*
X114453D01*
X114053Y13648D02*
Y15648D01*
Y13648D02*
X114453D01*
X57315Y76444D02*
Y77444D01*
X56815Y76944D02*
X57815D01*
X72301Y76444D02*
Y77444D01*
X71801Y76944D02*
X72801D01*
X62268Y76444D02*
Y77444D01*
X61768Y76944D02*
X62768D01*
X67348Y76444D02*
Y77444D01*
X66848Y76944D02*
X67848D01*
X97413Y64969D02*
Y66669D01*
X100613D01*
Y64969D02*
Y66669D01*
X97413Y64969D02*
X100613D01*
X104550D02*
Y66669D01*
X101350Y64969D02*
X104550D01*
X101350D02*
Y66669D01*
X104550D01*
X137367Y39022D02*
Y43848D01*
X126953Y39022D02*
X137367D01*
X126953Y42578D02*
X137367D01*
X126953Y43848D02*
X137367D01*
X126953Y39022D02*
Y43848D01*
X124497Y45287D02*
X125497D01*
X124997Y44787D02*
Y45787D01*
X131272Y32965D02*
X134572D01*
Y34665D01*
X131272D02*
X134572D01*
X131272Y32965D02*
Y34665D01*
X127422Y28101D02*
Y31401D01*
X125722D02*
X127422D01*
X125722Y28101D02*
Y31401D01*
Y28101D02*
X127422D01*
X138852Y29244D02*
Y32544D01*
X137152D02*
X138852D01*
X137152Y29244D02*
Y32544D01*
Y29244D02*
X138852D01*
Y25561D02*
Y28861D01*
X137152D02*
X138852D01*
X137152Y25561D02*
Y28861D01*
Y25561D02*
X138852D01*
X129652Y27632D02*
X133652D01*
Y32632D01*
X129652D02*
X133652D01*
X129652Y27632D02*
Y32632D01*
X111587Y42998D02*
X114887D01*
Y44698D01*
X111587D02*
X114887D01*
X111587Y42998D02*
Y44698D01*
X111714Y45157D02*
X115014D01*
Y46857D01*
X111714D02*
X115014D01*
X111714Y45157D02*
Y46857D01*
X119163Y43128D02*
X120163D01*
X119663Y42628D02*
Y43628D01*
X101950Y43D02*
X114110D01*
X101950Y-1331D02*
X114110D01*
X101950Y1669D02*
X114110D01*
X107829Y7619D02*
X108030Y6869D01*
X111175Y-31D02*
X111545Y-1331D01*
X109965Y-31D02*
X111175D01*
X110802Y-81D02*
X110815Y-31D01*
X110325D02*
X110338Y-81D01*
X110802D01*
X109914Y-211D02*
X111226D01*
X108030Y6869D02*
X108231Y7619D01*
X113110Y6869D02*
X113311Y7619D01*
X112909D02*
X113110Y6869D01*
X107829Y7619D02*
X108231D01*
X112909D02*
X113311D01*
X102950Y6869D02*
X103151Y7619D01*
X102749D02*
X102950Y6869D01*
X102749Y7619D02*
X103151D01*
X104834Y-211D02*
X106146D01*
X106095Y-31D02*
X106465Y-1331D01*
X104885Y-31D02*
X106095D01*
X105258Y-81D02*
X105722D01*
X105245Y-31D02*
X105258Y-81D01*
X105722D02*
X105735Y-31D01*
X104515Y-1331D02*
X104885Y-31D01*
X109595Y-1331D02*
X109965Y-31D01*
X114110Y-1331D02*
Y10669D01*
X101950Y-1331D02*
Y10669D01*
X114110D01*
X89250Y43D02*
X101410D01*
X89250Y-1331D02*
X101410D01*
X89250Y1669D02*
X101410D01*
X95129Y7619D02*
X95330Y6869D01*
X98475Y-31D02*
X98845Y-1331D01*
X97265Y-31D02*
X98475D01*
X98102Y-81D02*
X98115Y-31D01*
X97625D02*
X97638Y-81D01*
X98102D01*
X97214Y-211D02*
X98526D01*
X95330Y6869D02*
X95531Y7619D01*
X100410Y6869D02*
X100611Y7619D01*
X100209D02*
X100410Y6869D01*
X95129Y7619D02*
X95531D01*
X100209D02*
X100611D01*
X90250Y6869D02*
X90451Y7619D01*
X90049D02*
X90250Y6869D01*
X90049Y7619D02*
X90451D01*
X92134Y-211D02*
X93446D01*
X93395Y-31D02*
X93765Y-1331D01*
X92185Y-31D02*
X93395D01*
X92558Y-81D02*
X93022D01*
X92545Y-31D02*
X92558Y-81D01*
X93022D02*
X93035Y-31D01*
X91815Y-1331D02*
X92185Y-31D01*
X96895Y-1331D02*
X97265Y-31D01*
X101410Y-1331D02*
Y10669D01*
X89250Y-1331D02*
Y10669D01*
X101410D01*
X134835Y11812D02*
Y15112D01*
X133135D02*
X134835D01*
X133135Y11812D02*
Y15112D01*
Y11812D02*
X134835D01*
X135040Y11828D02*
Y15128D01*
Y11828D02*
X136740D01*
Y15128D01*
X135040D02*
X136740D01*
X129200Y11337D02*
Y14637D01*
X127500D02*
X129200D01*
X127500Y11337D02*
Y14637D01*
Y11337D02*
X129200D01*
X125468D02*
Y14637D01*
Y11337D02*
X127168D01*
Y14637D01*
X125468D02*
X127168D01*
X129621Y87067D02*
X132921D01*
Y88767D01*
X129621D02*
X132921D01*
X129621Y87067D02*
Y88767D01*
X124541Y85670D02*
X127841D01*
Y87370D01*
X124541D02*
X127841D01*
X124541Y85670D02*
Y87370D01*
X39653Y81098D02*
Y82798D01*
X36453Y81098D02*
X39653D01*
X36453D02*
Y82798D01*
X39653D01*
X56854Y93740D02*
X57235D01*
X56854Y94540D02*
X57235D01*
X48843Y93740D02*
X49224D01*
X48843Y94540D02*
X49224D01*
X59239Y93140D02*
Y95140D01*
X46839Y93140D02*
Y95140D01*
X46689Y92640D02*
X50049Y90133D01*
X56029D02*
X59389Y92640D01*
X46689D02*
Y93140D01*
X59389Y92640D02*
Y93140D01*
X46689D02*
X48944D01*
X57134D02*
X59389D01*
X46689Y95140D02*
X48944D01*
X57134D02*
X59389D01*
X46689D02*
Y95640D01*
X59389Y95140D02*
Y95640D01*
X46689D02*
X50049Y98147D01*
X56029D02*
X59389Y95640D01*
X36580Y92483D02*
Y98083D01*
X27080D02*
X36580D01*
X27080Y92483D02*
Y98083D01*
Y92483D02*
X36580D01*
Y94633D02*
X41990D01*
X36580Y95933D02*
X41990D01*
X21670D02*
X27080D01*
X21670Y94633D02*
X27080D01*
X35580Y92483D02*
Y98083D01*
X34580Y92483D02*
Y98083D01*
X35380Y92483D02*
Y98083D01*
X35180Y92483D02*
Y98083D01*
X34980Y92483D02*
Y98083D01*
X34780Y92483D02*
Y98083D01*
X21431Y80519D02*
X21933D01*
X20413Y81648D02*
X21431Y80519D01*
X20413Y81648D02*
Y89615D01*
X21431Y90743D01*
X21933D01*
X30823Y80519D02*
Y90743D01*
X21933Y80519D02*
X30823D01*
X21933D02*
Y90743D01*
X30823D01*
X68219Y1837D02*
X88659D01*
X68219Y2237D02*
X88659D01*
X83953Y-613D02*
X84154Y-1363D01*
X84355Y-613D01*
X83953D02*
X84355D01*
X80143D02*
X80344Y-1363D01*
X80545Y-613D01*
X80143D02*
X80545D01*
X76333D02*
X76534Y-1363D01*
X76735Y-613D01*
X76333D02*
X76735D01*
X72523D02*
X72724Y-1363D01*
X72925Y-613D01*
X72523D02*
X72925D01*
X68219Y7837D02*
X88659D01*
Y-1363D02*
Y7837D01*
X68219Y-1363D02*
X88659Y-1363D01*
X68219Y-1363D02*
Y7837D01*
X29220Y65186D02*
X39520D01*
Y71786D01*
X29220D02*
X39520D01*
X29220Y65186D02*
Y67851D01*
Y69121D02*
Y71786D01*
X41285Y38897D02*
X51585D01*
Y45497D01*
X41285D02*
X51585D01*
X41285Y38897D02*
Y41562D01*
Y42832D02*
Y45497D01*
Y65313D02*
X51585D01*
Y71913D01*
X41285D02*
X51585D01*
X41285Y65313D02*
Y67978D01*
Y69248D02*
Y71913D01*
X41412Y52105D02*
X51712D01*
Y58705D01*
X41412D02*
X51712D01*
X41412Y52105D02*
Y54770D01*
Y56040D02*
Y58705D01*
X47264Y1837D02*
X67704D01*
X47264Y2237D02*
X67704D01*
X62998Y-613D02*
X63199Y-1363D01*
X63400Y-613D01*
X62998D02*
X63400D01*
X59188D02*
X59389Y-1363D01*
X59590Y-613D01*
X59188D02*
X59590D01*
X55378D02*
X55579Y-1363D01*
X55780Y-613D01*
X55378D02*
X55780D01*
X51568D02*
X51769Y-1363D01*
X51970Y-613D01*
X51568D02*
X51970D01*
X47264Y7837D02*
X67704D01*
Y-1363D02*
Y7837D01*
X47264Y-1363D02*
X67704Y-1363D01*
X47264Y-1363D02*
Y7837D01*
X26309Y1837D02*
X46749D01*
X26309Y2237D02*
X46749D01*
X42043Y-613D02*
X42244Y-1363D01*
X42445Y-613D01*
X42043D02*
X42445D01*
X38233D02*
X38434Y-1363D01*
X38635Y-613D01*
X38233D02*
X38635D01*
X34423D02*
X34624Y-1363D01*
X34825Y-613D01*
X34423D02*
X34825D01*
X30613D02*
X30814Y-1363D01*
X31015Y-613D01*
X30613D02*
X31015D01*
X26309Y7837D02*
X46749D01*
Y-1363D02*
Y7837D01*
X26309Y-1363D02*
X46749Y-1363D01*
X26309Y-1363D02*
Y7837D01*
X5354Y1837D02*
X25794D01*
X5354Y2237D02*
X25794D01*
X21088Y-613D02*
X21289Y-1363D01*
X21490Y-613D01*
X21088D02*
X21490D01*
X17278D02*
X17479Y-1363D01*
X17680Y-613D01*
X17278D02*
X17680D01*
X13468D02*
X13669Y-1363D01*
X13870Y-613D01*
X13468D02*
X13870D01*
X9658D02*
X9859Y-1363D01*
X10060Y-613D01*
X9658D02*
X10060D01*
X5354Y7837D02*
X25794D01*
Y-1363D02*
Y7837D01*
X5354Y-1363D02*
X25794Y-1363D01*
X5354Y-1363D02*
Y7837D01*
M02*
