%FSLAX43Y43*%
%MOMM*%
G71*
G01*
G75*
G04 Layer_Color=2752767*
%ADD10R,2.950X1.050*%
%ADD11R,9.000X10.600*%
%ADD12R,3.000X2.800*%
%ADD13R,1.050X1.400*%
%ADD14R,0.950X1.400*%
%ADD15O,0.350X2.100*%
%ADD16R,1.016X1.270*%
%ADD17R,1.270X1.016*%
%ADD18R,1.400X0.950*%
%ADD19R,1.550X0.600*%
%ADD20O,1.800X0.300*%
%ADD21O,0.300X1.800*%
%ADD22R,6.096X1.200*%
%ADD23O,2.200X0.600*%
%ADD24R,0.600X1.550*%
%ADD25R,2.200X1.800*%
%ADD26R,1.300X0.600*%
%ADD27R,4.100X1.520*%
%ADD28R,0.610X2.032*%
%ADD29O,0.610X2.032*%
%ADD30C,0.300*%
%ADD31C,0.250*%
%ADD32C,0.500*%
%ADD33C,0.400*%
%ADD34C,0.254*%
%ADD35C,1.000*%
%ADD36C,2.000*%
%ADD37C,3.000*%
%ADD38C,0.800*%
%ADD39C,0.127*%
%ADD40C,1.900*%
%ADD41C,1.500*%
%ADD42C,1.500*%
%ADD43R,1.500X1.500*%
G04:AMPARAMS|DCode=44|XSize=1.778mm|YSize=2.54mm|CornerRadius=0.445mm|HoleSize=0mm|Usage=FLASHONLY|Rotation=180.000|XOffset=0mm|YOffset=0mm|HoleType=Round|Shape=RoundedRectangle|*
%AMROUNDEDRECTD44*
21,1,1.778,1.651,0,0,180.0*
21,1,0.889,2.540,0,0,180.0*
1,1,0.889,-0.445,0.826*
1,1,0.889,0.445,0.826*
1,1,0.889,0.445,-0.826*
1,1,0.889,-0.445,-0.826*
%
%ADD44ROUNDEDRECTD44*%
%ADD45C,2.300*%
%ADD46C,2.032*%
%ADD47R,1.524X1.524*%
%ADD48C,2.100*%
%ADD49R,1.500X1.500*%
%ADD50R,2.000X2.000*%
%ADD51C,2.000*%
%ADD52R,1.500X1.500*%
%ADD53C,2.200*%
%ADD54C,1.524*%
%ADD55C,1.600*%
%ADD56R,1.600X1.600*%
%ADD57C,1.700*%
%ADD58C,1.270*%
%ADD59C,1.000*%
%ADD60C,1.500*%
%ADD61C,0.200*%
%ADD62C,0.600*%
%ADD63C,0.178*%
%ADD64C,0.203*%
%ADD65C,0.152*%
%ADD66C,0.150*%
%ADD67R,0.965X2.134*%
%ADD68R,3.153X1.253*%
%ADD69R,9.203X10.803*%
%ADD70R,3.203X3.003*%
%ADD71R,1.253X1.603*%
%ADD72R,1.153X1.603*%
%ADD73O,0.553X2.303*%
%ADD74R,1.219X1.473*%
%ADD75R,1.473X1.219*%
%ADD76R,1.603X1.153*%
%ADD77R,1.753X0.803*%
%ADD78O,2.003X0.503*%
%ADD79O,0.503X2.003*%
%ADD80R,6.299X1.403*%
%ADD81O,2.403X0.803*%
%ADD82R,0.803X1.753*%
%ADD83R,2.403X2.003*%
%ADD84R,1.503X0.803*%
%ADD85R,4.303X1.723*%
%ADD86R,0.813X2.235*%
%ADD87O,0.813X2.235*%
%ADD88C,2.103*%
%ADD89C,1.703*%
%ADD90C,1.703*%
%ADD91R,1.703X1.703*%
G04:AMPARAMS|DCode=92|XSize=1.981mm|YSize=2.743mm|CornerRadius=0.546mm|HoleSize=0mm|Usage=FLASHONLY|Rotation=180.000|XOffset=0mm|YOffset=0mm|HoleType=Round|Shape=RoundedRectangle|*
%AMROUNDEDRECTD92*
21,1,1.981,1.651,0,0,180.0*
21,1,0.889,2.743,0,0,180.0*
1,1,1.092,-0.445,0.826*
1,1,1.092,0.445,0.826*
1,1,1.092,0.445,-0.826*
1,1,1.092,-0.445,-0.826*
%
%ADD92ROUNDEDRECTD92*%
%ADD93C,2.503*%
%ADD94C,2.235*%
%ADD95R,1.727X1.727*%
%ADD96C,2.303*%
%ADD97R,1.703X1.703*%
%ADD98R,2.203X2.203*%
%ADD99C,2.203*%
%ADD100R,1.703X1.703*%
%ADD101C,2.403*%
%ADD102C,1.803*%
%ADD103R,1.803X1.803*%
%ADD104C,1.903*%
%ADD105C,1.473*%
%ADD106C,1.203*%
%ADD107C,0.100*%
%ADD108C,0.050*%
%ADD109C,0.169*%
%ADD110C,0.102*%
D39*
X22686Y6129D02*
Y7145D01*
X23702D01*
Y6129D01*
X22686D01*
X18876D02*
Y7145D01*
X19892D01*
Y6129D01*
X18876D01*
X15066D02*
Y7145D01*
X16082D01*
Y6129D01*
X15066D01*
X11256D02*
Y7145D01*
X12272D01*
Y6129D01*
X11256D01*
X7446D02*
Y7145D01*
X8462D01*
Y6129D01*
X7446D01*
X43641D02*
Y7145D01*
X44657D01*
Y6129D01*
X43641D01*
X39831D02*
Y7145D01*
X40847D01*
Y6129D01*
X39831D01*
X36021D02*
Y7145D01*
X37037D01*
Y6129D01*
X36021D01*
X32211D02*
Y7145D01*
X33227D01*
Y6129D01*
X32211D01*
X28401D02*
Y7145D01*
X29417D01*
Y6129D01*
X28401D01*
X64596D02*
Y7145D01*
X65612D01*
Y6129D01*
X64596D01*
X60786D02*
Y7145D01*
X61802D01*
Y6129D01*
X60786D01*
X56976D02*
Y7145D01*
X57992D01*
Y6129D01*
X56976D01*
X53166D02*
Y7145D01*
X54182D01*
Y6129D01*
X53166D01*
X49356D02*
Y7145D01*
X50372D01*
Y6129D01*
X49356D01*
X59770Y11971D02*
X59262Y12987D01*
X60278D01*
X59770Y11971D01*
X54690D02*
X54182Y12987D01*
X55198D01*
X54690Y11971D01*
X57230D02*
X56722Y12987D01*
X57738D01*
X57230Y11971D01*
X59770Y20226D02*
X59262Y21242D01*
X60278D01*
X59770Y20226D01*
X54690D02*
X54182Y21242D01*
X55198D01*
X54690Y20226D01*
X57230D02*
X56722Y21242D01*
X57738D01*
X57230Y20226D01*
X59770Y28735D02*
X59262Y29751D01*
X60278D01*
X59770Y28735D01*
X54690D02*
X54182Y29751D01*
X55198D01*
X54690Y28735D01*
X57230D02*
X56722Y29751D01*
X57738D01*
X57230Y28735D01*
X59770Y37244D02*
X59262Y38260D01*
X60278D01*
X59770Y37244D01*
X54690D02*
X54182Y38260D01*
X55198D01*
X54690Y37244D01*
X57230D02*
X56722Y38260D01*
X57738D01*
X57230Y37244D01*
X80090Y13241D02*
X79582Y14257D01*
X80598D01*
X80090Y13241D01*
X75010D02*
X74502Y14257D01*
X75518D01*
X75010Y13241D01*
X77550D02*
X77042Y14257D01*
X78058D01*
X77550Y13241D01*
X80090Y21750D02*
X79582Y22766D01*
X80598D01*
X80090Y21750D01*
X75010D02*
X74502Y22766D01*
X75518D01*
X75010Y21750D01*
X77550D02*
X77042Y22766D01*
X78058D01*
X77550Y21750D01*
X80090Y30259D02*
X79582Y31275D01*
X80598D01*
X80090Y30259D01*
X75010D02*
X74502Y31275D01*
X75518D01*
X75010Y30259D01*
X77550D02*
X77042Y31275D01*
X78058D01*
X77550Y30259D01*
X80090Y39022D02*
X79582Y40038D01*
X80598D01*
X80090Y39022D01*
X75010D02*
X74502Y40038D01*
X75518D01*
X75010Y39022D01*
X77550D02*
X77042Y40038D01*
X78058D01*
X77550Y39022D01*
X85551Y6129D02*
Y7145D01*
X86567D01*
Y6129D01*
X85551D01*
X81741D02*
Y7145D01*
X82757D01*
Y6129D01*
X81741D01*
X77931D02*
Y7145D01*
X78947D01*
Y6129D01*
X77931D01*
X74121D02*
Y7145D01*
X75137D01*
Y6129D01*
X74121D01*
X70311D02*
Y7145D01*
X71327D01*
Y6129D01*
X70311D01*
X41990Y94775D02*
X42244Y95029D01*
X42498D01*
X42244Y95283D01*
X42498Y95537D01*
X42244D01*
X41990Y95791D01*
X41736Y95537D01*
X41482D01*
X41736Y95283D01*
X41482Y95029D01*
X41736D01*
X41990Y94775D01*
X21670D02*
X21924Y95029D01*
X22178D01*
X21924Y95283D01*
X22178Y95537D01*
X21924D01*
X21670Y95791D01*
X21416Y95537D01*
X21162D01*
X21416Y95283D01*
X21162Y95029D01*
X21416D01*
X21670Y94775D01*
X57230Y23401D02*
X56722Y24417D01*
X57738D01*
X57230Y23401D01*
X67390Y23401D02*
X66882Y24417D01*
X67898D01*
X67390Y23401D01*
X97362Y8161D02*
X97616Y8669D01*
X97362Y9177D01*
X97870Y8923D01*
X98378Y9177D01*
X98124Y8669D01*
X98378Y8161D01*
X97870Y8415D01*
X97362Y8161D01*
X92282D02*
X92536Y8669D01*
X92282Y9177D01*
X92790Y8923D01*
X93298Y9177D01*
X93044Y8669D01*
X93298Y8161D01*
X92790Y8415D01*
X92282Y8161D01*
X57230Y40419D02*
X56722Y41435D01*
X57738D01*
X57230Y40419D01*
X67390Y40419D02*
X66882Y41435D01*
X67898D01*
X67390Y40419D01*
X77550Y16543D02*
X77042Y17559D01*
X78058D01*
X77550Y16543D01*
X67390Y16543D02*
X66882Y17559D01*
X67898D01*
X67390Y16543D01*
X77550Y24925D02*
X77042Y25941D01*
X78058D01*
X77550Y24925D01*
X67390Y24925D02*
X66882Y25941D01*
X67898D01*
X67390Y24925D01*
X110062Y8161D02*
X110316Y8669D01*
X110062Y9177D01*
X110570Y8923D01*
X111078Y9177D01*
X110824Y8669D01*
X111078Y8161D01*
X110570Y8415D01*
X110062Y8161D01*
X104982D02*
X105236Y8669D01*
X104982Y9177D01*
X105490Y8923D01*
X105998Y9177D01*
X105744Y8669D01*
X105998Y8161D01*
X105490Y8415D01*
X104982Y8161D01*
X77550Y33307D02*
X77042Y34323D01*
X78058D01*
X77550Y33307D01*
X67390Y33307D02*
X66882Y34323D01*
X67898D01*
X67390Y33307D01*
X77550Y42070D02*
X77042Y43086D01*
X78058D01*
X77550Y42070D01*
X67390Y42070D02*
X66882Y43086D01*
X67898D01*
X67390Y42070D01*
X117809Y43594D02*
Y43340D01*
X118317D01*
Y43594D01*
X118571D01*
Y44102D01*
X118317D01*
Y44356D01*
X117809D01*
Y44102D01*
X117555D01*
Y43594D01*
X117809D01*
Y41054D02*
Y40800D01*
X118317D01*
Y41054D01*
X118571D01*
Y41562D01*
X118317D01*
Y41816D01*
X117809D01*
Y41562D01*
X117555D01*
Y41054D01*
X117809D01*
X123143Y45753D02*
Y45499D01*
X123651D01*
Y45753D01*
X123905D01*
Y46261D01*
X123651D01*
Y46515D01*
X123143D01*
Y46261D01*
X122889D01*
Y45753D01*
X123143D01*
Y43213D02*
Y42959D01*
X123651D01*
Y43213D01*
X123905D01*
Y43721D01*
X123651D01*
Y43975D01*
X123143D01*
Y43721D01*
X122889D01*
Y43213D01*
X123143D01*
X129112Y40292D02*
Y41308D01*
X130128D01*
Y40292D01*
X129112D01*
X131652D02*
Y41308D01*
X132668D01*
Y40292D01*
X131652D01*
X134192D02*
Y41308D01*
X135208D01*
Y40292D01*
X134192D01*
X66374Y75090D02*
Y74836D01*
X66882D01*
Y75090D01*
X67136D01*
Y75598D01*
X66882D01*
Y75852D01*
X66374D01*
Y75598D01*
X66120D01*
Y75090D01*
X66374D01*
X68914D02*
Y74836D01*
X69422D01*
Y75090D01*
X69676D01*
Y75598D01*
X69422D01*
Y75852D01*
X68914D01*
Y75598D01*
X68660D01*
Y75090D01*
X68914D01*
X61294D02*
Y74836D01*
X61802D01*
Y75090D01*
X62056D01*
Y75598D01*
X61802D01*
Y75852D01*
X61294D01*
Y75598D01*
X61040D01*
Y75090D01*
X61294D01*
X63834D02*
Y74836D01*
X64342D01*
Y75090D01*
X64596D01*
Y75598D01*
X64342D01*
Y75852D01*
X63834D01*
Y75598D01*
X63580D01*
Y75090D01*
X63834D01*
X71327D02*
Y74836D01*
X71835D01*
Y75090D01*
X72089D01*
Y75598D01*
X71835D01*
Y75852D01*
X71327D01*
Y75598D01*
X71073D01*
Y75090D01*
X71327D01*
X73867D02*
Y74836D01*
X74375D01*
Y75090D01*
X74629D01*
Y75598D01*
X74375D01*
Y75852D01*
X73867D01*
Y75598D01*
X73613D01*
Y75090D01*
X73867D01*
X56341D02*
Y74836D01*
X56849D01*
Y75090D01*
X57103D01*
Y75598D01*
X56849D01*
Y75852D01*
X56341D01*
Y75598D01*
X56087D01*
Y75090D01*
X56341D01*
X58881D02*
Y74836D01*
X59389D01*
Y75090D01*
X59643D01*
Y75598D01*
X59389D01*
Y75852D01*
X58881D01*
Y75598D01*
X58627D01*
Y75090D01*
X58881D01*
X113714Y37377D02*
X113968D01*
X114222Y37631D01*
X114476Y37377D01*
X114730D01*
Y37631D01*
X114476Y37885D01*
X114730Y38139D01*
Y38393D01*
X114476D01*
X114222Y38139D01*
X113968Y38393D01*
X113714D01*
Y38139D01*
X113968Y37885D01*
X113714Y37631D01*
Y37377D01*
Y16877D02*
X113968D01*
X114222Y17131D01*
X114476Y16877D01*
X114730D01*
Y17131D01*
X114476Y17385D01*
X114730Y17639D01*
Y17893D01*
X114476D01*
X114222Y17639D01*
X113968Y17893D01*
X113714D01*
Y17639D01*
X113968Y17385D01*
X113714Y17131D01*
Y16877D01*
X2492Y3000D02*
X3000Y3508D01*
X3508Y3000D01*
X3000Y2492D01*
X2492Y3000D01*
X141492D02*
X142000Y3508D01*
X142508Y3000D01*
X142000Y2492D01*
X141492Y3000D01*
X2492Y97000D02*
X3000Y97508D01*
X3508Y97000D01*
X3000Y96492D01*
X2492Y97000D01*
X141492D02*
X142000Y97508D01*
X142508Y97000D01*
X142000Y96492D01*
X141492Y97000D01*
X62611D02*
X63119Y97508D01*
X63627Y97000D01*
X63119Y96492D01*
X62611Y97000D01*
X9097Y90838D02*
X9351Y91346D01*
X9097Y91854D01*
X9605Y91600D01*
X10113Y91854D01*
X9859Y91346D01*
X10113Y90838D01*
X9605Y91092D01*
X9097Y90838D01*
X14177D02*
X14431Y91346D01*
X14177Y91854D01*
X14685Y91600D01*
X15193Y91854D01*
X14939Y91346D01*
X15193Y90838D01*
X14685Y91092D01*
X14177Y90838D01*
X73740D02*
X73994Y91346D01*
X73740Y91854D01*
X74248Y91600D01*
X74756Y91854D01*
X74502Y91346D01*
X74756Y90838D01*
X74248Y91092D01*
X73740Y90838D01*
X78820D02*
X79074Y91346D01*
X78820Y91854D01*
X79328Y91600D01*
X79836Y91854D01*
X79582Y91346D01*
X79836Y90838D01*
X79328Y91092D01*
X78820Y90838D01*
X68660D02*
X68914Y91346D01*
X68660Y91854D01*
X69168Y91600D01*
X69676Y91854D01*
X69422Y91346D01*
X69676Y90838D01*
X69168Y91092D01*
X68660Y90838D01*
X87075D02*
X87329Y91346D01*
X87075Y91854D01*
X87583Y91600D01*
X88091Y91854D01*
X87837Y91346D01*
X88091Y90838D01*
X87583Y91092D01*
X87075Y90838D01*
X92155D02*
X92409Y91346D01*
X92155Y91854D01*
X92663Y91600D01*
X93171Y91854D01*
X92917Y91346D01*
X93171Y90838D01*
X92663Y91092D01*
X92155Y90838D01*
X101172D02*
X101426Y91346D01*
X101172Y91854D01*
X101680Y91600D01*
X102188Y91854D01*
X101934Y91346D01*
X102188Y90838D01*
X101680Y91092D01*
X101172Y90838D01*
X106252D02*
X106506Y91346D01*
X106252Y91854D01*
X106760Y91600D01*
X107268Y91854D01*
X107014Y91346D01*
X107268Y90838D01*
X106760Y91092D01*
X106252Y90838D01*
X116412D02*
X116666Y91346D01*
X116412Y91854D01*
X116920Y91600D01*
X117428Y91854D01*
X117174Y91346D01*
X117428Y90838D01*
X116920Y91092D01*
X116412Y90838D01*
X111332D02*
X111586Y91346D01*
X111332Y91854D01*
X111840Y91600D01*
X112348Y91854D01*
X112094Y91346D01*
X112348Y90838D01*
X111840Y91092D01*
X111332Y90838D01*
X129747D02*
X130001Y91346D01*
X129747Y91854D01*
X130255Y91600D01*
X130763Y91854D01*
X130509Y91346D01*
X130763Y90838D01*
X130255Y91092D01*
X129747Y90838D01*
X134827D02*
X135081Y91346D01*
X134827Y91854D01*
X135335Y91600D01*
X135843Y91854D01*
X135589Y91346D01*
X135843Y90838D01*
X135335Y91092D01*
X134827Y90838D01*
X124667D02*
X124921Y91346D01*
X124667Y91854D01*
X125175Y91600D01*
X125683Y91854D01*
X125429Y91346D01*
X125683Y90838D01*
X125175Y91092D01*
X124667Y90838D01*
X7319Y33561D02*
Y34577D01*
X8335D01*
Y33561D01*
X7319D01*
X7522Y33764D02*
Y34374D01*
X8132D01*
Y33764D01*
X7522D01*
X7319Y10701D02*
Y11717D01*
X8335D01*
Y10701D01*
X7319D01*
X7522Y10904D02*
Y11514D01*
X8132D01*
Y10904D01*
X7522D01*
X13161Y33561D02*
Y34577D01*
X14177D01*
Y33561D01*
X13161D01*
X13364Y33764D02*
Y34374D01*
X13974D01*
Y33764D01*
X13364D01*
X13161Y10701D02*
Y11717D01*
X14177D01*
Y10701D01*
X13161D01*
X13364Y10904D02*
Y11514D01*
X13974D01*
Y10904D01*
X13364D01*
X19003Y33561D02*
Y34577D01*
X20019D01*
Y33561D01*
X19003D01*
X19206Y33764D02*
Y34374D01*
X19816D01*
Y33764D01*
X19206D01*
X19003Y10701D02*
Y11717D01*
X20019D01*
Y10701D01*
X19003D01*
X19206Y10904D02*
Y11514D01*
X19816D01*
Y10904D01*
X19206D01*
X24718Y33561D02*
Y34577D01*
X25734D01*
Y33561D01*
X24718D01*
X24921Y33764D02*
Y34374D01*
X25531D01*
Y33764D01*
X24921D01*
X24718Y10701D02*
Y11717D01*
X25734D01*
Y10701D01*
X24718D01*
X24921Y10904D02*
Y11514D01*
X25531D01*
Y10904D01*
X24921D01*
X30560Y33561D02*
Y34577D01*
X31576D01*
Y33561D01*
X30560D01*
X30763Y33764D02*
Y34374D01*
X31373D01*
Y33764D01*
X30763D01*
X30560Y10701D02*
Y11717D01*
X31576D01*
Y10701D01*
X30560D01*
X30763Y10904D02*
Y11514D01*
X31373D01*
Y10904D01*
X30763D01*
X36402Y33561D02*
Y34577D01*
X37418D01*
Y33561D01*
X36402D01*
X36605Y33764D02*
Y34374D01*
X37215D01*
Y33764D01*
X36605D01*
X36402Y10701D02*
Y11717D01*
X37418D01*
Y10701D01*
X36402D01*
X36605Y10904D02*
Y11514D01*
X37215D01*
Y10904D01*
X36605D01*
X42117Y33561D02*
Y34577D01*
X43133D01*
Y33561D01*
X42117D01*
X42320Y33764D02*
Y34374D01*
X42930D01*
Y33764D01*
X42320D01*
X42117Y10701D02*
Y11717D01*
X43133D01*
Y10701D01*
X42117D01*
X42320Y10904D02*
Y11514D01*
X42930D01*
Y10904D01*
X42320D01*
X47959Y33561D02*
Y34577D01*
X48975D01*
Y33561D01*
X47959D01*
X48162Y33764D02*
Y34374D01*
X48772D01*
Y33764D01*
X48162D01*
X47959Y10701D02*
Y11717D01*
X48975D01*
Y10701D01*
X47959D01*
X48162Y10904D02*
Y11514D01*
X48772D01*
Y10904D01*
X48162D01*
X57230Y15019D02*
X56722Y16035D01*
X57738D01*
X57230Y15019D01*
X67390Y15019D02*
X66882Y16035D01*
X67898D01*
X67390Y15019D01*
X57230Y31783D02*
X56722Y32799D01*
X57738D01*
X57230Y31783D01*
X67390Y31783D02*
X66882Y32799D01*
X67898D01*
X67390Y31783D01*
X122762Y8161D02*
X123016Y8669D01*
X122762Y9177D01*
X123270Y8923D01*
X123778Y9177D01*
X123524Y8669D01*
X123778Y8161D01*
X123270Y8415D01*
X122762Y8161D01*
X117682D02*
X117936Y8669D01*
X117682Y9177D01*
X118190Y8923D01*
X118698Y9177D01*
X118444Y8669D01*
X118698Y8161D01*
X118190Y8415D01*
X117682Y8161D01*
X135462D02*
X135716Y8669D01*
X135462Y9177D01*
X135970Y8923D01*
X136478Y9177D01*
X136224Y8669D01*
X136478Y8161D01*
X135970Y8415D01*
X135462Y8161D01*
X130382D02*
X130636Y8669D01*
X130382Y9177D01*
X130890Y8923D01*
X131398Y9177D01*
X131144Y8669D01*
X131398Y8161D01*
X130890Y8415D01*
X130382Y8161D01*
X113237Y69248D02*
Y70264D01*
X114253D01*
Y69248D01*
X113237D01*
Y66708D02*
Y67724D01*
X114253D01*
Y66708D01*
X113237D01*
Y64168D02*
Y65184D01*
X114253D01*
Y64168D01*
X113237D01*
Y61628D02*
Y62644D01*
X114253D01*
Y61628D01*
X113237D01*
Y59088D02*
Y60104D01*
X114253D01*
Y59088D01*
X113237D01*
Y56548D02*
Y57564D01*
X114253D01*
Y56548D01*
X113237D01*
X65485Y36355D02*
X64977Y37371D01*
X65993D01*
X65485Y36355D01*
Y36558D02*
X65180Y37168D01*
X65790D01*
X65485Y36558D01*
Y27846D02*
X64977Y28862D01*
X65993D01*
X65485Y27846D01*
Y28049D02*
X65180Y28659D01*
X65790D01*
X65485Y28049D01*
Y19400D02*
X64977Y20417D01*
X65993D01*
X65485Y19400D01*
Y19604D02*
X65180Y20213D01*
X65790D01*
X65485Y19604D01*
Y11082D02*
X64977Y12098D01*
X65993D01*
X65485Y11082D01*
Y11285D02*
X65180Y11895D01*
X65790D01*
X65485Y11285D01*
X85932Y12415D02*
X85424Y13432D01*
X86440D01*
X85932Y12415D01*
Y12619D02*
X85627Y13228D01*
X86237D01*
X85932Y12619D01*
Y20988D02*
X85424Y22004D01*
X86440D01*
X85932Y20988D01*
Y21191D02*
X85627Y21801D01*
X86237D01*
X85932Y21191D01*
Y29497D02*
X85424Y30513D01*
X86440D01*
X85932Y29497D01*
Y29700D02*
X85627Y30310D01*
X86237D01*
X85932Y29700D01*
X85924Y38133D02*
X85415Y39149D01*
X86432D01*
X85924Y38133D01*
Y38336D02*
X85619Y38946D01*
X86228D01*
X85924Y38336D01*
X98124Y33942D02*
X97616Y34958D01*
X98632D01*
X98124Y33942D01*
Y34145D02*
X97819Y34755D01*
X98429D01*
X98124Y34145D01*
D109*
X50880Y59215D02*
G03*
X50880Y59215I-508J0D01*
G01*
X48340D02*
G03*
X48340Y59215I-508J0D01*
G01*
X45800D02*
G03*
X45800Y59215I-508J0D01*
G01*
X43260D02*
G03*
X43260Y59215I-508J0D01*
G01*
X50880Y51595D02*
G03*
X50880Y51595I-508J0D01*
G01*
X48340D02*
G03*
X48340Y51595I-508J0D01*
G01*
X45800D02*
G03*
X45800Y51595I-508J0D01*
G01*
X43260D02*
G03*
X43260Y51595I-508J0D01*
G01*
X50753Y72423D02*
G03*
X50753Y72423I-508J0D01*
G01*
X48213D02*
G03*
X48213Y72423I-508J0D01*
G01*
X45673D02*
G03*
X45673Y72423I-508J0D01*
G01*
X43133D02*
G03*
X43133Y72423I-508J0D01*
G01*
X50753Y64803D02*
G03*
X50753Y64803I-508J0D01*
G01*
X48213D02*
G03*
X48213Y64803I-508J0D01*
G01*
X45673D02*
G03*
X45673Y64803I-508J0D01*
G01*
X43133D02*
G03*
X43133Y64803I-508J0D01*
G01*
X50753Y46007D02*
G03*
X50753Y46007I-508J0D01*
G01*
X48213D02*
G03*
X48213Y46007I-508J0D01*
G01*
X45673D02*
G03*
X45673Y46007I-508J0D01*
G01*
X43133D02*
G03*
X43133Y46007I-508J0D01*
G01*
X50753Y38387D02*
G03*
X50753Y38387I-508J0D01*
G01*
X48213D02*
G03*
X48213Y38387I-508J0D01*
G01*
X45673D02*
G03*
X45673Y38387I-508J0D01*
G01*
X43133D02*
G03*
X43133Y38387I-508J0D01*
G01*
X38688Y72296D02*
G03*
X38688Y72296I-508J0D01*
G01*
X36148D02*
G03*
X36148Y72296I-508J0D01*
G01*
X33608D02*
G03*
X33608Y72296I-508J0D01*
G01*
X31068D02*
G03*
X31068Y72296I-508J0D01*
G01*
X38688Y64676D02*
G03*
X38688Y64676I-508J0D01*
G01*
X36148D02*
G03*
X36148Y64676I-508J0D01*
G01*
X33608D02*
G03*
X33608Y64676I-508J0D01*
G01*
X31068D02*
G03*
X31068Y64676I-508J0D01*
G01*
X94568Y83472D02*
G03*
X94568Y83472I-508J0D01*
G01*
X92028D02*
G03*
X92028Y83472I-508J0D01*
G01*
X89488D02*
G03*
X89488Y83472I-508J0D01*
G01*
X86948D02*
G03*
X86948Y83472I-508J0D01*
G01*
X94568Y75852D02*
G03*
X94568Y75852I-508J0D01*
G01*
X92028D02*
G03*
X92028Y75852I-508J0D01*
G01*
X89488D02*
G03*
X89488Y75852I-508J0D01*
G01*
X86948D02*
G03*
X86948Y75852I-508J0D01*
G01*
X59643Y79281D02*
G03*
X59643Y79281I-508J0D01*
G01*
X62183D02*
G03*
X62183Y79281I-508J0D01*
G01*
X64723D02*
G03*
X64723Y79281I-508J0D01*
G01*
X67263D02*
G03*
X67263Y79281I-508J0D01*
G01*
X69803D02*
G03*
X69803Y79281I-508J0D01*
G01*
X72343D02*
G03*
X72343Y79281I-508J0D01*
G01*
X74883D02*
G03*
X74883Y79281I-508J0D01*
G01*
X77423D02*
G03*
X77423Y79281I-508J0D01*
G01*
X59643Y86901D02*
G03*
X59643Y86901I-508J0D01*
G01*
X62183D02*
G03*
X62183Y86901I-508J0D01*
G01*
X64723D02*
G03*
X64723Y86901I-508J0D01*
G01*
X67263D02*
G03*
X67263Y86901I-508J0D01*
G01*
X69803D02*
G03*
X69803Y86901I-508J0D01*
G01*
X72343D02*
G03*
X72343Y86901I-508J0D01*
G01*
X74883D02*
G03*
X74883Y86901I-508J0D01*
G01*
X77423D02*
G03*
X77423Y86901I-508J0D01*
G01*
X111586Y83218D02*
G03*
X111586Y83218I-508J0D01*
G01*
X109046D02*
G03*
X109046Y83218I-508J0D01*
G01*
X106506D02*
G03*
X106506Y83218I-508J0D01*
G01*
X103966D02*
G03*
X103966Y83218I-508J0D01*
G01*
X111586Y75598D02*
G03*
X111586Y75598I-508J0D01*
G01*
X109046D02*
G03*
X109046Y75598I-508J0D01*
G01*
X106506D02*
G03*
X106506Y75598I-508J0D01*
G01*
X103966D02*
G03*
X103966Y75598I-508J0D01*
G01*
X15153Y82202D02*
G03*
X15153Y82202I-508J0D01*
G01*
X10153D02*
G03*
X10153Y82202I-508J0D01*
G01*
X45586Y83345D02*
G03*
X45586Y83345I-508J0D01*
G01*
X50586D02*
G03*
X50586Y83345I-508J0D01*
G01*
X64596Y70899D02*
G03*
X64596Y70899I-508J0D01*
G01*
X62056D02*
G03*
X62056Y70899I-508J0D01*
G01*
X59516D02*
G03*
X59516Y70899I-508J0D01*
G01*
X56976D02*
G03*
X56976Y70899I-508J0D01*
G01*
X64596Y63279D02*
G03*
X64596Y63279I-508J0D01*
G01*
X62056D02*
G03*
X62056Y63279I-508J0D01*
G01*
X59516D02*
G03*
X59516Y63279I-508J0D01*
G01*
X56976D02*
G03*
X56976Y63279I-508J0D01*
G01*
X77042Y71026D02*
G03*
X77042Y71026I-508J0D01*
G01*
X74502D02*
G03*
X74502Y71026I-508J0D01*
G01*
X71962D02*
G03*
X71962Y71026I-508J0D01*
G01*
X69422D02*
G03*
X69422Y71026I-508J0D01*
G01*
X77042Y63406D02*
G03*
X77042Y63406I-508J0D01*
G01*
X74502D02*
G03*
X74502Y63406I-508J0D01*
G01*
X71962D02*
G03*
X71962Y63406I-508J0D01*
G01*
X69422D02*
G03*
X69422Y63406I-508J0D01*
G01*
X76915Y58961D02*
G03*
X76915Y58961I-508J0D01*
G01*
X74375D02*
G03*
X74375Y58961I-508J0D01*
G01*
X71835D02*
G03*
X71835Y58961I-508J0D01*
G01*
X69295D02*
G03*
X69295Y58961I-508J0D01*
G01*
X76915Y51341D02*
G03*
X76915Y51341I-508J0D01*
G01*
X74375D02*
G03*
X74375Y51341I-508J0D01*
G01*
X71835D02*
G03*
X71835Y51341I-508J0D01*
G01*
X69295D02*
G03*
X69295Y51341I-508J0D01*
G01*
X64723Y58961D02*
G03*
X64723Y58961I-508J0D01*
G01*
X62183D02*
G03*
X62183Y58961I-508J0D01*
G01*
X59643D02*
G03*
X59643Y58961I-508J0D01*
G01*
X57103D02*
G03*
X57103Y58961I-508J0D01*
G01*
X64723Y51341D02*
G03*
X64723Y51341I-508J0D01*
G01*
X62183D02*
G03*
X62183Y51341I-508J0D01*
G01*
X59643D02*
G03*
X59643Y51341I-508J0D01*
G01*
X57103D02*
G03*
X57103Y51341I-508J0D01*
G01*
X13034Y72296D02*
G03*
X13034Y72296I-508J0D01*
G01*
X10494D02*
G03*
X10494Y72296I-508J0D01*
G01*
X7954D02*
G03*
X7954Y72296I-508J0D01*
G01*
X5414D02*
G03*
X5414Y72296I-508J0D01*
G01*
X13034Y64676D02*
G03*
X13034Y64676I-508J0D01*
G01*
X10494D02*
G03*
X10494Y64676I-508J0D01*
G01*
X7954D02*
G03*
X7954Y64676I-508J0D01*
G01*
X5414D02*
G03*
X5414Y64676I-508J0D01*
G01*
X26369Y72296D02*
G03*
X26369Y72296I-508J0D01*
G01*
X23829D02*
G03*
X23829Y72296I-508J0D01*
G01*
X21289D02*
G03*
X21289Y72296I-508J0D01*
G01*
X18749D02*
G03*
X18749Y72296I-508J0D01*
G01*
X26369Y64676D02*
G03*
X26369Y64676I-508J0D01*
G01*
X23829D02*
G03*
X23829Y64676I-508J0D01*
G01*
X21289D02*
G03*
X21289Y64676I-508J0D01*
G01*
X18749D02*
G03*
X18749Y64676I-508J0D01*
G01*
X13034Y59088D02*
G03*
X13034Y59088I-508J0D01*
G01*
X10494D02*
G03*
X10494Y59088I-508J0D01*
G01*
X7954D02*
G03*
X7954Y59088I-508J0D01*
G01*
X5414D02*
G03*
X5414Y59088I-508J0D01*
G01*
X13034Y51468D02*
G03*
X13034Y51468I-508J0D01*
G01*
X10494D02*
G03*
X10494Y51468I-508J0D01*
G01*
X7954D02*
G03*
X7954Y51468I-508J0D01*
G01*
X5414D02*
G03*
X5414Y51468I-508J0D01*
G01*
X26369Y59088D02*
G03*
X26369Y59088I-508J0D01*
G01*
X23829D02*
G03*
X23829Y59088I-508J0D01*
G01*
X21289D02*
G03*
X21289Y59088I-508J0D01*
G01*
X18749D02*
G03*
X18749Y59088I-508J0D01*
G01*
X26369Y51468D02*
G03*
X26369Y51468I-508J0D01*
G01*
X23829D02*
G03*
X23829Y51468I-508J0D01*
G01*
X21289D02*
G03*
X21289Y51468I-508J0D01*
G01*
X18749D02*
G03*
X18749Y51468I-508J0D01*
G01*
X38561Y59088D02*
G03*
X38561Y59088I-508J0D01*
G01*
X36021D02*
G03*
X36021Y59088I-508J0D01*
G01*
X33481D02*
G03*
X33481Y59088I-508J0D01*
G01*
X30941D02*
G03*
X30941Y59088I-508J0D01*
G01*
X38561Y51468D02*
G03*
X38561Y51468I-508J0D01*
G01*
X36021D02*
G03*
X36021Y51468I-508J0D01*
G01*
X33481D02*
G03*
X33481Y51468I-508J0D01*
G01*
X30941D02*
G03*
X30941Y51468I-508J0D01*
G01*
X38561Y46007D02*
G03*
X38561Y46007I-508J0D01*
G01*
X36021D02*
G03*
X36021Y46007I-508J0D01*
G01*
X33481D02*
G03*
X33481Y46007I-508J0D01*
G01*
X30941D02*
G03*
X30941Y46007I-508J0D01*
G01*
X38561Y38387D02*
G03*
X38561Y38387I-508J0D01*
G01*
X36021D02*
G03*
X36021Y38387I-508J0D01*
G01*
X33481D02*
G03*
X33481Y38387I-508J0D01*
G01*
X30941D02*
G03*
X30941Y38387I-508J0D01*
G01*
X13161Y46007D02*
G03*
X13161Y46007I-508J0D01*
G01*
X10621D02*
G03*
X10621Y46007I-508J0D01*
G01*
X8081D02*
G03*
X8081Y46007I-508J0D01*
G01*
X5541D02*
G03*
X5541Y46007I-508J0D01*
G01*
X13161Y38387D02*
G03*
X13161Y38387I-508J0D01*
G01*
X10621D02*
G03*
X10621Y38387I-508J0D01*
G01*
X8081D02*
G03*
X8081Y38387I-508J0D01*
G01*
X5541D02*
G03*
X5541Y38387I-508J0D01*
G01*
X26369Y46007D02*
G03*
X26369Y46007I-508J0D01*
G01*
X23829D02*
G03*
X23829Y46007I-508J0D01*
G01*
X21289D02*
G03*
X21289Y46007I-508J0D01*
G01*
X18749D02*
G03*
X18749Y46007I-508J0D01*
G01*
X26369Y38387D02*
G03*
X26369Y38387I-508J0D01*
G01*
X23829D02*
G03*
X23829Y38387I-508J0D01*
G01*
X21289D02*
G03*
X21289Y38387I-508J0D01*
G01*
X18749D02*
G03*
X18749Y38387I-508J0D01*
G01*
X100883Y43625D02*
G03*
X100883Y43625I-508J0D01*
G01*
X100711Y56007D02*
G03*
X100711Y56007I-508J0D01*
G01*
X97536Y51181D02*
G03*
X97536Y51181I-508J0D01*
G01*
X93218Y37592D02*
G03*
X93218Y37592I-508J0D01*
G01*
X63072Y15400D02*
G03*
X63072Y15400I-508J0D01*
G01*
Y23909D02*
G03*
X63072Y23909I-508J0D01*
G01*
Y32037D02*
G03*
X63072Y32037I-508J0D01*
G01*
Y40546D02*
G03*
X63072Y40546I-508J0D01*
G01*
X83519Y41943D02*
G03*
X83519Y41943I-508J0D01*
G01*
Y33434D02*
G03*
X83519Y33434I-508J0D01*
G01*
Y25306D02*
G03*
X83519Y25306I-508J0D01*
G01*
Y16797D02*
G03*
X83519Y16797I-508J0D01*
G01*
X53293Y51214D02*
G03*
X53293Y51214I-508J0D01*
G01*
X82630Y65311D02*
G03*
X82630Y65311I-508J0D01*
G01*
X84154Y64295D02*
G03*
X84154Y64295I-508J0D01*
G01*
X85424Y62644D02*
G03*
X85424Y62644I-508J0D01*
G01*
X86567Y60993D02*
G03*
X86567Y60993I-508J0D01*
G01*
X88726Y47277D02*
G03*
X88726Y47277I-508J0D01*
G01*
X87710Y48928D02*
G03*
X87710Y48928I-508J0D01*
G01*
X103839Y73185D02*
G03*
X103839Y73185I-508J0D01*
G01*
X102950Y54516D02*
G03*
X102950Y54516I-508J0D01*
G01*
X86440Y50833D02*
G03*
X86440Y50833I-508J0D01*
G01*
X85111Y52484D02*
G03*
X85111Y52484I-508J0D01*
G01*
X84281Y54135D02*
G03*
X84281Y54135I-508J0D01*
G01*
X82630Y55405D02*
G03*
X82630Y55405I-508J0D01*
G01*
X94822Y59469D02*
G03*
X94822Y59469I-508J0D01*
G01*
X96473Y58199D02*
G03*
X96473Y58199I-508J0D01*
G01*
X102442Y12987D02*
G03*
X102442Y12987I-508J0D01*
G01*
X102061Y25687D02*
G03*
X102061Y25687I-508J0D01*
G01*
X96600Y56167D02*
G03*
X96600Y56167I-508J0D01*
G01*
X132795Y51214D02*
G03*
X132795Y51214I-508J0D01*
G01*
X131525Y52357D02*
G03*
X131525Y52357I-508J0D01*
G01*
X81995Y87917D02*
G03*
X81995Y87917I-508J0D01*
G01*
X76915Y76995D02*
G03*
X76915Y76995I-508J0D01*
G01*
X79836Y74074D02*
G03*
X79836Y74074I-508J0D01*
G01*
X97743Y60485D02*
G03*
X97743Y60485I-508J0D01*
G01*
X100664D02*
G03*
X100664Y60485I-508J0D01*
G01*
X99521Y59215D02*
G03*
X99521Y59215I-508J0D01*
G01*
X94949Y34704D02*
G03*
X94949Y34704I-508J0D01*
G01*
X103204Y29370D02*
G03*
X103204Y29370I-508J0D01*
G01*
X45800Y31783D02*
G03*
X45800Y31783I-508J0D01*
G01*
X102696Y37625D02*
G03*
X102696Y37625I-508J0D01*
G01*
X53039Y41689D02*
G03*
X53039Y41689I-508J0D01*
G01*
X109427Y46515D02*
G03*
X109427Y46515I-508J0D01*
G01*
Y44102D02*
G03*
X109427Y44102I-508J0D01*
G01*
X85551Y68359D02*
G03*
X85551Y68359I-508J0D01*
G01*
X133303Y53500D02*
G03*
X133303Y53500I-508J0D01*
G01*
X115269Y77122D02*
G03*
X115269Y77122I-508J0D01*
G01*
X122889Y74836D02*
G03*
X122889Y74836I-508J0D01*
G01*
X131525Y28735D02*
G03*
X131525Y28735I-508J0D01*
G01*
X125048Y38006D02*
G03*
X125048Y38006I-508J0D01*
G01*
X127715Y33688D02*
G03*
X127715Y33688I-508J0D01*
G01*
X129018Y38133D02*
G03*
X129018Y38133I-508J0D01*
G01*
X132668Y30767D02*
G03*
X132668Y30767I-508J0D01*
G01*
X133303Y25814D02*
G03*
X133303Y25814I-508J0D01*
G01*
X139399Y35085D02*
G03*
X139399Y35085I-508J0D01*
G01*
X106633Y62390D02*
G03*
X106633Y62390I-508J0D01*
G01*
X123778Y49944D02*
G03*
X123778Y49944I-508J0D01*
G01*
X138637Y50325D02*
G03*
X138637Y50325I-508J0D01*
G01*
X117555Y48039D02*
G03*
X117555Y48039I-508J0D01*
G01*
X118698Y50706D02*
G03*
X118698Y50706I-508J0D01*
G01*
X140161Y65311D02*
G03*
X140161Y65311I-508J0D01*
G01*
X128350Y76360D02*
G03*
X128350Y76360I-508J0D01*
G01*
X123778Y58834D02*
G03*
X123778Y58834I-508J0D01*
G01*
X107268Y41689D02*
G03*
X107268Y41689I-508J0D01*
G01*
X122635Y22766D02*
G03*
X122635Y22766I-508J0D01*
G01*
X124286Y23909D02*
G03*
X124286Y23909I-508J0D01*
G01*
X101426Y45245D02*
G03*
X101426Y45245I-508J0D01*
G01*
X109681Y60612D02*
G03*
X109681Y60612I-508J0D01*
G01*
Y51976D02*
G03*
X109681Y51976I-508J0D01*
G01*
X118571Y52865D02*
G03*
X118571Y52865I-508J0D01*
G01*
X126445Y52357D02*
G03*
X126445Y52357I-508J0D01*
G01*
X83011Y72423D02*
G03*
X83011Y72423I-508J0D01*
G01*
X82630Y81948D02*
G03*
X82630Y81948I-508J0D01*
G01*
X38561Y62009D02*
G03*
X38561Y62009I-508J0D01*
G01*
X14939Y53500D02*
G03*
X14939Y53500I-508J0D01*
G01*
X13034Y62136D02*
G03*
X13034Y62136I-508J0D01*
G01*
X15320Y42451D02*
G03*
X15320Y42451I-508J0D01*
G01*
X101299Y52738D02*
G03*
X101299Y52738I-508J0D01*
G01*
X101934Y49817D02*
G03*
X101934Y49817I-508J0D01*
G01*
X103458Y50833D02*
G03*
X103458Y50833I-508J0D01*
G01*
X103585Y52738D02*
G03*
X103585Y52738I-508J0D01*
G01*
X15494Y72390D02*
G03*
X15494Y72390I-508J0D01*
G01*
X115189Y54356D02*
G03*
X115189Y54356I-508J0D01*
G01*
X89408Y52451D02*
G03*
X89408Y52451I-508J0D01*
G01*
X30861Y23495D02*
G03*
X30861Y23495I-508J0D01*
G01*
X25654Y19177D02*
G03*
X25654Y19177I-508J0D01*
G01*
X97536Y74803D02*
G03*
X97536Y74803I-508J0D01*
G01*
X122555Y81534D02*
G03*
X122555Y81534I-508J0D01*
G01*
X121539Y91313D02*
G03*
X121539Y91313I-508J0D01*
G01*
X129159Y67310D02*
G03*
X129159Y67310I-508J0D01*
G01*
X135636Y73025D02*
G03*
X135636Y73025I-508J0D01*
G01*
X55118Y16129D02*
G03*
X55118Y16129I-508J0D01*
G01*
X80645Y17526D02*
G03*
X80645Y17526I-508J0D01*
G01*
X80772Y25908D02*
G03*
X80772Y25908I-508J0D01*
G01*
Y34544D02*
G03*
X80772Y34544I-508J0D01*
G01*
X49022Y27051D02*
G03*
X49022Y27051I-508J0D01*
G01*
X60706Y33147D02*
G03*
X60706Y33147I-508J0D01*
G01*
X87884Y66929D02*
G03*
X87884Y66929I-508J0D01*
G01*
X96901Y66421D02*
G03*
X96901Y66421I-508J0D01*
G01*
X96520Y49530D02*
G03*
X96520Y49530I-508J0D01*
G01*
X101981Y34417D02*
G03*
X101981Y34417I-508J0D01*
G01*
D110*
X100680Y43625D02*
G03*
X100680Y43625I-305J0D01*
G01*
X100508Y56007D02*
G03*
X100508Y56007I-305J0D01*
G01*
X97333Y51181D02*
G03*
X97333Y51181I-305J0D01*
G01*
X93015Y37592D02*
G03*
X93015Y37592I-305J0D01*
G01*
X62869Y15400D02*
G03*
X62869Y15400I-305J0D01*
G01*
Y23909D02*
G03*
X62869Y23909I-305J0D01*
G01*
Y32037D02*
G03*
X62869Y32037I-305J0D01*
G01*
Y40546D02*
G03*
X62869Y40546I-305J0D01*
G01*
X83316Y41943D02*
G03*
X83316Y41943I-305J0D01*
G01*
Y33434D02*
G03*
X83316Y33434I-305J0D01*
G01*
Y25306D02*
G03*
X83316Y25306I-305J0D01*
G01*
Y16797D02*
G03*
X83316Y16797I-305J0D01*
G01*
X53090Y51214D02*
G03*
X53090Y51214I-305J0D01*
G01*
X82427Y65311D02*
G03*
X82427Y65311I-305J0D01*
G01*
X83951Y64295D02*
G03*
X83951Y64295I-305J0D01*
G01*
X85221Y62644D02*
G03*
X85221Y62644I-305J0D01*
G01*
X86364Y60993D02*
G03*
X86364Y60993I-305J0D01*
G01*
X88523Y47277D02*
G03*
X88523Y47277I-305J0D01*
G01*
X87507Y48928D02*
G03*
X87507Y48928I-305J0D01*
G01*
X103636Y73185D02*
G03*
X103636Y73185I-305J0D01*
G01*
X102747Y54516D02*
G03*
X102747Y54516I-305J0D01*
G01*
X86237Y50833D02*
G03*
X86237Y50833I-305J0D01*
G01*
X84908Y52484D02*
G03*
X84908Y52484I-305J0D01*
G01*
X84078Y54135D02*
G03*
X84078Y54135I-305J0D01*
G01*
X82427Y55405D02*
G03*
X82427Y55405I-305J0D01*
G01*
X94619Y59469D02*
G03*
X94619Y59469I-305J0D01*
G01*
X96270Y58199D02*
G03*
X96270Y58199I-305J0D01*
G01*
X102239Y12987D02*
G03*
X102239Y12987I-305J0D01*
G01*
X101858Y25687D02*
G03*
X101858Y25687I-305J0D01*
G01*
X96397Y56167D02*
G03*
X96397Y56167I-305J0D01*
G01*
X132592Y51214D02*
G03*
X132592Y51214I-305J0D01*
G01*
X131322Y52357D02*
G03*
X131322Y52357I-305J0D01*
G01*
X81792Y87917D02*
G03*
X81792Y87917I-305J0D01*
G01*
X76712Y76995D02*
G03*
X76712Y76995I-305J0D01*
G01*
X79633Y74074D02*
G03*
X79633Y74074I-305J0D01*
G01*
X97540Y60485D02*
G03*
X97540Y60485I-305J0D01*
G01*
X100461D02*
G03*
X100461Y60485I-305J0D01*
G01*
X99318Y59215D02*
G03*
X99318Y59215I-305J0D01*
G01*
X94746Y34704D02*
G03*
X94746Y34704I-305J0D01*
G01*
X103001Y29370D02*
G03*
X103001Y29370I-305J0D01*
G01*
X45597Y31783D02*
G03*
X45597Y31783I-305J0D01*
G01*
X102493Y37625D02*
G03*
X102493Y37625I-305J0D01*
G01*
X52836Y41689D02*
G03*
X52836Y41689I-305J0D01*
G01*
X109224Y46515D02*
G03*
X109224Y46515I-305J0D01*
G01*
Y44102D02*
G03*
X109224Y44102I-305J0D01*
G01*
X85348Y68359D02*
G03*
X85348Y68359I-305J0D01*
G01*
X133100Y53500D02*
G03*
X133100Y53500I-305J0D01*
G01*
X115066Y77122D02*
G03*
X115066Y77122I-305J0D01*
G01*
X122686Y74836D02*
G03*
X122686Y74836I-305J0D01*
G01*
X131322Y28735D02*
G03*
X131322Y28735I-305J0D01*
G01*
X124845Y38006D02*
G03*
X124845Y38006I-305J0D01*
G01*
X127512Y33688D02*
G03*
X127512Y33688I-305J0D01*
G01*
X128815Y38133D02*
G03*
X128815Y38133I-305J0D01*
G01*
X132465Y30767D02*
G03*
X132465Y30767I-305J0D01*
G01*
X133100Y25814D02*
G03*
X133100Y25814I-305J0D01*
G01*
X139196Y35085D02*
G03*
X139196Y35085I-305J0D01*
G01*
X106430Y62390D02*
G03*
X106430Y62390I-305J0D01*
G01*
X123575Y49944D02*
G03*
X123575Y49944I-305J0D01*
G01*
X138434Y50325D02*
G03*
X138434Y50325I-305J0D01*
G01*
X117352Y48039D02*
G03*
X117352Y48039I-305J0D01*
G01*
X118495Y50706D02*
G03*
X118495Y50706I-305J0D01*
G01*
X139958Y65311D02*
G03*
X139958Y65311I-305J0D01*
G01*
X128147Y76360D02*
G03*
X128147Y76360I-305J0D01*
G01*
X123575Y58834D02*
G03*
X123575Y58834I-305J0D01*
G01*
X107065Y41689D02*
G03*
X107065Y41689I-305J0D01*
G01*
X122432Y22766D02*
G03*
X122432Y22766I-305J0D01*
G01*
X124083Y23909D02*
G03*
X124083Y23909I-305J0D01*
G01*
X101223Y45245D02*
G03*
X101223Y45245I-305J0D01*
G01*
X109478Y60612D02*
G03*
X109478Y60612I-305J0D01*
G01*
Y51976D02*
G03*
X109478Y51976I-305J0D01*
G01*
X118368Y52865D02*
G03*
X118368Y52865I-305J0D01*
G01*
X126242Y52357D02*
G03*
X126242Y52357I-305J0D01*
G01*
X82808Y72423D02*
G03*
X82808Y72423I-305J0D01*
G01*
X82427Y81948D02*
G03*
X82427Y81948I-305J0D01*
G01*
X38358Y62009D02*
G03*
X38358Y62009I-305J0D01*
G01*
X14736Y53500D02*
G03*
X14736Y53500I-305J0D01*
G01*
X12831Y62136D02*
G03*
X12831Y62136I-305J0D01*
G01*
X15117Y42451D02*
G03*
X15117Y42451I-305J0D01*
G01*
X101096Y52738D02*
G03*
X101096Y52738I-305J0D01*
G01*
X101731Y49817D02*
G03*
X101731Y49817I-305J0D01*
G01*
X103255Y50833D02*
G03*
X103255Y50833I-305J0D01*
G01*
X103382Y52738D02*
G03*
X103382Y52738I-305J0D01*
G01*
X15291Y72390D02*
G03*
X15291Y72390I-305J0D01*
G01*
X114986Y54356D02*
G03*
X114986Y54356I-305J0D01*
G01*
X89205Y52451D02*
G03*
X89205Y52451I-305J0D01*
G01*
X30658Y23495D02*
G03*
X30658Y23495I-305J0D01*
G01*
X25451Y19177D02*
G03*
X25451Y19177I-305J0D01*
G01*
X97333Y74803D02*
G03*
X97333Y74803I-305J0D01*
G01*
X122352Y81534D02*
G03*
X122352Y81534I-305J0D01*
G01*
X121336Y91313D02*
G03*
X121336Y91313I-305J0D01*
G01*
X128956Y67310D02*
G03*
X128956Y67310I-305J0D01*
G01*
X135433Y73025D02*
G03*
X135433Y73025I-305J0D01*
G01*
X54915Y16129D02*
G03*
X54915Y16129I-305J0D01*
G01*
X80442Y17526D02*
G03*
X80442Y17526I-305J0D01*
G01*
X80569Y25908D02*
G03*
X80569Y25908I-305J0D01*
G01*
Y34544D02*
G03*
X80569Y34544I-305J0D01*
G01*
X48819Y27051D02*
G03*
X48819Y27051I-305J0D01*
G01*
X60503Y33147D02*
G03*
X60503Y33147I-305J0D01*
G01*
X87681Y66929D02*
G03*
X87681Y66929I-305J0D01*
G01*
X96698Y66421D02*
G03*
X96698Y66421I-305J0D01*
G01*
X96317Y49530D02*
G03*
X96317Y49530I-305J0D01*
G01*
X101778Y34417D02*
G03*
X101778Y34417I-305J0D01*
G01*
M02*
