%FSLAX43Y43*%
%MOMM*%
G71*
G01*
G75*
G04 Layer_Color=32768*
%ADD10R,0.600X1.550*%
%ADD11R,1.016X1.270*%
%ADD12O,0.610X2.032*%
%ADD13R,0.610X2.032*%
%ADD14R,4.100X1.520*%
%ADD15R,1.300X0.600*%
%ADD16R,2.200X1.800*%
%ADD17R,1.270X1.016*%
%ADD18O,2.200X0.600*%
%ADD19R,6.096X1.200*%
%ADD20R,1.050X1.400*%
%ADD21O,0.300X1.800*%
%ADD22O,1.800X0.300*%
%ADD23R,0.950X1.400*%
%ADD24R,1.400X0.950*%
%ADD25R,1.550X0.600*%
%ADD26O,0.350X2.100*%
%ADD27R,3.000X2.800*%
%ADD28R,9.000X10.600*%
%ADD29R,2.950X1.050*%
%ADD30C,1.000*%
%ADD31C,0.500*%
%ADD32C,0.300*%
%ADD33C,2.000*%
%ADD34C,0.400*%
%ADD35C,3.000*%
%ADD36C,0.254*%
%ADD37C,0.127*%
%ADD38C,1.900*%
%ADD39C,2.100*%
%ADD40R,1.524X1.524*%
%ADD41C,2.032*%
%ADD42C,1.700*%
%ADD43R,1.500X1.500*%
%ADD44C,1.500*%
%ADD45C,1.500*%
%ADD46R,1.600X1.600*%
%ADD47C,1.600*%
%ADD48R,1.500X1.500*%
%ADD49C,1.524*%
%ADD50C,2.200*%
%ADD51R,1.500X1.500*%
%ADD52C,2.000*%
%ADD53R,2.000X2.000*%
%ADD54C,2.300*%
G04:AMPARAMS|DCode=55|XSize=1.778mm|YSize=2.54mm|CornerRadius=0.445mm|HoleSize=0mm|Usage=FLASHONLY|Rotation=180.000|XOffset=0mm|YOffset=0mm|HoleType=Round|Shape=RoundedRectangle|*
%AMROUNDEDRECTD55*
21,1,1.778,1.651,0,0,180.0*
21,1,0.889,2.540,0,0,180.0*
1,1,0.889,-0.445,0.826*
1,1,0.889,0.445,0.826*
1,1,0.889,0.445,-0.826*
1,1,0.889,-0.445,-0.826*
%
%ADD55ROUNDEDRECTD55*%
%ADD56C,1.000*%
%ADD57C,1.270*%
%ADD58C,0.250*%
%ADD59C,0.200*%
%ADD60C,0.203*%
%ADD61C,0.178*%
%ADD62C,0.600*%
%ADD63C,0.152*%
%ADD64C,0.150*%
%ADD65R,0.965X2.134*%
%ADD66R,0.803X1.753*%
%ADD67R,1.219X1.473*%
%ADD68O,0.813X2.235*%
%ADD69R,0.813X2.235*%
%ADD70R,4.303X1.723*%
%ADD71R,1.503X0.803*%
%ADD72R,2.403X2.003*%
%ADD73R,1.473X1.219*%
%ADD74O,2.403X0.803*%
%ADD75R,6.299X1.403*%
%ADD76R,1.253X1.603*%
%ADD77O,0.503X2.003*%
%ADD78O,2.003X0.503*%
%ADD79R,1.153X1.603*%
%ADD80R,1.603X1.153*%
%ADD81R,1.753X0.803*%
%ADD82O,0.553X2.303*%
%ADD83R,3.203X3.003*%
%ADD84R,9.203X10.803*%
%ADD85R,3.153X1.253*%
%ADD86C,2.103*%
%ADD87C,2.303*%
%ADD88R,1.727X1.727*%
%ADD89C,2.235*%
%ADD90C,1.903*%
%ADD91R,1.703X1.703*%
%ADD92C,1.703*%
%ADD93C,1.703*%
%ADD94R,1.803X1.803*%
%ADD95C,1.803*%
%ADD96R,1.703X1.703*%
%ADD97C,2.403*%
%ADD98R,1.703X1.703*%
%ADD99C,2.203*%
%ADD100R,2.203X2.203*%
%ADD101C,2.503*%
G04:AMPARAMS|DCode=102|XSize=1.981mm|YSize=2.743mm|CornerRadius=0.546mm|HoleSize=0mm|Usage=FLASHONLY|Rotation=180.000|XOffset=0mm|YOffset=0mm|HoleType=Round|Shape=RoundedRectangle|*
%AMROUNDEDRECTD102*
21,1,1.981,1.651,0,0,180.0*
21,1,0.889,2.743,0,0,180.0*
1,1,1.092,-0.445,0.826*
1,1,1.092,0.445,0.826*
1,1,1.092,0.445,-0.826*
1,1,1.092,-0.445,-0.826*
%
%ADD102ROUNDEDRECTD102*%
%ADD103C,1.203*%
%ADD104C,1.473*%
%ADD105C,0.100*%
%ADD106C,0.050*%
D105*
X49899Y89932D02*
G03*
X56179Y89932I3140J4208D01*
G01*
Y98348D02*
G03*
X49899Y98348I-3140J-4208D01*
G01*
X124794Y70780D02*
Y71780D01*
X124294Y71280D02*
X125294D01*
X107268Y78908D02*
Y79908D01*
X106768Y79408D02*
X107768D01*
X67525Y83091D02*
X68525D01*
X68025Y82591D02*
Y83591D01*
X90250Y79162D02*
Y80162D01*
X89750Y79662D02*
X90750D01*
X98759Y54397D02*
Y55397D01*
X98259Y54897D02*
X99259D01*
X132676Y78773D02*
X133676D01*
X133176Y78273D02*
Y79273D01*
X46139Y95790D02*
X46472D01*
X46139Y92490D02*
X46472D01*
X49899Y89932D01*
X59606Y95790D02*
X59939D01*
X59606Y92490D02*
X59939D01*
X56179Y89932D02*
X59606Y92490D01*
X59939D02*
Y95790D01*
X56179Y98348D02*
X59606Y95790D01*
X46472D02*
X49899Y98348D01*
X46139Y92490D02*
Y95790D01*
D106*
X27735Y85631D02*
G03*
X27735Y85631I-350J0D01*
G01*
X91823Y32231D02*
X101123D01*
X91823Y24731D02*
X101123D01*
Y32231D01*
X91823Y24731D02*
Y32231D01*
X96473Y27981D02*
Y28981D01*
X95973Y28481D02*
X96973D01*
X116970Y61507D02*
Y66067D01*
Y61507D02*
X129570D01*
Y66067D01*
X116970D02*
X129570D01*
X92077Y19023D02*
X101377D01*
X92077Y11523D02*
X101377D01*
Y19023D01*
X92077Y11523D02*
Y19023D01*
X96727Y14773D02*
Y15773D01*
X96227Y15273D02*
X97227D01*
X121044Y74030D02*
X128544D01*
X121044Y68530D02*
X128544D01*
X121044D02*
Y74030D01*
X128544Y68530D02*
Y74030D01*
X101918Y74558D02*
X112618D01*
X101918Y84258D02*
X112618D01*
X101918Y74558D02*
Y84258D01*
X112618Y74558D02*
Y84258D01*
X84900Y74812D02*
X95600D01*
X84900Y84512D02*
X95600D01*
X84900Y74812D02*
Y84512D01*
X95600Y74812D02*
Y84512D01*
X97313Y64869D02*
Y66769D01*
X100713D01*
X97313Y64869D02*
X100713D01*
X98713Y65819D02*
X99313D01*
X99013Y65519D02*
Y66119D01*
X100713Y64869D02*
Y66769D01*
X90059Y63597D02*
X107459D01*
X90059Y46197D02*
X107459D01*
X90059D02*
Y63597D01*
X107459Y46197D02*
Y63597D01*
X104650Y64869D02*
Y66769D01*
X101250Y64869D02*
X104650D01*
X101250Y66769D02*
X104650D01*
X102650Y65819D02*
X103250D01*
X102950Y65519D02*
Y66119D01*
X101250Y64869D02*
Y66769D01*
X131172Y32865D02*
Y34765D01*
X134672Y32865D02*
Y34765D01*
X131172D02*
X134672D01*
X131172Y32865D02*
X134672D01*
X132622Y33815D02*
X133222D01*
X132922Y33515D02*
Y34115D01*
X125622Y28001D02*
X127522D01*
X125622Y31501D02*
X127522D01*
X125622Y28001D02*
Y31501D01*
X127522Y28001D02*
Y31501D01*
X126572Y29451D02*
Y30051D01*
X126272Y29751D02*
X126872D01*
X137052Y29144D02*
X138952D01*
X137052Y32644D02*
X138952D01*
X137052Y29144D02*
Y32644D01*
X138952Y29144D02*
Y32644D01*
X138002Y30594D02*
Y31194D01*
X137702Y30894D02*
X138302D01*
X137052Y25461D02*
X138952D01*
X137052Y28961D02*
X138952D01*
X137052Y25461D02*
Y28961D01*
X138952Y25461D02*
Y28961D01*
X138002Y26911D02*
Y27511D01*
X137702Y27211D02*
X138302D01*
X135402Y27382D02*
Y32882D01*
X127902Y27382D02*
Y32882D01*
Y27382D02*
X135402D01*
X127902Y32882D02*
X135402D01*
X131152Y30132D02*
X132152D01*
X131652Y29632D02*
Y30632D01*
X111487Y42898D02*
Y44798D01*
X114987Y42898D02*
Y44798D01*
X111487D02*
X114987D01*
X111487Y42898D02*
X114987D01*
X112937Y43848D02*
X113537D01*
X113237Y43548D02*
Y44148D01*
X111614Y45057D02*
Y46957D01*
X115114Y45057D02*
Y46957D01*
X111614D02*
X115114D01*
X111614Y45057D02*
X115114D01*
X113064Y46007D02*
X113664D01*
X113364Y45707D02*
Y46307D01*
X133035Y11712D02*
X134935D01*
X133035Y15212D02*
X134935D01*
X133035Y11712D02*
Y15212D01*
X134935Y11712D02*
Y15212D01*
X133985Y13162D02*
Y13762D01*
X133685Y13462D02*
X134285D01*
X134940Y15228D02*
X136840D01*
X134940Y11728D02*
X136840D01*
Y15228D01*
X134940Y11728D02*
Y15228D01*
X135890Y13178D02*
Y13778D01*
X135590Y13478D02*
X136190D01*
X127400Y11237D02*
X129300D01*
X127400Y14737D02*
X129300D01*
X127400Y11237D02*
Y14737D01*
X129300Y11237D02*
Y14737D01*
X128350Y12687D02*
Y13287D01*
X128050Y12987D02*
X128650D01*
X125368Y14737D02*
X127268D01*
X125368Y11237D02*
X127268D01*
Y14737D01*
X125368Y11237D02*
Y14737D01*
X126318Y12687D02*
Y13287D01*
X126018Y12987D02*
X126618D01*
X138676Y74023D02*
Y83523D01*
X127676Y74023D02*
Y83523D01*
X138676D01*
X127676Y74023D02*
X138676D01*
X129521Y86967D02*
Y88867D01*
X133021Y86967D02*
Y88867D01*
X129521D02*
X133021D01*
X129521Y86967D02*
X133021D01*
X130971Y87917D02*
X131571D01*
X131271Y87617D02*
Y88217D01*
X124441Y85570D02*
Y87470D01*
X127941Y85570D02*
Y87470D01*
X124441D02*
X127941D01*
X124441Y85570D02*
X127941D01*
X125891Y86520D02*
X126491D01*
X126191Y86220D02*
Y86820D01*
X39753Y80998D02*
Y82898D01*
X36353Y80998D02*
X39753D01*
X36353Y82898D02*
X39753D01*
X37753Y81948D02*
X38353D01*
X38053Y81648D02*
Y82248D01*
X36353Y80998D02*
Y82898D01*
X26885Y85631D02*
X27885D01*
X27385Y85131D02*
Y86131D01*
X35435Y80081D02*
Y91181D01*
X19335Y80081D02*
X35435D01*
X19335D02*
Y91181D01*
X35435D01*
M02*
