%FSLAX43Y43*%
%MOMM*%
G71*
G01*
G75*
%ADD10R,0.600X1.550*%
%ADD11R,1.016X1.270*%
%ADD12O,0.610X2.032*%
%ADD13R,0.610X2.032*%
%ADD14R,4.100X1.520*%
%ADD15R,1.300X0.600*%
%ADD16R,2.200X1.800*%
%ADD17R,1.270X1.016*%
%ADD18O,2.200X0.600*%
%ADD19R,6.096X1.200*%
%ADD20R,1.050X1.400*%
%ADD21O,0.300X1.800*%
%ADD22O,1.800X0.300*%
%ADD23R,0.950X1.400*%
%ADD24R,1.400X0.950*%
%ADD25R,1.550X0.600*%
%ADD26O,0.350X2.100*%
%ADD27R,3.000X2.800*%
%ADD28R,9.000X10.600*%
%ADD29R,2.950X1.050*%
%ADD30C,1.000*%
%ADD31C,0.500*%
%ADD32C,0.300*%
%ADD33C,2.000*%
%ADD34C,0.400*%
%ADD35C,3.000*%
%ADD36C,0.254*%
%ADD37C,0.127*%
%ADD38C,1.900*%
%ADD39C,2.100*%
%ADD40R,1.524X1.524*%
%ADD41C,2.032*%
%ADD42C,1.700*%
%ADD43R,1.500X1.500*%
%ADD44C,1.500*%
%ADD45C,1.500*%
%ADD46R,1.600X1.600*%
%ADD47C,1.600*%
%ADD48R,1.500X1.500*%
%ADD49C,1.524*%
%ADD50C,2.200*%
%ADD51R,1.500X1.500*%
%ADD52C,2.000*%
%ADD53R,2.000X2.000*%
%ADD54C,2.300*%
G04:AMPARAMS|DCode=55|XSize=1.778mm|YSize=2.54mm|CornerRadius=0.445mm|HoleSize=0mm|Usage=FLASHONLY|Rotation=180.000|XOffset=0mm|YOffset=0mm|HoleType=Round|Shape=RoundedRectangle|*
%AMROUNDEDRECTD55*
21,1,1.778,1.651,0,0,180.0*
21,1,0.889,2.540,0,0,180.0*
1,1,0.889,-0.445,0.826*
1,1,0.889,0.445,0.826*
1,1,0.889,0.445,-0.826*
1,1,0.889,-0.445,-0.826*
%
%ADD55ROUNDEDRECTD55*%
%ADD56C,1.000*%
%ADD57C,1.270*%
D10*
X100283Y31181D02*
D03*
X99013D02*
D03*
X97743D02*
D03*
X96473D02*
D03*
X95203D02*
D03*
X93933D02*
D03*
X92663D02*
D03*
X100283Y25781D02*
D03*
X99013D02*
D03*
X97743D02*
D03*
X96473D02*
D03*
X95203D02*
D03*
X93933D02*
D03*
X92663D02*
D03*
X100537Y17973D02*
D03*
X99267D02*
D03*
X97997D02*
D03*
X96727D02*
D03*
X95457D02*
D03*
X94187D02*
D03*
X92917D02*
D03*
X100537Y12573D02*
D03*
X99267D02*
D03*
X97997D02*
D03*
X96727D02*
D03*
X95457D02*
D03*
X94187D02*
D03*
X92917D02*
D03*
D11*
X116539Y87917D02*
D03*
X114507D02*
D03*
X115396Y73312D02*
D03*
X113364D02*
D03*
X117428D02*
D03*
X119460D02*
D03*
X95076Y44737D02*
D03*
X93044D02*
D03*
X121492Y48166D02*
D03*
X119460D02*
D03*
X123778D02*
D03*
X125810D02*
D03*
X103585Y44610D02*
D03*
X105617D02*
D03*
X83900Y14511D02*
D03*
X85932D02*
D03*
X83900Y31529D02*
D03*
X85932D02*
D03*
X101553Y20480D02*
D03*
X99521D02*
D03*
X83900Y11336D02*
D03*
X85932D02*
D03*
X83900Y28354D02*
D03*
X85932D02*
D03*
X83900Y23020D02*
D03*
X85932D02*
D03*
X83900Y40292D02*
D03*
X85932D02*
D03*
X99013Y22385D02*
D03*
X96981D02*
D03*
X83900Y19972D02*
D03*
X85932D02*
D03*
X83900Y37117D02*
D03*
X85932D02*
D03*
X63453Y29878D02*
D03*
X65485D02*
D03*
X63500Y26797D02*
D03*
X65532D02*
D03*
X63453Y38514D02*
D03*
X65485D02*
D03*
X63373Y35306D02*
D03*
X65405D02*
D03*
X63453Y13114D02*
D03*
X65485D02*
D03*
X63453Y9939D02*
D03*
X65485D02*
D03*
X63453Y21496D02*
D03*
X65485D02*
D03*
X63453Y18321D02*
D03*
X65485D02*
D03*
X33227Y48039D02*
D03*
X35259D02*
D03*
X33227Y61247D02*
D03*
X35259D02*
D03*
X21035Y74328D02*
D03*
X23067D02*
D03*
X21035Y61247D02*
D03*
X23067D02*
D03*
X20908Y48166D02*
D03*
X22940D02*
D03*
X7954Y74328D02*
D03*
X9986D02*
D03*
X7954Y48293D02*
D03*
X9986D02*
D03*
X7700Y61247D02*
D03*
X9732D02*
D03*
X79328Y75725D02*
D03*
X77296D02*
D03*
X79328Y83980D02*
D03*
X81360D02*
D03*
X108157Y85885D02*
D03*
X106125D02*
D03*
X91266Y85758D02*
D03*
X89234D02*
D03*
X119460Y58834D02*
D03*
X121492D02*
D03*
X112348Y50198D02*
D03*
X114380D02*
D03*
X112348Y48039D02*
D03*
X114380D02*
D03*
D12*
X115777Y75979D02*
D03*
Y81567D02*
D03*
X118317Y75979D02*
D03*
X119587D02*
D03*
X118317Y81567D02*
D03*
X117047D02*
D03*
Y75979D02*
D03*
D13*
X119587Y81567D02*
D03*
D14*
X127270Y62627D02*
D03*
Y64947D02*
D03*
X119270D02*
D03*
Y62627D02*
D03*
D15*
X128884Y56226D02*
D03*
Y55226D02*
D03*
Y54226D02*
D03*
Y53226D02*
D03*
Y52226D02*
D03*
Y51226D02*
D03*
Y50226D02*
D03*
Y49226D02*
D03*
Y48226D02*
D03*
Y47226D02*
D03*
D16*
X132134Y59126D02*
D03*
Y44826D02*
D03*
D17*
X87710Y54262D02*
D03*
Y56294D02*
D03*
X112475Y54389D02*
D03*
Y52357D02*
D03*
X109173Y64168D02*
D03*
Y62136D02*
D03*
X118190Y69502D02*
D03*
Y67470D02*
D03*
X132922Y67216D02*
D03*
Y69248D02*
D03*
X93425Y23020D02*
D03*
Y20988D02*
D03*
X90885Y14638D02*
D03*
Y12606D02*
D03*
X90758Y27846D02*
D03*
Y25814D02*
D03*
X92790Y35593D02*
D03*
Y33561D02*
D03*
X99775Y35593D02*
D03*
Y33561D02*
D03*
X96473Y35593D02*
D03*
Y33561D02*
D03*
X79328Y77630D02*
D03*
Y79662D02*
D03*
Y86012D02*
D03*
Y88044D02*
D03*
X100664Y78519D02*
D03*
Y80551D02*
D03*
X104220Y85885D02*
D03*
Y87917D02*
D03*
X110062Y85885D02*
D03*
Y87917D02*
D03*
X112221D02*
D03*
Y85885D02*
D03*
X102188D02*
D03*
Y87917D02*
D03*
X83773Y78773D02*
D03*
Y80805D02*
D03*
X95584Y87917D02*
D03*
Y85885D02*
D03*
X93425D02*
D03*
Y87917D02*
D03*
X86313Y85758D02*
D03*
Y87790D02*
D03*
X84027Y85758D02*
D03*
Y87790D02*
D03*
X126445Y79789D02*
D03*
Y77757D02*
D03*
D18*
X122394Y73185D02*
D03*
Y71915D02*
D03*
Y70645D02*
D03*
Y69375D02*
D03*
X127194Y73185D02*
D03*
Y71915D02*
D03*
Y70645D02*
D03*
Y69375D02*
D03*
D19*
X105617Y69629D02*
D03*
X95711D02*
D03*
D20*
X99913Y65819D02*
D03*
X98113D02*
D03*
X102050D02*
D03*
X103850D02*
D03*
X37153Y81948D02*
D03*
X38953D02*
D03*
D21*
X104759Y47347D02*
D03*
X104259D02*
D03*
X103759D02*
D03*
X103259D02*
D03*
X102759D02*
D03*
X102259D02*
D03*
X101759D02*
D03*
X101259D02*
D03*
X100759D02*
D03*
X100259D02*
D03*
X99759D02*
D03*
X99259D02*
D03*
X98759D02*
D03*
X98259D02*
D03*
X97759D02*
D03*
X97259D02*
D03*
X96759D02*
D03*
X96259D02*
D03*
X95759D02*
D03*
X95259D02*
D03*
X94759D02*
D03*
X94259D02*
D03*
X93759D02*
D03*
X93259D02*
D03*
X92759D02*
D03*
Y62447D02*
D03*
X93259D02*
D03*
X93759D02*
D03*
X94259D02*
D03*
X94759D02*
D03*
X95259D02*
D03*
X95759D02*
D03*
X96259D02*
D03*
X96759D02*
D03*
X97259D02*
D03*
X97759D02*
D03*
X98259D02*
D03*
X98759D02*
D03*
X99259D02*
D03*
X99759D02*
D03*
X100259D02*
D03*
X100759D02*
D03*
X101259D02*
D03*
X101759D02*
D03*
X102259D02*
D03*
X102759D02*
D03*
X103259D02*
D03*
X103759D02*
D03*
X104259D02*
D03*
X104759D02*
D03*
D22*
X91209Y48897D02*
D03*
Y49397D02*
D03*
Y49897D02*
D03*
Y50397D02*
D03*
Y50897D02*
D03*
Y51397D02*
D03*
Y51897D02*
D03*
Y52397D02*
D03*
Y52897D02*
D03*
Y53397D02*
D03*
Y53897D02*
D03*
Y54397D02*
D03*
Y54897D02*
D03*
Y55397D02*
D03*
Y55897D02*
D03*
Y56397D02*
D03*
Y56897D02*
D03*
Y57397D02*
D03*
Y57897D02*
D03*
Y58397D02*
D03*
Y58897D02*
D03*
Y59397D02*
D03*
Y59897D02*
D03*
Y60397D02*
D03*
Y60897D02*
D03*
X106309D02*
D03*
Y60397D02*
D03*
Y59897D02*
D03*
Y59397D02*
D03*
Y58897D02*
D03*
Y58397D02*
D03*
Y57897D02*
D03*
Y57397D02*
D03*
Y56897D02*
D03*
Y56397D02*
D03*
Y55897D02*
D03*
Y55397D02*
D03*
Y54897D02*
D03*
Y54397D02*
D03*
Y53897D02*
D03*
Y53397D02*
D03*
Y52897D02*
D03*
Y52397D02*
D03*
Y51897D02*
D03*
Y51397D02*
D03*
Y50897D02*
D03*
Y50397D02*
D03*
Y49897D02*
D03*
Y49397D02*
D03*
Y48897D02*
D03*
D23*
X131922Y33815D02*
D03*
X133922D02*
D03*
X112237Y43848D02*
D03*
X114237D02*
D03*
X112364Y46007D02*
D03*
X114364D02*
D03*
X130271Y87917D02*
D03*
X132271D02*
D03*
X125191Y86520D02*
D03*
X127191D02*
D03*
D24*
X126572Y28751D02*
D03*
Y30751D02*
D03*
X138002Y29894D02*
D03*
Y31894D02*
D03*
Y26211D02*
D03*
Y28211D02*
D03*
X133985Y12462D02*
D03*
Y14462D02*
D03*
X135890Y14478D02*
D03*
Y12478D02*
D03*
X128350Y11987D02*
D03*
Y13987D02*
D03*
X126318D02*
D03*
Y11987D02*
D03*
D25*
X134352Y28227D02*
D03*
Y29497D02*
D03*
Y30767D02*
D03*
Y32037D02*
D03*
X128952Y28227D02*
D03*
Y29497D02*
D03*
Y30767D02*
D03*
Y32037D02*
D03*
D26*
X137401Y82223D02*
D03*
X136751D02*
D03*
X136101D02*
D03*
X135451D02*
D03*
X134801D02*
D03*
X134151D02*
D03*
X133501D02*
D03*
X132851D02*
D03*
X132201D02*
D03*
X131551D02*
D03*
X130901D02*
D03*
X130251D02*
D03*
X129601D02*
D03*
X128951D02*
D03*
X137401Y75323D02*
D03*
X136751D02*
D03*
X136101D02*
D03*
X135451D02*
D03*
X134801D02*
D03*
X134151D02*
D03*
X133501D02*
D03*
X132851D02*
D03*
X132201D02*
D03*
X131551D02*
D03*
X130901D02*
D03*
X130251D02*
D03*
X129601D02*
D03*
X128951D02*
D03*
D27*
X58189Y94140D02*
D03*
X47889D02*
D03*
D28*
X24135Y85631D02*
D03*
D29*
X33685Y89031D02*
D03*
Y87331D02*
D03*
Y85631D02*
D03*
Y83931D02*
D03*
Y82231D02*
D03*
D38*
X113745Y57056D02*
D03*
Y59596D02*
D03*
Y62136D02*
D03*
Y64676D02*
D03*
Y67216D02*
D03*
Y69756D02*
D03*
X70819Y6637D02*
D03*
X74629D02*
D03*
X78439D02*
D03*
X82249D02*
D03*
X86059D02*
D03*
X49864D02*
D03*
X53674D02*
D03*
X57484D02*
D03*
X61294D02*
D03*
X65104D02*
D03*
X28909D02*
D03*
X32719D02*
D03*
X36529D02*
D03*
X40339D02*
D03*
X44149D02*
D03*
X7954D02*
D03*
X11764D02*
D03*
X15574D02*
D03*
X19384D02*
D03*
X23194D02*
D03*
D39*
X130890Y8669D02*
D03*
X135970D02*
D03*
X118190D02*
D03*
X123270D02*
D03*
X125175Y91346D02*
D03*
X135335D02*
D03*
X130255D02*
D03*
X111840D02*
D03*
X116920D02*
D03*
X106760D02*
D03*
X101680D02*
D03*
X92663D02*
D03*
X87583D02*
D03*
X69168D02*
D03*
X79328D02*
D03*
X74248D02*
D03*
X14685D02*
D03*
X9605D02*
D03*
X105490Y8669D02*
D03*
X110570D02*
D03*
X92790D02*
D03*
X97870D02*
D03*
D40*
X67390Y32291D02*
D03*
Y15527D02*
D03*
Y42578D02*
D03*
Y33815D02*
D03*
Y25433D02*
D03*
Y17051D02*
D03*
Y40927D02*
D03*
Y23909D02*
D03*
D41*
X57230Y32291D02*
D03*
Y15527D02*
D03*
X77550Y42578D02*
D03*
Y33815D02*
D03*
Y25433D02*
D03*
Y17051D02*
D03*
X57230Y40927D02*
D03*
Y23909D02*
D03*
D42*
X48467Y11209D02*
D03*
Y34069D02*
D03*
X42625Y11209D02*
D03*
Y34069D02*
D03*
X36910Y11209D02*
D03*
Y34069D02*
D03*
X31068Y11209D02*
D03*
Y34069D02*
D03*
X25226Y11209D02*
D03*
Y34069D02*
D03*
X19511Y11209D02*
D03*
Y34069D02*
D03*
X13669Y11209D02*
D03*
Y34069D02*
D03*
X7827Y11209D02*
D03*
Y34069D02*
D03*
D43*
X18241Y38387D02*
D03*
X5033D02*
D03*
X30433D02*
D03*
Y51468D02*
D03*
X18241D02*
D03*
X4906D02*
D03*
X18241Y64676D02*
D03*
X4906D02*
D03*
X56595Y51341D02*
D03*
X68787D02*
D03*
X68914Y63406D02*
D03*
X56468Y63279D02*
D03*
X30560Y64676D02*
D03*
X42625Y38387D02*
D03*
Y64803D02*
D03*
X42752Y51595D02*
D03*
D44*
X20781Y38387D02*
D03*
X23321D02*
D03*
X25861D02*
D03*
X18241Y46007D02*
D03*
X20781D02*
D03*
X23321D02*
D03*
X7573Y38387D02*
D03*
X10113D02*
D03*
X12653D02*
D03*
X5033Y46007D02*
D03*
X7573D02*
D03*
X10113D02*
D03*
X32973Y38387D02*
D03*
X35513D02*
D03*
X38053D02*
D03*
X30433Y46007D02*
D03*
X32973D02*
D03*
X35513D02*
D03*
X32973Y51468D02*
D03*
X35513D02*
D03*
X38053D02*
D03*
X30433Y59088D02*
D03*
X32973D02*
D03*
X35513D02*
D03*
X20781Y51468D02*
D03*
X23321D02*
D03*
X25861D02*
D03*
X18241Y59088D02*
D03*
X20781D02*
D03*
X23321D02*
D03*
X7446Y51468D02*
D03*
X9986D02*
D03*
X12526D02*
D03*
X4906Y59088D02*
D03*
X7446D02*
D03*
X9986D02*
D03*
X20781Y64676D02*
D03*
X23321D02*
D03*
X25861D02*
D03*
X18241Y72296D02*
D03*
X20781D02*
D03*
X23321D02*
D03*
X7446Y64676D02*
D03*
X9986D02*
D03*
X12526D02*
D03*
X4906Y72296D02*
D03*
X7446D02*
D03*
X9986D02*
D03*
X59135Y51341D02*
D03*
X61675D02*
D03*
X64215D02*
D03*
X56595Y58961D02*
D03*
X59135D02*
D03*
X61675D02*
D03*
X71327Y51341D02*
D03*
X73867D02*
D03*
X76407D02*
D03*
X68787Y58961D02*
D03*
X71327D02*
D03*
X73867D02*
D03*
X71454Y63406D02*
D03*
X73994D02*
D03*
X76534D02*
D03*
X68914Y71026D02*
D03*
X71454D02*
D03*
X73994D02*
D03*
X59008Y63279D02*
D03*
X61548D02*
D03*
X64088D02*
D03*
X56468Y70899D02*
D03*
X59008D02*
D03*
X61548D02*
D03*
X33100Y64676D02*
D03*
X35640D02*
D03*
X38180D02*
D03*
X30560Y72296D02*
D03*
X33100D02*
D03*
X35640D02*
D03*
X45165Y38387D02*
D03*
X47705D02*
D03*
X50245D02*
D03*
X42625Y46007D02*
D03*
X45165D02*
D03*
X47705D02*
D03*
X45165Y64803D02*
D03*
X47705D02*
D03*
X50245D02*
D03*
X42625Y72423D02*
D03*
X45165D02*
D03*
X47705D02*
D03*
X45292Y51595D02*
D03*
X47832D02*
D03*
X50372D02*
D03*
X42752Y59215D02*
D03*
X45292D02*
D03*
X47832D02*
D03*
D45*
X25861Y46007D02*
D03*
X12653D02*
D03*
X38053D02*
D03*
Y59088D02*
D03*
X25861D02*
D03*
X12526D02*
D03*
X25861Y72296D02*
D03*
X12526D02*
D03*
X64215Y58961D02*
D03*
X76407D02*
D03*
X76534Y71026D02*
D03*
X64088Y70899D02*
D03*
X14645Y82202D02*
D03*
X105998Y75598D02*
D03*
X108538D02*
D03*
X111078D02*
D03*
X103458Y83218D02*
D03*
X105998D02*
D03*
X108538D02*
D03*
X111078D02*
D03*
X76915Y86901D02*
D03*
X74375D02*
D03*
X71835D02*
D03*
X69295D02*
D03*
X66755D02*
D03*
X64215D02*
D03*
X61675D02*
D03*
X59135D02*
D03*
X76915Y79281D02*
D03*
X74375D02*
D03*
X71835D02*
D03*
X69295D02*
D03*
X66755D02*
D03*
X64215D02*
D03*
X61675D02*
D03*
X88980Y75852D02*
D03*
X91520D02*
D03*
X94060D02*
D03*
X86440Y83472D02*
D03*
X88980D02*
D03*
X91520D02*
D03*
X94060D02*
D03*
X59135Y75344D02*
D03*
X74121D02*
D03*
X64088D02*
D03*
X69168D02*
D03*
X123397Y43467D02*
D03*
X118063Y41308D02*
D03*
X38180Y72296D02*
D03*
X50245Y46007D02*
D03*
Y72423D02*
D03*
X50372Y59215D02*
D03*
D46*
X50078Y83345D02*
D03*
D47*
X45078D02*
D03*
D48*
X9645Y82202D02*
D03*
X56595Y75344D02*
D03*
X71581D02*
D03*
X61548D02*
D03*
X66628D02*
D03*
D49*
X63119Y97000D02*
D03*
X142000D02*
D03*
X3000D02*
D03*
X142000Y3000D02*
D03*
X3000D02*
D03*
D50*
X114222Y17385D02*
D03*
Y37885D02*
D03*
D51*
X103458Y75598D02*
D03*
X59135Y79281D02*
D03*
X86440Y75852D02*
D03*
X123397Y46007D02*
D03*
X118063Y43848D02*
D03*
D52*
X134700Y40800D02*
D03*
X132160D02*
D03*
D53*
X129620D02*
D03*
D54*
X21670Y95283D02*
D03*
X41990D02*
D03*
D55*
X77550Y39530D02*
D03*
X75010D02*
D03*
X80090D02*
D03*
X77550Y30767D02*
D03*
X75010D02*
D03*
X80090D02*
D03*
X77550Y22258D02*
D03*
X75010D02*
D03*
X80090D02*
D03*
X77550Y13749D02*
D03*
X75010D02*
D03*
X80090D02*
D03*
X57230Y37752D02*
D03*
X54690D02*
D03*
X59770D02*
D03*
X57230Y29243D02*
D03*
X54690D02*
D03*
X59770D02*
D03*
X57230Y20734D02*
D03*
X54690D02*
D03*
X59770D02*
D03*
X57230Y12479D02*
D03*
X54690D02*
D03*
X59770D02*
D03*
M02*
